<?xml version="1.0" encoding="UTF-8"?>
<!DOCTYPE svg PUBLIC "-//W3C//DTD SVG 1.1//EN" "http://www.w3.org/Graphics/SVG/1.1/DTD/svg11.dtd">
<!-- Creator: CorelDRAW X6 -->
<svg xmlns="http://www.w3.org/2000/svg" xml:space="preserve" width="86mm" height="64mm" version="1.1" style="shape-rendering:geometricPrecision; text-rendering:geometricPrecision; image-rendering:optimizeQuality; fill-rule:evenodd; clip-rule:evenodd"
viewBox="0 0 8600 6400"
 xmlns:xlink="http://www.w3.org/1999/xlink">
 <defs>
  <style type="text/css">
   <![CDATA[
    .str0 {stroke:black;stroke-width:20;stroke-linejoin:bevel}
    .str2 {stroke:#2B2A29;stroke-width:34.99;stroke-linecap:round;stroke-linejoin:round}
    .str1 {stroke:black;stroke-width:50;stroke-linejoin:bevel}
    .fil0 {fill:none}
    .fil2 {fill:#2B2A29;fill-rule:nonzero}
    .fil1 {fill:black;fill-rule:nonzero}
   ]]>
  </style>
 </defs>
 <g id="OPCB-221_x0020_Для_x0020_паспорта">
  <metadata id="CorelCorpID_0Corel-Layer"/>
  <line class="fil0 str0" x1="1190" y1="4817" x2="1190" y2= "2027" />
  <line class="fil0 str0" x1="7410" y1="4817" x2="7410" y2= "2027" />
  <path class="fil0 str0" d="M6430 4162c0,-58 -47,-105 -105,-105 -58,0 -105,47 -105,105 0,58 47,105 105,105 58,0 105,-47 105,-105z"/>
  <path class="fil0 str0" d="M2670 4162c0,-58 -47,-105 -105,-105 -58,0 -105,47 -105,105 0,58 47,105 105,105 58,0 105,-47 105,-105z"/>
  <path class="fil0 str0" d="M2340 4162c0,-58 -47,-105 -105,-105 -58,0 -105,47 -105,105 0,58 47,105 105,105 58,0 105,-47 105,-105z"/>
  <path class="fil0 str0" d="M6100 4162c0,-58 -47,-105 -105,-105 -58,0 -105,47 -105,105 0,58 47,105 105,105 58,0 105,-47 105,-105z"/>
  <line class="fil0 str0" x1="4146" y1="4597" x2="3810" y2= "4597" />
  <line class="fil0 str0" x1="3810" y1="4337" x2="4146" y2= "4337" />
  <path class="fil0 str0" d="M3810 4337c-46,0 -89,25 -113,65 -23,40 -23,90 0,130 23,40 66,65 113,65"/>
  <line class="fil0 str0" x1="4910" y1="4597" x2="4574" y2= "4597" />
  <path class="fil0 str0" d="M4910 4597c72,0 130,-58 130,-130 0,-72 -58,-130 -130,-130"/>
  <line class="fil0 str0" x1="4574" y1="4337" x2="4910" y2= "4337" />
  <path class="fil0 str0" d="M4574 4337c-45,-75 -126,-120 -214,-120 -87,0 -168,45 -214,120"/>
  <path class="fil0 str0" d="M4146 4597c45,75 126,120 214,120 87,0 168,-45 214,-120"/>
  <path class="fil0 str1" d="M7345 5117c138,0 250,-112 250,-250"/>
  <line class="fil0 str1" x1="7595" y1="4867" x2="7595" y2= "2747" />
  <line class="fil0 str1" x1="7595" y1="2747" x2="7415" y2= "2117" />
  <line class="fil0 str1" x1="1185" y1="2117" x2="1005" y2= "2747" />
  <line class="fil0 str1" x1="1005" y1="2747" x2="1005" y2= "4867" />
  <path class="fil0 str1" d="M1005 4867c0,66 26,130 73,177 47,47 110,73 177,73"/>
  <path class="fil0 str0" d="M7415 1929c0,-45 -53,-88 -146,-120 -94,-32 -221,-50 -354,-50"/>
  <line class="fil0 str1" x1="7415" y1="1929" x2="7415" y2= "1807" />
  <path class="fil0 str1" d="M7415 1807c0,-45 -53,-88 -146,-120 -94,-32 -221,-50 -354,-50"/>
  <path class="fil0 str1" d="M1685 1637c-133,0 -260,18 -354,50 -94,32 -146,75 -146,120"/>
  <line class="fil0 str1" x1="1185" y1="1807" x2="1185" y2= "1929" />
  <path class="fil0 str0" d="M1685 1759c-133,0 -260,18 -354,50 -94,32 -146,75 -146,120"/>
  <line class="fil0 str1" x1="6915" y1="1637" x2="1685" y2= "1637" />
  <line class="fil0 str0" x1="6915" y1="1759" x2="1685" y2= "1759" />
  <line class="fil0 str1" x1="1185" y1="2117" x2="1185" y2= "2047" />
  <line class="fil0 str1" x1="1185" y1="2021" x2="1185" y2= "2047" />
  <line class="fil0 str1" x1="1185" y1="2021" x2="1185" y2= "1929" />
  <line class="fil0 str1" x1="1190" y1="2047" x2="1185" y2= "2047" />
  <line class="fil0 str1" x1="7415" y1="2047" x2="7410" y2= "2047" />
  <line class="fil0 str1" x1="7415" y1="2047" x2="7415" y2= "2117" />
  <line class="fil0 str1" x1="7415" y1="1929" x2="7415" y2= "2021" />
  <line class="fil0 str1" x1="7415" y1="2047" x2="7415" y2= "2021" />
  <line class="fil0 str0" x1="7410" y1="2027" x2="1190" y2= "2027" />
  <line class="fil0 str1" x1="2375" y1="5117" x2="6225" y2= "5117" />
  <path class="fil0 str0" d="M7110 5117c166,0 300,-134 300,-300"/>
  <path class="fil0 str0" d="M1190 4817c0,80 32,156 88,212 56,56 133,88 212,88"/>
  <line class="fil0 str1" x1="6225" y1="5117" x2="6225" y2= "5247" />
  <line class="fil0 str1" x1="6225" y1="5247" x2="6425" y2= "5247" />
  <line class="fil0 str0" x1="6225" y1="5117" x2="7355" y2= "5117" />
  <line class="fil0 str1" x1="8285" y1="5247" x2="6425" y2= "5247" />
  <line class="fil0 str1" x1="8485" y1="5117" x2="7355" y2= "5117" />
  <line class="fil0 str1" x1="8285" y1="5247" x2="8485" y2= "5247" />
  <line class="fil0 str1" x1="8485" y1="5117" x2="8485" y2= "5247" />
  <line class="fil0 str1" x1="115" y1="5117" x2="115" y2= "5247" />
  <line class="fil0 str1" x1="1245" y1="5117" x2="115" y2= "5117" />
  <line class="fil0 str1" x1="115" y1="5247" x2="315" y2= "5247" />
  <line class="fil0 str0" x1="1245" y1="5117" x2="2375" y2= "5117" />
  <line class="fil0 str1" x1="2175" y1="5247" x2="315" y2= "5247" />
  <line class="fil0 str1" x1="2175" y1="5247" x2="2375" y2= "5247" />
  <line class="fil0 str1" x1="2375" y1="5117" x2="2375" y2= "5247" />
 </g>
 <g id="Выноски_x0020_линии">
  <metadata id="CorelCorpID_1Corel-Layer"/>
  <polyline class="fil0 str2" points="4781,4337 5414,653 6082,653 "/>
 </g>
 <g id="Выноски_x0020_текст">
  <metadata id="CorelCorpID_2Corel-Layer"/>
  <path class="fil1" d="M5720 396c36,0 59,-17 68,-52l9 -35c2,-7 3,-13 3,-19 0,-22 -14,-33 -43,-33l-54 0 -23 86c-1,5 -2,9 -2,13 0,12 4,21 12,28 8,7 18,11 30,11zm-9 35c-25,0 -44,-13 -59,-38 -6,-11 -9,-23 -9,-34 0,-5 1,-9 2,-14l28 -105c10,-39 28,-71 52,-97 27,-29 63,-49 106,-59 1,0 3,0 4,0 12,0 17,6 17,17 0,10 -4,15 -12,16 -19,3 -39,10 -58,22 -35,21 -58,49 -68,83l52 0c20,0 36,6 50,19 13,13 20,29 20,49 0,7 -1,13 -2,19l-9 35c-11,40 -31,66 -59,78 -14,6 -32,9 -54,9z"/>
 </g>
 <g id="Слой_x0020_2">
  <metadata id="CorelCorpID_3Corel-Layer"/>
  <polygon class="fil2" points="4010,3807 4010,4077 4060,4077 4060,3862 4060,3862 4108,4077 4151,4077 4199,3862 4199,3862 4199,4077 4249,4077 4249,3807 4169,3807 4130,3998 4129,3998 4091,3807 "/>
  <polygon id="1" class="fil2" points="4439,3807 4288,3807 4288,4077 4442,4077 4442,4032 4342,4032 4342,3960 4433,3960 4433,3915 4342,3915 4342,3852 4439,3852 "/>
  <polygon id="2" class="fil2" points="4471,3807 4471,4077 4521,4077 4521,3862 4521,3862 4569,4077 4612,4077 4660,3862 4660,3862 4660,4077 4710,4077 4710,3807 4630,3807 4591,3998 4590,3998 4552,3807 "/>
 </g>
</svg>
