<?xml version="1.0" encoding="UTF-8"?>
<!DOCTYPE svg PUBLIC "-//W3C//DTD SVG 1.1//EN" "http://www.w3.org/Graphics/SVG/1.1/DTD/svg11.dtd">
<!-- Creator: CorelDRAW X6 -->
<svg xmlns="http://www.w3.org/2000/svg" xml:space="preserve" width="106mm" height="64mm" version="1.1" style="shape-rendering:geometricPrecision; text-rendering:geometricPrecision; image-rendering:optimizeQuality; fill-rule:evenodd; clip-rule:evenodd"
viewBox="0 0 10600 6400"
 xmlns:xlink="http://www.w3.org/1999/xlink">
 <defs>
  <style type="text/css">
   <![CDATA[
    .str0 {stroke:black;stroke-width:20;stroke-linejoin:bevel}
    .str2 {stroke:#2B2A29;stroke-width:34.99;stroke-linecap:round;stroke-linejoin:round}
    .str3 {stroke:black;stroke-width:34.99;stroke-linejoin:bevel}
    .str1 {stroke:black;stroke-width:50;stroke-linejoin:bevel}
    .fil0 {fill:none}
    .fil2 {fill:#2B2A29}
    .fil3 {fill:black}
    .fil4 {fill:#2B2A29;fill-rule:nonzero}
    .fil1 {fill:black;fill-rule:nonzero}
   ]]>
  </style>
 </defs>
 <g id="OPCB-221_x0020_Для_x0020_паспорта">
  <metadata id="CorelCorpID_0Corel-Layer"/>
  <g id="_836100432">
   <path class="fil0 str0" d="M2688 3807c-82,0 -158,44 -199,115 -41,71 -41,159 0,230 41,71 117,115 199,115"/>
   <line class="fil0 str0" x1="3268" y1="4267" x2="2688" y2= "4267" />
   <path class="fil0 str0" d="M3268 4267c127,0 230,-103 230,-230 0,-127 -103,-230 -230,-230"/>
   <line class="fil0 str0" x1="2688" y1="3807" x2="3268" y2= "3807" />
   <path class="fil0 str0" d="M7508 3922c0,-202 -163,-365 -365,-365 -202,0 -365,163 -365,365 0,202 163,365 365,365 202,0 365,-163 365,-365z"/>
   <path class="fil0 str0" d="M4268 3527c-13,0 -26,5 -35,15 -9,9 -15,22 -15,35"/>
   <line class="fil0 str0" x1="4218" y1="3906" x2="4218" y2= "3577" />
   <path class="fil0 str0" d="M4218 3906c0,13 5,26 15,35"/>
   <line class="fil0 str0" x1="4463" y1="4172" x2="4232" y2= "3942" />
   <path class="fil0 str0" d="M4463 4172c9,9 22,15 35,15"/>
   <line class="fil0 str0" x1="5557" y1="4187" x2="4498" y2= "4187" />
   <path class="fil0 str0" d="M5557 4187c13,0 26,-5 35,-15"/>
   <line class="fil0 str0" x1="5823" y1="3942" x2="5592" y2= "4172" />
   <path class="fil0 str0" d="M5823 3942c9,-9 15,-22 15,-35"/>
   <line class="fil0 str0" x1="5838" y1="3577" x2="5838" y2= "3906" />
   <path class="fil0 str0" d="M5838 3577c0,-13 -5,-26 -15,-35 -9,-9 -22,-15 -35,-15"/>
   <line class="fil0 str0" x1="4268" y1="3527" x2="5788" y2= "3527" />
   <line class="fil0 str0" x1="10378" y1="4867" x2="10378" y2= "5117" />
   <line class="fil0 str0" x1="10378" y1="4867" x2="10378" y2= "2747" />
   <line class="fil0 str0" x1="10378" y1="2747" x2="10378" y2= "2117" />
   <line class="fil0 str1" x1="10508" y1="5117" x2="10508" y2= "4867" />
   <line class="fil0 str1" x1="10508" y1="5117" x2="10378" y2= "5117" />
   <line class="fil0 str1" x1="10508" y1="2117" x2="10508" y2= "2747" />
   <line class="fil0 str0" x1="10508" y1="2747" x2="10378" y2= "2747" />
   <line class="fil0 str1" x1="10508" y1="2747" x2="10508" y2= "4867" />
   <line class="fil0 str1" x1="10308" y1="1917" x2="1688" y2= "1917" />
   <line class="fil0 str1" x1="1585" y1="1899" x2="1332" y2= "1807" />
   <line class="fil0 str0" x1="1688" y1="2047" x2="10308" y2= "2047" />
   <path class="fil0 str0" d="M10378 2117c0,-19 -7,-36 -21,-50 -13,-13 -31,-20 -50,-20"/>
   <line class="fil0 str1" x1="1288" y1="1929" x2="1541" y2= "2021" />
   <path class="fil0 str0" d="M1541 2021c47,17 97,26 146,26"/>
   <line class="fil0 str0" x1="10508" y1="2117" x2="10378" y2= "2117" />
   <path class="fil0 str1" d="M10508 2117c0,-53 -21,-104 -59,-141 -38,-38 -88,-59 -141,-59"/>
   <path class="fil0 str1" d="M1585 1899c33,12 67,18 102,18"/>
   <line class="fil0 str1" x1="1288" y1="1929" x2="818" y2= "1759" />
   <line class="fil0 str1" x1="862" y1="1637" x2="1332" y2= "1807" />
   <line class="fil0 str1" x1="1558" y1="4817" x2="1558" y2= "2027" />
   <path class="fil0 str1" d="M1558 4817c0,80 32,156 88,212 56,56 133,88 212,88"/>
   <line class="fil0 str0" x1="8998" y1="5117" x2="10178" y2= "5117" />
   <line class="fil0 str0" x1="8998" y1="5117" x2="8998" y2= "5247" />
   <line class="fil0 str1" x1="10178" y1="5247" x2="8998" y2= "5247" />
   <line class="fil0 str0" x1="10378" y1="5117" x2="10178" y2= "5117" />
   <line class="fil0 str1" x1="10178" y1="5247" x2="10378" y2= "5247" />
   <line class="fil0 str1" x1="10378" y1="5117" x2="10378" y2= "5247" />
   <line class="fil0 str1" x1="1618" y1="5117" x2="1618" y2= "5247" />
   <line class="fil0 str1" x1="1818" y1="5117" x2="1618" y2= "5117" />
   <line class="fil0 str1" x1="1618" y1="5247" x2="1818" y2= "5247" />
   <line class="fil0 str0" x1="1818" y1="5117" x2="2998" y2= "5117" />
   <line class="fil0 str1" x1="2998" y1="5247" x2="1818" y2= "5247" />
   <line class="fil0 str0" x1="2998" y1="5117" x2="2998" y2= "5247" />
   <line class="fil0 str0" x1="2998" y1="5117" x2="8998" y2= "5117" />
   <line class="fil0 str1" x1="8998" y1="5247" x2="2998" y2= "5247" />
   <path class="fil0 str0" d="M7323 3922c0,-99 -81,-180 -180,-180 -99,0 -180,81 -180,180 0,99 81,180 180,180 99,0 180,-81 180,-180z"/>
   <path class="fil0 str0" d="M7443 3922c0,-166 -134,-300 -300,-300 -166,0 -300,134 -300,300 0,166 134,300 300,300 166,0 300,-134 300,-300z"/>
   <line class="fil0 str0" x1="4528" y1="3817" x2="4528" y2= "3917" />
   <line class="fil0 str0" x1="5528" y1="3817" x2="4528" y2= "3817" />
   <line class="fil0 str0" x1="5528" y1="3917" x2="5528" y2= "3817" />
   <line class="fil0 str0" x1="4528" y1="3917" x2="5528" y2= "3917" />
   <path class="fil0 str0" d="M5728 3677c0,-11 -4,-21 -12,-28 -8,-8 -18,-12 -28,-12"/>
   <line class="fil0 str0" x1="5728" y1="3677" x2="5728" y2= "3912" />
   <path class="fil0 str0" d="M5705 3947c14,-7 22,-21 22,-36"/>
   <path class="fil0 str0" d="M5705 3947c-65,32 -121,78 -166,135"/>
   <path class="fil0 str0" d="M5508 4097c12,0 24,-6 31,-15"/>
   <line class="fil0 str0" x1="5508" y1="4097" x2="4547" y2= "4097" />
   <path class="fil0 str0" d="M4516 4082c8,9 19,15 31,15"/>
   <path class="fil0 str0" d="M4516 4082c-45,-56 -102,-102 -166,-135"/>
   <path class="fil0 str0" d="M4328 3912c0,15 9,29 22,36"/>
   <line class="fil0 str0" x1="4328" y1="3912" x2="4328" y2= "3677" />
   <path class="fil0 str0" d="M4368 3637c-11,0 -21,4 -28,12 -8,8 -12,18 -12,28"/>
   <line class="fil0 str0" x1="4368" y1="3637" x2="5688" y2= "3637" />
   <path class="fil0 str0" d="M5798 3677c0,-29 -12,-57 -32,-78 -21,-21 -49,-32 -78,-32"/>
   <line class="fil0 str0" x1="5798" y1="3912" x2="5798" y2= "3677" />
   <path class="fil0 str0" d="M5737 4010c37,-19 61,-57 61,-98"/>
   <path class="fil0 str0" d="M5737 4010c-55,28 -104,67 -143,116"/>
   <path class="fil0 str0" d="M5508 4167c33,0 65,-15 86,-41"/>
   <line class="fil0 str0" x1="4547" y1="4167" x2="5508" y2= "4167" />
   <path class="fil0 str0" d="M4461 4126c21,26 52,41 86,41"/>
   <path class="fil0 str0" d="M4461 4126c-39,-48 -88,-88 -143,-116"/>
   <path class="fil0 str0" d="M4258 3912c0,42 24,80 61,98"/>
   <line class="fil0 str0" x1="4258" y1="3677" x2="4258" y2= "3912" />
   <path class="fil0 str0" d="M4368 3567c-29,0 -57,12 -78,32 -21,21 -32,49 -32,78"/>
   <line class="fil0 str0" x1="5688" y1="3567" x2="4368" y2= "3567" />
   <line class="fil0 str0" x1="3278" y1="4062" x2="3278" y2= "4012" />
   <line class="fil0 str0" x1="2678" y1="4062" x2="3278" y2= "4062" />
   <line class="fil0 str0" x1="2678" y1="4012" x2="2678" y2= "4062" />
   <line class="fil0 str0" x1="3278" y1="4012" x2="2678" y2= "4012" />
   <path class="fil0 str0" d="M3263 4167c72,0 130,-58 130,-130 0,-72 -58,-130 -130,-130"/>
   <line class="fil0 str0" x1="3263" y1="4167" x2="2693" y2= "4167" />
   <path class="fil0 str0" d="M2693 3907c-46,0 -89,25 -113,65 -23,40 -23,90 0,130 23,40 66,65 113,65"/>
   <line class="fil0 str0" x1="2693" y1="3907" x2="3263" y2= "3907" />
   <path class="fil0 str0" d="M3263 4197c88,0 160,-72 160,-160 0,-88 -72,-160 -160,-160"/>
   <line class="fil0 str0" x1="2693" y1="4197" x2="3263" y2= "4197" />
   <path class="fil0 str0" d="M2693 3877c-57,0 -110,31 -139,80 -29,50 -29,111 0,160 29,50 81,80 139,80"/>
   <line class="fil0 str0" x1="3263" y1="3877" x2="2693" y2= "3877" />
   <line class="fil0 str1" x1="862" y1="1637" x2="818" y2= "1759" />
  </g>
 </g>
 <g id="Выноски_x0020_линии">
  <metadata id="CorelCorpID_1Corel-Layer"/>
  <polyline class="fil0 str2" points="2917,3896 3474,653 4142,653 "/>
  <polyline class="fil0 str2" points="4928,3896 5485,653 6153,653 "/>
  <polyline class="fil0 str2" points="7086,3896 7643,653 8311,653 "/>
 </g>
 <g id="Выноски_x0020_текст">
  <metadata id="CorelCorpID_2Corel-Layer"/>
  <path class="fil1" d="M3873 245c14,6 21,21 21,45 0,7 -1,13 -3,20l-9 35c-10,39 -31,64 -61,77 -15,6 -33,10 -52,10l-67 0c-12,0 -17,-6 -17,-17 0,-12 6,-17 17,-17l76 0c15,0 29,-5 42,-15 13,-10 22,-22 26,-37l9 -35c2,-7 3,-14 3,-20 0,-21 -14,-32 -43,-32l-31 0c-12,0 -17,-6 -17,-17 0,-12 6,-17 17,-17l41 0c21,0 39,-9 54,-26 7,-8 12,-17 14,-26 1,-6 2,-11 2,-16 0,-24 -14,-37 -42,-37l-67 0c-12,0 -17,-6 -17,-17 0,-12 6,-17 17,-17l77 0c27,0 47,12 60,36 6,11 9,22 9,34 0,6 -1,11 -2,17 -10,38 -28,62 -56,74z"/>
  <path class="fil1" d="M5878 327l31 0c12,0 17,6 17,17 0,12 -6,17 -17,17l-40 0 -15 57c-2,9 -8,13 -17,13 -12,0 -18,-6 -18,-18 0,-2 0,-3 1,-4l13 -48 -103 0c-5,0 -9,-2 -12,-5 -3,-4 -5,-8 -5,-12 0,-3 1,-6 2,-9l137 -243c3,-6 8,-9 15,-9 12,0 18,6 18,17 0,3 -1,6 -2,9l-123 217 83 0 15 -57c2,-8 8,-13 16,-13 12,0 18,6 18,17 0,2 0,3 0,5l-13 48z"/>
  <path class="fil1" d="M7940 431l-67 0c-12,0 -17,-6 -17,-17 0,-12 6,-17 17,-17l76 0c36,0 59,-17 68,-52l9 -35c2,-7 3,-13 3,-19 0,-22 -14,-33 -43,-33l-67 0c-5,0 -9,-2 -12,-5 -3,-4 -5,-8 -5,-12 0,-2 0,-3 1,-5l37 -139c2,-9 8,-13 17,-13l126 0c12,0 17,6 17,17 0,12 -6,17 -17,17l-112 0 -28 104 54 0c20,0 37,6 50,19 13,13 19,29 19,49 0,7 -1,13 -2,19l-9 35c-11,41 -31,67 -59,78 -14,6 -33,9 -55,9z"/>
 </g>
 <g id="Размеры">
  <metadata id="CorelCorpID_3Corel-Layer"/>
  <g id="_836049296">
   <line class="fil0 str3" x1="1818" y1="5247" x2="291" y2= "5247" />
   <path class="fil1" d="M5769 5963c8,9 13,20 13,33 0,5 -1,9 -2,14l-7 25c-6,23 -16,39 -28,48 -13,10 -30,14 -53,14 -14,0 -26,-5 -36,-14 -9,-9 -14,-21 -14,-35 0,-5 1,-10 2,-14l7 -25c7,-27 20,-45 38,-53 -8,-9 -13,-20 -13,-33 0,-5 1,-10 2,-14 6,-22 16,-38 28,-48 12,-10 30,-15 53,-15 14,0 26,5 36,14 9,9 14,21 14,35 0,5 -1,10 -2,14 -8,27 -20,45 -38,54zm-44 9c-26,0 -42,12 -49,37l-7 25c-1,5 -2,10 -2,14 0,16 10,23 31,23 26,0 42,-12 49,-37l7 -25c1,-5 2,-10 2,-14 0,-16 -10,-23 -31,-23zm26 -100c-26,0 -42,13 -49,38 -1,5 -2,10 -2,14 0,16 10,24 31,24 26,0 42,-13 49,-38 1,-5 2,-10 2,-14 0,-16 -10,-24 -31,-24z"/>
   <path id="1" class="fil1" d="M5933 5872c-26,0 -42,12 -49,38l-7 25c-1,5 -2,10 -2,14 0,16 10,24 31,24l39 0 17 -63c1,-4 2,-7 2,-9 0,-8 -3,-15 -9,-20 -6,-5 -13,-8 -22,-8zm7 -25c13,0 24,5 34,16 10,11 15,23 15,36 0,3 0,7 -1,10l-20 76c-16,61 -54,98 -114,112 -1,0 -2,0 -3,0 -3,0 -6,-1 -9,-4 -2,-3 -4,-5 -4,-9 0,-7 3,-11 8,-12 15,-2 29,-7 43,-16 25,-16 41,-36 48,-60l-37 0c-14,0 -26,-5 -36,-14 -9,-9 -14,-21 -14,-35 0,-5 1,-10 2,-14l7 -25c4,-15 10,-27 16,-36 13,-18 35,-26 65,-26z"/>
   <path id="2" class="fil1" d="M6008 6079c2,-5 6,-7 11,-7 3,0 6,1 9,4 3,2 4,5 4,9 0,2 0,4 -2,6l-26 50c-2,4 -6,6 -11,6 -9,0 -13,-4 -13,-12 0,-2 0,-4 2,-6l26 -50z"/>
   <path id="3" class="fil1" d="M6145 6097l-48 0c-8,0 -12,-4 -12,-13 0,-8 4,-13 12,-13l55 0c26,0 42,-12 49,-37l7 -25c1,-5 2,-10 2,-14 0,-16 -10,-23 -31,-23l-48 0c-3,0 -6,-1 -9,-4 -3,-3 -4,-5 -4,-9 0,-1 0,-2 0,-3l27 -100c2,-6 6,-10 12,-10l91 0c8,0 12,4 12,13 0,8 -4,13 -12,13l-81 0 -20 75 39 0c15,0 26,4 36,14 9,9 14,21 14,35 0,5 -1,10 -2,14l-7 25c-8,29 -22,48 -42,56 -10,4 -24,6 -39,6z"/>
   <line class="fil0 str3" x1="1558" y1="4817" x2="1558" y2= "6316" />
   <line class="fil0 str3" x1="10508" y1="4867" x2="10508" y2= "6316" />
   <line class="fil0 str3" x1="1908" y1="6216" x2="10158" y2= "6216" />
   <g id="Filled-1">
    <line class="fil0 str3" x1="1908" y1="6216" x2="1558" y2= "6216" />
    <polygon class="fil2 str3" points="1908,6166 1558,6216 1908,6266 "/>
    <path class="fil2 str3" d="M1908 6166l0 100m0 -100l-350 50m350 -50"/>
    <line class="fil0 str3" x1="1908" y1="6166" x2="1558" y2= "6216" />
    <line class="fil0 str3" x1="1558" y1="6216" x2="1908" y2= "6266" />
    <line class="fil0 str3" x1="1908" y1="6266" x2="1908" y2= "6166" />
   </g>
   <g id="Filled-1_0">
    <line class="fil0 str3" x1="10158" y1="6216" x2="10508" y2= "6216" />
    <polygon class="fil2 str3" points="10158,6266 10508,6216 10158,6166 "/>
    <path class="fil2 str3" d="M10158 6266l0 -100m0 100l350 -50m-350 50"/>
    <line class="fil0 str3" x1="10158" y1="6266" x2="10508" y2= "6216" />
    <line class="fil0 str3" x1="10508" y1="6216" x2="10158" y2= "6166" />
    <line class="fil0 str3" x1="10158" y1="6166" x2="10158" y2= "6266" />
   </g>
   <path class="fil2 str3" d="M10509 6216c0,-1 0,-1 -1,-1 -1,0 -1,0 -1,1 0,1 0,1 1,1 1,0 1,0 1,-1z"/>
   <line class="fil0 str3" x1="862" y1="1637" x2="291" y2= "1637" />
   <line class="fil0 str3" x1="391" y1="1987" x2="391" y2= "4897" />
   <g id="Filled-1_1">
    <line class="fil0 str3" x1="391" y1="1987" x2="391" y2= "1637" />
    <polygon class="fil2 str3" points="441,1987 391,1637 341,1987 "/>
    <path class="fil2 str3" d="M441 1987l-100 0m100 0l-50 -350m50 350"/>
    <line class="fil0 str3" x1="441" y1="1987" x2="391" y2= "1637" />
    <line class="fil0 str3" x1="391" y1="1637" x2="341" y2= "1987" />
    <line class="fil0 str3" x1="341" y1="1987" x2="441" y2= "1987" />
   </g>
   <g id="Filled-1_2">
    <line class="fil0 str3" x1="391" y1="4897" x2="391" y2= "5247" />
    <polygon class="fil2 str3" points="341,4897 391,5247 441,4897 "/>
    <path class="fil2 str3" d="M341 4897l100 0 -100 0 50 350m-50 -350"/>
    <line class="fil0 str3" x1="341" y1="4897" x2="391" y2= "5247" />
    <line class="fil0 str3" x1="391" y1="5247" x2="441" y2= "4897" />
    <line class="fil0 str3" x1="441" y1="4897" x2="341" y2= "4897" />
   </g>
   <path class="fil1" d="M207 3517c5,-10 15,-16 33,-16 5,0 10,1 14,2l25 7c28,7 46,22 56,44 5,11 7,24 7,38l0 48c0,8 -4,12 -13,12 -8,0 -13,-4 -13,-12l0 -55c0,-11 -4,-21 -11,-31 -7,-10 -16,-16 -27,-19l-25 -7c-5,-1 -10,-2 -14,-2 -15,0 -23,10 -23,31l0 23c0,8 -4,12 -13,12 -8,0 -13,-4 -13,-12l0 -29c0,-15 -6,-28 -19,-39 -6,-5 -12,-8 -19,-10 -4,-1 -8,-2 -11,-2 -18,0 -26,10 -26,30l0 49c0,8 -4,12 -13,12 -8,0 -13,-4 -13,-12l0 -55c0,-19 9,-34 26,-43 8,-4 16,-6 25,-6 4,0 8,0 12,2 27,7 45,21 53,40z"/>
   <path id="1" class="fil1" d="M317 3404c0,-26 -12,-42 -37,-49l-25 -7c-5,-1 -10,-2 -14,-2 -16,0 -23,10 -23,31l0 39 62 17c4,1 7,2 9,2 8,0 15,-3 20,-9 5,-6 8,-13 8,-22zm25 7c0,18 -9,32 -27,42 -8,5 -16,7 -25,7 -3,0 -7,0 -10,-1l-75 -20c-28,-7 -51,-20 -70,-37 -21,-20 -35,-45 -42,-77 0,-1 0,-2 0,-3 0,-8 4,-13 12,-13 7,0 11,3 12,8 2,14 7,28 16,42 15,25 35,42 60,49l0 -37c0,-14 5,-26 14,-36 9,-9 21,-14 35,-14 5,0 10,1 14,2l25 7c29,8 48,22 56,43 4,10 6,23 6,39z"/>
   <path class="fil3 str3" d="M863 1637c0,-1 0,-1 -1,-1 -1,0 -1,0 -1,1 0,1 0,1 1,1 1,0 1,0 1,-1z"/>
   <path class="fil2 str3" d="M392 5247c0,-1 0,-1 -1,-1 -1,0 -1,0 -1,1 0,1 0,1 1,1 1,0 1,0 1,-1z"/>
  </g>
 </g>
 <g id="Слой_x0020_2">
  <metadata id="CorelCorpID_4Corel-Layer"/>
  <path class="fil4" d="M2699 4684l0 -82 23 0c14,0 23,4 29,11 6,7 9,17 9,31 0,14 -3,24 -10,31 -7,7 -15,10 -26,10l-24 0zm-54 -122l0 270 54 0 0 -108 29 0c13,0 25,-2 35,-5 11,-3 20,-8 27,-15 7,-7 13,-15 17,-25 4,-10 6,-22 6,-36 0,-10 -1,-20 -4,-30 -3,-10 -7,-18 -12,-26 -6,-8 -13,-14 -23,-18 -9,-5 -21,-7 -35,-7l-95 0z"/>
  <polygon id="1" class="fil4" points="2825,4562 2874,4832 2935,4832 2965,4636 2966,4636 2996,4832 3057,4832 3106,4562 3054,4562 3024,4761 3023,4761 2991,4562 2939,4562 2908,4761 2907,4761 2877,4562 "/>
  <path id="2" class="fil4" d="M3128 4562l0 270 54 0 0 -114 29 0c11,0 19,3 24,9 5,6 7,14 8,25l2 52c0,5 1,10 2,15 1,5 3,9 5,13l59 0 0 -2c-5,-3 -8,-8 -10,-15 -1,-8 -2,-19 -2,-33 0,-7 -1,-14 -1,-20 0,-6 -1,-11 -1,-16 -2,-15 -5,-26 -12,-33 -6,-7 -16,-11 -30,-13l0 -1c15,-3 27,-11 34,-22 7,-11 11,-26 11,-44 0,-23 -6,-41 -19,-52 -13,-11 -30,-17 -53,-17l-100 0zm54 118l0 -78 26 0c25,0 38,12 38,37 0,15 -4,25 -11,31 -7,6 -17,9 -30,9l-23 0z"/>
  <polygon class="fil4" points="4646,4562 4646,4832 4700,4832 4700,4712 4764,4712 4764,4832 4818,4832 4818,4562 4764,4562 4764,4665 4700,4665 4700,4562 "/>
  <path id="1" class="fil4" d="M4913 4792l0 -189 23 0c10,0 19,2 25,6 6,4 11,10 14,17 3,8 5,17 6,29 1,12 2,25 2,40 0,18 -1,34 -2,46 -1,12 -3,22 -7,30 -3,8 -8,13 -14,16 -6,3 -13,5 -23,5l-24 0zm-54 -230l0 270 86 0c18,0 33,-3 45,-8 12,-6 21,-14 28,-25 7,-11 12,-26 15,-43 3,-17 4,-38 4,-62 0,-20 -1,-38 -3,-54 -2,-16 -7,-30 -13,-41 -6,-11 -15,-20 -27,-26 -12,-6 -27,-9 -46,-9l-89 0z"/>
  <polygon id="2" class="fil4" points="5074,4562 5074,4832 5124,4832 5124,4616 5124,4616 5172,4832 5215,4832 5263,4616 5263,4616 5263,4832 5313,4832 5313,4562 5233,4562 5194,4752 5193,4752 5155,4562 "/>
  <polygon id="3" class="fil4" points="5355,4832 5409,4832 5409,4562 5355,4562 "/>
  <path class="fil4" d="M6967 4728l-26 -121 -1 0 -26 121 53 0zm7 -168l71 270 -57 0 -12 -57 -72 0 -12 57 -57 0 71 -270 67 0z"/>
  <path id="1" class="fil4" d="M7116 4560l-54 0 0 188c0,18 2,33 7,44 5,11 11,20 19,26 8,6 17,10 28,12 10,2 21,3 32,3 11,0 22,-1 32,-3 10,-2 20,-7 28,-13 8,-7 14,-15 19,-27 5,-11 7,-25 7,-42l0 -188 -54 0 0 188c0,7 0,13 -1,19 -1,6 -3,11 -5,15 -2,4 -6,7 -10,10 -4,2 -9,4 -16,4 -6,0 -12,-1 -16,-4 -4,-2 -7,-6 -10,-10 -2,-4 -4,-9 -5,-15 -1,-6 -1,-12 -1,-19l0 -188z"/>
  <polygon id="2" class="fil4" points="7256,4560 7318,4693 7251,4830 7311,4830 7349,4738 7388,4830 7449,4830 7382,4693 7445,4560 7385,4560 7351,4647 7316,4560 "/>
 </g>
</svg>
