<?xml version="1.0" encoding="UTF-8"?>
<!DOCTYPE svg PUBLIC "-//W3C//DTD SVG 1.1//EN" "http://www.w3.org/Graphics/SVG/1.1/DTD/svg11.dtd">
<!-- Creator: CorelDRAW X6 -->
<svg xmlns="http://www.w3.org/2000/svg" xml:space="preserve" width="106mm" height="130mm" version="1.1" style="shape-rendering:geometricPrecision; text-rendering:geometricPrecision; image-rendering:optimizeQuality; fill-rule:evenodd; clip-rule:evenodd"
viewBox="0 0 10600 13000"
 xmlns:xlink="http://www.w3.org/1999/xlink">
 <defs>
  <style type="text/css">
   <![CDATA[
    .str0 {stroke:black;stroke-width:20;stroke-linejoin:bevel}
    .str3 {stroke:black;stroke-width:34.99;stroke-linejoin:bevel}
    .str2 {stroke:black;stroke-width:35;stroke-linejoin:bevel}
    .str1 {stroke:black;stroke-width:50;stroke-linejoin:bevel}
    .fil0 {fill:none}
    .fil2 {fill:#2B2A29}
    .fil3 {fill:black}
    .fil4 {fill:#2B2A29;fill-rule:nonzero}
    .fil1 {fill:black;fill-rule:nonzero}
   ]]>
  </style>
 </defs>
 <g id="OPCB-221_x0020_Для_x0020_паспорта">
  <metadata id="CorelCorpID_0Corel-Layer"/>
  <g id="_843495968">
   <path class="fil0 str0" d="M6346 8437c0,-55 -45,-100 -100,-100 -55,0 -100,45 -100,100 0,55 45,100 100,100 55,0 100,-45 100,-100z"/>
   <path class="fil0 str0" d="M5546 8437c0,-55 -45,-100 -100,-100 -55,0 -100,45 -100,100 0,55 45,100 100,100 55,0 100,-45 100,-100z"/>
   <path class="fil0 str0" d="M4746 8437c0,-55 -45,-100 -100,-100 -55,0 -100,45 -100,100 0,55 45,100 100,100 55,0 100,-45 100,-100z"/>
   <path class="fil0 str0" d="M3946 8437c0,-55 -45,-100 -100,-100 -55,0 -100,45 -100,100 0,55 45,100 100,100 55,0 100,-45 100,-100z"/>
   <path class="fil0 str0" d="M3146 8437c0,-55 -45,-100 -100,-100 -55,0 -100,45 -100,100 0,55 45,100 100,100 55,0 100,-45 100,-100z"/>
   <path class="fil0 str0" d="M2346 8437c0,-55 -45,-100 -100,-100 -55,0 -100,45 -100,100 0,55 45,100 100,100 55,0 100,-45 100,-100z"/>
   <path class="fil0 str0" d="M6346 7837c0,-55 -45,-100 -100,-100 -55,0 -100,45 -100,100 0,55 45,100 100,100 55,0 100,-45 100,-100z"/>
   <path class="fil0 str0" d="M5546 7837c0,-55 -45,-100 -100,-100 -55,0 -100,45 -100,100 0,55 45,100 100,100 55,0 100,-45 100,-100z"/>
   <path class="fil0 str0" d="M4746 7837c0,-55 -45,-100 -100,-100 -55,0 -100,45 -100,100 0,55 45,100 100,100 55,0 100,-45 100,-100z"/>
   <path class="fil0 str0" d="M3946 7837c0,-55 -45,-100 -100,-100 -55,0 -100,45 -100,100 0,55 45,100 100,100 55,0 100,-45 100,-100z"/>
   <path class="fil0 str0" d="M3146 7837c0,-55 -45,-100 -100,-100 -55,0 -100,45 -100,100 0,55 45,100 100,100 55,0 100,-45 100,-100z"/>
   <path class="fil0 str0" d="M2346 7837c0,-55 -45,-100 -100,-100 -55,0 -100,45 -100,100 0,55 45,100 100,100 55,0 100,-45 100,-100z"/>
   <path class="fil0 str0" d="M6346 7237c0,-55 -45,-100 -100,-100 -55,0 -100,45 -100,100 0,55 45,100 100,100 55,0 100,-45 100,-100z"/>
   <path class="fil0 str0" d="M5546 7237c0,-55 -45,-100 -100,-100 -55,0 -100,45 -100,100 0,55 45,100 100,100 55,0 100,-45 100,-100z"/>
   <path class="fil0 str0" d="M4746 7237c0,-55 -45,-100 -100,-100 -55,0 -100,45 -100,100 0,55 45,100 100,100 55,0 100,-45 100,-100z"/>
   <path class="fil0 str0" d="M3946 7237c0,-55 -45,-100 -100,-100 -55,0 -100,45 -100,100 0,55 45,100 100,100 55,0 100,-45 100,-100z"/>
   <path class="fil0 str0" d="M3146 7237c0,-55 -45,-100 -100,-100 -55,0 -100,45 -100,100 0,55 45,100 100,100 55,0 100,-45 100,-100z"/>
   <path class="fil0 str0" d="M2346 7237c0,-55 -45,-100 -100,-100 -55,0 -100,45 -100,100 0,55 45,100 100,100 55,0 100,-45 100,-100z"/>
   <path class="fil0 str0" d="M6346 6637c0,-55 -45,-100 -100,-100 -55,0 -100,45 -100,100 0,55 45,100 100,100 55,0 100,-45 100,-100z"/>
   <path class="fil0 str0" d="M5546 6637c0,-55 -45,-100 -100,-100 -55,0 -100,45 -100,100 0,55 45,100 100,100 55,0 100,-45 100,-100z"/>
   <path class="fil0 str0" d="M4746 6637c0,-55 -45,-100 -100,-100 -55,0 -100,45 -100,100 0,55 45,100 100,100 55,0 100,-45 100,-100z"/>
   <path class="fil0 str0" d="M3946 6637c0,-55 -45,-100 -100,-100 -55,0 -100,45 -100,100 0,55 45,100 100,100 55,0 100,-45 100,-100z"/>
   <path class="fil0 str0" d="M3146 6637c0,-55 -45,-100 -100,-100 -55,0 -100,45 -100,100 0,55 45,100 100,100 55,0 100,-45 100,-100z"/>
   <path class="fil0 str0" d="M2346 6637c0,-55 -45,-100 -100,-100 -55,0 -100,45 -100,100 0,55 45,100 100,100 55,0 100,-45 100,-100z"/>
   <path class="fil0 str0" d="M6346 6037c0,-55 -45,-100 -100,-100 -55,0 -100,45 -100,100 0,55 45,100 100,100 55,0 100,-45 100,-100z"/>
   <path class="fil0 str0" d="M5546 6037c0,-55 -45,-100 -100,-100 -55,0 -100,45 -100,100 0,55 45,100 100,100 55,0 100,-45 100,-100z"/>
   <path class="fil0 str0" d="M4746 6037c0,-55 -45,-100 -100,-100 -55,0 -100,45 -100,100 0,55 45,100 100,100 55,0 100,-45 100,-100z"/>
   <path class="fil0 str0" d="M3946 6037c0,-55 -45,-100 -100,-100 -55,0 -100,45 -100,100 0,55 45,100 100,100 55,0 100,-45 100,-100z"/>
   <path class="fil0 str0" d="M3146 6037c0,-55 -45,-100 -100,-100 -55,0 -100,45 -100,100 0,55 45,100 100,100 55,0 100,-45 100,-100z"/>
   <path class="fil0 str0" d="M2346 6037c0,-55 -45,-100 -100,-100 -55,0 -100,45 -100,100 0,55 45,100 100,100 55,0 100,-45 100,-100z"/>
   <path class="fil0 str0" d="M6346 5437c0,-55 -45,-100 -100,-100 -55,0 -100,45 -100,100 0,55 45,100 100,100 55,0 100,-45 100,-100z"/>
   <path class="fil0 str0" d="M5546 5437c0,-55 -45,-100 -100,-100 -55,0 -100,45 -100,100 0,55 45,100 100,100 55,0 100,-45 100,-100z"/>
   <path class="fil0 str0" d="M4746 5437c0,-55 -45,-100 -100,-100 -55,0 -100,45 -100,100 0,55 45,100 100,100 55,0 100,-45 100,-100z"/>
   <path class="fil0 str0" d="M3946 5437c0,-55 -45,-100 -100,-100 -55,0 -100,45 -100,100 0,55 45,100 100,100 55,0 100,-45 100,-100z"/>
   <path class="fil0 str0" d="M3146 5437c0,-55 -45,-100 -100,-100 -55,0 -100,45 -100,100 0,55 45,100 100,100 55,0 100,-45 100,-100z"/>
   <path class="fil0 str0" d="M2346 5437c0,-55 -45,-100 -100,-100 -55,0 -100,45 -100,100 0,55 45,100 100,100 55,0 100,-45 100,-100z"/>
   <path class="fil0 str0" d="M6346 4837c0,-55 -45,-100 -100,-100 -55,0 -100,45 -100,100 0,55 45,100 100,100 55,0 100,-45 100,-100z"/>
   <path class="fil0 str0" d="M5546 4837c0,-55 -45,-100 -100,-100 -55,0 -100,45 -100,100 0,55 45,100 100,100 55,0 100,-45 100,-100z"/>
   <path class="fil0 str0" d="M4746 4837c0,-55 -45,-100 -100,-100 -55,0 -100,45 -100,100 0,55 45,100 100,100 55,0 100,-45 100,-100z"/>
   <path class="fil0 str0" d="M3946 4837c0,-55 -45,-100 -100,-100 -55,0 -100,45 -100,100 0,55 45,100 100,100 55,0 100,-45 100,-100z"/>
   <path class="fil0 str0" d="M3146 4837c0,-55 -45,-100 -100,-100 -55,0 -100,45 -100,100 0,55 45,100 100,100 55,0 100,-45 100,-100z"/>
   <path class="fil0 str0" d="M2346 4837c0,-55 -45,-100 -100,-100 -55,0 -100,45 -100,100 0,55 45,100 100,100 55,0 100,-45 100,-100z"/>
   <path class="fil0 str0" d="M6346 4237c0,-55 -45,-100 -100,-100 -55,0 -100,45 -100,100 0,55 45,100 100,100 55,0 100,-45 100,-100z"/>
   <path class="fil0 str0" d="M5546 4237c0,-55 -45,-100 -100,-100 -55,0 -100,45 -100,100 0,55 45,100 100,100 55,0 100,-45 100,-100z"/>
   <path class="fil0 str0" d="M4746 4237c0,-55 -45,-100 -100,-100 -55,0 -100,45 -100,100 0,55 45,100 100,100 55,0 100,-45 100,-100z"/>
   <path class="fil0 str0" d="M3946 4237c0,-55 -45,-100 -100,-100 -55,0 -100,45 -100,100 0,55 45,100 100,100 55,0 100,-45 100,-100z"/>
   <path class="fil0 str0" d="M3146 4237c0,-55 -45,-100 -100,-100 -55,0 -100,45 -100,100 0,55 45,100 100,100 55,0 100,-45 100,-100z"/>
   <path class="fil0 str0" d="M2346 4237c0,-55 -45,-100 -100,-100 -55,0 -100,45 -100,100 0,55 45,100 100,100 55,0 100,-45 100,-100z"/>
   <path class="fil0 str0" d="M6346 3637c0,-55 -45,-100 -100,-100 -55,0 -100,45 -100,100 0,55 45,100 100,100 55,0 100,-45 100,-100z"/>
   <path class="fil0 str0" d="M5546 3637c0,-55 -45,-100 -100,-100 -55,0 -100,45 -100,100 0,55 45,100 100,100 55,0 100,-45 100,-100z"/>
   <path class="fil0 str0" d="M4746 3637c0,-55 -45,-100 -100,-100 -55,0 -100,45 -100,100 0,55 45,100 100,100 55,0 100,-45 100,-100z"/>
   <path class="fil0 str0" d="M3946 3637c0,-55 -45,-100 -100,-100 -55,0 -100,45 -100,100 0,55 45,100 100,100 55,0 100,-45 100,-100z"/>
   <path class="fil0 str0" d="M3146 3637c0,-55 -45,-100 -100,-100 -55,0 -100,45 -100,100 0,55 45,100 100,100 55,0 100,-45 100,-100z"/>
   <path class="fil0 str0" d="M2346 3637c0,-55 -45,-100 -100,-100 -55,0 -100,45 -100,100 0,55 45,100 100,100 55,0 100,-45 100,-100z"/>
   <path class="fil0 str0" d="M6346 3037c0,-55 -45,-100 -100,-100 -55,0 -100,45 -100,100 0,55 45,100 100,100 55,0 100,-45 100,-100z"/>
   <path class="fil0 str0" d="M5546 3037c0,-55 -45,-100 -100,-100 -55,0 -100,45 -100,100 0,55 45,100 100,100 55,0 100,-45 100,-100z"/>
   <path class="fil0 str0" d="M4746 3037c0,-55 -45,-100 -100,-100 -55,0 -100,45 -100,100 0,55 45,100 100,100 55,0 100,-45 100,-100z"/>
   <path class="fil0 str0" d="M3946 3037c0,-55 -45,-100 -100,-100 -55,0 -100,45 -100,100 0,55 45,100 100,100 55,0 100,-45 100,-100z"/>
   <path class="fil0 str0" d="M3146 3037c0,-55 -45,-100 -100,-100 -55,0 -100,45 -100,100 0,55 45,100 100,100 55,0 100,-45 100,-100z"/>
   <path class="fil0 str0" d="M6946 8737c0,-55 -45,-100 -100,-100 -55,0 -100,45 -100,100 0,55 45,100 100,100 55,0 100,-45 100,-100z"/>
   <path class="fil0 str0" d="M6146 8737c0,-55 -45,-100 -100,-100 -55,0 -100,45 -100,100 0,55 45,100 100,100 55,0 100,-45 100,-100z"/>
   <path class="fil0 str0" d="M5346 8737c0,-55 -45,-100 -100,-100 -55,0 -100,45 -100,100 0,55 45,100 100,100 55,0 100,-45 100,-100z"/>
   <path class="fil0 str0" d="M4546 8737c0,-55 -45,-100 -100,-100 -55,0 -100,45 -100,100 0,55 45,100 100,100 55,0 100,-45 100,-100z"/>
   <path class="fil0 str0" d="M3746 8737c0,-55 -45,-100 -100,-100 -55,0 -100,45 -100,100 0,55 45,100 100,100 55,0 100,-45 100,-100z"/>
   <path class="fil0 str0" d="M2946 8737c0,-55 -45,-100 -100,-100 -55,0 -100,45 -100,100 0,55 45,100 100,100 55,0 100,-45 100,-100z"/>
   <path class="fil0 str0" d="M2146 8737c0,-55 -45,-100 -100,-100 -55,0 -100,45 -100,100 0,55 45,100 100,100 55,0 100,-45 100,-100z"/>
   <path class="fil0 str0" d="M6546 8137c0,-55 -45,-100 -100,-100 -55,0 -100,45 -100,100 0,55 45,100 100,100 55,0 100,-45 100,-100z"/>
   <path class="fil0 str0" d="M5746 8137c0,-55 -45,-100 -100,-100 -55,0 -100,45 -100,100 0,55 45,100 100,100 55,0 100,-45 100,-100z"/>
   <path class="fil0 str0" d="M4946 8137c0,-55 -45,-100 -100,-100 -55,0 -100,45 -100,100 0,55 45,100 100,100 55,0 100,-45 100,-100z"/>
   <path class="fil0 str0" d="M4146 8137c0,-55 -45,-100 -100,-100 -55,0 -100,45 -100,100 0,55 45,100 100,100 55,0 100,-45 100,-100z"/>
   <path class="fil0 str0" d="M3346 8137c0,-55 -45,-100 -100,-100 -55,0 -100,45 -100,100 0,55 45,100 100,100 55,0 100,-45 100,-100z"/>
   <path class="fil0 str0" d="M2546 8137c0,-55 -45,-100 -100,-100 -55,0 -100,45 -100,100 0,55 45,100 100,100 55,0 100,-45 100,-100z"/>
   <path class="fil0 str0" d="M6946 7537c0,-55 -45,-100 -100,-100 -55,0 -100,45 -100,100 0,55 45,100 100,100 55,0 100,-45 100,-100z"/>
   <path class="fil0 str0" d="M6146 7537c0,-55 -45,-100 -100,-100 -55,0 -100,45 -100,100 0,55 45,100 100,100 55,0 100,-45 100,-100z"/>
   <path class="fil0 str0" d="M5346 7537c0,-55 -45,-100 -100,-100 -55,0 -100,45 -100,100 0,55 45,100 100,100 55,0 100,-45 100,-100z"/>
   <path class="fil0 str0" d="M4546 7537c0,-55 -45,-100 -100,-100 -55,0 -100,45 -100,100 0,55 45,100 100,100 55,0 100,-45 100,-100z"/>
   <path class="fil0 str0" d="M3746 7537c0,-55 -45,-100 -100,-100 -55,0 -100,45 -100,100 0,55 45,100 100,100 55,0 100,-45 100,-100z"/>
   <path class="fil0 str0" d="M2946 7537c0,-55 -45,-100 -100,-100 -55,0 -100,45 -100,100 0,55 45,100 100,100 55,0 100,-45 100,-100z"/>
   <path class="fil0 str0" d="M2146 7537c0,-55 -45,-100 -100,-100 -55,0 -100,45 -100,100 0,55 45,100 100,100 55,0 100,-45 100,-100z"/>
   <path class="fil0 str0" d="M6546 6937c0,-55 -45,-100 -100,-100 -55,0 -100,45 -100,100 0,55 45,100 100,100 55,0 100,-45 100,-100z"/>
   <path class="fil0 str0" d="M5746 6937c0,-55 -45,-100 -100,-100 -55,0 -100,45 -100,100 0,55 45,100 100,100 55,0 100,-45 100,-100z"/>
   <path class="fil0 str0" d="M4946 6937c0,-55 -45,-100 -100,-100 -55,0 -100,45 -100,100 0,55 45,100 100,100 55,0 100,-45 100,-100z"/>
   <path class="fil0 str0" d="M4146 6937c0,-55 -45,-100 -100,-100 -55,0 -100,45 -100,100 0,55 45,100 100,100 55,0 100,-45 100,-100z"/>
   <path class="fil0 str0" d="M3346 6937c0,-55 -45,-100 -100,-100 -55,0 -100,45 -100,100 0,55 45,100 100,100 55,0 100,-45 100,-100z"/>
   <path class="fil0 str0" d="M2546 6937c0,-55 -45,-100 -100,-100 -55,0 -100,45 -100,100 0,55 45,100 100,100 55,0 100,-45 100,-100z"/>
   <path class="fil0 str0" d="M6946 6337c0,-55 -45,-100 -100,-100 -55,0 -100,45 -100,100 0,55 45,100 100,100 55,0 100,-45 100,-100z"/>
   <path class="fil0 str0" d="M6146 6337c0,-55 -45,-100 -100,-100 -55,0 -100,45 -100,100 0,55 45,100 100,100 55,0 100,-45 100,-100z"/>
   <path class="fil0 str0" d="M5346 6337c0,-55 -45,-100 -100,-100 -55,0 -100,45 -100,100 0,55 45,100 100,100 55,0 100,-45 100,-100z"/>
   <path class="fil0 str0" d="M4546 6337c0,-55 -45,-100 -100,-100 -55,0 -100,45 -100,100 0,55 45,100 100,100 55,0 100,-45 100,-100z"/>
   <path class="fil0 str0" d="M3746 6337c0,-55 -45,-100 -100,-100 -55,0 -100,45 -100,100 0,55 45,100 100,100 55,0 100,-45 100,-100z"/>
   <path class="fil0 str0" d="M2946 6337c0,-55 -45,-100 -100,-100 -55,0 -100,45 -100,100 0,55 45,100 100,100 55,0 100,-45 100,-100z"/>
   <path class="fil0 str0" d="M2146 6337c0,-55 -45,-100 -100,-100 -55,0 -100,45 -100,100 0,55 45,100 100,100 55,0 100,-45 100,-100z"/>
   <path class="fil0 str0" d="M6546 5737c0,-55 -45,-100 -100,-100 -55,0 -100,45 -100,100 0,55 45,100 100,100 55,0 100,-45 100,-100z"/>
   <path class="fil0 str0" d="M5746 5737c0,-55 -45,-100 -100,-100 -55,0 -100,45 -100,100 0,55 45,100 100,100 55,0 100,-45 100,-100z"/>
   <path class="fil0 str0" d="M4946 5737c0,-55 -45,-100 -100,-100 -55,0 -100,45 -100,100 0,55 45,100 100,100 55,0 100,-45 100,-100z"/>
   <path class="fil0 str0" d="M4146 5737c0,-55 -45,-100 -100,-100 -55,0 -100,45 -100,100 0,55 45,100 100,100 55,0 100,-45 100,-100z"/>
   <path class="fil0 str0" d="M3346 5737c0,-55 -45,-100 -100,-100 -55,0 -100,45 -100,100 0,55 45,100 100,100 55,0 100,-45 100,-100z"/>
   <path class="fil0 str0" d="M2546 5737c0,-55 -45,-100 -100,-100 -55,0 -100,45 -100,100 0,55 45,100 100,100 55,0 100,-45 100,-100z"/>
   <path class="fil0 str0" d="M6946 5137c0,-55 -45,-100 -100,-100 -55,0 -100,45 -100,100 0,55 45,100 100,100 55,0 100,-45 100,-100z"/>
   <path class="fil0 str0" d="M6146 5137c0,-55 -45,-100 -100,-100 -55,0 -100,45 -100,100 0,55 45,100 100,100 55,0 100,-45 100,-100z"/>
   <path class="fil0 str0" d="M5346 5137c0,-55 -45,-100 -100,-100 -55,0 -100,45 -100,100 0,55 45,100 100,100 55,0 100,-45 100,-100z"/>
   <path class="fil0 str0" d="M4546 5137c0,-55 -45,-100 -100,-100 -55,0 -100,45 -100,100 0,55 45,100 100,100 55,0 100,-45 100,-100z"/>
   <path class="fil0 str0" d="M3746 5137c0,-55 -45,-100 -100,-100 -55,0 -100,45 -100,100 0,55 45,100 100,100 55,0 100,-45 100,-100z"/>
   <path class="fil0 str0" d="M2946 5137c0,-55 -45,-100 -100,-100 -55,0 -100,45 -100,100 0,55 45,100 100,100 55,0 100,-45 100,-100z"/>
   <path class="fil0 str0" d="M2146 5137c0,-55 -45,-100 -100,-100 -55,0 -100,45 -100,100 0,55 45,100 100,100 55,0 100,-45 100,-100z"/>
   <path class="fil0 str0" d="M6546 4537c0,-55 -45,-100 -100,-100 -55,0 -100,45 -100,100 0,55 45,100 100,100 55,0 100,-45 100,-100z"/>
   <path class="fil0 str0" d="M5746 4537c0,-55 -45,-100 -100,-100 -55,0 -100,45 -100,100 0,55 45,100 100,100 55,0 100,-45 100,-100z"/>
   <path class="fil0 str0" d="M4946 4537c0,-55 -45,-100 -100,-100 -55,0 -100,45 -100,100 0,55 45,100 100,100 55,0 100,-45 100,-100z"/>
   <path class="fil0 str0" d="M4146 4537c0,-55 -45,-100 -100,-100 -55,0 -100,45 -100,100 0,55 45,100 100,100 55,0 100,-45 100,-100z"/>
   <path class="fil0 str0" d="M3346 4537c0,-55 -45,-100 -100,-100 -55,0 -100,45 -100,100 0,55 45,100 100,100 55,0 100,-45 100,-100z"/>
   <path class="fil0 str0" d="M2546 4537c0,-55 -45,-100 -100,-100 -55,0 -100,45 -100,100 0,55 45,100 100,100 55,0 100,-45 100,-100z"/>
   <path class="fil0 str0" d="M6946 3937c0,-55 -45,-100 -100,-100 -55,0 -100,45 -100,100 0,55 45,100 100,100 55,0 100,-45 100,-100z"/>
   <path class="fil0 str0" d="M6146 3937c0,-55 -45,-100 -100,-100 -55,0 -100,45 -100,100 0,55 45,100 100,100 55,0 100,-45 100,-100z"/>
   <path class="fil0 str0" d="M5346 3937c0,-55 -45,-100 -100,-100 -55,0 -100,45 -100,100 0,55 45,100 100,100 55,0 100,-45 100,-100z"/>
   <path class="fil0 str0" d="M4546 3937c0,-55 -45,-100 -100,-100 -55,0 -100,45 -100,100 0,55 45,100 100,100 55,0 100,-45 100,-100z"/>
   <path class="fil0 str0" d="M3746 3937c0,-55 -45,-100 -100,-100 -55,0 -100,45 -100,100 0,55 45,100 100,100 55,0 100,-45 100,-100z"/>
   <path class="fil0 str0" d="M2946 3937c0,-55 -45,-100 -100,-100 -55,0 -100,45 -100,100 0,55 45,100 100,100 55,0 100,-45 100,-100z"/>
   <path class="fil0 str0" d="M2146 3937c0,-55 -45,-100 -100,-100 -55,0 -100,45 -100,100 0,55 45,100 100,100 55,0 100,-45 100,-100z"/>
   <path class="fil0 str0" d="M6546 3337c0,-55 -45,-100 -100,-100 -55,0 -100,45 -100,100 0,55 45,100 100,100 55,0 100,-45 100,-100z"/>
   <path class="fil0 str0" d="M5746 3337c0,-55 -45,-100 -100,-100 -55,0 -100,45 -100,100 0,55 45,100 100,100 55,0 100,-45 100,-100z"/>
   <path class="fil0 str0" d="M4946 3337c0,-55 -45,-100 -100,-100 -55,0 -100,45 -100,100 0,55 45,100 100,100 55,0 100,-45 100,-100z"/>
   <path class="fil0 str0" d="M4146 3337c0,-55 -45,-100 -100,-100 -55,0 -100,45 -100,100 0,55 45,100 100,100 55,0 100,-45 100,-100z"/>
   <path class="fil0 str0" d="M3346 3337c0,-55 -45,-100 -100,-100 -55,0 -100,45 -100,100 0,55 45,100 100,100 55,0 100,-45 100,-100z"/>
   <path class="fil0 str0" d="M2546 3337c0,-55 -45,-100 -100,-100 -55,0 -100,45 -100,100 0,55 45,100 100,100 55,0 100,-45 100,-100z"/>
   <path class="fil0 str0" d="M6946 2737c0,-55 -45,-100 -100,-100 -55,0 -100,45 -100,100 0,55 45,100 100,100 55,0 100,-45 100,-100z"/>
   <path class="fil0 str0" d="M6146 2737c0,-55 -45,-100 -100,-100 -55,0 -100,45 -100,100 0,55 45,100 100,100 55,0 100,-45 100,-100z"/>
   <path class="fil0 str0" d="M5346 2737c0,-55 -45,-100 -100,-100 -55,0 -100,45 -100,100 0,55 45,100 100,100 55,0 100,-45 100,-100z"/>
   <path class="fil0 str0" d="M4546 2737c0,-55 -45,-100 -100,-100 -55,0 -100,45 -100,100 0,55 45,100 100,100 55,0 100,-45 100,-100z"/>
   <path class="fil0 str0" d="M3746 2737c0,-55 -45,-100 -100,-100 -55,0 -100,45 -100,100 0,55 45,100 100,100 55,0 100,-45 100,-100z"/>
   <path class="fil0 str0" d="M2946 2737c0,-55 -45,-100 -100,-100 -55,0 -100,45 -100,100 0,55 45,100 100,100 55,0 100,-45 100,-100z"/>
   <path class="fil0 str0" d="M2346 3037c0,-55 -45,-100 -100,-100 -55,0 -100,45 -100,100 0,55 45,100 100,100 55,0 100,-45 100,-100z"/>
   <path class="fil0 str0" d="M2146 2737c0,-55 -45,-100 -100,-100 -55,0 -100,45 -100,100 0,55 45,100 100,100 55,0 100,-45 100,-100z"/>
   <path class="fil0 str0" d="M2546 2737c0,-55 -45,-100 -100,-100 -55,0 -100,45 -100,100 0,55 45,100 100,100 55,0 100,-45 100,-100z"/>
   <path class="fil0 str0" d="M3346 2737c0,-55 -45,-100 -100,-100 -55,0 -100,45 -100,100 0,55 45,100 100,100 55,0 100,-45 100,-100z"/>
   <path class="fil0 str0" d="M4146 2737c0,-55 -45,-100 -100,-100 -55,0 -100,45 -100,100 0,55 45,100 100,100 55,0 100,-45 100,-100z"/>
   <path class="fil0 str0" d="M4946 2737c0,-55 -45,-100 -100,-100 -55,0 -100,45 -100,100 0,55 45,100 100,100 55,0 100,-45 100,-100z"/>
   <path class="fil0 str0" d="M5746 2737c0,-55 -45,-100 -100,-100 -55,0 -100,45 -100,100 0,55 45,100 100,100 55,0 100,-45 100,-100z"/>
   <path class="fil0 str0" d="M6546 2737c0,-55 -45,-100 -100,-100 -55,0 -100,45 -100,100 0,55 45,100 100,100 55,0 100,-45 100,-100z"/>
   <path class="fil0 str0" d="M2146 3337c0,-55 -45,-100 -100,-100 -55,0 -100,45 -100,100 0,55 45,100 100,100 55,0 100,-45 100,-100z"/>
   <path class="fil0 str0" d="M2946 3337c0,-55 -45,-100 -100,-100 -55,0 -100,45 -100,100 0,55 45,100 100,100 55,0 100,-45 100,-100z"/>
   <path class="fil0 str0" d="M3746 3337c0,-55 -45,-100 -100,-100 -55,0 -100,45 -100,100 0,55 45,100 100,100 55,0 100,-45 100,-100z"/>
   <path class="fil0 str0" d="M4546 3337c0,-55 -45,-100 -100,-100 -55,0 -100,45 -100,100 0,55 45,100 100,100 55,0 100,-45 100,-100z"/>
   <path class="fil0 str0" d="M5346 3337c0,-55 -45,-100 -100,-100 -55,0 -100,45 -100,100 0,55 45,100 100,100 55,0 100,-45 100,-100z"/>
   <path class="fil0 str0" d="M6146 3337c0,-55 -45,-100 -100,-100 -55,0 -100,45 -100,100 0,55 45,100 100,100 55,0 100,-45 100,-100z"/>
   <path class="fil0 str0" d="M6946 3337c0,-55 -45,-100 -100,-100 -55,0 -100,45 -100,100 0,55 45,100 100,100 55,0 100,-45 100,-100z"/>
   <path class="fil0 str0" d="M2546 3937c0,-55 -45,-100 -100,-100 -55,0 -100,45 -100,100 0,55 45,100 100,100 55,0 100,-45 100,-100z"/>
   <path class="fil0 str0" d="M3346 3937c0,-55 -45,-100 -100,-100 -55,0 -100,45 -100,100 0,55 45,100 100,100 55,0 100,-45 100,-100z"/>
   <path class="fil0 str0" d="M4146 3937c0,-55 -45,-100 -100,-100 -55,0 -100,45 -100,100 0,55 45,100 100,100 55,0 100,-45 100,-100z"/>
   <path class="fil0 str0" d="M4946 3937c0,-55 -45,-100 -100,-100 -55,0 -100,45 -100,100 0,55 45,100 100,100 55,0 100,-45 100,-100z"/>
   <path class="fil0 str0" d="M5746 3937c0,-55 -45,-100 -100,-100 -55,0 -100,45 -100,100 0,55 45,100 100,100 55,0 100,-45 100,-100z"/>
   <path class="fil0 str0" d="M6546 3937c0,-55 -45,-100 -100,-100 -55,0 -100,45 -100,100 0,55 45,100 100,100 55,0 100,-45 100,-100z"/>
   <path class="fil0 str0" d="M2146 4537c0,-55 -45,-100 -100,-100 -55,0 -100,45 -100,100 0,55 45,100 100,100 55,0 100,-45 100,-100z"/>
   <path class="fil0 str0" d="M2946 4537c0,-55 -45,-100 -100,-100 -55,0 -100,45 -100,100 0,55 45,100 100,100 55,0 100,-45 100,-100z"/>
   <path class="fil0 str0" d="M3746 4537c0,-55 -45,-100 -100,-100 -55,0 -100,45 -100,100 0,55 45,100 100,100 55,0 100,-45 100,-100z"/>
   <path class="fil0 str0" d="M4546 4537c0,-55 -45,-100 -100,-100 -55,0 -100,45 -100,100 0,55 45,100 100,100 55,0 100,-45 100,-100z"/>
   <path class="fil0 str0" d="M5346 4537c0,-55 -45,-100 -100,-100 -55,0 -100,45 -100,100 0,55 45,100 100,100 55,0 100,-45 100,-100z"/>
   <path class="fil0 str0" d="M6146 4537c0,-55 -45,-100 -100,-100 -55,0 -100,45 -100,100 0,55 45,100 100,100 55,0 100,-45 100,-100z"/>
   <path class="fil0 str0" d="M6946 4537c0,-55 -45,-100 -100,-100 -55,0 -100,45 -100,100 0,55 45,100 100,100 55,0 100,-45 100,-100z"/>
   <path class="fil0 str0" d="M2546 5137c0,-55 -45,-100 -100,-100 -55,0 -100,45 -100,100 0,55 45,100 100,100 55,0 100,-45 100,-100z"/>
   <path class="fil0 str0" d="M3346 5137c0,-55 -45,-100 -100,-100 -55,0 -100,45 -100,100 0,55 45,100 100,100 55,0 100,-45 100,-100z"/>
   <path class="fil0 str0" d="M4146 5137c0,-55 -45,-100 -100,-100 -55,0 -100,45 -100,100 0,55 45,100 100,100 55,0 100,-45 100,-100z"/>
   <path class="fil0 str0" d="M4946 5137c0,-55 -45,-100 -100,-100 -55,0 -100,45 -100,100 0,55 45,100 100,100 55,0 100,-45 100,-100z"/>
   <path class="fil0 str0" d="M5746 5137c0,-55 -45,-100 -100,-100 -55,0 -100,45 -100,100 0,55 45,100 100,100 55,0 100,-45 100,-100z"/>
   <path class="fil0 str0" d="M6546 5137c0,-55 -45,-100 -100,-100 -55,0 -100,45 -100,100 0,55 45,100 100,100 55,0 100,-45 100,-100z"/>
   <path class="fil0 str0" d="M2146 5737c0,-55 -45,-100 -100,-100 -55,0 -100,45 -100,100 0,55 45,100 100,100 55,0 100,-45 100,-100z"/>
   <path class="fil0 str0" d="M2946 5737c0,-55 -45,-100 -100,-100 -55,0 -100,45 -100,100 0,55 45,100 100,100 55,0 100,-45 100,-100z"/>
   <path class="fil0 str0" d="M3746 5737c0,-55 -45,-100 -100,-100 -55,0 -100,45 -100,100 0,55 45,100 100,100 55,0 100,-45 100,-100z"/>
   <path class="fil0 str0" d="M4546 5737c0,-55 -45,-100 -100,-100 -55,0 -100,45 -100,100 0,55 45,100 100,100 55,0 100,-45 100,-100z"/>
   <path class="fil0 str0" d="M5346 5737c0,-55 -45,-100 -100,-100 -55,0 -100,45 -100,100 0,55 45,100 100,100 55,0 100,-45 100,-100z"/>
   <path class="fil0 str0" d="M6146 5737c0,-55 -45,-100 -100,-100 -55,0 -100,45 -100,100 0,55 45,100 100,100 55,0 100,-45 100,-100z"/>
   <path class="fil0 str0" d="M6946 5737c0,-55 -45,-100 -100,-100 -55,0 -100,45 -100,100 0,55 45,100 100,100 55,0 100,-45 100,-100z"/>
   <path class="fil0 str0" d="M2546 6337c0,-55 -45,-100 -100,-100 -55,0 -100,45 -100,100 0,55 45,100 100,100 55,0 100,-45 100,-100z"/>
   <path class="fil0 str0" d="M3346 6337c0,-55 -45,-100 -100,-100 -55,0 -100,45 -100,100 0,55 45,100 100,100 55,0 100,-45 100,-100z"/>
   <path class="fil0 str0" d="M4146 6337c0,-55 -45,-100 -100,-100 -55,0 -100,45 -100,100 0,55 45,100 100,100 55,0 100,-45 100,-100z"/>
   <path class="fil0 str0" d="M4946 6337c0,-55 -45,-100 -100,-100 -55,0 -100,45 -100,100 0,55 45,100 100,100 55,0 100,-45 100,-100z"/>
   <path class="fil0 str0" d="M5746 6337c0,-55 -45,-100 -100,-100 -55,0 -100,45 -100,100 0,55 45,100 100,100 55,0 100,-45 100,-100z"/>
   <path class="fil0 str0" d="M6546 6337c0,-55 -45,-100 -100,-100 -55,0 -100,45 -100,100 0,55 45,100 100,100 55,0 100,-45 100,-100z"/>
   <path class="fil0 str0" d="M2146 6937c0,-55 -45,-100 -100,-100 -55,0 -100,45 -100,100 0,55 45,100 100,100 55,0 100,-45 100,-100z"/>
   <path class="fil0 str0" d="M2946 6937c0,-55 -45,-100 -100,-100 -55,0 -100,45 -100,100 0,55 45,100 100,100 55,0 100,-45 100,-100z"/>
   <path class="fil0 str0" d="M3746 6937c0,-55 -45,-100 -100,-100 -55,0 -100,45 -100,100 0,55 45,100 100,100 55,0 100,-45 100,-100z"/>
   <path class="fil0 str0" d="M4546 6937c0,-55 -45,-100 -100,-100 -55,0 -100,45 -100,100 0,55 45,100 100,100 55,0 100,-45 100,-100z"/>
   <path class="fil0 str0" d="M5346 6937c0,-55 -45,-100 -100,-100 -55,0 -100,45 -100,100 0,55 45,100 100,100 55,0 100,-45 100,-100z"/>
   <path class="fil0 str0" d="M6146 6937c0,-55 -45,-100 -100,-100 -55,0 -100,45 -100,100 0,55 45,100 100,100 55,0 100,-45 100,-100z"/>
   <path class="fil0 str0" d="M6946 6937c0,-55 -45,-100 -100,-100 -55,0 -100,45 -100,100 0,55 45,100 100,100 55,0 100,-45 100,-100z"/>
   <path class="fil0 str0" d="M2546 7537c0,-55 -45,-100 -100,-100 -55,0 -100,45 -100,100 0,55 45,100 100,100 55,0 100,-45 100,-100z"/>
   <path class="fil0 str0" d="M3346 7537c0,-55 -45,-100 -100,-100 -55,0 -100,45 -100,100 0,55 45,100 100,100 55,0 100,-45 100,-100z"/>
   <path class="fil0 str0" d="M4146 7537c0,-55 -45,-100 -100,-100 -55,0 -100,45 -100,100 0,55 45,100 100,100 55,0 100,-45 100,-100z"/>
   <path class="fil0 str0" d="M4946 7537c0,-55 -45,-100 -100,-100 -55,0 -100,45 -100,100 0,55 45,100 100,100 55,0 100,-45 100,-100z"/>
   <path class="fil0 str0" d="M5746 7537c0,-55 -45,-100 -100,-100 -55,0 -100,45 -100,100 0,55 45,100 100,100 55,0 100,-45 100,-100z"/>
   <path class="fil0 str0" d="M6546 7537c0,-55 -45,-100 -100,-100 -55,0 -100,45 -100,100 0,55 45,100 100,100 55,0 100,-45 100,-100z"/>
   <path class="fil0 str0" d="M2146 8137c0,-55 -45,-100 -100,-100 -55,0 -100,45 -100,100 0,55 45,100 100,100 55,0 100,-45 100,-100z"/>
   <path class="fil0 str0" d="M2946 8137c0,-55 -45,-100 -100,-100 -55,0 -100,45 -100,100 0,55 45,100 100,100 55,0 100,-45 100,-100z"/>
   <path class="fil0 str0" d="M3746 8137c0,-55 -45,-100 -100,-100 -55,0 -100,45 -100,100 0,55 45,100 100,100 55,0 100,-45 100,-100z"/>
   <path class="fil0 str0" d="M4546 8137c0,-55 -45,-100 -100,-100 -55,0 -100,45 -100,100 0,55 45,100 100,100 55,0 100,-45 100,-100z"/>
   <path class="fil0 str0" d="M5346 8137c0,-55 -45,-100 -100,-100 -55,0 -100,45 -100,100 0,55 45,100 100,100 55,0 100,-45 100,-100z"/>
   <path class="fil0 str0" d="M6146 8137c0,-55 -45,-100 -100,-100 -55,0 -100,45 -100,100 0,55 45,100 100,100 55,0 100,-45 100,-100z"/>
   <path class="fil0 str0" d="M6946 8137c0,-55 -45,-100 -100,-100 -55,0 -100,45 -100,100 0,55 45,100 100,100 55,0 100,-45 100,-100z"/>
   <path class="fil0 str0" d="M2546 8737c0,-55 -45,-100 -100,-100 -55,0 -100,45 -100,100 0,55 45,100 100,100 55,0 100,-45 100,-100z"/>
   <path class="fil0 str0" d="M3346 8737c0,-55 -45,-100 -100,-100 -55,0 -100,45 -100,100 0,55 45,100 100,100 55,0 100,-45 100,-100z"/>
   <path class="fil0 str0" d="M4146 8737c0,-55 -45,-100 -100,-100 -55,0 -100,45 -100,100 0,55 45,100 100,100 55,0 100,-45 100,-100z"/>
   <path class="fil0 str0" d="M4946 8737c0,-55 -45,-100 -100,-100 -55,0 -100,45 -100,100 0,55 45,100 100,100 55,0 100,-45 100,-100z"/>
   <path class="fil0 str0" d="M5746 8737c0,-55 -45,-100 -100,-100 -55,0 -100,45 -100,100 0,55 45,100 100,100 55,0 100,-45 100,-100z"/>
   <path class="fil0 str0" d="M6546 8737c0,-55 -45,-100 -100,-100 -55,0 -100,45 -100,100 0,55 45,100 100,100 55,0 100,-45 100,-100z"/>
   <path class="fil0 str0" d="M2746 3037c0,-55 -45,-100 -100,-100 -55,0 -100,45 -100,100 0,55 45,100 100,100 55,0 100,-45 100,-100z"/>
   <path class="fil0 str0" d="M3546 3037c0,-55 -45,-100 -100,-100 -55,0 -100,45 -100,100 0,55 45,100 100,100 55,0 100,-45 100,-100z"/>
   <path class="fil0 str0" d="M4346 3037c0,-55 -45,-100 -100,-100 -55,0 -100,45 -100,100 0,55 45,100 100,100 55,0 100,-45 100,-100z"/>
   <path class="fil0 str0" d="M5146 3037c0,-55 -45,-100 -100,-100 -55,0 -100,45 -100,100 0,55 45,100 100,100 55,0 100,-45 100,-100z"/>
   <path class="fil0 str0" d="M5946 3037c0,-55 -45,-100 -100,-100 -55,0 -100,45 -100,100 0,55 45,100 100,100 55,0 100,-45 100,-100z"/>
   <path class="fil0 str0" d="M6746 3037c0,-55 -45,-100 -100,-100 -55,0 -100,45 -100,100 0,55 45,100 100,100 55,0 100,-45 100,-100z"/>
   <path class="fil0 str0" d="M2746 3637c0,-55 -45,-100 -100,-100 -55,0 -100,45 -100,100 0,55 45,100 100,100 55,0 100,-45 100,-100z"/>
   <path class="fil0 str0" d="M3546 3637c0,-55 -45,-100 -100,-100 -55,0 -100,45 -100,100 0,55 45,100 100,100 55,0 100,-45 100,-100z"/>
   <path class="fil0 str0" d="M4346 3637c0,-55 -45,-100 -100,-100 -55,0 -100,45 -100,100 0,55 45,100 100,100 55,0 100,-45 100,-100z"/>
   <path class="fil0 str0" d="M5146 3637c0,-55 -45,-100 -100,-100 -55,0 -100,45 -100,100 0,55 45,100 100,100 55,0 100,-45 100,-100z"/>
   <path class="fil0 str0" d="M5946 3637c0,-55 -45,-100 -100,-100 -55,0 -100,45 -100,100 0,55 45,100 100,100 55,0 100,-45 100,-100z"/>
   <path class="fil0 str0" d="M6746 3637c0,-55 -45,-100 -100,-100 -55,0 -100,45 -100,100 0,55 45,100 100,100 55,0 100,-45 100,-100z"/>
   <path class="fil0 str0" d="M2746 4237c0,-55 -45,-100 -100,-100 -55,0 -100,45 -100,100 0,55 45,100 100,100 55,0 100,-45 100,-100z"/>
   <path class="fil0 str0" d="M3546 4237c0,-55 -45,-100 -100,-100 -55,0 -100,45 -100,100 0,55 45,100 100,100 55,0 100,-45 100,-100z"/>
   <path class="fil0 str0" d="M4346 4237c0,-55 -45,-100 -100,-100 -55,0 -100,45 -100,100 0,55 45,100 100,100 55,0 100,-45 100,-100z"/>
   <path class="fil0 str0" d="M5146 4237c0,-55 -45,-100 -100,-100 -55,0 -100,45 -100,100 0,55 45,100 100,100 55,0 100,-45 100,-100z"/>
   <path class="fil0 str0" d="M5946 4237c0,-55 -45,-100 -100,-100 -55,0 -100,45 -100,100 0,55 45,100 100,100 55,0 100,-45 100,-100z"/>
   <path class="fil0 str0" d="M6746 4237c0,-55 -45,-100 -100,-100 -55,0 -100,45 -100,100 0,55 45,100 100,100 55,0 100,-45 100,-100z"/>
   <path class="fil0 str0" d="M2746 4837c0,-55 -45,-100 -100,-100 -55,0 -100,45 -100,100 0,55 45,100 100,100 55,0 100,-45 100,-100z"/>
   <path class="fil0 str0" d="M3546 4837c0,-55 -45,-100 -100,-100 -55,0 -100,45 -100,100 0,55 45,100 100,100 55,0 100,-45 100,-100z"/>
   <path class="fil0 str0" d="M4346 4837c0,-55 -45,-100 -100,-100 -55,0 -100,45 -100,100 0,55 45,100 100,100 55,0 100,-45 100,-100z"/>
   <path class="fil0 str0" d="M5146 4837c0,-55 -45,-100 -100,-100 -55,0 -100,45 -100,100 0,55 45,100 100,100 55,0 100,-45 100,-100z"/>
   <path class="fil0 str0" d="M5946 4837c0,-55 -45,-100 -100,-100 -55,0 -100,45 -100,100 0,55 45,100 100,100 55,0 100,-45 100,-100z"/>
   <path class="fil0 str0" d="M6746 4837c0,-55 -45,-100 -100,-100 -55,0 -100,45 -100,100 0,55 45,100 100,100 55,0 100,-45 100,-100z"/>
   <path class="fil0 str0" d="M2746 5437c0,-55 -45,-100 -100,-100 -55,0 -100,45 -100,100 0,55 45,100 100,100 55,0 100,-45 100,-100z"/>
   <path class="fil0 str0" d="M3546 5437c0,-55 -45,-100 -100,-100 -55,0 -100,45 -100,100 0,55 45,100 100,100 55,0 100,-45 100,-100z"/>
   <path class="fil0 str0" d="M4346 5437c0,-55 -45,-100 -100,-100 -55,0 -100,45 -100,100 0,55 45,100 100,100 55,0 100,-45 100,-100z"/>
   <path class="fil0 str0" d="M5146 5437c0,-55 -45,-100 -100,-100 -55,0 -100,45 -100,100 0,55 45,100 100,100 55,0 100,-45 100,-100z"/>
   <path class="fil0 str0" d="M5946 5437c0,-55 -45,-100 -100,-100 -55,0 -100,45 -100,100 0,55 45,100 100,100 55,0 100,-45 100,-100z"/>
   <path class="fil0 str0" d="M6746 5437c0,-55 -45,-100 -100,-100 -55,0 -100,45 -100,100 0,55 45,100 100,100 55,0 100,-45 100,-100z"/>
   <path class="fil0 str0" d="M2746 6037c0,-55 -45,-100 -100,-100 -55,0 -100,45 -100,100 0,55 45,100 100,100 55,0 100,-45 100,-100z"/>
   <path class="fil0 str0" d="M3546 6037c0,-55 -45,-100 -100,-100 -55,0 -100,45 -100,100 0,55 45,100 100,100 55,0 100,-45 100,-100z"/>
   <path class="fil0 str0" d="M4346 6037c0,-55 -45,-100 -100,-100 -55,0 -100,45 -100,100 0,55 45,100 100,100 55,0 100,-45 100,-100z"/>
   <path class="fil0 str0" d="M5146 6037c0,-55 -45,-100 -100,-100 -55,0 -100,45 -100,100 0,55 45,100 100,100 55,0 100,-45 100,-100z"/>
   <path class="fil0 str0" d="M5946 6037c0,-55 -45,-100 -100,-100 -55,0 -100,45 -100,100 0,55 45,100 100,100 55,0 100,-45 100,-100z"/>
   <path class="fil0 str0" d="M6746 6037c0,-55 -45,-100 -100,-100 -55,0 -100,45 -100,100 0,55 45,100 100,100 55,0 100,-45 100,-100z"/>
   <path class="fil0 str0" d="M2746 6637c0,-55 -45,-100 -100,-100 -55,0 -100,45 -100,100 0,55 45,100 100,100 55,0 100,-45 100,-100z"/>
   <path class="fil0 str0" d="M3546 6637c0,-55 -45,-100 -100,-100 -55,0 -100,45 -100,100 0,55 45,100 100,100 55,0 100,-45 100,-100z"/>
   <path class="fil0 str0" d="M4346 6637c0,-55 -45,-100 -100,-100 -55,0 -100,45 -100,100 0,55 45,100 100,100 55,0 100,-45 100,-100z"/>
   <path class="fil0 str0" d="M5146 6637c0,-55 -45,-100 -100,-100 -55,0 -100,45 -100,100 0,55 45,100 100,100 55,0 100,-45 100,-100z"/>
   <path class="fil0 str0" d="M5946 6637c0,-55 -45,-100 -100,-100 -55,0 -100,45 -100,100 0,55 45,100 100,100 55,0 100,-45 100,-100z"/>
   <path class="fil0 str0" d="M6746 6637c0,-55 -45,-100 -100,-100 -55,0 -100,45 -100,100 0,55 45,100 100,100 55,0 100,-45 100,-100z"/>
   <path class="fil0 str0" d="M2746 7237c0,-55 -45,-100 -100,-100 -55,0 -100,45 -100,100 0,55 45,100 100,100 55,0 100,-45 100,-100z"/>
   <path class="fil0 str0" d="M3546 7237c0,-55 -45,-100 -100,-100 -55,0 -100,45 -100,100 0,55 45,100 100,100 55,0 100,-45 100,-100z"/>
   <path class="fil0 str0" d="M4346 7237c0,-55 -45,-100 -100,-100 -55,0 -100,45 -100,100 0,55 45,100 100,100 55,0 100,-45 100,-100z"/>
   <path class="fil0 str0" d="M5146 7237c0,-55 -45,-100 -100,-100 -55,0 -100,45 -100,100 0,55 45,100 100,100 55,0 100,-45 100,-100z"/>
   <path class="fil0 str0" d="M5946 7237c0,-55 -45,-100 -100,-100 -55,0 -100,45 -100,100 0,55 45,100 100,100 55,0 100,-45 100,-100z"/>
   <path class="fil0 str0" d="M6746 7237c0,-55 -45,-100 -100,-100 -55,0 -100,45 -100,100 0,55 45,100 100,100 55,0 100,-45 100,-100z"/>
   <path class="fil0 str0" d="M2746 7837c0,-55 -45,-100 -100,-100 -55,0 -100,45 -100,100 0,55 45,100 100,100 55,0 100,-45 100,-100z"/>
   <path class="fil0 str0" d="M3546 7837c0,-55 -45,-100 -100,-100 -55,0 -100,45 -100,100 0,55 45,100 100,100 55,0 100,-45 100,-100z"/>
   <path class="fil0 str0" d="M4346 7837c0,-55 -45,-100 -100,-100 -55,0 -100,45 -100,100 0,55 45,100 100,100 55,0 100,-45 100,-100z"/>
   <path class="fil0 str0" d="M5146 7837c0,-55 -45,-100 -100,-100 -55,0 -100,45 -100,100 0,55 45,100 100,100 55,0 100,-45 100,-100z"/>
   <path class="fil0 str0" d="M5946 7837c0,-55 -45,-100 -100,-100 -55,0 -100,45 -100,100 0,55 45,100 100,100 55,0 100,-45 100,-100z"/>
   <path class="fil0 str0" d="M6746 7837c0,-55 -45,-100 -100,-100 -55,0 -100,45 -100,100 0,55 45,100 100,100 55,0 100,-45 100,-100z"/>
   <path class="fil0 str0" d="M2746 8437c0,-55 -45,-100 -100,-100 -55,0 -100,45 -100,100 0,55 45,100 100,100 55,0 100,-45 100,-100z"/>
   <path class="fil0 str0" d="M3546 8437c0,-55 -45,-100 -100,-100 -55,0 -100,45 -100,100 0,55 45,100 100,100 55,0 100,-45 100,-100z"/>
   <path class="fil0 str0" d="M4346 8437c0,-55 -45,-100 -100,-100 -55,0 -100,45 -100,100 0,55 45,100 100,100 55,0 100,-45 100,-100z"/>
   <path class="fil0 str0" d="M5146 8437c0,-55 -45,-100 -100,-100 -55,0 -100,45 -100,100 0,55 45,100 100,100 55,0 100,-45 100,-100z"/>
   <path class="fil0 str0" d="M5946 8437c0,-55 -45,-100 -100,-100 -55,0 -100,45 -100,100 0,55 45,100 100,100 55,0 100,-45 100,-100z"/>
   <path class="fil0 str0" d="M6746 8437c0,-55 -45,-100 -100,-100 -55,0 -100,45 -100,100 0,55 45,100 100,100 55,0 100,-45 100,-100z"/>
   <line class="fil0 str0" x1="1151" y1="10077" x2="1331" y2= "10077" />
   <line class="fil0 str0" x1="7561" y1="10077" x2="7741" y2= "10077" />
   <line class="fil0 str1" x1="7741" y1="10207" x2="7741" y2= "10077" />
   <line class="fil0 str1" x1="7741" y1="10207" x2="7561" y2= "10207" />
   <line class="fil0 str1" x1="1331" y1="10207" x2="1151" y2= "10207" />
   <line class="fil0 str1" x1="1151" y1="10207" x2="1151" y2= "10077" />
   <path class="fil0 str0" d="M4646 2057c0,-110 -90,-200 -200,-200 -110,0 -200,90 -200,200 0,110 90,200 200,200 110,0 200,-90 200,-200z"/>
   <path class="fil0 str2" d="M4686 2057c0,-133 -107,-240 -240,-240 -133,0 -240,107 -240,240 0,133 107,240 240,240 133,0 240,-107 240,-240z"/>
   <line class="fil0 str1" x1="1331" y1="10007" x2="1331" y2= "1387" />
   <line class="fil0 str1" x1="7561" y1="1387" x2="7561" y2= "10007" />
   <line class="fil0 str1" x1="1831" y1="517" x2="7061" y2= "517" />
   <line class="fil0 str1" x1="1331" y1="1285" x2="1331" y2= "1032" />
   <line class="fil0 str1" x1="7561" y1="1032" x2="7561" y2= "1285" />
   <line class="fil0 str1" x1="7561" y1="1285" x2="7561" y2= "1387" />
   <line class="fil0 str1" x1="7561" y1="10207" x2="7561" y2= "10007" />
   <line class="fil0 str1" x1="1331" y1="10007" x2="1331" y2= "10207" />
   <line class="fil0 str1" x1="1331" y1="1387" x2="1331" y2= "1285" />
   <path class="fil0 str1" d="M1831 517c-133,0 -260,50 -354,138 -94,88 -146,208 -146,332"/>
   <line class="fil0 str1" x1="1331" y1="987" x2="1331" y2= "1032" />
   <line class="fil0 str1" x1="7561" y1="1032" x2="7561" y2= "987" />
   <path class="fil0 str1" d="M7561 987c0,-125 -53,-244 -146,-332 -94,-88 -221,-138 -354,-138"/>
   <path class="fil0 str1" d="M971 1912c0,-124 -101,-225 -225,-225 -124,0 -225,101 -225,225 0,124 101,225 225,225 124,0 225,-101 225,-225z"/>
   <path class="fil0 str1" d="M971 9482c0,-124 -101,-225 -225,-225 -124,0 -225,101 -225,225 0,124 101,225 225,225 124,0 225,-101 225,-225z"/>
   <line class="fil0 str1" x1="261" y1="8697" x2="261" y2= "9877" />
   <path class="fil0 str1" d="M261 9877c0,53 21,104 59,141 38,38 88,59 141,59"/>
   <line class="fil0 str1" x1="461" y1="10077" x2="1151" y2= "10077" />
   <line class="fil0 str1" x1="1331" y1="1317" x2="461" y2= "1317" />
   <path class="fil0 str1" d="M461 1317c-53,0 -104,21 -141,59 -38,38 -59,88 -59,141"/>
   <line class="fil0 str1" x1="261" y1="1517" x2="261" y2= "2697" />
   <path class="fil0 str1" d="M261 8697c960,-1885 960,-4115 0,-6000"/>
   <path class="fil0 str1" d="M8371 9482c0,-124 -101,-225 -225,-225 -124,0 -225,101 -225,225 0,124 101,225 225,225 124,0 225,-101 225,-225z"/>
   <path class="fil0 str1" d="M8371 1912c0,-124 -101,-225 -225,-225 -124,0 -225,101 -225,225 0,124 101,225 225,225 124,0 225,-101 225,-225z"/>
   <line class="fil0 str1" x1="7741" y1="10077" x2="8431" y2= "10077" />
   <path class="fil0 str1" d="M8431 10077c110,0 200,-90 200,-200"/>
   <line class="fil0 str1" x1="8631" y1="9877" x2="8631" y2= "8697" />
   <path class="fil0 str1" d="M8631 2697c-960,1885 -960,4115 0,6000"/>
   <line class="fil0 str1" x1="8631" y1="2697" x2="8631" y2= "1517" />
   <path class="fil0 str1" d="M8631 1517c0,-53 -21,-104 -59,-141 -38,-38 -88,-59 -141,-59"/>
   <line class="fil0 str1" x1="8431" y1="1317" x2="7561" y2= "1317" />
   <line class="fil0 str1" x1="1331" y1="10207" x2="7561" y2= "10207" />
   <line class="fil0 str1" x1="1326" y1="7122" x2="1326" y2= "6562" />
   <path class="fil0 str1" d="M1331 6549c-3,4 -5,8 -5,13"/>
   <path class="fil0 str1" d="M1326 7122c0,5 2,10 5,13"/>
   <g>
    <path class="fil0 str0" d="M4477 2115c-16,-15 -41,-13 -56,3"/>
    <path class="fil0 str0" d="M4504 2026c-15,16 -13,41 3,56"/>
    <path class="fil0 str0" d="M4387 2089c15,-16 13,-41 -3,-56"/>
    <path class="fil0 str0" d="M4414 1999c16,15 41,13 56,-3"/>
    <line class="fil0 str0" x1="4477" y1="2115" x2="4534" y2= "2165" />
    <line class="fil0 str0" x1="4504" y1="2026" x2="4554" y2= "1969" />
    <line class="fil0 str0" x1="4387" y1="2089" x2="4337" y2= "2145" />
    <line class="fil0 str0" x1="4520" y1="1939" x2="4470" y2= "1996" />
    <line class="fil0 str0" x1="4371" y1="2175" x2="4421" y2= "2119" />
    <line class="fil0 str0" x1="4337" y1="2145" x2="4371" y2= "2175" />
    <line class="fil0 str0" x1="4554" y1="1969" x2="4520" y2= "1939" />
    <line class="fil0 str0" x1="4327" y1="1983" x2="4384" y2= "2033" />
    <line class="fil0 str0" x1="4414" y1="1999" x2="4357" y2= "1949" />
    <line class="fil0 str0" x1="4357" y1="1949" x2="4327" y2= "1983" />
    <line class="fil0 str0" x1="4534" y1="2165" x2="4564" y2= "2131" />
    <line class="fil0 str0" x1="4564" y1="2131" x2="4507" y2= "2081" />
   </g>
  </g>
 </g>
 <g id="Размеры">
  <metadata id="CorelCorpID_1Corel-Layer"/>
  <g id="_860317760">
   <path class="fil1" d="M8871 5761l0 73 14 3c9,2 12,7 11,15 -3,8 -8,11 -17,9l-20 -5c-8,-2 -13,-6 -13,-12l0 -104c0,-8 4,-13 13,-13 2,0 4,0 6,1l225 112c3,2 5,4 6,7 3,8 0,13 -8,16 -3,1 -6,1 -9,-1l-207 -103z"/>
   <path id="1" class="fil1" d="M9097 5675l0 48c0,8 -4,12 -13,12 -8,0 -13,-4 -13,-12l0 -55c0,-26 -12,-42 -37,-49l-25 -7c-5,-1 -10,-2 -14,-2 -16,0 -23,10 -23,31l0 48c0,3 -1,6 -4,9 -3,3 -5,4 -9,4 -1,0 -2,0 -3,0l-100 -27c-6,-2 -10,-6 -10,-12l0 -91c0,-8 4,-12 13,-12 8,0 13,4 13,12l0 81 75 20 0 -39c0,-15 5,-26 14,-36 9,-9 21,-14 35,-14 5,0 10,1 14,2l25 7c29,8 48,22 56,42 4,10 6,24 6,39z"/>
   <path id="2" class="fil1" d="M9078 5540c-5,-2 -7,-6 -7,-11 0,-3 1,-6 4,-9 2,-3 5,-4 9,-4 2,0 4,0 6,2l50 26c4,2 6,6 6,11 0,9 -4,13 -12,13 -2,0 -4,0 -6,-2l-50 -26z"/>
   <path id="3" class="fil1" d="M8871 5308l0 73 14 3c9,2 12,7 11,15 -3,8 -8,11 -17,9l-20 -5c-8,-2 -13,-6 -13,-12l0 -104c0,-8 4,-13 13,-13 2,0 4,0 6,1l225 112c3,2 5,4 6,7 3,8 0,13 -8,16 -3,1 -6,1 -9,-1l-207 -103z"/>
   <g>
    <polygon class="fil1" points="271,1895 1221,1895 1221,1930 271,1930 "/>
   </g>
   <g>
    <polygon class="fil1" points="728,2387 728,1437 763,1437 763,2387 "/>
   </g>
   <g>
    <polygon class="fil1" points="7671,1895 8621,1895 8621,1930 7671,1930 "/>
   </g>
   <g>
    <polygon class="fil1" points="8128,2387 8128,1437 8163,1437 8163,2387 "/>
   </g>
   <g>
    <polygon class="fil1" points="271,9465 1221,9465 1221,9500 271,9500 "/>
   </g>
   <g>
    <polygon class="fil1" points="728,9957 728,9007 763,9007 763,9957 "/>
   </g>
   <g>
    <polygon class="fil1" points="7671,9465 8621,9465 8621,9500 7671,9500 "/>
   </g>
   <g>
    <polygon class="fil1" points="8128,9957 8128,9007 8163,9007 8163,9957 "/>
   </g>
   <line class="fil0 str3" x1="7061" y1="517" x2="10339" y2= "517" />
   <line class="fil0 str3" x1="8146" y1="9482" x2="9316" y2= "9482" />
   <line class="fil0 str3" x1="261" y1="9877" x2="261" y2= "12484" />
   <line class="fil0 str3" x1="8631" y1="9877" x2="8631" y2= "12484" />
   <line class="fil0 str3" x1="7561" y1="10207" x2="10339" y2= "10207" />
   <line class="fil0 str3" x1="8146" y1="1912" x2="9316" y2= "1912" />
   <line class="fil0 str3" x1="746" y1="9482" x2="746" y2= "11466" />
   <line class="fil0 str3" x1="8146" y1="9482" x2="8146" y2= "11466" />
   <line class="fil0 str3" x1="611" y1="12384" x2="8281" y2= "12384" />
   <g id="Filled-1">
    <line class="fil0 str3" x1="611" y1="12384" x2="261" y2= "12384" />
    <polygon class="fil2 str3" points="611,12334 261,12384 611,12434 "/>
    <path class="fil2 str3" d="M611 12334l0 100m0 -100l-350 50m350 -50"/>
    <line class="fil0 str3" x1="611" y1="12334" x2="261" y2= "12384" />
    <line class="fil0 str3" x1="261" y1="12384" x2="611" y2= "12434" />
    <line class="fil0 str3" x1="611" y1="12434" x2="611" y2= "12334" />
   </g>
   <g id="Filled-1_0">
    <line class="fil0 str3" x1="8281" y1="12384" x2="8631" y2= "12384" />
    <polygon class="fil2 str3" points="8281,12434 8631,12384 8281,12334 "/>
    <path class="fil2 str3" d="M8281 12434l0 -100m0 100l350 -50m-350 50"/>
    <line class="fil0 str3" x1="8281" y1="12434" x2="8631" y2= "12384" />
    <line class="fil0 str3" x1="8631" y1="12384" x2="8281" y2= "12334" />
    <line class="fil0 str3" x1="8281" y1="12334" x2="8281" y2= "12434" />
   </g>
   <path class="fil1" d="M4377 12201c8,9 13,20 13,33 0,5 -1,9 -2,14l-7 25c-6,23 -16,39 -28,48 -13,10 -30,14 -53,14 -14,0 -26,-5 -36,-14 -9,-9 -14,-21 -14,-35 0,-5 1,-10 2,-14l7 -25c7,-27 20,-45 38,-53 -8,-9 -13,-20 -13,-33 0,-5 1,-10 2,-14 6,-22 16,-38 28,-48 12,-10 30,-15 53,-15 14,0 26,5 36,14 9,9 14,21 14,35 0,5 -1,10 -2,14 -8,27 -20,45 -38,54zm-44 9c-26,0 -42,12 -49,37l-7 25c-1,5 -2,10 -2,14 0,16 10,23 31,23 26,0 42,-12 49,-37l7 -25c1,-5 2,-10 2,-14 0,-16 -10,-23 -31,-23zm26 -100c-26,0 -42,13 -49,38 -1,5 -2,10 -2,14 0,16 10,24 31,24 26,0 42,-13 49,-38 1,-5 2,-10 2,-14 0,-16 -10,-24 -31,-24z"/>
   <path id="1" class="fil1" d="M4553 12259l22 0c8,0 13,4 13,13 0,8 -4,13 -13,13l-29 0 -11 41c-2,6 -6,9 -12,9 -9,0 -13,-4 -13,-13 0,-1 0,-2 0,-3l9 -34 -75 0c-4,0 -7,-1 -9,-4 -2,-3 -4,-5 -4,-9 0,-2 1,-4 2,-6l99 -175c2,-4 6,-6 11,-6 9,0 13,4 13,12 0,2 -1,4 -2,6l-88 156 60 0 11 -41c2,-6 6,-9 12,-9 9,0 13,4 13,12 0,1 0,3 0,3l-9 35z"/>
   <path class="fil2 str3" d="M8632 12384c0,-1 0,-1 -1,-1 -1,0 -1,0 -1,1 0,1 0,1 1,1 1,0 1,0 1,-1z"/>
   <line class="fil0 str3" x1="10239" y1="9857" x2="10239" y2= "867" />
   <g id="Filled-1_1">
    <line class="fil0 str3" x1="10239" y1="9857" x2="10239" y2= "10207" />
    <polygon class="fil2 str3" points="10189,9857 10239,10207 10289,9857 "/>
    <path class="fil2 str3" d="M10189 9857l100 0 -100 0 50 350m-50 -350"/>
    <line class="fil0 str3" x1="10189" y1="9857" x2="10239" y2= "10207" />
    <line class="fil0 str3" x1="10239" y1="10207" x2="10289" y2= "9857" />
    <line class="fil0 str3" x1="10289" y1="9857" x2="10189" y2= "9857" />
   </g>
   <g id="Filled-1_2">
    <line class="fil0 str3" x1="10239" y1="867" x2="10239" y2= "517" />
    <polygon class="fil0 str3" points="10289,867 10239,517 10189,867 "/>
    <path class="fil3 str3" d="M10289 867l-100 0m100 0l-50 -350m50 350"/>
    <line class="fil0 str3" x1="10289" y1="867" x2="10239" y2= "517" />
    <line class="fil0 str3" x1="10239" y1="517" x2="10189" y2= "867" />
    <line class="fil0 str3" x1="10189" y1="867" x2="10289" y2= "867" />
   </g>
   <path class="fil1" d="M9961 5650c0,26 12,42 38,49l25 7c5,1 10,2 14,2 16,0 24,-10 24,-31l0 -39 -63 -17c-4,-1 -7,-2 -9,-2 -8,0 -15,3 -20,9 -5,6 -8,13 -8,22zm-25 -7c0,-13 5,-24 16,-34 11,-10 23,-15 36,-15 3,0 7,0 10,1l76 20c61,16 98,54 112,114 0,1 0,2 0,3 0,3 -1,6 -4,9 -3,2 -5,4 -9,4 -7,0 -11,-3 -12,-8 -2,-15 -7,-29 -16,-43 -16,-25 -36,-41 -60,-48l0 37c0,14 -5,26 -14,36 -9,9 -21,14 -35,14 -5,0 -10,-1 -14,-2l-25 -7c-15,-4 -27,-10 -36,-16 -18,-13 -26,-35 -26,-65z"/>
   <path id="1" class="fil1" d="M9961 5434l0 73 14 3c9,2 12,7 11,15 -3,8 -8,11 -17,9l-20 -5c-8,-2 -13,-6 -13,-12l0 -104c0,-8 4,-13 13,-13 2,0 4,0 6,1l225 112c3,2 5,4 6,7 3,8 0,13 -8,16 -3,1 -6,1 -9,-1l-207 -103z"/>
   <path class="fil3 str3" d="M10240 517c0,-1 0,-1 -1,-1 -1,0 -1,0 -1,1 0,1 0,1 1,1 1,0 1,0 1,-1z"/>
   <line class="fil0 str3" x1="9216" y1="2262" x2="9216" y2= "9132" />
   <g id="Filled-1_3">
    <line class="fil0 str3" x1="9216" y1="2262" x2="9216" y2= "1912" />
    <polygon class="fil0 str3" points="9266,2262 9216,1912 9166,2262 "/>
    <path class="fil3 str3" d="M9266 2262l-100 0m100 0l-50 -350m50 350"/>
    <line class="fil0 str3" x1="9266" y1="2262" x2="9216" y2= "1912" />
    <line class="fil0 str3" x1="9216" y1="1912" x2="9166" y2= "2262" />
    <line class="fil0 str3" x1="9166" y1="2262" x2="9266" y2= "2262" />
   </g>
   <g id="Filled-1_4">
    <line class="fil0 str3" x1="9216" y1="9132" x2="9216" y2= "9482" />
    <polygon class="fil2 str3" points="9166,9132 9216,9482 9266,9132 "/>
    <path class="fil2 str3" d="M9166 9132l100 0 -100 0 50 350m-50 -350"/>
    <line class="fil0 str3" x1="9166" y1="9132" x2="9216" y2= "9482" />
    <line class="fil0 str3" x1="9216" y1="9482" x2="9266" y2= "9132" />
    <line class="fil0 str3" x1="9266" y1="9132" x2="9166" y2= "9132" />
   </g>
   <path class="fil2 str3" d="M9217 9482c0,-1 0,-1 -1,-1 -1,0 -1,0 -1,1 0,1 0,1 1,1 1,0 1,0 1,-1z"/>
   <line class="fil0 str3" x1="1096" y1="11366" x2="7796" y2= "11366" />
   <g id="Filled-1_5">
    <line class="fil0 str3" x1="1096" y1="11366" x2="746" y2= "11366" />
    <polygon class="fil2 str3" points="1096,11316 746,11366 1096,11416 "/>
    <path class="fil2 str3" d="M1096 11316l0 100m0 -100l-350 50m350 -50"/>
    <line class="fil0 str3" x1="1096" y1="11316" x2="746" y2= "11366" />
    <line class="fil0 str3" x1="746" y1="11366" x2="1096" y2= "11416" />
    <line class="fil0 str3" x1="1096" y1="11416" x2="1096" y2= "11316" />
   </g>
   <g id="Filled-1_6">
    <line class="fil0 str3" x1="7796" y1="11366" x2="8146" y2= "11366" />
    <polygon class="fil2 str3" points="7796,11416 8146,11366 7796,11316 "/>
    <path class="fil2 str3" d="M7796 11416l0 -100m0 100l350 -50m-350 50"/>
    <line class="fil0 str3" x1="7796" y1="11416" x2="8146" y2= "11366" />
    <line class="fil0 str3" x1="8146" y1="11366" x2="7796" y2= "11316" />
    <line class="fil0 str3" x1="7796" y1="11316" x2="7796" y2= "11416" />
   </g>
   <path class="fil1" d="M4469 11087l-73 0 -3 14c-2,9 -7,12 -15,11 -8,-3 -11,-8 -9,-17l5 -20c2,-8 6,-13 12,-13l104 0c8,0 13,4 13,13 0,2 0,4 -1,6l-112 225c-2,3 -4,5 -7,6 -8,3 -13,0 -16,-8 -1,-3 -1,-6 1,-9l103 -207z"/>
   <path id="1" class="fil1" d="M4627 11237l22 0c8,0 13,4 13,13 0,8 -4,13 -13,13l-29 0 -11 41c-2,6 -6,9 -12,9 -9,0 -13,-4 -13,-13 0,-1 0,-2 0,-3l9 -34 -75 0c-4,0 -7,-1 -9,-4 -2,-3 -4,-5 -4,-9 0,-2 1,-4 2,-6l99 -175c2,-4 6,-6 11,-6 9,0 13,4 13,12 0,2 -1,4 -2,6l-88 156 60 0 11 -41c2,-6 6,-9 12,-9 9,0 13,4 13,12 0,1 0,3 0,3l-9 35z"/>
   <path class="fil3 str3" d="M8147 11366c0,-1 0,-1 -1,-1 -1,0 -1,0 -1,1 0,1 0,1 1,1 1,0 1,0 1,-1z"/>
  </g>
 </g>
 <g id="Лого">
  <metadata id="CorelCorpID_2Corel-Layer"/>
  <g>
   <g>
    <path class="fil2" d="M2281 2180c0,-69 -56,-125 -124,-125 -69,0 -124,56 -124,125 0,69 56,125 124,125 69,0 124,-56 124,-125zm-93 0c0,-17 -14,-31 -31,-31 -17,0 -31,14 -31,31 0,17 14,31 31,31 17,0 31,-14 31,-31z"/>
    <path class="fil2" d="M2339 2358c0,0 -180,0 -180,0 0,0 -163,0 -163,0 0,0 -16,0 -16,0l0 -360c0,0 179,0 179,0 0,0 0,33 0,33 -81,0 -146,66 -146,147 0,0 0,147 0,147 0,0 147,0 147,0 81,0 147,-66 147,-147 0,0 33,-1 33,-1 0,0 0,181 0,181z"/>
   </g>
   <path class="fil2" d="M2532 2086c13,0 24,2 34,6 10,4 18,10 24,18 7,8 12,19 15,32 3,13 5,29 5,47 0,19 -2,34 -5,47 -3,13 -8,24 -15,32 -7,8 -15,14 -24,18 -10,4 -21,6 -34,6 -13,0 -24,-2 -34,-6 -10,-4 -18,-10 -24,-18 -7,-8 -12,-19 -15,-32 -3,-13 -5,-29 -5,-47 0,-19 2,-34 5,-47 3,-13 8,-24 15,-32 7,-8 15,-14 24,-18 10,-4 21,-6 34,-6zm0 26c-4,0 -9,1 -12,3 -4,2 -7,6 -10,12 -3,6 -5,14 -7,24 -2,10 -2,23 -2,38 0,15 1,28 2,38 2,10 4,18 7,24 3,6 6,10 10,12 4,2 8,3 12,3 4,0 9,-1 12,-3 4,-2 7,-6 10,-12 3,-6 5,-14 7,-24 2,-10 2,-23 2,-38 0,-15 -1,-28 -2,-38 -2,-10 -4,-18 -7,-24 -3,-6 -6,-10 -10,-12 -4,-2 -8,-3 -12,-3zm145 175c0,0 -57,-197 -57,-197 0,0 47,0 47,0 0,0 38,148 38,148 0,0 2,0 2,0 0,0 38,-148 38,-148 0,0 47,0 47,0 0,0 -57,197 -57,197 0,0 -59,0 -59,0zm274 -85c0,0 -102,0 -102,0 0,23 4,38 12,47 8,9 20,14 37,14 0,0 43,0 43,0 0,0 0,20 0,20 -6,2 -14,4 -23,6 -9,2 -18,2 -28,2 -15,0 -28,-2 -39,-6 -11,-4 -20,-10 -27,-18 -7,-8 -13,-19 -16,-32 -4,-13 -5,-29 -5,-47 0,-19 2,-34 5,-47 3,-13 8,-24 14,-32 6,-8 14,-14 23,-18 9,-4 20,-6 32,-6 12,0 22,2 32,6 9,4 17,10 23,18 6,8 11,19 14,32 3,13 5,29 5,47 0,0 0,14 0,14zm-47 -28c0,-13 -1,-23 -2,-32 -1,-8 -3,-15 -6,-19 -2,-5 -5,-8 -9,-10 -3,-2 -7,-3 -11,-3 -4,0 -8,1 -11,3 -3,2 -6,5 -9,10 -2,5 -4,11 -6,19 -1,8 -2,19 -2,32 0,0 55,0 55,0zm192 -85c0,0 0,33 0,33 0,0 -43,0 -43,0 -5,0 -9,1 -13,2 -4,2 -7,3 -9,6 0,0 0,156 0,156 0,0 -47,0 -47,0 0,0 0,-197 0,-197 0,0 33,0 33,0 0,0 6,16 6,16 0,0 2,0 2,0 4,-4 10,-8 17,-11 7,-3 16,-5 28,-5 0,0 25,0 25,0zm75 197c0,0 -57,-197 -57,-197 0,0 47,0 47,0 0,0 38,148 38,148 0,0 2,0 2,0 0,0 38,-148 38,-148 0,0 47,0 47,0 0,0 -57,197 -57,197 0,0 -59,0 -59,0zm188 0c0,0 -47,0 -47,0 0,0 0,-197 0,-197 0,0 47,0 47,0 0,0 0,197 0,197zm0 -268c0,0 0,47 0,47 0,0 -47,0 -47,0 0,0 0,-47 0,-47 0,0 47,0 47,0zm79 118c0,7 2,12 7,17 5,4 10,8 17,11 7,3 14,7 22,10 8,3 15,7 22,12 7,5 12,11 17,18 5,7 7,16 7,27 0,12 -2,22 -5,29 -3,8 -9,14 -16,18 -7,4 -16,8 -26,9 -11,2 -23,3 -37,3 -10,0 -19,-1 -28,-2 -9,-2 -17,-3 -23,-6 0,0 0,-20 0,-20 0,0 43,0 43,0 15,0 26,-2 34,-6 8,-4 11,-11 11,-21 0,-7 -2,-12 -7,-17 -5,-4 -10,-8 -17,-11 -7,-3 -14,-6 -22,-10 -8,-3 -15,-7 -22,-12 -7,-5 -12,-10 -17,-18 -5,-7 -7,-16 -7,-28 0,-11 2,-20 5,-27 3,-7 8,-13 15,-17 6,-4 14,-7 24,-9 10,-2 20,-3 33,-3 10,0 19,1 28,2 9,2 17,3 23,6 0,0 0,20 0,20 0,0 -43,0 -43,0 -11,0 -20,2 -27,6 -7,4 -10,10 -10,18z"/>
  </g>
  <path class="fil4" d="M2038 9339c0,-18 0,-33 1,-46 1,-13 3,-23 5,-31 3,-8 6,-14 11,-18 5,-4 11,-5 19,-5 8,0 15,2 19,5 5,4 9,10 11,18 3,8 4,18 5,31 1,13 1,28 1,46 0,18 0,34 -1,46 -1,13 -3,23 -5,31 -3,8 -6,14 -11,17 -5,4 -11,5 -19,5 -8,0 -15,-2 -19,-5 -5,-4 -9,-9 -11,-17 -3,-8 -4,-18 -5,-31 -1,-13 -1,-28 -1,-46zm-54 0c0,21 1,40 3,57 2,17 6,32 12,44 6,12 16,22 28,28 12,7 28,10 49,10 20,0 37,-3 49,-10 12,-7 21,-16 28,-28 6,-12 11,-27 12,-44 2,-17 3,-36 3,-57 0,-20 -1,-39 -3,-56 -2,-17 -6,-32 -12,-44 -6,-12 -16,-22 -28,-29 -12,-7 -28,-10 -49,-10 -20,0 -37,3 -49,10 -12,7 -21,17 -28,29 -6,12 -11,27 -12,44 -2,17 -3,36 -3,56z"/>
  <path id="1" class="fil4" d="M2254 9326l0 -82 23 0c14,0 23,4 29,11 6,7 9,17 9,31 0,14 -3,24 -10,31 -7,7 -15,10 -26,10l-24 0zm-54 -122l0 270 54 0 0 -108 29 0c13,0 25,-2 35,-5 11,-3 20,-8 27,-15 7,-7 13,-15 17,-25 4,-10 6,-22 6,-36 0,-10 -1,-20 -4,-30 -3,-10 -7,-18 -12,-26 -6,-8 -13,-14 -23,-18 -9,-5 -21,-7 -35,-7l-95 0z"/>
  <path id="2" class="fil4" d="M2510 9295l54 0c0,-10 -1,-20 -2,-32 -1,-11 -5,-22 -10,-31 -6,-10 -14,-18 -25,-24 -11,-6 -26,-9 -46,-9 -20,0 -37,3 -49,10 -12,7 -21,17 -28,29 -6,12 -11,27 -12,44 -2,17 -3,36 -3,56 0,21 1,40 3,57 2,17 6,32 12,44 6,12 16,22 28,28 12,7 28,10 49,10 18,0 32,-3 44,-8 11,-6 20,-13 26,-23 6,-10 10,-21 13,-34 2,-13 3,-27 3,-42l-54 0c0,15 -1,26 -3,35 -2,9 -4,16 -7,21 -3,5 -7,8 -11,10 -4,2 -9,2 -13,2 -6,0 -11,-1 -15,-4 -4,-2 -8,-7 -11,-14 -3,-7 -5,-17 -6,-29 -1,-13 -2,-29 -2,-49 0,-19 1,-35 2,-49 1,-13 3,-24 5,-32 3,-8 6,-14 10,-18 4,-4 10,-5 17,-5 12,0 21,4 25,13 5,9 7,23 7,43z"/>
  <path id="3" class="fil4" d="M2652 9433l0 -81 23 0c6,0 12,1 17,2 5,1 9,3 13,7 4,3 7,7 9,12 2,5 3,12 3,19 0,16 -4,26 -12,32 -8,6 -19,9 -32,9l-21 0zm0 -119l0 -71 20 0c14,0 24,3 30,8 6,5 9,14 9,27 0,13 -3,22 -10,27 -7,5 -18,8 -33,8l-15 0zm-54 -111l0 270 92 0c16,0 29,-2 40,-6 11,-4 19,-10 26,-17 7,-7 11,-16 14,-25 3,-10 4,-20 4,-30 0,-18 -4,-33 -13,-43 -9,-11 -21,-17 -36,-19l0 -1c14,-4 24,-11 31,-21 7,-10 10,-23 10,-38 0,-13 -2,-24 -6,-32 -4,-9 -9,-16 -16,-21 -7,-5 -15,-9 -24,-11 -9,-2 -20,-3 -31,-3l-91 0z"/>
  <polygon id="4" class="fil4" points="2912,9342 2805,9342 2805,9387 2912,9387 "/>
  <path id="5" class="fil4" d="M3100 9473l0 -42 -101 0c1,-5 4,-11 9,-18 5,-7 11,-14 19,-21l30 -28c8,-7 14,-13 19,-20 5,-6 10,-13 13,-20 3,-7 6,-14 7,-21 2,-7 2,-15 2,-24 0,-23 -7,-41 -20,-54 -13,-13 -33,-19 -60,-19 -29,0 -50,7 -63,20 -13,13 -20,32 -20,57l0 10 52 0c0,-7 0,-14 1,-20 1,-6 2,-12 4,-17 2,-5 5,-9 9,-11 4,-3 9,-4 16,-4 18,0 26,11 26,33 0,7 0,13 -1,18 -1,5 -2,10 -4,15 -2,5 -5,9 -8,14 -4,5 -8,9 -15,15l-22 20c-10,9 -18,18 -26,27 -7,9 -14,18 -18,27 -5,9 -9,19 -11,29 -2,10 -4,21 -4,33l165 0z"/>
  <path id="6" class="fil4" d="M3281 9473l0 -42 -101 0c1,-5 4,-11 9,-18 5,-7 11,-14 19,-21l30 -28c8,-7 14,-13 19,-20 5,-6 10,-13 13,-20 3,-7 6,-14 7,-21 2,-7 2,-15 2,-24 0,-23 -7,-41 -20,-54 -13,-13 -33,-19 -60,-19 -29,0 -50,7 -63,20 -13,13 -20,32 -20,57l0 10 52 0c0,-7 0,-14 1,-20 1,-6 2,-12 4,-17 2,-5 5,-9 9,-11 4,-3 9,-4 16,-4 18,0 26,11 26,33 0,7 0,13 -1,18 -1,5 -2,10 -4,15 -2,5 -5,9 -8,14 -4,5 -8,9 -15,15l-22 20c-10,9 -18,18 -26,27 -7,9 -14,18 -18,27 -5,9 -9,19 -11,29 -2,10 -4,21 -4,33l165 0z"/>
  <path id="7" class="fil4" d="M3360 9473l54 0 0 -267 -40 0c-3,15 -9,26 -20,33 -10,7 -25,10 -43,10l-5 0 0 35 53 0 0 189z"/>
 </g>
</svg>
