<?xml version="1.0" encoding="UTF-8"?>
<!DOCTYPE svg PUBLIC "-//W3C//DTD SVG 1.1//EN" "http://www.w3.org/Graphics/SVG/1.1/DTD/svg11.dtd">
<!-- Creator: CorelDRAW X6 -->
<svg xmlns="http://www.w3.org/2000/svg" xml:space="preserve" width="86mm" height="64mm" version="1.1" style="shape-rendering:geometricPrecision; text-rendering:geometricPrecision; image-rendering:optimizeQuality; fill-rule:evenodd; clip-rule:evenodd"
viewBox="0 0 8600 6400"
 xmlns:xlink="http://www.w3.org/1999/xlink">
 <defs>
  <style type="text/css">
   <![CDATA[
    .str0 {stroke:black;stroke-width:20;stroke-linejoin:bevel}
    .str2 {stroke:#2B2A29;stroke-width:34.99;stroke-linecap:round;stroke-linejoin:round}
    .str3 {stroke:black;stroke-width:34.99;stroke-linejoin:bevel}
    .str1 {stroke:black;stroke-width:50;stroke-linejoin:bevel}
    .fil0 {fill:none}
    .fil2 {fill:#2B2A29}
    .fil3 {fill:#2B2A29;fill-rule:nonzero}
    .fil1 {fill:black;fill-rule:nonzero}
   ]]>
  </style>
 </defs>
 <g id="OPCB-221_x0020_Для_x0020_паспорта">
  <metadata id="CorelCorpID_0Corel-Layer"/>
  <g id="_845770896">
   <line class="fil0 str0" x1="7410" y1="3357" x2="7410" y2= "3367" />
   <line class="fil0 str0" x1="7410" y1="3847" x2="7410" y2= "3857" />
   <line class="fil0 str0" x1="7445" y1="3377" x2="7445" y2= "3837" />
   <path class="fil0 str0" d="M7445 3377c0,-5 -2,-10 -6,-14 -4,-4 -9,-6 -14,-6"/>
   <line class="fil0 str0" x1="7265" y1="3357" x2="7425" y2= "3357" />
   <path class="fil0 str0" d="M7265 3357c-5,0 -10,2 -14,6 -4,4 -6,9 -6,14"/>
   <line class="fil0 str0" x1="7245" y1="3837" x2="7245" y2= "3377" />
   <path class="fil0 str0" d="M7245 3837c0,5 2,10 6,14 4,4 9,6 14,6"/>
   <line class="fil0 str0" x1="7425" y1="3857" x2="7265" y2= "3857" />
   <path class="fil0 str0" d="M7425 3857c11,0 20,-9 20,-20"/>
   <line class="fil0 str0" x1="1190" y1="3857" x2="1190" y2= "3847" />
   <line class="fil0 str0" x1="1190" y1="3367" x2="1190" y2= "3357" />
   <path class="fil0 str0" d="M1335 3857c11,0 20,-9 20,-20"/>
   <line class="fil0 str0" x1="1335" y1="3857" x2="1175" y2= "3857" />
   <path class="fil0 str0" d="M1155 3837c0,5 2,10 6,14 4,4 9,6 14,6"/>
   <line class="fil0 str0" x1="1155" y1="3837" x2="1155" y2= "3377" />
   <path class="fil0 str0" d="M1175 3357c-5,0 -10,2 -14,6 -4,4 -6,9 -6,14"/>
   <line class="fil0 str0" x1="1175" y1="3357" x2="1335" y2= "3357" />
   <path class="fil0 str0" d="M1355 3377c0,-5 -2,-10 -6,-14 -4,-4 -9,-6 -14,-6"/>
   <line class="fil0 str0" x1="1355" y1="3377" x2="1355" y2= "3837" />
   <line class="fil0 str0" x1="7410" y1="3847" x2="7410" y2= "3367" />
   <line class="fil0 str0" x1="7280" y1="3847" x2="7410" y2= "3847" />
   <line class="fil0 str0" x1="7280" y1="3367" x2="7280" y2= "3847" />
   <line class="fil0 str0" x1="7410" y1="3367" x2="7280" y2= "3367" />
   <line class="fil0 str0" x1="1320" y1="3367" x2="1190" y2= "3367" />
   <line class="fil0 str0" x1="1320" y1="3847" x2="1320" y2= "3367" />
   <line class="fil0 str0" x1="1190" y1="3847" x2="1320" y2= "3847" />
   <line class="fil0 str0" x1="1190" y1="3367" x2="1190" y2= "3847" />
   <path class="fil0 str0" d="M5085 4177c28,0 50,-22 50,-50"/>
   <line class="fil0 str0" x1="5135" y1="2567" x2="5135" y2= "4127" />
   <path class="fil0 str0" d="M5135 2567c0,-13 -5,-26 -15,-35 -9,-9 -22,-15 -35,-15"/>
   <line class="fil0 str0" x1="3595" y1="2517" x2="5085" y2= "2517" />
   <path class="fil0 str0" d="M3595 2517c-13,0 -26,5 -35,15 -9,9 -15,22 -15,35"/>
   <line class="fil0 str0" x1="3545" y1="4127" x2="3545" y2= "2567" />
   <path class="fil0 str0" d="M3545 4127c0,13 5,26 15,35 9,9 22,15 35,15"/>
   <line class="fil0 str0" x1="5085" y1="4177" x2="3595" y2= "4177" />
   <path class="fil0 str0" d="M1695 2797c-13,0 -26,5 -35,15 -9,9 -15,22 -15,35"/>
   <line class="fil0 str0" x1="1645" y1="4227" x2="1645" y2= "2847" />
   <path class="fil0 str0" d="M1645 4227c0,13 5,26 15,35 9,9 22,15 35,15"/>
   <line class="fil0 str0" x1="3315" y1="4277" x2="1695" y2= "4277" />
   <path class="fil0 str0" d="M3315 4277c28,0 50,-22 50,-50"/>
   <line class="fil0 str0" x1="3365" y1="2847" x2="3365" y2= "4227" />
   <path class="fil0 str0" d="M3365 2847c0,-13 -5,-26 -15,-35 -9,-9 -22,-15 -35,-15"/>
   <line class="fil0 str0" x1="1695" y1="2797" x2="3315" y2= "2797" />
   <path class="fil0 str0" d="M6905 4177c28,0 50,-22 50,-50"/>
   <line class="fil0 str0" x1="6955" y1="2567" x2="6955" y2= "4127" />
   <path class="fil0 str0" d="M6955 2567c0,-13 -5,-26 -15,-35 -9,-9 -22,-15 -35,-15"/>
   <line class="fil0 str0" x1="5415" y1="2517" x2="6905" y2= "2517" />
   <path class="fil0 str0" d="M5415 2517c-13,0 -26,5 -35,15 -9,9 -15,22 -15,35"/>
   <line class="fil0 str0" x1="5365" y1="4127" x2="5365" y2= "2567" />
   <path class="fil0 str0" d="M5365 4127c0,13 5,26 15,35 9,9 22,15 35,15"/>
   <line class="fil0 str0" x1="6905" y1="4177" x2="5415" y2= "4177" />
   <line class="fil0 str0" x1="7415" y1="1917" x2="1185" y2= "1917" />
   <path class="fil0 str1" d="M1685 1637c-133,0 -260,18 -354,50 -94,32 -146,75 -146,120"/>
   <path class="fil0 str1" d="M7415 1807c0,-45 -53,-88 -146,-120 -94,-32 -221,-50 -354,-50"/>
   <line class="fil0 str1" x1="1685" y1="1637" x2="6915" y2= "1637" />
   <line class="fil0 str1" x1="1185" y1="1899" x2="1185" y2= "1807" />
   <line class="fil0 str1" x1="7415" y1="1807" x2="7415" y2= "1899" />
   <line class="fil0 str1" x1="7415" y1="1899" x2="7415" y2= "1917" />
   <line class="fil0 str1" x1="7415" y1="2117" x2="7415" y2= "1917" />
   <line class="fil0 str1" x1="1185" y1="1917" x2="1185" y2= "2117" />
   <line class="fil0 str1" x1="1185" y1="1917" x2="1185" y2= "1899" />
   <path class="fil0 str1" d="M1005 4867c0,66 26,130 73,177 47,47 110,73 177,73"/>
   <path class="fil0 str1" d="M7345 5117c138,0 250,-112 250,-250"/>
   <line class="fil0 str1" x1="7595" y1="4867" x2="7595" y2= "2747" />
   <line class="fil0 str1" x1="7595" y1="2747" x2="7415" y2= "2117" />
   <line class="fil0 str1" x1="1185" y1="2117" x2="1005" y2= "2747" />
   <line class="fil0 str1" x1="1005" y1="2747" x2="1005" y2= "4867" />
   <line class="fil0 str1" x1="6225" y1="5117" x2="2375" y2= "5117" />
   <line class="fil0 str1" x1="115" y1="5117" x2="115" y2= "5247" />
   <line class="fil0 str1" x1="315" y1="5117" x2="115" y2= "5117" />
   <line class="fil0 str1" x1="115" y1="5247" x2="315" y2= "5247" />
   <line class="fil0 str1" x1="315" y1="5117" x2="1255" y2= "5117" />
   <line class="fil0 str1" x1="2175" y1="5247" x2="315" y2= "5247" />
   <line class="fil0 str1" x1="2175" y1="5247" x2="2375" y2= "5247" />
   <line class="fil0 str1" x1="2375" y1="5117" x2="2375" y2= "5247" />
   <line class="fil0 str1" x1="6225" y1="5117" x2="6225" y2= "5247" />
   <line class="fil0 str1" x1="6225" y1="5247" x2="6425" y2= "5247" />
   <line class="fil0 str1" x1="8285" y1="5247" x2="6425" y2= "5247" />
   <line class="fil0 str1" x1="7345" y1="5117" x2="8285" y2= "5117" />
   <line class="fil0 str1" x1="8485" y1="5117" x2="8285" y2= "5117" />
   <line class="fil0 str1" x1="8285" y1="5247" x2="8485" y2= "5247" />
   <line class="fil0 str1" x1="8485" y1="5117" x2="8485" y2= "5247" />
   <line class="fil0 str0" x1="4965" y1="3987" x2="4965" y2= "3927" />
   <line class="fil0 str0" x1="4965" y1="3927" x2="4965" y2= "3467" />
   <line class="fil0 str0" x1="4965" y1="3217" x2="4965" y2= "2757" />
   <line class="fil0 str0" x1="3705" y1="3217" x2="3705" y2= "2757" />
   <line class="fil0 str0" x1="3705" y1="3927" x2="3705" y2= "3467" />
   <line class="fil0 str0" x1="3705" y1="3927" x2="3705" y2= "3987" />
   <line class="fil0 str0" x1="5095" y1="3927" x2="5095" y2= "2757" />
   <line class="fil0 str0" x1="3575" y1="3927" x2="3575" y2= "2757" />
   <line class="fil0 str0" x1="4990" y1="3927" x2="4965" y2= "3927" />
   <line class="fil0 str0" x1="4990" y1="3927" x2="5095" y2= "3927" />
   <line class="fil0 str0" x1="3680" y1="3927" x2="3575" y2= "3927" />
   <line class="fil0 str0" x1="3705" y1="3927" x2="3680" y2= "3927" />
   <line class="fil0 str0" x1="4965" y1="3242" x2="4965" y2= "3442" />
   <line class="fil0 str0" x1="3705" y1="3442" x2="3705" y2= "3242" />
   <line class="fil0 str0" x1="3705" y1="3987" x2="3765" y2= "3987" />
   <line class="fil0 str0" x1="4905" y1="3987" x2="4965" y2= "3987" />
   <line class="fil0 str0" x1="4905" y1="3987" x2="4905" y2= "4012" />
   <line class="fil0 str0" x1="4905" y1="4012" x2="4905" y2= "4117" />
   <line class="fil0 str0" x1="3765" y1="4117" x2="3765" y2= "4012" />
   <line class="fil0 str0" x1="3765" y1="4012" x2="3765" y2= "3987" />
   <line class="fil0 str0" x1="3785" y1="3527" x2="3785" y2= "3707" />
   <line class="fil0 str0" x1="3785" y1="3707" x2="4885" y2= "3707" />
   <line class="fil0 str0" x1="4885" y1="3707" x2="4885" y2= "3527" />
   <line class="fil0 str0" x1="4885" y1="3527" x2="3785" y2= "3527" />
   <line class="fil0 str0" x1="4905" y1="4117" x2="3765" y2= "4117" />
   <line class="fil0 str0" x1="4905" y1="3987" x2="3765" y2= "3987" />
   <line class="fil0 str0" x1="4965" y1="2757" x2="4965" y2= "2697" />
   <line class="fil0 str0" x1="3705" y1="2697" x2="3705" y2= "2757" />
   <line class="fil0 str0" x1="3765" y1="2672" x2="3765" y2= "2567" />
   <line class="fil0 str0" x1="3575" y1="2757" x2="3680" y2= "2757" />
   <line class="fil0 str0" x1="3680" y1="2757" x2="3705" y2= "2757" />
   <line class="fil0 str0" x1="4905" y1="2567" x2="4905" y2= "2672" />
   <line class="fil0 str0" x1="3765" y1="2567" x2="4905" y2= "2567" />
   <line class="fil0 str0" x1="3705" y1="2697" x2="3765" y2= "2697" />
   <line class="fil0 str0" x1="4905" y1="2697" x2="4965" y2= "2697" />
   <line class="fil0 str0" x1="4965" y1="2757" x2="4990" y2= "2757" />
   <line class="fil0 str0" x1="5095" y1="2757" x2="4990" y2= "2757" />
   <line class="fil0 str0" x1="3785" y1="2757" x2="3785" y2= "2937" />
   <line class="fil0 str0" x1="3785" y1="2937" x2="4885" y2= "2937" />
   <line class="fil0 str0" x1="4885" y1="2937" x2="4885" y2= "2757" />
   <line class="fil0 str0" x1="4885" y1="2757" x2="3785" y2= "2757" />
   <line class="fil0 str0" x1="4965" y1="3217" x2="4965" y2= "3242" />
   <line class="fil0 str0" x1="4965" y1="3217" x2="3705" y2= "3217" />
   <line class="fil0 str0" x1="3705" y1="3242" x2="3705" y2= "3217" />
   <line class="fil0 str0" x1="3765" y1="2697" x2="3765" y2= "2672" />
   <line class="fil0 str0" x1="4905" y1="2672" x2="4905" y2= "2697" />
   <line class="fil0 str0" x1="3765" y1="2697" x2="4905" y2= "2697" />
   <line class="fil0 str0" x1="4965" y1="3442" x2="4965" y2= "3467" />
   <line class="fil0 str0" x1="3705" y1="3467" x2="3705" y2= "3442" />
   <line class="fil0 str0" x1="3705" y1="3467" x2="4965" y2= "3467" />
   <line class="fil0 str0" x1="6785" y1="3987" x2="6785" y2= "3927" />
   <line class="fil0 str0" x1="6785" y1="3927" x2="6785" y2= "3467" />
   <line class="fil0 str0" x1="6785" y1="3217" x2="6785" y2= "2757" />
   <line class="fil0 str0" x1="5525" y1="3217" x2="5525" y2= "2757" />
   <line class="fil0 str0" x1="5525" y1="3927" x2="5525" y2= "3467" />
   <line class="fil0 str0" x1="5525" y1="3927" x2="5525" y2= "3987" />
   <line class="fil0 str0" x1="6915" y1="3927" x2="6915" y2= "2757" />
   <line class="fil0 str0" x1="5395" y1="3927" x2="5395" y2= "2757" />
   <line class="fil0 str0" x1="6810" y1="3927" x2="6785" y2= "3927" />
   <line class="fil0 str0" x1="6810" y1="3927" x2="6915" y2= "3927" />
   <line class="fil0 str0" x1="5500" y1="3927" x2="5395" y2= "3927" />
   <line class="fil0 str0" x1="5525" y1="3927" x2="5500" y2= "3927" />
   <line class="fil0 str0" x1="6785" y1="3242" x2="6785" y2= "3442" />
   <line class="fil0 str0" x1="5525" y1="3442" x2="5525" y2= "3242" />
   <line class="fil0 str0" x1="5525" y1="3987" x2="5585" y2= "3987" />
   <line class="fil0 str0" x1="6725" y1="3987" x2="6785" y2= "3987" />
   <line class="fil0 str0" x1="6725" y1="3987" x2="6725" y2= "4012" />
   <line class="fil0 str0" x1="6725" y1="4012" x2="6725" y2= "4117" />
   <line class="fil0 str0" x1="5585" y1="4117" x2="5585" y2= "4012" />
   <line class="fil0 str0" x1="5585" y1="4012" x2="5585" y2= "3987" />
   <line class="fil0 str0" x1="5605" y1="3527" x2="5605" y2= "3707" />
   <line class="fil0 str0" x1="5605" y1="3707" x2="6705" y2= "3707" />
   <line class="fil0 str0" x1="6705" y1="3707" x2="6705" y2= "3527" />
   <line class="fil0 str0" x1="6705" y1="3527" x2="5605" y2= "3527" />
   <line class="fil0 str0" x1="6725" y1="4117" x2="5585" y2= "4117" />
   <line class="fil0 str0" x1="6725" y1="3987" x2="5585" y2= "3987" />
   <line class="fil0 str0" x1="6785" y1="2757" x2="6785" y2= "2697" />
   <line class="fil0 str0" x1="5525" y1="2697" x2="5525" y2= "2757" />
   <line class="fil0 str0" x1="5585" y1="2672" x2="5585" y2= "2567" />
   <line class="fil0 str0" x1="5395" y1="2757" x2="5500" y2= "2757" />
   <line class="fil0 str0" x1="5500" y1="2757" x2="5525" y2= "2757" />
   <line class="fil0 str0" x1="6725" y1="2567" x2="6725" y2= "2672" />
   <line class="fil0 str0" x1="5585" y1="2567" x2="6725" y2= "2567" />
   <line class="fil0 str0" x1="5525" y1="2697" x2="5585" y2= "2697" />
   <line class="fil0 str0" x1="6725" y1="2697" x2="6785" y2= "2697" />
   <line class="fil0 str0" x1="6785" y1="2757" x2="6810" y2= "2757" />
   <line class="fil0 str0" x1="6915" y1="2757" x2="6810" y2= "2757" />
   <line class="fil0 str0" x1="5605" y1="2757" x2="5605" y2= "2937" />
   <line class="fil0 str0" x1="5605" y1="2937" x2="6705" y2= "2937" />
   <line class="fil0 str0" x1="6705" y1="2937" x2="6705" y2= "2757" />
   <line class="fil0 str0" x1="6705" y1="2757" x2="5605" y2= "2757" />
   <line class="fil0 str0" x1="6785" y1="3217" x2="6785" y2= "3242" />
   <line class="fil0 str0" x1="6785" y1="3217" x2="5525" y2= "3217" />
   <line class="fil0 str0" x1="5525" y1="3242" x2="5525" y2= "3217" />
   <line class="fil0 str0" x1="5585" y1="2697" x2="5585" y2= "2672" />
   <line class="fil0 str0" x1="6725" y1="2672" x2="6725" y2= "2697" />
   <line class="fil0 str0" x1="5585" y1="2697" x2="6725" y2= "2697" />
   <line class="fil0 str0" x1="6785" y1="3442" x2="6785" y2= "3467" />
   <line class="fil0 str0" x1="5525" y1="3467" x2="5525" y2= "3442" />
   <line class="fil0 str0" x1="5525" y1="3467" x2="6785" y2= "3467" />
   <line class="fil0 str0" x1="1831" y1="3598" x2="1831" y2= "3969" />
   <line class="fil0 str0" x1="1826" y1="4019" x2="1806" y2= "4019" />
   <line class="fil0 str0" x1="3182" y1="3969" x2="3182" y2= "3598" />
   <line class="fil0 str0" x1="3207" y1="4019" x2="3187" y2= "4019" />
   <line class="fil0 str0" x1="3207" y1="4019" x2="3256" y2= "4019" />
   <line class="fil0 str0" x1="3305" y1="2877" x2="1707" y2= "2877" />
   <line class="fil0 str0" x1="1707" y1="2877" x2="1707" y2= "4255" />
   <line class="fil0 str0" x1="3305" y1="2877" x2="3305" y2= "4255" />
   <line class="fil0 str0" x1="3256" y1="4219" x2="3256" y2= "4019" />
   <line class="fil0 str0" x1="1756" y1="4219" x2="1756" y2= "4019" />
   <line class="fil0 str0" x1="1806" y1="4019" x2="1756" y2= "4019" />
   <line class="fil0 str0" x1="1931" y1="3598" x2="1831" y2= "3598" />
   <line class="fil0 str0" x1="1931" y1="3423" x2="1931" y2= "3598" />
   <line class="fil0 str0" x1="1831" y1="3423" x2="1931" y2= "3423" />
   <line class="fil0 str0" x1="3182" y1="3423" x2="3082" y2= "3423" />
   <line class="fil0 str0" x1="3082" y1="3423" x2="3082" y2= "3598" />
   <line class="fil0 str0" x1="3082" y1="3598" x2="3182" y2= "3598" />
   <path class="fil0 str0" d="M2113 3466c0,21 17,38 38,38 21,0 38,-17 38,-38"/>
   <path class="fil0 str0" d="M2215 3466c0,21 17,38 37,38 21,0 38,-17 38,-38"/>
   <path class="fil0 str0" d="M2317 3466c0,21 17,38 38,38 21,0 38,-17 38,-38"/>
   <path class="fil0 str0" d="M2418 3466c0,21 17,38 38,38 21,0 38,-17 38,-38"/>
   <path class="fil0 str0" d="M2520 3466c0,21 17,38 38,38 21,0 38,-17 38,-38"/>
   <path class="fil0 str0" d="M2621 3466c0,21 17,38 38,38 21,0 38,-17 38,-38"/>
   <path class="fil0 str0" d="M2723 3466c0,21 17,38 38,38 21,0 38,-17 38,-38"/>
   <path class="fil0 str0" d="M2825 3466c0,21 17,38 38,38 21,0 38,-17 38,-38"/>
   <line class="fil0 str0" x1="3305" y1="4277" x2="3305" y2= "4255" />
   <line class="fil0 str0" x1="3182" y1="3073" x2="1831" y2= "3073" />
   <line class="fil0 str0" x1="1831" y1="3073" x2="1831" y2= "3423" />
   <line class="fil0 str0" x1="2181" y1="4194" x2="2832" y2= "4194" />
   <line class="fil0 str0" x1="3182" y1="3423" x2="3182" y2= "3073" />
   <line class="fil0 str0" x1="1707" y1="4277" x2="1707" y2= "4255" />
   <line class="fil0 str0" x1="2188" y1="3134" x2="2188" y2= "3079" />
   <line class="fil0 str0" x1="2113" y1="3079" x2="2113" y2= "3134" />
   <line class="fil0 str0" x1="2188" y1="3466" x2="2188" y2= "3443" />
   <line class="fil0 str0" x1="2113" y1="3443" x2="2113" y2= "3466" />
   <line class="fil0 str0" x1="2290" y1="3134" x2="2290" y2= "3079" />
   <line class="fil0 str0" x1="2215" y1="3079" x2="2215" y2= "3134" />
   <line class="fil0 str0" x1="2290" y1="3466" x2="2290" y2= "3443" />
   <line class="fil0 str0" x1="2215" y1="3443" x2="2215" y2= "3466" />
   <line class="fil0 str0" x1="2392" y1="3134" x2="2392" y2= "3079" />
   <line class="fil0 str0" x1="2317" y1="3079" x2="2317" y2= "3134" />
   <line class="fil0 str0" x1="2392" y1="3466" x2="2392" y2= "3443" />
   <line class="fil0 str0" x1="2317" y1="3443" x2="2317" y2= "3466" />
   <line class="fil0 str0" x1="2493" y1="3134" x2="2493" y2= "3079" />
   <line class="fil0 str0" x1="2418" y1="3079" x2="2418" y2= "3134" />
   <line class="fil0 str0" x1="2493" y1="3466" x2="2493" y2= "3443" />
   <line class="fil0 str0" x1="2418" y1="3443" x2="2418" y2= "3466" />
   <line class="fil0 str0" x1="2595" y1="3134" x2="2595" y2= "3079" />
   <line class="fil0 str0" x1="2520" y1="3079" x2="2520" y2= "3134" />
   <line class="fil0 str0" x1="2595" y1="3466" x2="2595" y2= "3443" />
   <line class="fil0 str0" x1="2520" y1="3443" x2="2520" y2= "3466" />
   <line class="fil0 str0" x1="2696" y1="3134" x2="2696" y2= "3079" />
   <line class="fil0 str0" x1="2621" y1="3079" x2="2621" y2= "3134" />
   <line class="fil0 str0" x1="2696" y1="3466" x2="2696" y2= "3443" />
   <line class="fil0 str0" x1="2621" y1="3443" x2="2621" y2= "3466" />
   <line class="fil0 str0" x1="2798" y1="3134" x2="2798" y2= "3079" />
   <line class="fil0 str0" x1="2723" y1="3079" x2="2723" y2= "3134" />
   <line class="fil0 str0" x1="2798" y1="3466" x2="2798" y2= "3443" />
   <line class="fil0 str0" x1="2723" y1="3443" x2="2723" y2= "3466" />
   <line class="fil0 str0" x1="2900" y1="3134" x2="2900" y2= "3079" />
   <line class="fil0 str0" x1="2825" y1="3079" x2="2825" y2= "3134" />
   <line class="fil0 str0" x1="2900" y1="3466" x2="2900" y2= "3443" />
   <line class="fil0 str0" x1="2825" y1="3443" x2="2825" y2= "3466" />
   <line class="fil0 str0" x1="2113" y1="3079" x2="2113" y2= "3073" />
   <line class="fil0 str0" x1="2188" y1="3079" x2="2188" y2= "3073" />
   <line class="fil0 str0" x1="2188" y1="3134" x2="2188" y2= "3443" />
   <line class="fil0 str0" x1="2113" y1="3134" x2="2113" y2= "3443" />
   <line class="fil0 str0" x1="2215" y1="3079" x2="2215" y2= "3073" />
   <line class="fil0 str0" x1="2290" y1="3079" x2="2290" y2= "3073" />
   <line class="fil0 str0" x1="2290" y1="3134" x2="2290" y2= "3443" />
   <line class="fil0 str0" x1="2215" y1="3134" x2="2215" y2= "3443" />
   <line class="fil0 str0" x1="2317" y1="3079" x2="2317" y2= "3073" />
   <line class="fil0 str0" x1="2392" y1="3079" x2="2392" y2= "3073" />
   <line class="fil0 str0" x1="2392" y1="3134" x2="2392" y2= "3443" />
   <line class="fil0 str0" x1="2317" y1="3134" x2="2317" y2= "3443" />
   <line class="fil0 str0" x1="2418" y1="3079" x2="2418" y2= "3073" />
   <line class="fil0 str0" x1="2493" y1="3079" x2="2493" y2= "3073" />
   <line class="fil0 str0" x1="2493" y1="3134" x2="2493" y2= "3443" />
   <line class="fil0 str0" x1="2418" y1="3134" x2="2418" y2= "3443" />
   <line class="fil0 str0" x1="2520" y1="3079" x2="2520" y2= "3073" />
   <line class="fil0 str0" x1="2595" y1="3079" x2="2595" y2= "3073" />
   <line class="fil0 str0" x1="2595" y1="3134" x2="2595" y2= "3443" />
   <line class="fil0 str0" x1="2520" y1="3134" x2="2520" y2= "3443" />
   <line class="fil0 str0" x1="2621" y1="3079" x2="2621" y2= "3073" />
   <line class="fil0 str0" x1="2696" y1="3079" x2="2696" y2= "3073" />
   <line class="fil0 str0" x1="2696" y1="3134" x2="2696" y2= "3443" />
   <line class="fil0 str0" x1="2621" y1="3134" x2="2621" y2= "3443" />
   <line class="fil0 str0" x1="2723" y1="3079" x2="2723" y2= "3073" />
   <line class="fil0 str0" x1="2798" y1="3079" x2="2798" y2= "3073" />
   <line class="fil0 str0" x1="2798" y1="3134" x2="2798" y2= "3443" />
   <line class="fil0 str0" x1="2723" y1="3134" x2="2723" y2= "3443" />
   <line class="fil0 str0" x1="2825" y1="3079" x2="2825" y2= "3073" />
   <line class="fil0 str0" x1="2900" y1="3079" x2="2900" y2= "3073" />
   <line class="fil0 str0" x1="2900" y1="3134" x2="2900" y2= "3443" />
   <line class="fil0 str0" x1="2825" y1="3134" x2="2825" y2= "3443" />
   <line class="fil0 str0" x1="1831" y1="3969" x2="1831" y2= "4019" />
   <line class="fil0 str0" x1="2124" y1="3969" x2="2124" y2= "4219" />
   <line class="fil0 str0" x1="1831" y1="3969" x2="2124" y2= "3969" />
   <line class="fil0 str0" x1="3182" y1="4019" x2="3182" y2= "3969" />
   <line class="fil0 str0" x1="2889" y1="3969" x2="3182" y2= "3969" />
   <line class="fil0 str0" x1="2889" y1="4219" x2="2889" y2= "3969" />
   <line class="fil0 str0" x1="2857" y1="4219" x2="2832" y2= "4194" />
   <line class="fil0 str0" x1="3256" y1="4219" x2="2857" y2= "4219" />
   <line class="fil0 str0" x1="2156" y1="4219" x2="1756" y2= "4219" />
   <line class="fil0 str0" x1="2156" y1="4219" x2="2181" y2= "4194" />
   <line class="fil0 str0" x1="2076" y1="4019" x2="1826" y2= "4019" />
   <line class="fil0 str0" x1="2936" y1="4019" x2="3187" y2= "4019" />
   <line class="fil0 str0" x1="2076" y1="4019" x2="2076" y2= "4210" />
   <line class="fil0 str0" x1="2936" y1="4019" x2="2936" y2= "4210" />
   <line class="fil0 str0" x1="6225" y1="5117" x2="7345" y2= "5117" />
   <line class="fil0 str0" x1="2375" y1="5117" x2="1245" y2= "5117" />
  </g>
 </g>
 <g id="Выноски_x0020_линии">
  <metadata id="CorelCorpID_1Corel-Layer"/>
  <polyline class="fil0 str2" points="2506,2877 2892,654 3560,654 "/>
  <path class="fil0 str2" d="M6184 2573l-892 -1920m-967 1920l967 -1920 668 0"/>
 </g>
 <g id="Выноски_x0020_текст">
  <metadata id="CorelCorpID_2Corel-Layer"/>
  <path class="fil1" d="M3242 146l-50 38c-4,3 -8,4 -13,3 -5,-1 -9,-3 -12,-6 -3,-4 -4,-8 -3,-13 1,-5 3,-8 7,-12l90 -69c3,-2 7,-3 10,-3 12,0 17,6 17,17 0,2 0,4 -1,5l-84 312c-2,9 -8,13 -17,13 -5,0 -9,-2 -12,-5 -4,-3 -5,-7 -5,-12 0,-2 0,-3 1,-5l70 -263z"/>
  <path class="fil1" d="M5603 165c-3,4 -8,6 -13,6 -5,0 -9,-2 -12,-5 -3,-3 -5,-8 -5,-12 0,-4 1,-8 4,-11 16,-20 30,-34 45,-43 17,-10 37,-16 59,-16 26,0 46,11 59,34 6,11 10,22 10,35 0,24 -10,47 -31,70l-159 174 104 0c12,0 17,6 17,17 0,12 -6,17 -17,17l-144 0c-12,0 -17,-6 -17,-17 0,-5 2,-8 4,-12l186 -204c14,-16 21,-30 21,-45 0,-23 -14,-35 -43,-35 -13,0 -29,8 -48,24 -8,7 -15,14 -21,22z"/>
 </g>
 <g id="Размеры">
  <metadata id="CorelCorpID_3Corel-Layer"/>
  <g id="_845744240">
   <path class="fil1" d="M4189 6072c26,0 42,-12 49,-37l7 -25c1,-5 2,-10 2,-14 0,-16 -10,-23 -31,-23l-39 0 -17 62c-1,4 -2,7 -2,9 0,8 3,15 9,20 6,5 13,8 22,8zm-7 25c-18,0 -32,-9 -42,-27 -5,-8 -7,-16 -7,-25 0,-3 0,-7 1,-10l20 -75c7,-28 20,-51 37,-70 20,-21 45,-35 77,-42 1,0 2,0 3,0 8,0 13,4 13,12 0,7 -3,11 -8,12 -14,2 -28,7 -42,16 -25,15 -42,35 -49,60l37 0c14,0 26,5 36,14 9,9 14,21 14,35 0,5 -1,10 -2,14l-7 25c-8,29 -22,48 -43,56 -10,4 -23,6 -39,6z"/>
   <path id="1" class="fil1" d="M4371 6072c26,0 42,-12 49,-37l7 -25c1,-5 2,-10 2,-14 0,-16 -10,-23 -31,-23l-39 0 -17 62c-1,4 -2,7 -2,9 0,8 3,15 9,20 6,5 13,8 22,8zm-7 25c-18,0 -32,-9 -42,-27 -5,-8 -7,-16 -7,-25 0,-3 0,-7 1,-10l20 -75c7,-28 20,-51 37,-70 20,-21 45,-35 77,-42 1,0 2,0 3,0 8,0 13,4 13,12 0,7 -3,11 -8,12 -14,2 -28,7 -42,16 -25,15 -42,35 -49,60l37 0c14,0 26,5 36,14 9,9 14,21 14,35 0,5 -1,10 -2,14l-7 25c-8,29 -22,48 -43,56 -10,4 -23,6 -39,6z"/>
   <line class="fil0 str3" x1="1005" y1="4817" x2="1005" y2= "6316" />
   <line class="fil0 str3" x1="7595" y1="4867" x2="7595" y2= "6316" />
   <line class="fil0 str3" x1="1005" y1="6216" x2="7595" y2= "6216" />
   <g id="Filled-1">
    <line class="fil0 str3" x1="1355" y1="6216" x2="1005" y2= "6216" />
    <polygon class="fil2 str3" points="1355,6166 1005,6216 1355,6266 "/>
    <path class="fil2 str3" d="M1355 6166l0 100m0 -100l-350 50m350 -50"/>
    <line class="fil0 str3" x1="1355" y1="6166" x2="1005" y2= "6216" />
    <line class="fil0 str3" x1="1005" y1="6216" x2="1355" y2= "6266" />
    <line class="fil0 str3" x1="1355" y1="6266" x2="1355" y2= "6166" />
   </g>
   <g id="Filled-1_0">
    <line class="fil0 str3" x1="7245" y1="6216" x2="7595" y2= "6216" />
    <polygon class="fil2 str3" points="7245,6266 7595,6216 7245,6166 "/>
    <path class="fil2 str3" d="M7245 6266l0 -100m0 100l350 -50m-350 50"/>
    <line class="fil0 str3" x1="7245" y1="6266" x2="7595" y2= "6216" />
    <line class="fil0 str3" x1="7595" y1="6216" x2="7245" y2= "6166" />
    <line class="fil0 str3" x1="7245" y1="6166" x2="7245" y2= "6266" />
   </g>
  </g>
 </g>
 <g id="Слой_x0020_2">
  <metadata id="CorelCorpID_4Corel-Layer"/>
  <polygon class="fil3" points="2388,4562 2238,4562 2238,4832 2392,4832 2392,4787 2292,4787 2292,4715 2383,4715 2383,4670 2292,4670 2292,4607 2388,4607 "/>
  <polygon id="1" class="fil3" points="2577,4562 2405,4562 2405,4607 2464,4607 2464,4832 2518,4832 2518,4607 2577,4607 "/>
  <polygon id="2" class="fil3" points="2600,4562 2600,4832 2655,4832 2655,4712 2718,4712 2718,4832 2772,4832 2772,4562 2718,4562 2718,4665 2655,4665 2655,4562 "/>
  <polygon class="fil3" points="5130,4562 4979,4562 4979,4832 5133,4832 5133,4787 5033,4787 5033,4715 5124,4715 5124,4670 5033,4670 5033,4607 5130,4607 "/>
  <polygon id="1" class="fil3" points="5149,4562 5211,4695 5144,4832 5204,4832 5242,4740 5281,4832 5342,4832 5275,4695 5338,4562 5278,4562 5244,4649 5209,4562 "/>
  <polygon id="2" class="fil3" points="5521,4562 5349,4562 5349,4607 5408,4607 5408,4832 5462,4832 5462,4607 5521,4607 "/>
 </g>
</svg>
