<?xml version="1.0" standalone="no"?><!DOCTYPE svg PUBLIC "-//W3C//DTD SVG 1.1//EN" "http://www.w3.org/Graphics/SVG/1.1/DTD/svg11.dtd"><svg width="100%" height="100%" viewBox="0 0 599 139" version="1.1" xmlns="http://www.w3.org/2000/svg" xmlns:xlink="http://www.w3.org/1999/xlink" xml:space="preserve" style="fill-rule:evenodd;clip-rule:evenodd;stroke-linejoin:round;stroke-miterlimit:1.41421;"><g id="logo-dark"><path id="Oval-1" d="M115.789,70.38c0,-26.237 -21.207,-47.507 -47.368,-47.507c-26.161,0 -47.368,21.27 -47.368,47.507c0,26.237 21.207,47.506 47.368,47.506c26.161,0 47.368,-21.269 47.368,-47.506ZM80.702,70.38c0,-6.802 -5.499,-12.317 -12.281,-12.317c-6.782,0 -12.281,5.515 -12.281,12.317c0,6.802 5.499,12.316 12.281,12.316c6.782,0 12.281,-5.514 12.281,-12.316Z" style="fill:#484848;"/><path id="Oval-3-copy" d="M138.596,139l-69.298,0l-63.02,0l-6.278,0l0,-6.296l0,-63.204l0,-69.5l69.057,0l0,12.593c-31.227,0.13 -56.501,25.559 -56.501,56.907l0,56.908l56.742,0c31.338,0 56.743,-25.479 56.743,-56.908c0,-0.081 12.555,-0.242 12.555,-0.242c0,0.081 0,69.742 0,69.742Z" style="fill:#484848;"/><path id="overvis" d="M212.281,35.19c4.871,0 9.146,0.695 12.824,2.084c3.679,1.39 6.785,3.623 9.32,6.7c2.536,3.077 4.449,7.072 5.742,11.985c1.292,4.913 1.938,10.893 1.938,17.94c0,7.047 -0.646,13.027 -1.938,17.94c-1.293,4.913 -3.206,8.908 -5.742,11.985c-2.535,3.077 -5.641,5.31 -9.32,6.699c-3.678,1.39 -7.953,2.085 -12.824,2.085c-4.872,0 -9.146,-0.695 -12.825,-2.085c-3.678,-1.389 -6.785,-3.622 -9.32,-6.699c-2.535,-3.077 -4.449,-7.072 -5.741,-11.985c-1.293,-4.913 -1.939,-10.893 -1.939,-17.94c0,-7.047 0.646,-13.027 1.939,-17.94c1.292,-4.913 3.206,-8.908 5.741,-11.985c2.535,-3.077 5.642,-5.31 9.32,-6.7c3.679,-1.389 7.953,-2.084 12.825,-2.084ZM212.281,43.987c-1.74,0 -3.352,0.422 -4.836,1.266c-1.484,0.843 -2.789,2.357 -3.914,4.541c-1.126,2.183 -1.996,5.161 -2.61,8.932c-0.614,3.772 -0.921,8.536 -0.921,14.293c0,5.757 0.307,10.521 0.921,14.292c0.614,3.772 1.484,6.75 2.61,8.933c1.125,2.184 2.43,3.697 3.914,4.541c1.484,0.844 3.096,1.266 4.836,1.266c1.739,0 3.351,-0.422 4.835,-1.266c1.484,-0.844 2.789,-2.357 3.915,-4.541c1.125,-2.183 1.995,-5.161 2.609,-8.933c0.614,-3.771 0.921,-8.535 0.921,-14.292c0,-5.757 -0.307,-10.521 -0.921,-14.293c-0.614,-3.771 -1.484,-6.749 -2.609,-8.932c-1.126,-2.184 -2.431,-3.698 -3.915,-4.541c-1.484,-0.844 -3.096,-1.266 -4.835,-1.266ZM269.338,110.848l-21.97,-75.658l18.182,0l14.849,56.744l0.606,0l14.848,-56.744l18.182,0l-21.97,75.658l-22.727,0ZM375.439,79.11l-39.613,0c0,8.535 1.549,14.515 4.647,17.94c3.098,3.424 7.897,5.136 14.398,5.136l16.759,0l0,7.444c-2.336,0.794 -5.256,1.489 -8.761,2.084c-3.504,0.596 -7.186,0.894 -11.045,0.894c-5.891,0 -10.995,-0.695 -15.312,-2.085c-4.317,-1.389 -7.872,-3.622 -10.665,-6.699c-2.793,-3.077 -4.875,-7.072 -6.246,-11.985c-1.372,-4.913 -2.057,-10.893 -2.057,-17.94c0,-7.047 0.66,-13.027 1.98,-17.94c1.321,-4.913 3.2,-8.908 5.638,-11.985c2.437,-3.077 5.459,-5.31 9.065,-6.7c3.605,-1.389 7.694,-2.084 12.264,-2.084c4.571,0 8.659,0.695 12.265,2.084c3.606,1.39 6.627,3.623 9.065,6.7c2.438,3.077 4.317,7.072 5.637,11.985c1.32,4.913 1.981,10.893 1.981,17.94l0,5.211ZM356.14,68.62c0,-5.029 -0.275,-9.134 -0.827,-12.316c-0.551,-3.182 -1.278,-5.697 -2.18,-7.544c-0.902,-1.848 -2.005,-3.105 -3.308,-3.772c-1.304,-0.667 -2.707,-1.001 -4.211,-1.001c-1.504,0 -2.907,0.334 -4.21,1.001c-1.304,0.667 -2.407,1.924 -3.309,3.772c-0.902,1.847 -1.629,4.362 -2.18,7.544c-0.552,3.182 -0.827,7.287 -0.827,12.316l21.052,0ZM429.825,35.19l0,12.862l-16.252,0c-1.871,0 -3.496,0.302 -4.875,0.908c-1.379,0.605 -2.462,1.311 -3.25,2.118l0,59.77l-17.729,0l0,-75.658l12.558,0l2.216,6.053l0.739,0c1.576,-1.514 3.693,-2.901 6.352,-4.162c2.66,-1.261 6.205,-1.891 10.638,-1.891l9.603,0ZM458.812,110.848l-21.97,-75.658l18.182,0l14.848,56.744l0.606,0l14.849,-56.744l18.182,0l-21.97,75.658l-22.727,0ZM531.579,110.848l-17.544,0l0,-75.658l17.544,0l0,75.658ZM531.579,8.797l0,17.595l-17.544,0l0,-17.595l17.544,0ZM562.244,54.544c0,2.581 0.893,4.69 2.681,6.328c1.787,1.637 4.008,3.077 6.664,4.317c2.655,1.241 5.541,2.457 8.656,3.648c3.115,1.191 6,2.655 8.655,4.392c2.656,1.737 4.877,3.97 6.665,6.699c1.787,2.73 2.681,6.179 2.681,10.348c0,4.466 -0.664,8.138 -1.992,11.017c-1.328,2.878 -3.37,5.161 -6.128,6.848c-2.758,1.688 -6.205,2.854 -10.341,3.499c-4.136,0.645 -8.962,0.968 -14.477,0.968c-3.881,0 -7.584,-0.298 -11.107,-0.894c-3.524,-0.595 -6.46,-1.29 -8.809,-2.084l0,-7.444l16.852,0c5.821,0 10.213,-0.794 13.175,-2.382c2.962,-1.588 4.443,-4.268 4.443,-8.04c0,-2.58 -0.894,-4.689 -2.681,-6.327c-1.788,-1.638 -4.009,-3.077 -6.665,-4.318c-2.655,-1.24 -5.54,-2.456 -8.655,-3.647c-3.115,-1.191 -6.001,-2.655 -8.656,-4.392c-2.656,-1.737 -4.877,-3.945 -6.664,-6.625c-1.788,-2.68 -2.681,-6.154 -2.681,-10.422c0,-4.069 0.664,-7.444 1.991,-10.124c1.328,-2.68 3.243,-4.814 5.745,-6.402c2.503,-1.588 5.618,-2.704 9.345,-3.349c3.728,-0.646 7.992,-0.968 12.793,-0.968c3.881,0 7.583,0.298 11.107,0.893c3.523,0.596 6.46,1.29 8.809,2.084l0,7.444l-16.852,0c-4.29,0 -7.788,0.745 -10.495,2.234c-2.706,1.489 -4.059,3.722 -4.059,6.699Z" style="fill:#484848;"/></g></svg>