<?xml version="1.0" encoding="UTF-8"?>
<!DOCTYPE svg PUBLIC "-//W3C//DTD SVG 1.1//EN" "http://www.w3.org/Graphics/SVG/1.1/DTD/svg11.dtd">
<!-- Creator: CorelDRAW X6 -->
<svg xmlns="http://www.w3.org/2000/svg" xml:space="preserve" width="120mm" height="90mm" version="1.1" style="shape-rendering:geometricPrecision; text-rendering:geometricPrecision; image-rendering:optimizeQuality; fill-rule:evenodd; clip-rule:evenodd"
viewBox="0 0 12000 9000"
 xmlns:xlink="http://www.w3.org/1999/xlink">
 <defs>
  <style type="text/css">
   <![CDATA[
    .str0 {stroke:black;stroke-width:12.7;stroke-linecap:round;stroke-linejoin:round}
    .fil2 {fill:none;fill-rule:nonzero}
    .fil1 {fill:#2B2A29}
    .fil0 {fill:#2B2A29;fill-rule:nonzero}
   ]]>
  </style>
 </defs>
 <g id="Видимый_x0020_контур_x0020__x0028_ГОСТ_x0029_">
  <metadata id="CorelCorpID_0Corel-Layer"/>
  <g id="_1129109104">
   <g>
    <polygon class="fil0" points="3813,6507 3819,6742 3864,6749 3859,6562 3860,6562 3908,6757 3946,6763 3985,6584 3985,6584 3990,6771 4035,6779 4029,6544 3957,6532 3926,6691 3925,6691 3886,6520 "/>
    <polygon id="1" class="fil0" points="4200,6574 4064,6550 4070,6785 4210,6809 4209,6770 4118,6754 4117,6691 4198,6705 4197,6667 4116,6653 4114,6597 4201,6612 "/>
    <polygon id="2" class="fil0" points="4229,6579 4235,6813 4280,6821 4275,6634 4276,6634 4324,6828 4362,6835 4400,6655 4401,6655 4406,6843 4451,6850 4445,6616 4372,6603 4342,6763 4341,6763 4302,6591 "/>
    <g>
     <path class="fil0" d="M7407 7308l-3 -68 10 -10c6,-6 10,-7 13,-4 3,3 4,11 5,22 1,11 0,21 -3,30 -3,8 -6,15 -11,20l-10 11zm-28 -77l11 223 23 -24 -5 -89 12 -13c5,-6 10,-12 15,-20 4,-7 8,-15 11,-24 3,-9 5,-18 6,-29 1,-10 2,-21 1,-33 0,-8 -1,-16 -3,-23 -1,-7 -4,-12 -6,-16 -3,-4 -6,-5 -10,-5 -4,0 -9,4 -15,10l-40 42z"/>
     <polygon id="1" class="fil0" points="7454,7152 7486,7353 7512,7326 7516,7151 7517,7151 7538,7299 7563,7272 7572,7027 7551,7050 7546,7229 7546,7229 7524,7078 7502,7101 7498,7280 7497,7280 7476,7129 "/>
     <path id="2" class="fil0" d="M7582 7018l11 223 23 -24 -5 -94 12 -13c5,-5 8,-6 11,-3 2,3 4,9 4,17l3 42c0,4 1,8 1,12 1,4 1,7 3,8l25 -26 0 -2c-2,0 -4,-3 -5,-8 -1,-6 -2,-15 -2,-26 0,-6 -1,-11 -1,-16 0,-5 -1,-9 -1,-13 -1,-12 -3,-19 -6,-22 -3,-3 -7,-2 -13,2l0 -1c6,-10 11,-21 13,-33 3,-13 3,-27 3,-42 -1,-19 -4,-31 -10,-35 -6,-4 -13,-1 -23,9l-42 44zm28 74l-3 -64 11 -11c11,-11 16,-6 17,14 1,12 0,22 -3,30 -3,8 -7,15 -12,21l-10 10z"/>
     <polygon class="fil0" points="8221,6345 8232,6568 8255,6544 8250,6445 8277,6417 8282,6516 8305,6492 8293,6269 8270,6293 8275,6378 8248,6406 8244,6321 "/>
     <path id="1" class="fil0" d="M8343 6417l-8 -157 10 -10c4,-5 8,-7 11,-6 3,1 5,3 7,8 2,5 3,12 4,21 1,9 2,20 2,33 1,15 1,28 1,39 0,11 0,20 -2,28 -1,8 -3,14 -5,20 -2,5 -5,10 -9,14l-10 11zm-33 -166l11 223 36 -38c8,-8 14,-17 19,-27 5,-10 8,-21 11,-33 2,-13 4,-27 4,-42 0,-16 0,-33 -1,-53 -1,-16 -2,-31 -4,-43 -2,-12 -4,-22 -7,-28 -3,-7 -7,-10 -12,-10 -5,0 -12,4 -20,13l-37 39z"/>
     <polygon id="2" class="fil0" points="8401,6156 8412,6379 8433,6357 8424,6179 8424,6178 8454,6335 8472,6317 8483,6117 8483,6117 8492,6295 8513,6273 8502,6050 8468,6085 8459,6260 8459,6260 8435,6120 "/>
     <polygon id="3" class="fil0" points="8530,6255 8553,6230 8542,6007 8519,6031 "/>
     <path class="fil0" d="M9205 5454l-16 -89 0 0 -6 112 22 -23zm-4 -142l41 192 -24 25 -8 -42 -30 32 -3 53 -24 25 19 -255 28 -30z"/>
     <path id="1" class="fil0" d="M9260 5250l-23 24 8 156c1,15 2,26 5,33 2,7 6,12 9,13 4,2 8,1 12,-2 4,-3 9,-7 14,-12 5,-5 9,-11 13,-17 4,-6 8,-14 11,-23 3,-9 5,-19 7,-31 2,-11 2,-24 1,-38l-8 -156 -23 24 8 156c0,6 0,11 0,16 0,5 -1,10 -1,14 -1,5 -2,9 -4,12 -2,4 -4,7 -7,10 -3,3 -5,4 -7,4 -2,0 -3,-1 -5,-4 -1,-2 -2,-6 -3,-10 -1,-4 -1,-9 -1,-15l-8 -156z"/>
     <polygon id="2" class="fil0" points="9319,5187 9351,5270 9329,5413 9354,5386 9366,5294 9386,5352 9412,5325 9378,5242 9399,5104 9374,5130 9363,5218 9345,5161 "/>
    </g>
   </g>
   <g>
    <g>
     <g>
      <path class="fil1" d="M6368 4785c-29,30 -1,63 63,74 63,10 138,-6 167,-37 29,-30 1,-63 -63,-74 -63,-10 -138,6 -167,37zm86 14c-7,8 0,16 16,18 16,3 35,-2 42,-9 7,-8 0,-16 -16,-18 -16,-3 -35,2 -42,9z"/>
      <path class="fil1" d="M6389 4698c0,0 166,27 166,27 0,0 151,24 151,24 0,0 15,2 15,2l-151 159c0,0 -165,-26 -165,-26 0,0 14,-14 14,-14 75,12 163,-8 197,-43 0,0 62,-65 62,-65 0,0 -136,-22 -136,-22 -75,-12 -164,7 -198,43 0,0 -30,-5 -30,-5 0,0 76,-80 76,-80z"/>
     </g>
     <path class="fil1" d="M6096 4790c-12,-2 -21,-4 -29,-7 -7,-3 -12,-7 -15,-11 -3,-5 -3,-10 -1,-16 2,-6 7,-13 15,-22 8,-8 16,-15 25,-20 9,-5 18,-9 27,-12 10,-3 20,-4 30,-4 10,0 22,1 33,3 12,2 21,4 29,7 7,3 12,7 15,11 3,5 3,10 1,16 -2,6 -7,13 -15,22 -8,8 -16,15 -25,20 -9,5 -18,9 -27,12 -10,3 -20,4 -30,4 -10,0 -22,-1 -33,-3zm11 -11c4,1 8,1 13,0 4,0 9,-2 14,-4 5,-2 10,-5 16,-9 6,-4 12,-10 18,-16 6,-7 11,-12 14,-17 3,-5 4,-8 4,-11 0,-3 -2,-5 -4,-7 -3,-2 -6,-3 -10,-3 -4,-1 -8,-1 -13,0 -4,0 -9,2 -14,4 -5,2 -10,5 -16,9 -6,4 -12,10 -18,16 -6,7 -11,12 -14,17 -3,5 -4,8 -4,11 0,3 2,5 4,7 3,2 6,3 10,3zm-61 -99c0,0 -30,95 -30,95 0,0 -43,-7 -43,-7 0,0 26,-71 26,-71 0,0 -1,0 -1,0 0,0 -97,60 -97,60 0,0 -43,-7 -43,-7 0,0 135,-79 135,-79 0,0 54,9 54,9zm-289 -3c0,0 94,15 94,15 9,-10 12,-18 9,-23 -4,-5 -13,-9 -28,-11 0,0 -40,-6 -40,-6 0,0 8,-9 8,-9 6,0 14,0 23,1 9,1 18,2 27,3 14,2 25,5 34,8 9,3 15,7 18,12 3,5 4,10 2,16 -2,6 -7,14 -15,22 -8,8 -16,15 -25,20 -9,5 -17,9 -27,12 -9,3 -19,4 -29,4 -10,0 -21,0 -31,-2 -11,-2 -20,-4 -27,-7 -7,-3 -12,-7 -14,-11 -2,-5 -2,-10 0,-16 2,-6 7,-13 15,-22 0,0 6,-6 6,-6zm32 19c-5,6 -9,10 -11,14 -2,4 -3,7 -3,9 0,2 1,4 4,6 2,1 5,2 9,3 4,1 7,1 11,0 4,0 8,-1 12,-3 4,-2 9,-4 13,-8 5,-3 10,-8 15,-14 0,0 -51,-8 -51,-8zm-213 9c0,0 14,-15 14,-15 0,0 40,6 40,6 5,1 9,1 13,1 4,0 7,-1 10,-1 0,0 65,-69 65,-69 0,0 43,7 43,7 0,0 -83,87 -83,87 0,0 -31,-5 -31,-5 0,0 1,-8 1,-8 0,0 -2,0 -2,0 -6,1 -12,2 -20,2 -8,0 -17,0 -28,-2 0,0 -24,-4 -24,-4zm13 -98c0,0 -30,95 -30,95 0,0 -43,-7 -43,-7 0,0 26,-71 26,-71 0,0 -1,0 -1,0 0,0 -97,60 -97,60 0,0 -43,-7 -43,-7 0,0 135,-79 135,-79 0,0 54,9 54,9zm-174 -28c0,0 43,7 43,7 0,0 -83,87 -83,87 0,0 -43,-7 -43,-7 0,0 83,-87 83,-87zm-112 118c0,0 20,-21 20,-21 0,0 43,7 43,7 0,0 -20,21 -20,21 0,0 -43,-7 -43,-7zm-23 -64c3,-3 3,-6 1,-8 -2,-3 -6,-5 -11,-8 -5,-2 -10,-5 -16,-8 -6,-3 -11,-5 -16,-8 -4,-3 -7,-6 -8,-10 -1,-4 1,-8 5,-13 5,-5 11,-9 17,-12 6,-3 14,-5 22,-6 8,-1 18,-1 28,0 10,1 22,2 35,4 9,1 18,3 25,5 8,2 14,4 18,6 0,0 -8,9 -8,9 0,0 -40,-6 -40,-6 -14,-2 -25,-3 -34,-2 -9,1 -15,3 -19,8 -3,3 -3,6 -1,8 2,3 6,5 11,8 5,2 10,5 16,8 6,3 11,5 16,8 4,3 7,6 8,10 1,4 0,8 -5,13 -5,5 -10,8 -16,11 -6,3 -13,4 -21,5 -8,1 -16,1 -26,0 -10,-1 -20,-2 -31,-4 -9,-1 -18,-3 -25,-5 -8,-2 -14,-4 -18,-6 0,0 8,-9 8,-9 0,0 40,6 40,6 10,2 19,2 27,1 8,-1 14,-3 17,-6z"/>
    </g>
    <path class="fil0" d="M9592 1659c-8,8 -14,15 -21,20 -6,5 -12,10 -18,13 -6,3 -12,5 -18,6 -6,1 -13,1 -20,0 -7,-1 -13,-3 -16,-5 -3,-2 -4,-5 -3,-9 1,-4 4,-9 8,-14 4,-6 10,-13 18,-21 8,-8 14,-15 21,-20 6,-5 12,-10 18,-13 6,-3 12,-5 18,-6 6,-1 13,-1 20,0 7,1 13,3 16,5 3,2 4,5 3,9 -1,4 -4,9 -8,14 -5,6 -11,13 -18,21zm50 8c9,-9 16,-18 21,-25 5,-8 8,-15 7,-21 -1,-6 -5,-12 -14,-17 -8,-5 -22,-9 -41,-12 -19,-3 -35,-4 -49,-3 -14,1 -26,4 -37,8 -11,5 -21,10 -30,18 -9,7 -18,15 -26,25 -9,9 -16,17 -21,25 -5,8 -8,15 -7,21 1,6 5,12 14,17 8,5 22,9 41,12 19,3 35,4 49,3 14,-1 27,-4 38,-9 11,-4 21,-10 30,-18 9,-7 18,-16 26,-25z"/>
    <path id="1" class="fil0" d="M9387 1632l-34 36 -21 -3c-13,-2 -20,-5 -22,-9 -2,-4 -1,-9 5,-15 6,-6 13,-10 22,-12 9,-2 18,-2 28,0l22 4zm-1 62l113 -119 -50 -8 -45 48 -27 -4c-12,-2 -23,-3 -34,-3 -11,0 -22,1 -31,3 -10,2 -18,5 -27,9 -8,4 -15,9 -21,15 -4,4 -7,9 -9,14 -2,5 -2,9 1,13 2,4 7,8 13,11 7,3 17,6 29,8l88 14z"/>
    <path id="2" class="fil0" d="M9137 1608l-50 -8c-4,4 -8,9 -11,14 -3,5 -5,10 -4,15 1,5 5,10 13,14 8,4 21,8 38,11 19,3 35,4 49,3 14,-1 27,-4 38,-9 11,-4 21,-10 30,-18 9,-7 18,-16 26,-25 9,-9 16,-18 21,-25 5,-8 8,-15 7,-21 -1,-6 -5,-12 -14,-17 -8,-5 -22,-9 -41,-12 -17,-3 -31,-4 -44,-3 -13,1 -24,3 -34,6 -10,3 -18,8 -26,13 -8,5 -14,11 -21,18l50 8c6,-6 12,-12 17,-15 5,-4 10,-6 15,-8 5,-2 10,-3 14,-3 5,0 9,0 13,1 5,1 10,2 13,4 3,2 4,4 4,8 0,3 -2,8 -6,14 -4,6 -10,13 -19,22 -8,8 -15,16 -22,21 -6,6 -13,10 -18,13 -6,3 -11,5 -17,6 -6,1 -12,1 -18,0 -11,-2 -17,-5 -18,-10 -1,-5 3,-11 12,-20z"/>
    <path id="3" class="fil0" d="M9064 1526l-34 36 -22 -3c-6,-1 -10,-2 -15,-3 -4,-1 -7,-3 -9,-5 -2,-2 -3,-4 -3,-7 0,-3 2,-6 5,-9 7,-7 15,-11 25,-12 10,-1 21,-1 33,1l20 3zm-50 53l-30 31 -18 -3c-13,-2 -21,-5 -24,-8 -4,-3 -3,-8 3,-13 5,-6 12,-9 21,-11 9,-1 20,-1 34,1l14 2zm4 57l113 -119 -85 -14c-15,-2 -28,-3 -39,-3 -12,0 -22,2 -31,4 -9,2 -17,5 -24,9 -7,4 -12,8 -16,13 -8,8 -10,15 -6,21 4,6 12,11 25,14l0 0c-14,0 -27,1 -37,5 -11,4 -19,9 -25,15 -5,6 -8,11 -8,15 0,4 2,8 6,12 4,3 10,6 18,9 8,2 17,4 27,6l84 13z"/>
    <polygon id="4" class="fil0" points="8786,1528 8884,1544 8903,1524 8804,1508 "/>
    <path id="5" class="fil0" d="M8667 1442l-18 19 93 15c-3,2 -8,4 -16,7 -7,2 -16,5 -26,7l-40 8c-10,2 -19,4 -26,6 -8,2 -14,4 -20,7 -6,3 -11,5 -16,8 -5,3 -9,6 -12,10 -10,10 -11,19 -4,27 7,7 23,13 48,17 27,4 49,4 67,0 18,-4 32,-11 43,-22l4 -5 -48 -8c-3,3 -6,6 -9,9 -3,3 -7,5 -11,7 -4,2 -8,3 -13,4 -5,1 -10,0 -17,-1 -16,-3 -20,-9 -11,-19 3,-3 6,-6 8,-8 3,-2 6,-4 10,-6 4,-2 8,-3 14,-5 5,-1 12,-3 20,-4l29 -6c13,-3 25,-5 35,-8 11,-3 20,-6 29,-9 8,-3 16,-7 22,-11 7,-4 12,-9 17,-14l-152 -24z"/>
    <path id="6" class="fil0" d="M8500 1415l-18 19 93 15c-3,2 -8,4 -16,7 -7,2 -16,5 -26,7l-40 8c-10,2 -19,4 -26,6 -8,2 -14,4 -20,7 -6,3 -11,5 -16,8 -5,3 -9,6 -12,10 -10,10 -11,19 -4,27 7,7 23,13 48,17 27,4 49,4 67,0 18,-4 32,-11 43,-22l4 -5 -48 -8c-3,3 -6,6 -9,9 -3,3 -7,5 -11,7 -4,2 -8,3 -13,4 -5,1 -10,0 -17,-1 -16,-3 -20,-9 -11,-19 3,-3 6,-6 8,-8 3,-2 6,-4 10,-6 4,-2 8,-3 14,-5 5,-1 12,-3 20,-4l29 -6c13,-3 25,-5 35,-8 11,-3 20,-6 29,-9 8,-3 16,-7 22,-11 7,-4 12,-9 17,-14l-152 -24z"/>
    <path id="7" class="fil0" d="M8427 1404l-50 -8 -112 118 37 6c9,-6 20,-10 32,-12 13,-1 27,-1 44,2l5 1 15 -16 -49 -8 79 -83z"/>
   </g>
   <g>
    <line class="fil2 str0" x1="1298" y1="6945" x2="1171" y2= "4627" />
    <line class="fil2 str0" x1="6930" y1="7935" x2="6803" y2= "5478" />
    <polyline class="fil2 str0" points="7381,6945 7343,6970 7311,6957 7286,6919 7273,6849 7280,6761 7292,6672 7324,6595 7362,6545 "/>
    <line class="fil2 str0" x1="7629" y1="6691" x2="7381" y2= "6945" />
    <polyline class="fil2 str0" points="7603,6284 7641,6259 7673,6272 7699,6316 7711,6386 7711,6468 7692,6557 7661,6634 7629,6691 "/>
    <line class="fil2 str0" x1="7362" y1="6545" x2="7603" y2= "6284" />
    <polyline class="fil2 str0" points="9223,4348 9273,4309 9318,4316 9356,4354 9381,4430 9394,4532 9388,4646 9362,4767 9331,4875 9280,4957 9229,5008 9185,5027 9140,5002 9108,4944 9089,4856 9089,4748 9102,4627 9134,4513 9172,4417 9223,4348 "/>
    <polyline class="fil2 str0" points="7991,5662 7997,5624 8010,5592 "/>
    <line class="fil2 str0" x1="8010" y1="5948" x2="7991" y2= "5662" />
    <line class="fil2 str0" x1="8016" y1="5973" x2="8010" y2= "5948" />
    <line class="fil2 str0" x1="8124" y1="6075" x2="8016" y2= "5973" />
    <line class="fil2 str0" x1="8143" y1="6075" x2="8124" y2= "6075" />
    <line class="fil2 str0" x1="8588" y1="5605" x2="8143" y2= "6075" />
    <line class="fil2 str0" x1="8600" y1="5573" x2="8588" y2= "5605" />
    <line class="fil2 str0" x1="8683" y1="5268" x2="8600" y2= "5573" />
    <line class="fil2 str0" x1="8689" y1="5230" x2="8683" y2= "5268" />
    <line class="fil2 str0" x1="8677" y1="4938" x2="8689" y2= "5230" />
    <polyline class="fil2 str0" points="8651,4919 8664,4919 8677,4938 "/>
    <line class="fil2 str0" x1="8010" y1="5592" x2="8651" y2= "4919" />
    <polyline class="fil2 str0" points="5273,1395 5317,1369 5381,1363 5432,1369 5463,1395 5457,1427 5413,1446 5355,1458 5298,1446 5267,1420 5273,1395 "/>
    <polyline class="fil2 str0" points="6003,1522 6041,1496 6105,1490 6156,1496 6187,1522 6181,1554 6137,1573 6079,1585 6022,1573 5990,1547 6003,1522 "/>
    <polyline class="fil2 str0" points="6727,1649 6765,1623 6829,1617 6886,1623 6911,1649 6905,1681 6867,1700 6803,1712 6746,1700 6714,1674 6727,1649 "/>
    <polyline class="fil2 str0" points="7451,1776 7489,1750 7553,1744 7610,1750 7641,1776 7629,1808 7591,1827 7527,1839 7470,1827 7445,1801 7451,1776 "/>
    <polyline class="fil2 str0" points="8175,1903 8219,1877 8276,1871 8334,1884 8365,1903 8353,1935 8315,1960 8251,1966 8200,1954 8169,1928 8175,1903 "/>
    <polyline class="fil2 str0" points="8899,2030 8943,2004 9000,1998 9058,2011 9089,2030 9083,2062 9038,2087 8975,2093 8924,2081 8892,2062 8899,2030 "/>
    <polyline class="fil2 str0" points="5025,1655 5063,1636 5127,1630 5184,1636 5209,1662 5203,1693 5165,1712 5101,1719 5044,1712 5013,1687 5025,1655 "/>
    <polyline class="fil2 str0" points="5749,1789 5787,1763 5851,1757 5908,1763 5933,1789 5927,1820 5889,1839 5825,1852 5768,1839 5743,1814 5749,1789 "/>
    <polyline class="fil2 str0" points="6473,1916 6518,1890 6575,1884 6632,1890 6664,1916 6651,1947 6613,1966 6549,1979 6492,1966 6467,1941 6473,1916 "/>
    <polyline class="fil2 str0" points="7197,2043 7241,2017 7299,2011 7356,2017 7387,2043 7381,2074 7337,2093 7273,2106 7222,2093 7191,2068 7197,2043 "/>
    <polyline class="fil2 str0" points="7921,2170 7965,2144 8022,2138 8080,2144 8111,2170 8105,2201 8061,2220 8003,2233 7946,2220 7915,2195 7921,2170 "/>
    <polyline class="fil2 str0" points="8645,2297 8689,2271 8753,2265 8804,2278 8835,2297 8829,2328 8784,2354 8727,2360 8670,2347 8638,2322 8645,2297 "/>
    <polyline class="fil2 str0" points="4771,1922 4816,1903 4873,1890 4930,1903 4962,1928 4949,1954 4911,1979 4847,1985 4790,1979 4765,1954 4771,1922 "/>
    <polyline class="fil2 str0" points="5495,2049 5540,2030 5597,2023 5654,2030 5686,2055 5679,2087 5635,2106 5571,2112 5521,2106 5489,2081 5495,2049 "/>
    <polyline class="fil2 str0" points="6219,2182 6264,2157 6321,2150 6378,2157 6410,2182 6403,2214 6359,2233 6302,2246 6244,2233 6213,2208 6219,2182 "/>
    <polyline class="fil2 str0" points="6943,2309 6987,2284 7045,2278 7102,2284 7133,2309 7127,2341 7083,2360 7026,2373 6968,2360 6937,2335 6943,2309 "/>
    <polyline class="fil2 str0" points="7667,2436 7711,2411 7775,2404 7826,2411 7857,2436 7851,2468 7807,2487 7749,2500 7692,2487 7661,2462 7667,2436 "/>
    <polyline class="fil2 str0" points="8397,2563 8435,2538 8499,2532 8556,2538 8581,2563 8575,2595 8537,2614 8473,2627 8416,2614 8384,2589 8397,2563 "/>
    <polyline class="fil2 str0" points="4517,2189 4562,2170 4619,2157 4676,2170 4708,2195 4701,2220 4657,2246 4600,2252 4543,2246 4511,2220 4517,2189 "/>
    <polyline class="fil2 str0" points="5241,2316 5286,2297 5343,2284 5400,2297 5432,2322 5425,2347 5381,2373 5324,2379 5267,2373 5235,2347 5241,2316 "/>
    <polyline class="fil2 str0" points="5965,2443 6010,2424 6073,2417 6124,2424 6156,2449 6149,2481 6105,2500 6048,2506 5990,2500 5959,2474 5965,2443 "/>
    <polyline class="fil2 str0" points="6695,2576 6733,2551 6797,2544 6854,2551 6879,2576 6873,2608 6835,2627 6772,2639 6714,2627 6683,2601 6695,2576 "/>
    <polyline class="fil2 str0" points="7419,2703 7457,2678 7521,2671 7578,2678 7603,2703 7597,2735 7559,2754 7495,2766 7438,2754 7413,2728 7419,2703 "/>
    <polyline class="fil2 str0" points="8143,2830 8181,2805 8245,2798 8302,2805 8334,2830 8321,2862 8283,2881 8219,2893 8162,2881 8137,2855 8143,2830 "/>
    <polyline class="fil2 str0" points="4263,2455 4308,2436 4371,2424 4422,2436 4454,2462 4447,2487 4403,2512 4346,2519 4289,2512 4257,2487 4263,2455 "/>
    <polyline class="fil2 str0" points="4994,2582 5032,2563 5095,2551 5152,2563 5178,2589 5171,2614 5127,2639 5070,2646 5013,2639 4981,2614 4994,2582 "/>
    <polyline class="fil2 str0" points="5717,2709 5756,2690 5819,2678 5876,2690 5902,2716 5895,2741 5857,2766 5794,2773 5736,2766 5711,2741 5717,2709 "/>
    <polyline class="fil2 str0" points="6441,2836 6479,2817 6543,2811 6600,2817 6632,2843 6619,2874 6581,2893 6518,2900 6460,2893 6435,2868 6441,2836 "/>
    <polyline class="fil2 str0" points="7165,2970 7210,2944 7267,2938 7324,2944 7356,2970 7349,3001 7305,3020 7241,3033 7191,3020 7159,2995 7165,2970 "/>
    <polyline class="fil2 str0" points="7889,3097 7934,3071 7991,3065 8048,3071 8080,3097 8073,3128 8029,3147 7972,3160 7915,3147 7883,3122 7889,3097 "/>
    <polyline class="fil2 str0" points="4016,2722 4054,2703 4117,2690 4174,2703 4200,2728 4193,2754 4155,2779 4092,2785 4035,2779 4009,2754 4016,2722 "/>
    <polyline class="fil2 str0" points="4740,2849 4778,2830 4841,2817 4898,2830 4930,2855 4917,2881 4879,2906 4816,2913 4759,2906 4733,2881 4740,2849 "/>
    <polyline class="fil2 str0" points="5463,2976 5508,2957 5565,2944 5622,2957 5654,2982 5648,3008 5603,3033 5540,3039 5489,3033 5457,3008 5463,2976 "/>
    <polyline class="fil2 str0" points="6187,3103 6232,3084 6289,3071 6346,3084 6378,3109 6371,3135 6327,3160 6264,3167 6213,3160 6181,3135 6187,3103 "/>
    <polyline class="fil2 str0" points="6911,3230 6956,3211 7013,3205 7070,3211 7102,3236 7095,3268 7051,3287 6994,3293 6937,3287 6905,3262 6911,3230 "/>
    <polyline class="fil2 str0" points="7635,3363 7680,3338 7743,3332 7794,3338 7826,3363 7819,3395 7775,3414 7718,3427 7661,3414 7629,3389 7635,3363 "/>
    <polyline class="fil2 str0" points="3762,2989 3806,2963 3863,2957 3920,2970 3952,2995 3939,3020 3901,3046 3838,3052 3787,3039 3755,3020 3762,2989 "/>
    <polyline class="fil2 str0" points="4486,3116 4530,3097 4587,3084 4644,3097 4676,3122 4670,3147 4625,3173 4562,3179 4511,3173 4479,3147 4486,3116 "/>
    <polyline class="fil2 str0" points="5209,3243 5254,3224 5311,3211 5368,3224 5400,3249 5394,3274 5349,3300 5292,3306 5235,3300 5203,3274 5209,3243 "/>
    <polyline class="fil2 str0" points="5933,3370 5978,3351 6041,3338 6092,3351 6124,3376 6117,3401 6073,3427 6016,3433 5959,3427 5927,3401 5933,3370 "/>
    <polyline class="fil2 str0" points="6664,3497 6702,3478 6765,3465 6822,3478 6848,3503 6841,3528 6797,3554 6740,3560 6683,3554 6651,3528 6664,3497 "/>
    <polyline class="fil2 str0" points="7387,3624 7426,3605 7489,3598 7546,3605 7572,3630 7565,3662 7527,3681 7464,3687 7407,3681 7381,3655 7387,3624 "/>
    <polyline class="fil2 str0" points="3508,3255 3552,3230 3609,3224 3666,3236 3698,3255 3692,3287 3647,3313 3590,3319 3533,3306 3501,3287 3508,3255 "/>
    <polyline class="fil2 str0" points="4232,3382 4276,3357 4339,3351 4390,3363 4422,3389 4416,3414 4371,3440 4314,3446 4257,3433 4225,3414 4232,3382 "/>
    <polyline class="fil2 str0" points="4962,3509 5000,3490 5063,3478 5114,3490 5146,3516 5140,3541 5095,3567 5038,3573 4981,3567 4949,3541 4962,3509 "/>
    <polyline class="fil2 str0" points="5686,3636 5724,3617 5787,3605 5844,3617 5870,3643 5863,3668 5825,3694 5762,3700 5705,3694 5673,3668 5686,3636 "/>
    <polyline class="fil2 str0" points="6410,3763 6448,3744 6511,3732 6568,3744 6594,3770 6587,3795 6549,3821 6486,3827 6429,3821 6403,3795 6410,3763 "/>
    <polyline class="fil2 str0" points="7133,3890 7178,3871 7235,3859 7292,3871 7324,3897 7311,3922 7273,3948 7210,3954 7153,3948 7127,3922 7133,3890 "/>
    <polyline class="fil2 str0" points="3254,3522 3298,3497 3362,3490 3412,3503 3444,3522 3438,3554 3393,3579 3336,3586 3279,3573 3247,3548 3254,3522 "/>
    <polyline class="fil2 str0" points="3984,3649 4022,3624 4085,3617 4143,3630 4168,3649 4162,3681 4124,3706 4060,3713 4003,3700 3971,3681 3984,3649 "/>
    <polyline class="fil2 str0" points="4708,3776 4746,3751 4809,3744 4867,3757 4892,3782 4886,3808 4847,3833 4784,3840 4727,3827 4701,3808 4708,3776 "/>
    <polyline class="fil2 str0" points="5432,3903 5476,3884 5533,3871 5590,3884 5622,3909 5609,3935 5571,3960 5508,3967 5451,3960 5425,3935 5432,3903 "/>
    <polyline class="fil2 str0" points="6156,4030 6200,4011 6257,3998 6314,4011 6346,4036 6340,4062 6295,4087 6232,4094 6181,4087 6149,4062 6156,4030 "/>
    <polyline class="fil2 str0" points="6879,4157 6924,4138 6981,4125 7038,4138 7070,4163 7064,4189 7019,4214 6962,4221 6905,4214 6873,4189 6879,4157 "/>
    <polyline class="fil2 str0" points="3006,3789 3044,3763 3108,3757 3165,3763 3190,3789 3184,3821 3146,3840 3082,3852 3025,3840 3000,3814 3006,3789 "/>
    <polyline class="fil2 str0" points="3730,3916 3774,3890 3831,3884 3889,3897 3920,3916 3908,3948 3870,3973 3806,3979 3749,3967 3724,3941 3730,3916 "/>
    <polyline class="fil2 str0" points="4454,4043 4498,4017 4555,4011 4613,4024 4644,4043 4638,4075 4593,4100 4530,4106 4479,4094 4447,4075 4454,4043 "/>
    <polyline class="fil2 str0" points="5178,4170 5222,4144 5279,4138 5336,4151 5368,4176 5362,4202 5317,4227 5260,4233 5203,4221 5171,4202 5178,4170 "/>
    <polyline class="fil2 str0" points="5902,4297 5946,4278 6003,4265 6060,4278 6092,4303 6086,4329 6041,4354 5984,4360 5927,4354 5895,4329 5902,4297 "/>
    <polyline class="fil2 str0" points="4860,1166 4898,1141 4962,1134 5019,1141 5044,1166 5038,1198 5000,1217 4936,1223 4879,1217 4847,1192 4860,1166 "/>
    <polyline class="fil2 str0" points="5584,1293 5622,1268 5686,1262 5743,1268 5768,1293 5762,1325 5724,1344 5660,1357 5603,1344 5578,1319 5584,1293 "/>
    <polyline class="fil2 str0" points="6308,1420 6352,1395 6410,1388 6467,1395 6498,1420 6486,1452 6448,1471 6384,1484 6327,1471 6302,1446 6308,1420 "/>
    <polyline class="fil2 str0" points="7032,1547 7076,1522 7133,1515 7191,1522 7222,1547 7216,1579 7172,1598 7108,1611 7057,1598 7026,1573 7032,1547 "/>
    <polyline class="fil2 str0" points="7756,1674 7800,1649 7857,1643 7915,1655 7946,1674 7940,1706 7895,1731 7838,1738 7781,1725 7749,1700 7756,1674 "/>
    <polyline class="fil2 str0" points="8480,1801 8524,1776 8588,1769 8638,1782 8670,1801 8664,1833 8619,1858 8562,1865 8505,1852 8473,1833 8480,1801 "/>
    <polyline class="fil2 str0" points="9204,1928 9248,1903 9312,1897 9362,1909 9394,1928 9388,1960 9343,1985 9286,1992 9229,1979 9197,1960 9204,1928 "/>
    <polyline class="fil2 str0" points="4968,1496 5013,1471 5070,1465 5127,1471 5159,1496 5152,1528 5108,1547 5044,1554 4994,1547 4962,1522 4968,1496 "/>
    <polyline class="fil2 str0" points="5692,1623 5736,1598 5794,1592 5851,1598 5883,1623 5876,1655 5832,1674 5768,1687 5717,1674 5686,1649 5692,1623 "/>
    <polyline class="fil2 str0" points="6416,1750 6460,1725 6518,1719 6575,1725 6606,1750 6600,1782 6556,1801 6498,1814 6441,1801 6410,1776 6416,1750 "/>
    <polyline class="fil2 str0" points="7140,1877 7184,1852 7248,1846 7299,1852 7330,1877 7324,1909 7280,1928 7222,1941 7165,1928 7133,1903 7140,1877 "/>
    <polyline class="fil2 str0" points="7870,2004 7908,1979 7972,1973 8029,1979 8054,2004 8048,2036 8003,2055 7946,2068 7889,2055 7857,2030 7870,2004 "/>
    <polyline class="fil2 str0" points="8594,2131 8632,2106 8696,2100 8753,2112 8778,2131 8772,2163 8734,2189 8670,2195 8613,2182 8588,2163 8594,2131 "/>
    <polyline class="fil2 str0" points="4352,1693 4397,1674 4454,1662 4511,1674 4543,1700 4536,1725 4492,1750 4435,1757 4378,1750 4346,1725 4352,1693 "/>
    <polyline class="fil2 str0" points="5076,1820 5121,1801 5178,1795 5235,1801 5267,1827 5260,1852 5216,1877 5159,1884 5101,1877 5070,1852 5076,1820 "/>
    <polyline class="fil2 str0" points="5800,1954 5844,1928 5908,1922 5959,1928 5990,1954 5984,1985 5940,2004 5883,2011 5825,2004 5794,1979 5800,1954 "/>
    <polyline class="fil2 str0" points="6530,2081 6568,2055 6632,2049 6689,2055 6714,2081 6708,2112 6670,2131 6606,2144 6549,2131 6518,2106 6530,2081 "/>
    <polyline class="fil2 str0" points="7254,2208 7292,2182 7356,2176 7413,2182 7438,2208 7432,2239 7394,2258 7330,2271 7273,2258 7248,2233 7254,2208 "/>
    <polyline class="fil2 str0" points="7978,2335 8016,2309 8080,2303 8137,2309 8169,2335 8156,2366 8118,2385 8054,2398 7997,2385 7972,2360 7978,2335 "/>
    <polyline class="fil2 str0" points="8702,2462 8746,2436 8804,2430 8861,2443 8892,2462 8886,2493 8842,2519 8778,2525 8727,2512 8696,2487 8702,2462 "/>
    <polyline class="fil2 str0" points="4460,2023 4505,2004 4568,1992 4619,2004 4651,2030 4644,2055 4600,2081 4543,2087 4486,2081 4454,2055 4460,2023 "/>
    <polyline class="fil2 str0" points="5190,2150 5228,2131 5292,2125 5349,2131 5375,2157 5368,2182 5330,2208 5267,2214 5209,2208 5178,2182 5190,2150 "/>
    <polyline class="fil2 str0" points="5914,2284 5952,2258 6016,2252 6073,2258 6098,2284 6092,2316 6054,2335 5990,2341 5933,2335 5908,2309 5914,2284 "/>
    <polyline class="fil2 str0" points="6638,2411 6683,2385 6740,2379 6797,2385 6829,2411 6816,2443 6778,2462 6714,2474 6657,2462 6632,2436 6638,2411 "/>
    <polyline class="fil2 str0" points="7362,2538 7407,2512 7464,2506 7521,2512 7553,2538 7546,2570 7502,2589 7438,2601 7387,2589 7356,2563 7362,2538 "/>
    <polyline class="fil2 str0" points="8086,2665 8130,2639 8188,2633 8245,2639 8276,2665 8270,2697 8226,2716 8169,2728 8111,2716 8080,2690 8086,2665 "/>
    <polyline class="fil2 str0" points="3851,2227 3889,2208 3952,2195 4009,2208 4035,2233 4028,2258 3990,2284 3927,2290 3870,2284 3844,2258 3851,2227 "/>
    <polyline class="fil2 str0" points="4574,2354 4613,2335 4676,2322 4733,2335 4765,2360 4752,2385 4714,2411 4651,2417 4593,2411 4568,2385 4574,2354 "/>
    <polyline class="fil2 str0" points="5298,2481 5343,2462 5400,2449 5457,2462 5489,2487 5482,2512 5438,2538 5375,2544 5324,2538 5292,2512 5298,2481 "/>
    <polyline class="fil2 str0" points="6022,2608 6067,2589 6124,2582 6181,2589 6213,2614 6206,2639 6162,2665 6098,2671 6048,2665 6016,2639 6022,2608 "/>
    <polyline class="fil2 str0" points="6746,2741 6791,2716 6848,2709 6905,2716 6937,2741 6930,2773 6886,2792 6829,2798 6772,2792 6740,2766 6746,2741 "/>
    <polyline class="fil2 str0" points="7470,2868 7514,2843 7578,2836 7629,2843 7661,2868 7654,2900 7610,2919 7553,2932 7495,2919 7464,2893 7470,2868 "/>
    <polyline class="fil2 str0" points="8200,2995 8238,2970 8302,2963 8359,2970 8384,2995 8378,3027 8334,3046 8276,3059 8219,3046 8188,3020 8200,2995 "/>
    <polyline class="fil2 str0" points="3958,2557 4003,2538 4060,2525 4117,2538 4149,2563 4143,2589 4098,2614 4035,2620 3984,2614 3952,2589 3958,2557 "/>
    <polyline class="fil2 str0" points="4682,2684 4727,2665 4784,2652 4841,2665 4873,2690 4867,2716 4822,2741 4765,2747 4708,2741 4676,2716 4682,2684 "/>
    <polyline class="fil2 str0" points="5406,2811 5451,2792 5508,2779 5565,2792 5597,2817 5590,2843 5546,2868 5489,2874 5432,2868 5400,2843 5406,2811 "/>
    <polyline class="fil2 str0" points="6130,2938 6175,2919 6238,2913 6289,2919 6321,2944 6314,2970 6270,2995 6213,3001 6156,2995 6124,2970 6130,2938 "/>
    <polyline class="fil2 str0" points="6860,3071 6899,3046 6962,3039 7019,3046 7045,3071 7038,3103 7000,3122 6937,3128 6879,3122 6848,3097 6860,3071 "/>
    <polyline class="fil2 str0" points="7584,3198 7622,3173 7686,3167 7743,3173 7768,3198 7762,3230 7724,3249 7661,3262 7603,3249 7578,3224 7584,3198 "/>
    <polyline class="fil2 str0" points="3343,2760 3387,2735 3444,2728 3501,2741 3533,2760 3527,2792 3482,2817 3425,2824 3368,2811 3336,2792 3343,2760 "/>
    <polyline class="fil2 str0" points="4066,2887 4111,2868 4174,2855 4225,2868 4257,2893 4251,2919 4206,2944 4149,2951 4092,2944 4060,2919 4066,2887 "/>
    <polyline class="fil2 str0" points="4797,3014 4835,2995 4898,2982 4949,2995 4981,3020 4974,3046 4930,3071 4873,3078 4816,3071 4784,3046 4797,3014 "/>
    <polyline class="fil2 str0" points="5521,3141 5559,3122 5622,3109 5679,3122 5705,3147 5698,3173 5660,3198 5597,3205 5540,3198 5508,3173 5521,3141 "/>
    <polyline class="fil2 str0" points="6244,3268 6283,3249 6346,3236 6403,3249 6429,3274 6422,3300 6384,3325 6321,3332 6264,3325 6238,3300 6244,3268 "/>
    <polyline class="fil2 str0" points="6968,3395 7013,3376 7070,3370 7127,3376 7159,3401 7146,3427 7108,3452 7045,3459 6987,3452 6962,3427 6968,3395 "/>
    <polyline class="fil2 str0" points="7692,3528 7737,3503 7794,3497 7851,3503 7883,3528 7876,3560 7832,3579 7768,3586 7718,3579 7686,3554 7692,3528 "/>
    <polyline class="fil2 str0" points="3457,3090 3495,3065 3558,3059 3616,3071 3641,3090 3635,3122 3590,3147 3533,3154 3476,3141 3444,3122 3457,3090 "/>
    <polyline class="fil2 str0" points="4181,3217 4219,3192 4282,3186 4339,3198 4365,3224 4359,3249 4320,3274 4257,3281 4200,3268 4174,3249 4181,3217 "/>
    <polyline class="fil2 str0" points="4905,3344 4943,3325 5006,3313 5063,3325 5095,3351 5082,3376 5044,3401 4981,3408 4924,3401 4898,3376 4905,3344 "/>
    <polyline class="fil2 str0" points="5629,3471 5673,3452 5730,3440 5787,3452 5819,3478 5813,3503 5768,3528 5705,3535 5654,3528 5622,3503 5629,3471 "/>
    <polyline class="fil2 str0" points="6352,3598 6397,3579 6454,3567 6511,3579 6543,3605 6537,3630 6492,3655 6435,3662 6378,3655 6346,3630 6352,3598 "/>
    <polyline class="fil2 str0" points="7076,3725 7121,3706 7178,3700 7235,3706 7267,3732 7260,3757 7216,3782 7159,3789 7102,3782 7070,3757 7076,3725 "/>
    <polyline class="fil2 str0" points="2841,3293 2879,3268 2942,3262 3000,3274 3025,3293 3019,3325 2981,3351 2917,3357 2860,3344 2835,3319 2841,3293 "/>
    <polyline class="fil2 str0" points="3565,3420 3609,3395 3666,3389 3724,3401 3755,3420 3743,3452 3704,3478 3641,3484 3584,3471 3558,3452 3565,3420 "/>
    <polyline class="fil2 str0" points="4289,3548 4333,3522 4390,3516 4447,3528 4479,3548 4473,3579 4428,3605 4365,3611 4314,3598 4282,3579 4289,3548 "/>
    <polyline class="fil2 str0" points="5013,3674 5057,3655 5114,3643 5171,3655 5203,3681 5197,3706 5152,3732 5095,3738 5038,3732 5006,3706 5013,3674 "/>
    <polyline class="fil2 str0" points="5736,3802 5781,3782 5838,3770 5895,3782 5927,3808 5921,3833 5876,3859 5819,3865 5762,3859 5730,3833 5736,3802 "/>
    <polyline class="fil2 str0" points="6460,3928 6505,3909 6568,3897 6619,3909 6651,3935 6645,3960 6600,3986 6543,3992 6486,3986 6454,3960 6460,3928 "/>
    <polyline class="fil2 str0" points="7191,4055 7229,4036 7292,4024 7349,4036 7375,4062 7368,4087 7330,4113 7267,4119 7210,4113 7178,4087 7191,4055 "/>
    <polyline class="fil2 str0" points="2949,3624 2993,3598 3050,3592 3108,3598 3139,3624 3133,3655 3089,3674 3025,3687 2974,3674 2942,3649 2949,3624 "/>
    <polyline class="fil2 str0" points="3673,3751 3717,3725 3774,3719 3831,3732 3863,3751 3857,3782 3812,3808 3755,3814 3698,3802 3666,3782 3673,3751 "/>
    <polyline class="fil2 str0" points="4397,3878 4441,3852 4505,3846 4555,3859 4587,3878 4581,3909 4536,3935 4479,3941 4422,3928 4390,3909 4397,3878 "/>
    <polyline class="fil2 str0" points="5127,4005 5165,3979 5228,3973 5279,3986 5311,4011 5305,4036 5260,4062 5203,4068 5146,4055 5114,4036 5127,4005 "/>
    <polyline class="fil2 str0" points="5851,4132 5889,4113 5952,4100 6010,4113 6035,4138 6029,4163 5990,4189 5927,4195 5870,4189 5838,4163 5851,4132 "/>
    <polyline class="fil2 str0" points="6575,4259 6613,4240 6676,4227 6733,4240 6759,4265 6752,4290 6714,4316 6651,4322 6594,4316 6568,4290 6575,4259 "/>
    <polyline class="fil2 str0" points="2333,3827 2377,3802 2434,3795 2492,3802 2523,3827 2517,3859 2473,3878 2415,3890 2358,3878 2327,3852 2333,3827 "/>
    <polyline class="fil2 str0" points="3057,3954 3101,3928 3165,3922 3216,3928 3247,3954 3241,3986 3196,4005 3139,4017 3082,4005 3050,3979 3057,3954 "/>
    <polyline class="fil2 str0" points="3787,4081 3825,4055 3889,4049 3946,4062 3971,4081 3965,4113 3920,4138 3863,4144 3806,4132 3774,4106 3787,4081 "/>
    <polyline class="fil2 str0" points="4511,4208 4549,4183 4613,4176 4670,4189 4695,4208 4689,4240 4651,4265 4587,4271 4530,4259 4505,4240 4511,4208 "/>
    <polyline class="fil2 str0" points="5235,4335 5273,4309 5336,4303 5394,4316 5425,4335 5413,4367 5375,4392 5311,4398 5254,4386 5228,4367 5235,4335 "/>
    <polyline class="fil2 str0" points="5959,4462 6003,4443 6060,4430 6117,4443 6149,4468 6143,4494 6098,4519 6035,4525 5984,4519 5952,4494 5959,4462 "/>
    <polyline class="fil2 str0" points="6625,4424 6670,4405 6733,4392 6784,4405 6816,4430 6810,4456 6765,4481 6708,4487 6651,4481 6619,4456 6625,4424 "/>
    <polyline class="fil2 str0" points="6683,4589 6727,4570 6784,4557 6841,4570 6873,4595 6867,4621 6822,4646 6765,4652 6708,4646 6676,4621 6683,4589 "/>
    <polyline class="fil2 str0" points="6321,4525 6365,4506 6422,4494 6479,4506 6511,4532 6505,4557 6460,4583 6397,4589 6346,4583 6314,4557 6321,4525 "/>
    <polyline class="fil2 str0" points="5597,4398 5641,4373 5698,4367 5756,4379 5787,4405 5775,4430 5736,4456 5673,4462 5616,4449 5590,4430 5597,4398 "/>
    <polyline class="fil2 str0" points="4873,4271 4911,4246 4974,4240 5032,4252 5057,4271 5051,4303 5013,4329 4949,4335 4892,4322 4867,4303 4873,4271 "/>
    <polyline class="fil2 str0" points="4149,4144 4187,4119 4251,4113 4308,4125 4333,4144 4327,4176 4289,4202 4225,4208 4168,4195 4136,4176 4149,4144 "/>
    <polyline class="fil2 str0" points="3419,4017 3463,3992 3527,3986 3577,3992 3609,4017 3603,4049 3558,4068 3501,4081 3444,4068 3412,4043 3419,4017 "/>
    <polyline class="fil2 str0" points="2695,3890 2739,3865 2796,3859 2854,3865 2885,3890 2879,3922 2835,3941 2777,3954 2720,3941 2688,3916 2695,3890 "/>
    <polyline class="fil2 str0" points="6937,4322 6975,4303 7038,4290 7095,4303 7127,4329 7114,4354 7076,4379 7013,4386 6956,4379 6930,4354 6937,4322 "/>
    <polyline class="fil2 str0" points="6213,4195 6251,4176 6314,4163 6371,4176 6397,4202 6391,4227 6352,4252 6289,4259 6232,4252 6206,4227 6213,4195 "/>
    <polyline class="fil2 str0" points="5489,4068 5527,4049 5590,4036 5648,4049 5673,4075 5667,4100 5622,4125 5565,4132 5508,4125 5476,4100 5489,4068 "/>
    <polyline class="fil2 str0" points="4759,3941 4803,3916 4867,3909 4917,3922 4949,3941 4943,3973 4898,3998 4841,4005 4784,3992 4752,3973 4759,3941 "/>
    <polyline class="fil2 str0" points="4035,3814 4079,3789 4136,3782 4193,3795 4225,3814 4219,3846 4174,3871 4117,3878 4060,3865 4028,3846 4035,3814 "/>
    <polyline class="fil2 str0" points="3311,3687 3355,3662 3412,3655 3470,3668 3501,3687 3495,3719 3450,3744 3393,3751 3336,3738 3304,3713 3311,3687 "/>
    <polyline class="fil2 str0" points="2587,3560 2631,3535 2688,3528 2746,3535 2777,3560 2771,3592 2727,3611 2663,3624 2612,3611 2581,3586 2587,3560 "/>
    <polyline class="fil2 str0" points="6829,3992 6867,3973 6930,3960 6987,3973 7013,3998 7006,4024 6962,4049 6905,4055 6848,4049 6816,4024 6829,3992 "/>
    <polyline class="fil2 str0" points="6098,3865 6143,3846 6206,3833 6257,3846 6289,3871 6283,3897 6238,3922 6181,3928 6124,3922 6092,3897 6098,3865 "/>
    <polyline class="fil2 str0" points="5375,3738 5419,3719 5476,3706 5533,3719 5565,3744 5559,3770 5514,3795 5457,3802 5400,3795 5368,3770 5375,3738 "/>
    <polyline class="fil2 str0" points="4651,3611 4695,3586 4752,3579 4809,3592 4841,3617 4835,3643 4790,3668 4727,3674 4676,3662 4644,3643 4651,3611 "/>
    <polyline class="fil2 str0" points="3927,3484 3971,3459 4028,3452 4085,3465 4117,3484 4105,3516 4066,3541 4003,3548 3952,3535 3920,3516 3927,3484 "/>
    <polyline class="fil2 str0" points="3203,3357 3241,3332 3304,3325 3362,3338 3393,3357 3381,3389 3343,3414 3279,3420 3222,3408 3196,3389 3203,3357 "/>
    <polyline class="fil2 str0" points="7438,3789 7483,3770 7540,3763 7597,3770 7629,3795 7622,3821 7578,3846 7521,3852 7464,3846 7432,3821 7438,3789 "/>
    <polyline class="fil2 str0" points="6714,3662 6759,3643 6816,3630 6873,3643 6905,3668 6899,3694 6854,3719 6797,3725 6740,3719 6708,3694 6714,3662 "/>
    <polyline class="fil2 str0" points="5990,3535 6035,3516 6092,3503 6149,3516 6181,3541 6175,3567 6130,3592 6067,3598 6016,3592 5984,3567 5990,3535 "/>
    <polyline class="fil2 str0" points="5267,3408 5311,3389 5368,3376 5425,3389 5457,3414 5444,3440 5406,3465 5343,3471 5286,3465 5260,3440 5267,3408 "/>
    <polyline class="fil2 str0" points="4543,3281 4581,3262 4644,3249 4701,3262 4727,3287 4720,3313 4682,3338 4619,3344 4562,3338 4536,3313 4543,3281 "/>
    <polyline class="fil2 str0" points="3819,3154 3857,3128 3920,3122 3978,3135 4003,3154 3997,3186 3958,3211 3895,3217 3838,3205 3806,3186 3819,3154 "/>
    <polyline class="fil2 str0" points="3089,3027 3133,3001 3196,2995 3247,3008 3279,3027 3273,3059 3228,3084 3171,3090 3114,3078 3082,3059 3089,3027 "/>
    <polyline class="fil2 str0" points="7330,3465 7375,3440 7432,3433 7489,3440 7521,3465 7514,3497 7470,3516 7407,3522 7356,3516 7324,3490 7330,3465 "/>
    <polyline class="fil2 str0" points="6606,3332 6645,3313 6708,3306 6765,3313 6797,3338 6784,3363 6746,3389 6683,3395 6625,3389 6600,3363 6606,3332 "/>
    <polyline class="fil2 str0" points="5883,3205 5921,3186 5984,3173 6041,3186 6067,3211 6060,3236 6022,3262 5959,3268 5902,3262 5876,3236 5883,3205 "/>
    <polyline class="fil2 str0" points="5159,3078 5197,3059 5260,3046 5317,3059 5343,3084 5336,3109 5292,3135 5235,3141 5178,3135 5146,3109 5159,3078 "/>
    <polyline class="fil2 str0" points="4428,2951 4473,2932 4536,2919 4587,2932 4619,2957 4613,2982 4568,3008 4511,3014 4454,3008 4422,2982 4428,2951 "/>
    <polyline class="fil2 str0" points="3704,2824 3749,2798 3806,2792 3863,2805 3895,2830 3889,2855 3844,2881 3787,2887 3730,2874 3698,2855 3704,2824 "/>
    <polyline class="fil2 str0" points="7946,3262 7984,3236 8048,3230 8105,3236 8137,3262 8124,3293 8086,3313 8022,3325 7965,3313 7940,3287 7946,3262 "/>
    <polyline class="fil2 str0" points="7222,3135 7260,3109 7324,3103 7381,3109 7407,3135 7400,3167 7362,3186 7299,3192 7241,3186 7210,3160 7222,3135 "/>
    <polyline class="fil2 str0" points="6498,3001 6537,2982 6600,2976 6657,2982 6683,3008 6676,3033 6632,3059 6575,3065 6518,3059 6486,3033 6498,3001 "/>
    <polyline class="fil2 str0" points="5768,2874 5813,2855 5876,2843 5927,2855 5959,2881 5952,2906 5908,2932 5851,2938 5794,2932 5762,2906 5768,2874 "/>
    <polyline class="fil2 str0" points="5044,2747 5089,2728 5146,2716 5203,2728 5235,2754 5228,2779 5184,2805 5127,2811 5070,2805 5038,2779 5044,2747 "/>
    <polyline class="fil2 str0" points="4320,2620 4365,2601 4422,2589 4479,2601 4511,2627 4505,2652 4460,2678 4397,2684 4346,2678 4314,2652 4320,2620 "/>
    <polyline class="fil2 str0" points="3597,2493 3641,2474 3698,2462 3755,2474 3787,2500 3774,2525 3736,2551 3673,2557 3622,2551 3590,2525 3597,2493 "/>
    <polyline class="fil2 str0" points="7832,2932 7876,2906 7940,2900 7991,2906 8022,2932 8016,2963 7972,2982 7915,2995 7857,2982 7826,2957 7832,2932 "/>
    <polyline class="fil2 str0" points="7108,2805 7153,2779 7210,2773 7267,2779 7299,2805 7292,2836 7248,2855 7191,2868 7133,2855 7102,2830 7108,2805 "/>
    <polyline class="fil2 str0" points="6384,2678 6429,2652 6486,2646 6543,2652 6575,2678 6568,2709 6524,2728 6467,2735 6410,2728 6378,2703 6384,2678 "/>
    <polyline class="fil2 str0" points="5660,2544 5705,2525 5762,2519 5819,2525 5851,2551 5844,2576 5800,2601 5736,2608 5686,2601 5654,2576 5660,2544 "/>
    <polyline class="fil2 str0" points="4936,2417 4981,2398 5038,2385 5095,2398 5127,2424 5114,2449 5076,2474 5013,2481 4955,2474 4930,2449 4936,2417 "/>
    <polyline class="fil2 str0" points="4212,2290 4251,2271 4314,2258 4371,2271 4397,2297 4390,2322 4352,2347 4289,2354 4232,2347 4206,2322 4212,2290 "/>
    <polyline class="fil2 str0" points="8448,2728 8492,2703 8550,2697 8607,2703 8638,2728 8632,2760 8588,2779 8530,2792 8473,2779 8442,2754 8448,2728 "/>
    <polyline class="fil2 str0" points="7724,2601 7768,2576 7826,2570 7883,2576 7915,2601 7908,2633 7864,2652 7807,2665 7749,2652 7718,2627 7724,2601 "/>
    <polyline class="fil2 str0" points="7000,2474 7045,2449 7102,2443 7159,2449 7191,2474 7184,2506 7140,2525 7076,2538 7026,2525 6994,2500 7000,2474 "/>
    <polyline class="fil2 str0" points="6276,2347 6314,2322 6378,2316 6435,2322 6467,2347 6454,2379 6416,2398 6352,2404 6295,2398 6270,2373 6276,2347 "/>
    <polyline class="fil2 str0" points="5552,2214 5590,2195 5654,2189 5711,2195 5736,2220 5730,2246 5692,2271 5629,2278 5571,2271 5546,2246 5552,2214 "/>
    <polyline class="fil2 str0" points="4828,2087 4867,2068 4930,2055 4987,2068 5013,2093 5006,2119 4962,2144 4905,2150 4847,2144 4816,2119 4828,2087 "/>
    <polyline class="fil2 str0" points="4098,1960 4143,1941 4206,1928 4257,1941 4289,1966 4282,1992 4238,2017 4181,2023 4124,2017 4092,1992 4098,1960 "/>
    <polyline class="fil2 str0" points="8340,2398 8384,2373 8442,2366 8499,2373 8530,2398 8518,2430 8480,2449 8416,2462 8365,2449 8334,2424 8340,2398 "/>
    <polyline class="fil2 str0" points="7616,2271 7654,2246 7718,2239 7775,2246 7807,2271 7794,2303 7756,2322 7692,2335 7635,2322 7610,2297 7616,2271 "/>
    <polyline class="fil2 str0" points="6892,2144 6930,2119 6994,2112 7051,2119 7076,2144 7070,2176 7032,2195 6968,2208 6911,2195 6879,2170 6892,2144 "/>
    <polyline class="fil2 str0" points="6168,2017 6206,1992 6270,1985 6321,1992 6352,2017 6346,2049 6302,2068 6244,2081 6187,2068 6156,2043 6168,2017 "/>
    <polyline class="fil2 str0" points="5438,1890 5482,1865 5546,1858 5597,1865 5629,1890 5622,1922 5578,1941 5521,1947 5463,1941 5432,1916 5438,1890 "/>
    <polyline class="fil2 str0" points="4714,1757 4759,1738 4816,1731 4873,1738 4905,1763 4898,1789 4854,1814 4797,1820 4740,1814 4708,1789 4714,1757 "/>
    <polyline class="fil2 str0" points="8956,2195 8994,2170 9058,2163 9115,2176 9140,2195 9134,2227 9096,2252 9032,2258 8975,2246 8950,2227 8956,2195 "/>
    <polyline class="fil2 str0" points="8232,2068 8270,2043 8334,2036 8391,2049 8416,2068 8410,2100 8372,2125 8308,2131 8251,2119 8219,2093 8232,2068 "/>
    <polyline class="fil2 str0" points="7502,1941 7546,1916 7610,1909 7661,1916 7692,1941 7686,1973 7641,1992 7584,2004 7527,1992 7495,1966 7502,1941 "/>
    <polyline class="fil2 str0" points="6778,1814 6822,1789 6879,1782 6937,1789 6968,1814 6962,1846 6918,1865 6860,1877 6803,1865 6772,1839 6778,1814 "/>
    <polyline class="fil2 str0" points="6054,1687 6098,1662 6156,1655 6213,1662 6244,1687 6238,1719 6194,1738 6137,1750 6079,1738 6048,1712 6054,1687 "/>
    <polyline class="fil2 str0" points="5330,1560 5375,1535 5432,1528 5489,1535 5521,1560 5514,1592 5470,1611 5406,1617 5355,1611 5324,1585 5330,1560 "/>
    <polyline class="fil2 str0" points="4606,1427 4651,1408 4708,1401 4765,1408 4797,1433 4784,1458 4746,1484 4682,1490 4625,1484 4600,1458 4606,1427 "/>
    <polyline class="fil2 str0" points="8842,1865 8886,1839 8950,1833 9000,1846 9032,1865 9026,1897 8981,1922 8924,1928 8867,1916 8835,1897 8842,1865 "/>
    <polyline class="fil2 str0" points="8118,1738 8162,1712 8219,1706 8276,1719 8308,1738 8302,1769 8257,1795 8200,1801 8143,1789 8111,1769 8118,1738 "/>
    <polyline class="fil2 str0" points="7394,1611 7438,1585 7495,1579 7553,1585 7584,1611 7578,1643 7534,1662 7476,1674 7419,1662 7387,1636 7394,1611 "/>
    <polyline class="fil2 str0" points="6670,1484 6714,1458 6772,1452 6829,1458 6860,1484 6854,1515 6810,1535 6746,1547 6695,1535 6664,1509 6670,1484 "/>
    <polyline class="fil2 str0" points="5946,1357 5984,1331 6048,1325 6105,1331 6137,1357 6124,1388 6086,1408 6022,1420 5965,1408 5940,1382 5946,1357 "/>
    <polyline class="fil2 str0" points="5222,1230 5260,1204 5324,1198 5381,1204 5406,1230 5400,1262 5362,1281 5298,1293 5241,1281 5216,1255 5222,1230 "/>
    <polyline class="fil2 str0" points="6264,4360 6308,4341 6371,4329 6422,4341 6454,4367 6448,4392 6403,4417 6346,4424 6289,4417 6257,4392 6264,4360 "/>
    <polyline class="fil2 str0" points="5540,4233 5584,4208 5641,4202 5698,4214 5730,4240 5724,4265 5679,4290 5622,4297 5565,4284 5533,4265 5540,4233 "/>
    <polyline class="fil2 str0" points="4816,4106 4860,4081 4917,4075 4974,4087 5006,4106 5000,4138 4955,4163 4892,4170 4841,4157 4809,4138 4816,4106 "/>
    <polyline class="fil2 str0" points="4092,3979 4136,3954 4193,3948 4251,3960 4282,3979 4270,4011 4232,4036 4168,4043 4117,4030 4085,4011 4092,3979 "/>
    <polyline class="fil2 str0" points="3368,3852 3406,3827 3470,3821 3527,3833 3558,3852 3546,3884 3508,3909 3444,3916 3387,3903 3362,3878 3368,3852 "/>
    <polyline class="fil2 str0" points="2644,3725 2682,3700 2746,3694 2803,3700 2828,3725 2822,3757 2784,3776 2720,3789 2663,3776 2638,3751 2644,3725 "/>
    <polyline class="fil2 str0" points="6518,4094 6562,4075 6619,4062 6676,4075 6708,4100 6702,4125 6657,4151 6600,4157 6543,4151 6511,4125 6518,4094 "/>
    <polyline class="fil2 str0" points="5794,3967 5838,3948 5895,3935 5952,3948 5984,3973 5978,3998 5933,4024 5870,4030 5819,4024 5787,3998 5794,3967 "/>
    <polyline class="fil2 str0" points="5070,3840 5108,3814 5171,3808 5228,3821 5260,3846 5248,3871 5209,3897 5146,3903 5089,3890 5063,3871 5070,3840 "/>
    <polyline class="fil2 str0" points="4346,3713 4384,3687 4447,3681 4505,3694 4530,3713 4524,3744 4486,3770 4422,3776 4365,3763 4339,3744 4346,3713 "/>
    <polyline class="fil2 str0" points="3622,3586 3660,3560 3724,3554 3781,3567 3806,3586 3800,3617 3755,3643 3698,3649 3641,3636 3609,3617 3622,3586 "/>
    <polyline class="fil2 str0" points="2892,3459 2936,3433 3000,3427 3050,3440 3082,3459 3076,3490 3031,3516 2974,3522 2917,3509 2885,3484 2892,3459 "/>
    <polyline class="fil2 str0" points="6772,3827 6810,3808 6873,3795 6930,3808 6962,3833 6949,3859 6911,3884 6848,3890 6791,3884 6765,3859 6772,3827 "/>
    <polyline class="fil2 str0" points="6048,3700 6086,3681 6149,3668 6206,3681 6232,3706 6225,3732 6187,3757 6124,3763 6067,3757 6041,3732 6048,3700 "/>
    <polyline class="fil2 str0" points="5324,3573 5362,3554 5425,3541 5482,3554 5508,3579 5502,3605 5457,3630 5400,3636 5343,3630 5311,3605 5324,3573 "/>
    <polyline class="fil2 str0" points="4593,3446 4638,3420 4701,3414 4752,3427 4784,3452 4778,3478 4733,3503 4676,3509 4619,3497 4587,3478 4593,3446 "/>
    <polyline class="fil2 str0" points="3870,3319 3914,3293 3971,3287 4028,3300 4060,3319 4054,3351 4009,3376 3952,3382 3895,3370 3863,3351 3870,3319 "/>
    <polyline class="fil2 str0" points="3146,3192 3190,3167 3247,3160 3304,3173 3336,3192 3330,3224 3285,3249 3228,3255 3171,3243 3139,3224 3146,3192 "/>
    <polyline class="fil2 str0" points="7026,3560 7064,3541 7127,3535 7184,3541 7210,3567 7203,3592 7165,3617 7102,3624 7045,3617 7013,3592 7026,3560 "/>
    <polyline class="fil2 str0" points="6295,3433 6340,3414 6403,3401 6454,3414 6486,3440 6479,3465 6435,3490 6378,3497 6321,3490 6289,3465 6295,3433 "/>
    <polyline class="fil2 str0" points="5571,3306 5616,3287 5673,3274 5730,3287 5762,3313 5756,3338 5711,3363 5654,3370 5597,3363 5565,3338 5571,3306 "/>
    <polyline class="fil2 str0" points="4847,3179 4892,3160 4949,3147 5006,3160 5038,3186 5032,3211 4987,3236 4930,3243 4873,3236 4841,3211 4847,3179 "/>
    <polyline class="fil2 str0" points="4124,3052 4168,3027 4225,3020 4282,3033 4314,3059 4308,3084 4263,3109 4200,3116 4149,3103 4117,3084 4124,3052 "/>
    <polyline class="fil2 str0" points="3400,2925 3438,2900 3501,2893 3558,2906 3590,2925 3577,2957 3539,2982 3476,2989 3419,2976 3393,2957 3400,2925 "/>
    <polyline class="fil2 str0" points="7273,3300 7318,3274 7375,3268 7432,3274 7464,3300 7457,3332 7413,3351 7356,3357 7299,3351 7267,3325 7273,3300 "/>
    <polyline class="fil2 str0" points="6549,3167 6594,3147 6651,3141 6708,3147 6740,3173 6733,3198 6689,3224 6632,3230 6575,3224 6543,3198 6549,3167 "/>
    <polyline class="fil2 str0" points="5825,3039 5870,3020 5927,3008 5984,3020 6016,3046 6010,3071 5965,3097 5902,3103 5851,3097 5819,3071 5825,3039 "/>
    <polyline class="fil2 str0" points="5101,2913 5146,2893 5203,2881 5260,2893 5292,2919 5279,2944 5241,2970 5178,2976 5121,2970 5095,2944 5101,2913 "/>
    <polyline class="fil2 str0" points="4378,2785 4416,2766 4479,2754 4536,2766 4562,2792 4555,2817 4517,2843 4454,2849 4397,2843 4371,2817 4378,2785 "/>
    <polyline class="fil2 str0" points="3654,2658 3692,2633 3755,2627 3812,2639 3838,2665 3831,2690 3793,2716 3730,2722 3673,2709 3641,2690 3654,2658 "/>
    <polyline class="fil2 str0" points="7527,3033 7572,3008 7629,3001 7686,3008 7718,3033 7711,3065 7667,3084 7603,3097 7553,3084 7521,3059 7527,3033 "/>
    <polyline class="fil2 str0" points="6803,2906 6848,2881 6905,2874 6962,2881 6994,2906 6981,2938 6943,2957 6879,2963 6822,2957 6797,2932 6803,2906 "/>
    <polyline class="fil2 str0" points="6079,2773 6117,2754 6181,2747 6238,2754 6264,2779 6257,2805 6219,2830 6156,2836 6098,2830 6073,2805 6079,2773 "/>
    <polyline class="fil2 str0" points="5355,2646 5394,2627 5457,2614 5514,2627 5540,2652 5533,2678 5495,2703 5432,2709 5375,2703 5343,2678 5355,2646 "/>
    <polyline class="fil2 str0" points="4625,2519 4670,2500 4733,2487 4784,2500 4816,2525 4809,2551 4765,2576 4708,2582 4651,2576 4619,2551 4625,2519 "/>
    <polyline class="fil2 str0" points="3901,2392 3946,2373 4009,2360 4060,2373 4092,2398 4085,2424 4041,2449 3984,2455 3927,2449 3895,2424 3901,2392 "/>
    <polyline class="fil2 str0" points="7781,2766 7819,2741 7883,2735 7940,2741 7972,2766 7959,2798 7921,2817 7857,2830 7800,2817 7775,2792 7781,2766 "/>
    <polyline class="fil2 str0" points="7057,2639 7095,2614 7159,2608 7216,2614 7241,2639 7235,2671 7197,2690 7133,2703 7076,2690 7045,2665 7057,2639 "/>
    <polyline class="fil2 str0" points="6333,2512 6371,2487 6435,2481 6486,2487 6518,2512 6511,2544 6467,2563 6410,2570 6352,2563 6321,2538 6333,2512 "/>
    <polyline class="fil2 str0" points="5603,2379 5648,2360 5711,2354 5762,2360 5794,2385 5787,2411 5743,2436 5686,2443 5629,2436 5597,2411 5603,2379 "/>
    <polyline class="fil2 str0" points="4879,2252 4924,2233 4981,2220 5038,2233 5070,2258 5063,2284 5019,2309 4962,2316 4905,2309 4873,2284 4879,2252 "/>
    <polyline class="fil2 str0" points="4155,2125 4200,2106 4257,2093 4314,2106 4346,2131 4339,2157 4295,2182 4232,2189 4181,2182 4149,2157 4155,2125 "/>
    <polyline class="fil2 str0" points="8035,2500 8073,2474 8137,2468 8194,2474 8219,2500 8213,2532 8169,2551 8111,2563 8054,2551 8022,2525 8035,2500 "/>
    <polyline class="fil2 str0" points="7305,2373 7349,2347 7413,2341 7464,2347 7495,2373 7489,2404 7445,2424 7387,2436 7330,2424 7299,2398 7305,2373 "/>
    <polyline class="fil2 str0" points="6581,2246 6625,2220 6683,2214 6740,2220 6772,2246 6765,2278 6721,2297 6664,2309 6606,2297 6575,2271 6581,2246 "/>
    <polyline class="fil2 str0" points="5857,2119 5902,2093 5959,2087 6016,2093 6048,2119 6041,2150 5997,2170 5933,2176 5883,2170 5851,2144 5857,2119 "/>
    <polyline class="fil2 str0" points="5133,1985 5178,1966 5235,1960 5292,1966 5324,1992 5317,2017 5273,2043 5209,2049 5159,2043 5127,2017 5133,1985 "/>
    <polyline class="fil2 str0" points="4409,1858 4447,1839 4511,1827 4568,1839 4600,1865 4587,1890 4549,1916 4486,1922 4428,1916 4403,1890 4409,1858 "/>
    <polyline class="fil2 str0" points="8283,2233 8327,2208 8384,2201 8442,2214 8473,2233 8467,2265 8423,2290 8365,2297 8308,2284 8276,2258 8283,2233 "/>
    <polyline class="fil2 str0" points="7559,2106 7603,2081 7661,2074 7718,2081 7749,2106 7743,2138 7699,2157 7641,2170 7584,2157 7553,2131 7559,2106 "/>
    <polyline class="fil2 str0" points="6835,1979 6879,1954 6937,1947 6994,1954 7026,1979 7019,2011 6975,2030 6911,2043 6860,2030 6829,2004 6835,1979 "/>
    <polyline class="fil2 str0" points="6111,1852 6149,1827 6213,1820 6270,1827 6302,1852 6289,1884 6251,1903 6187,1916 6130,1903 6105,1877 6111,1852 "/>
    <polyline class="fil2 str0" points="5387,1725 5425,1700 5489,1693 5546,1700 5571,1725 5565,1757 5527,1776 5463,1782 5406,1776 5381,1750 5387,1725 "/>
    <polyline class="fil2 str0" points="4663,1592 4701,1573 4765,1566 4822,1573 4847,1598 4841,1623 4797,1649 4740,1655 4682,1649 4651,1623 4663,1592 "/>
    <polyline class="fil2 str0" points="8537,1966 8581,1941 8638,1935 8696,1947 8727,1966 8721,1998 8677,2023 8613,2030 8562,2017 8530,1998 8537,1966 "/>
    <polyline class="fil2 str0" points="7813,1839 7851,1814 7915,1808 7972,1820 8003,1839 7991,1871 7953,1897 7889,1903 7832,1890 7807,1865 7813,1839 "/>
    <polyline class="fil2 str0" points="7089,1712 7127,1687 7191,1681 7248,1687 7273,1712 7267,1744 7229,1763 7165,1776 7108,1763 7083,1738 7089,1712 "/>
    <polyline class="fil2 str0" points="6365,1585 6403,1560 6467,1554 6524,1560 6549,1585 6543,1617 6505,1636 6441,1649 6384,1636 6352,1611 6365,1585 "/>
    <polyline class="fil2 str0" points="5635,1458 5679,1433 5743,1427 5794,1433 5825,1458 5819,1490 5775,1509 5717,1522 5660,1509 5629,1484 5635,1458 "/>
    <polyline class="fil2 str0" points="4911,1331 4955,1306 5013,1300 5070,1306 5101,1331 5095,1363 5051,1382 4994,1388 4936,1382 4905,1357 4911,1331 "/>
    <polyline class="fil2 str0" points="6016,7218 5965,7211 5914,7186 5883,7142 5883,7091 "/>
    <polyline class="fil2 str0" points="5825,7167 5838,7116 5876,7091 5927,7091 5978,7123 6010,7173 6010,7224 5984,7262 5940,7275 5883,7262 5844,7218 5825,7167 "/>
    <polyline class="fil2 str0" points="2606,6621 2555,6615 2511,6589 2479,6538 2473,6494 "/>
    <polyline class="fil2 str0" points="2415,6564 2428,6519 2466,6494 2523,6494 2568,6526 2600,6576 2606,6627 2581,6665 2530,6678 2479,6659 2434,6621 2415,6564 "/>
    <polyline class="fil2 str0" points="2307,6564 2257,6564 2212,6532 2180,6488 2174,6437 "/>
    <polyline class="fil2 str0" points="2117,6513 2130,6468 2168,6437 2225,6443 2269,6475 2301,6519 2307,6570 2282,6615 2231,6627 2180,6608 2136,6564 2117,6513 "/>
    <polyline class="fil2 str0" points="5717,7167 5667,7161 5616,7135 5584,7084 5578,7040 "/>
    <polyline class="fil2 str0" points="5527,7116 5540,7065 5578,7040 5629,7040 5679,7072 5711,7123 5711,7173 5686,7211 5641,7224 5584,7205 5540,7167 5527,7116 "/>
    <polyline class="fil2 str0" points="3660,7167 3965,7218 4022,7161 3717,7110 "/>
    <polyline class="fil2 str0" points="3717,7110 3660,7084 3616,7046 3597,6989 3597,6938 "/>
    <polyline class="fil2 str0" points="4365,7275 4301,7300 4225,7300 4149,7275 4079,7230 4022,7161 "/>
    <line class="fil2 str0" x1="4714" y1="7281" x2="4409" y2= "7230" />
    <line class="fil2 str0" x1="4765" y1="7281" x2="4714" y2= "7281" />
    <polyline class="fil2 str0" points="3997,6945 3952,6989 3647,6938 "/>
    <polyline class="fil2 str0" points="3660,7167 3603,7142 3558,7091 3539,7027 3552,6977 3590,6938 3647,6938 "/>
    <polyline class="fil2 str0" points="4409,7230 4352,7288 4657,7338 "/>
    <polyline class="fil2 str0" points="4644,7110 4708,7135 4752,7186 4771,7250 4759,7300 4714,7338 4657,7338 "/>
    <line class="fil2 str0" x1="4339" y1="7059" x2="4644" y2= "7110" />
    <polyline class="fil2 str0" points="3952,6989 4003,6945 4066,6919 4143,6919 4219,6945 4289,6996 4339,7059 "/>
    <polyline class="fil2 str0" points="4352,7288 4308,7332 4238,7358 4168,7358 4092,7332 4022,7288 3965,7218 "/>
    <line class="fil2 str0" x1="10575" y1="2741" x2="10582" y2= "2735" />
    <polyline class="fil2 str0" points="10594,3173 10594,3167 10626,3135 "/>
    <line class="fil2 str0" x1="10575" y1="2741" x2="10575" y2= "2735" />
    <line class="fil2 str0" x1="10613" y1="3179" x2="10594" y2= "3173" />
    <polyline class="fil2 str0" points="10626,3160 10626,3173 10613,3179 "/>
    <line class="fil2 str0" x1="10607" y1="2754" x2="10626" y2= "3160" />
    <polyline class="fil2 str0" points="10588,2735 10601,2741 10607,2754 "/>
    <line class="fil2 str0" x1="10575" y1="2735" x2="10588" y2= "2735" />
    <line class="fil2 str0" x1="10645" y1="4024" x2="10594" y2= "3173" />
    <polyline class="fil2 str0" points="10588,4183 10632,4106 10645,4024 "/>
    <line class="fil2 str0" x1="10601" y1="4278" x2="10512" y2= "4259" />
    <polyline class="fil2 str0" points="10601,4278 10683,4271 10753,4240 10797,4176 10810,4094 "/>
    <polyline class="fil2 str0" points="10810,4094 10709,2227 10518,1643 "/>
    <line class="fil2 str0" x1="10575" y1="2735" x2="10512" y2= "1643" />
    <polyline class="fil2 str0" points="10867,4036 10861,4113 10823,4170 "/>
    <polyline class="fil2 str0" points="10575,1585 10766,2170 10709,2227 "/>
    <line class="fil2 str0" x1="10766" y1="2170" x2="10867" y2= "4036" />
    <line class="fil2 str0" x1="10823" y1="4170" x2="10766" y2= "4227" />
    <polyline class="fil2 str0" points="4365,4494 4339,4494 4314,4487 "/>
    <polyline class="fil2 str0" points="4365,4563 4333,4563 4314,4557 "/>
    <polyline class="fil2 str0" points="4378,4551 4378,4532 4397,4525 "/>
    <polyline class="fil2 str0" points="4257,4557 4289,4557 4314,4563 "/>
    <polyline class="fil2 str0" points="4251,4500 4251,4519 4232,4525 "/>
    <line class="fil2 str0" x1="4270" y1="4557" x2="4257" y2= "4506" />
    <line class="fil2 str0" x1="4359" y1="4589" x2="4371" y2= "4538" />
    <polyline class="fil2 str0" points="4314,4557 4282,4525 4289,4456 4314,4487 "/>
    <polyline class="fil2 str0" points="4365,4494 4435,4475 4466,4506 4397,4525 "/>
    <polyline class="fil2 str0" points="4378,4551 4403,4576 4339,4595 4314,4563 "/>
    <polyline class="fil2 str0" points="4257,4557 4193,4576 4162,4544 4232,4525 "/>
    <polyline class="fil2 str0" points="4251,4500 4219,4468 4289,4456 "/>
    <line class="fil2 str0" x1="4365" y1="4563" x2="4365" y2= "4563" />
    <line class="fil2 str0" x1="4435" y1="4475" x2="4435" y2= "4513" />
    <line class="fil2 str0" x1="4282" y1="4525" x2="4263" y2= "4532" />
    <polyline class="fil2 str0" points="4492,4557 4511,4519 4498,4481 4447,4449 4378,4437 4295,4430 4219,4449 4155,4475 4117,4513 4117,4551 4149,4589 4212,4608 4289,4621 4371,4614 4447,4589 4492,4557 "/>
    <line class="fil2 str0" x1="4511" y1="4513" x2="4517" y2= "4551" />
    <line class="fil2 str0" x1="4111" y1="4538" x2="4117" y2= "4570" />
    <line class="fil2 str0" x1="4117" y1="4570" x2="4136" y2= "4608" />
    <line class="fil2 str0" x1="4498" y1="4589" x2="4517" y2= "4551" />
    <polyline class="fil2 str0" points="4098,4487 4149,4449 4232,4424 4327,4411 4416,4417 4492,4443 4536,4475 4555,4519 4530,4563 4473,4602 4397,4627 4301,4640 4212,4633 4136,4608 4085,4576 4073,4532 4098,4487 "/>
    <line class="fil2 str0" x1="10480" y1="1496" x2="6854" y2= "5319" />
    <line class="fil2 str0" x1="1209" y1="4329" x2="4835" y2= "499" />
    <line class="fil2 str0" x1="6041" y1="5357" x2="1304" y2= "4525" />
    <line class="fil2 str0" x1="6029" y1="5484" x2="1291" y2= "4652" />
    <line class="fil2 str0" x1="6810" y1="5351" x2="6702" y2= "5383" />
    <line class="fil2 str0" x1="1057" y1="4386" x2="1164" y2= "4354" />
    <line class="fil2 str0" x1="1164" y1="4354" x2="1209" y2= "4329" />
    <polyline class="fil2 str0" points="4835,499 4860,487 4879,480 "/>
    <line class="fil2 str0" x1="6860" y1="5433" x2="10486" y2= "1611" />
    <polyline class="fil2 str0" points="10512,1643 10512,1617 10499,1604 "/>
    <polyline class="fil2 str0" points="10486,1611 10499,1604 10512,1611 10518,1643 "/>
    <line class="fil2 str0" x1="6689" y1="5510" x2="6797" y2= "5478" />
    <polyline class="fil2 str0" points="6797,5478 6829,5459 6860,5433 "/>
    <line class="fil2 str0" x1="10575" y1="1585" x2="10518" y2= "1643" />
    <polyline class="fil2 str0" points="10575,1585 10562,1522 10543,1484 10512,1477 10480,1496 "/>
    <line class="fil2 str0" x1="6854" y1="5319" x2="6810" y2= "5351" />
    <polyline class="fil2 str0" points="6029,5484 6149,5503 6283,5516 6410,5522 6524,5529 6619,5522 6689,5510 "/>
    <polyline class="fil2 str0" points="6702,5383 6632,5395 6537,5402 6422,5395 6295,5389 6162,5376 6041,5357 "/>
    <polyline class="fil2 str0" points="1304,4525 1190,4500 1101,4475 1044,4449 1012,4424 1018,4405 1057,4386 "/>
    <polyline class="fil2 str0" points="999,4544 1012,4563 1044,4589 1107,4608 1190,4633 1291,4652 "/>
    <line class="fil2 str0" x1="999" y1="4544" x2="1012" y2= "4417" />
    <polyline class="fil2 str0" points="6873,8075 6899,8069 6924,8043 6930,7993 6930,7935 "/>
    <polyline class="fil2 str0" points="1298,6945 1317,7008 1355,7059 1425,7103 1507,7129 "/>
    <line class="fil2 str0" x1="10588" y1="4183" x2="6911" y2= "8062" />
    <line class="fil2 str0" x1="6873" y1="8075" x2="1507" y2= "7129" />
    <polyline class="fil2 str0" points="7946,8050 7883,8024 7800,8012 7711,8018 7635,8037 7572,8069 "/>
    <polyline class="fil2 str0" points="7553,7967 7610,7929 7692,7904 7788,7897 7870,7904 7940,7935 7978,7973 7978,8018 7940,8056 7870,8088 7775,8107 7686,8107 7603,8088 7553,8050 7534,8012 7553,7967 "/>
    <polyline class="fil2 str0" points="11134,4690 11070,4665 10988,4652 10899,4659 10816,4678 10753,4710 "/>
    <polyline class="fil2 str0" points="10740,4608 10791,4570 10874,4544 10969,4538 11058,4551 11128,4576 11159,4614 11159,4659 11121,4697 11051,4729 10963,4748 10867,4748 10791,4729 10734,4690 10715,4652 10740,4608 "/>
    <polyline class="fil2 str0" points="11553,4659 11058,5186 11051,5072 11547,4544 "/>
    <polyline class="fil2 str0" points="11547,4544 11566,4506 11553,4475 11515,4443 11451,4424 "/>
    <polyline class="fil2 str0" points="11572,4621 11566,4640 11553,4659 "/>
    <line class="fil2 str0" x1="11451" y1="4424" x2="10601" y2= "4278" />
    <polyline class="fil2 str0" points="5971,7916 5965,7948 5984,7973 6022,7999 6079,8012 "/>
    <polyline class="fil2 str0" points="6086,8132 6029,8113 5984,8081 5971,8050 "/>
    <line class="fil2 str0" x1="6079" y1="8012" x2="7768" y2= "8310" />
    <line class="fil2 str0" x1="7775" y1="8424" x2="6086" y2= "8132" />
    <polyline class="fil2 str0" points="7768,8310 7838,8316 7921,8310 7984,8285 8029,8253 "/>
    <polyline class="fil2 str0" points="8035,8367 7991,8399 7927,8424 7845,8431 7775,8424 "/>
    <line class="fil2 str0" x1="8029" y1="8253" x2="8524" y2= "7732" />
    <polyline class="fil2 str0" points="8524,7732 8530,7846 8035,8367 "/>
    <polyline class="fil2 str0" points="8524,7732 8524,7504 8562,7281 8632,7053 8734,6830 8873,6608 9038,6392 9242,6176 9477,5973 9737,5776 10023,5586 10340,5402 10683,5230 11051,5072 "/>
    <polyline class="fil2 str0" points="11058,5186 10670,5351 10308,5535 9978,5732 9680,5935 9407,6145 9172,6367 8975,6595 8810,6824 8683,7059 8594,7300 8543,7535 8530,7777 "/>
    <polyline class="fil2 str0" points="1247,6869 1184,6843 1101,6830 1012,6837 930,6856 866,6888 "/>
    <polyline class="fil2 str0" points="847,6786 904,6748 987,6723 1082,6716 1171,6729 1234,6754 1272,6792 1272,6837 1234,6875 1164,6907 1076,6926 980,6926 898,6907 847,6875 828,6830 847,6786 "/>
    <line class="fil2 str0" x1="1260" y1="6259" x2="942" y2= "6399" />
    <line class="fil2 str0" x1="942" y1="6399" x2="447" y2= "6919" />
    <polyline class="fil2 str0" points="447,6919 428,6957 441,6989 485,7021 542,7040 "/>
    <polyline class="fil2 str0" points="549,7154 491,7135 453,7110 434,7078 "/>
    <line class="fil2 str0" x1="542" y1="7040" x2="2231" y2= "7338" />
    <line class="fil2 str0" x1="2238" y1="7453" x2="549" y2= "7154" />
    <polyline class="fil2 str0" points="2231,7338 2295,7345 2365,7338 2422,7319 2473,7300 "/>
    <polyline class="fil2 str0" points="2504,7396 2454,7427 2390,7446 2314,7459 2238,7453 "/>
    <line class="fil2 str0" x1="2574" y1="7313" x2="2504" y2= "7396" />
    <line class="fil2 str0" x1="11566" y1="4500" x2="11572" y2= "4621" />
    <line class="fil2 str0" x1="5965" y1="7935" x2="5971" y2= "8050" />
    <line class="fil2 str0" x1="428" y1="6964" x2="434" y2= "7078" />
    <line class="fil2 str0" x1="10524" y1="1477" x2="4879" y2= "480" />
    <line class="fil2 str0" x1="9153" y1="4837" x2="9153" y2= "4837" />
    <line class="fil2 str0" x1="9216" y1="4481" x2="9216" y2= "4481" />
    <polyline class="fil2 str0" points="9242,4449 9216,4481 9191,4525 9172,4589 9153,4652 9146,4716 9146,4779 9153,4830 9165,4868 "/>
    <polyline class="fil2 str0" points="9178,4964 9210,4957 9242,4944 9267,4919 9292,4881 9312,4843 9331,4792 9343,4741 9356,4690 9369,4633 9369,4576 9369,4525 9362,4481 9350,4437 9331,4405 9312,4379 9280,4367 "/>
    <line class="fil2 str0" x1="9210" y1="4354" x2="9280" y2= "4367" />
    <line class="fil2 str0" x1="9108" y1="4951" x2="9178" y2= "4964" />
    <line class="fil2 str0" x1="8518" y1="5065" x2="8524" y2= "5262" />
    <polyline class="fil2 str0" points="8524,5262 8524,5287 8518,5306 8486,5395 8454,5497 8442,5522 "/>
    <line class="fil2 str0" x1="8442" y1="5522" x2="8042" y2= "5954" />
    <polyline class="fil2 str0" points="8042,5954 8022,5954 8010,5935 "/>
    <line class="fil2 str0" x1="8556" y1="5237" x2="8543" y2= "5033" />
    <polyline class="fil2 str0" points="8448,5586 8467,5554 8480,5510 8505,5427 8537,5345 8550,5294 8556,5237 "/>
    <line class="fil2 str0" x1="8048" y1="6005" x2="8448" y2= "5586" />
    <polyline class="fil2 str0" points="7546,6348 7565,6367 7578,6418 7572,6481 7553,6545 7527,6589 "/>
    <line class="fil2 str0" x1="7527" y1="6589" x2="7292" y2= "6843" />
    <line class="fil2 str0" x1="7292" y1="6843" x2="7273" y2= "6849" />
    <polyline class="fil2 str0" points="7527,6615 7559,6570 7584,6500 7591,6430 7584,6367 7565,6322 "/>
    <line class="fil2 str0" x1="7292" y1="6869" x2="7527" y2= "6615" />
    <line class="fil2 str0" x1="7280" y1="6881" x2="7292" y2= "6869" />
    <line class="fil2 str0" x1="4111" y1="7846" x2="4111" y2= "7859" />
    <line class="fil2 str0" x1="4111" y1="7859" x2="3501" y2= "8500" />
    <line class="fil2 str0" x1="2752" y1="7942" x2="2796" y2= "7897" />
    <polyline class="fil2 str0" points="2752,7942 2752,7954 2771,7967 "/>
    <line class="fil2 str0" x1="2771" y1="7967" x2="2803" y2= "7967" />
    <polyline class="fil2 str0" points="2803,7967 2815,7980 2815,7993 "/>
    <line class="fil2 str0" x1="2815" y1="7993" x2="2803" y2= "8005" />
    <line class="fil2 str0" x1="2803" y1="8005" x2="2771" y2= "8018" />
    <line class="fil2 str0" x1="2701" y1="8018" x2="2771" y2= "8018" />
    <line class="fil2 str0" x1="2701" y1="8018" x2="2669" y2= "8031" />
    <line class="fil2 str0" x1="2460" y1="8253" x2="2669" y2= "8031" />
    <polyline class="fil2 str0" points="2460,8253 2460,8266 2473,8272 "/>
    <line class="fil2 str0" x1="3450" y1="8443" x2="2473" y2= "8272" />
    <polyline class="fil2 str0" points="3450,8443 3476,8443 3495,8437 "/>
    <line class="fil2 str0" x1="4105" y1="7789" x2="3495" y2= "8437" />
    <polyline class="fil2 str0" points="4105,7789 4111,7777 4092,7770 "/>
    <line class="fil2 str0" x1="3228" y1="7618" x2="4092" y2= "7770" />
    <polyline class="fil2 str0" points="3228,7618 3203,7618 3184,7631 "/>
    <line class="fil2 str0" x1="3184" y1="7631" x2="2993" y2= "7834" />
    <line class="fil2 str0" x1="2993" y1="7834" x2="2974" y2= "7840" />
    <line class="fil2 str0" x1="2809" y1="7891" x2="2974" y2= "7840" />
    <line class="fil2 str0" x1="2809" y1="7891" x2="2796" y2= "7897" />
    <polyline class="fil2 str0" points="3495,7865 3577,7885 3698,7751 "/>
    <polyline class="fil2 str0" points="3806,7923 3889,7935 4009,7808 "/>
    <polyline class="fil2 str0" points="3285,7834 3368,7846 3489,7719 "/>
    <polyline class="fil2 str0" points="3704,7904 3781,7916 3908,7789 "/>
    <polyline class="fil2 str0" points="3597,7885 3679,7904 3825,7751 "/>
    <polyline class="fil2 str0" points="3393,7853 3470,7865 3616,7713 "/>
    <polyline class="fil2 str0" points="3387,7700 3266,7827 3184,7815 "/>
    <polyline class="fil2 str0" points="3082,7796 3158,7808 3285,7681 "/>
    <polyline class="fil2 str0" points="3501,8500 3501,8507 3495,8513 "/>
    <line class="fil2 str0" x1="3457" y1="8520" x2="2479" y2= "8348" />
    <polyline class="fil2 str0" points="3495,8513 3482,8520 3457,8520 "/>
    <line class="fil2 str0" x1="2479" y1="8348" x2="2460" y2= "8335" />
    <polyline class="fil2 str0" points="4009,7808 4009,7808 3927,7789 "/>
    <polyline class="fil2 str0" points="3806,7923 3806,7923 3927,7789 "/>
    <polyline class="fil2 str0" points="3806,7923 3889,7935 3889,7935 4009,7808 "/>
    <polyline class="fil2 str0" points="3704,7904 3704,7904 3781,7916 3781,7916 "/>
    <polyline class="fil2 str0" points="3704,7904 3825,7770 3908,7789 3908,7789 3781,7916 "/>
    <polyline class="fil2 str0" points="3679,7904 3679,7897 3825,7745 3825,7751 "/>
    <line class="fil2 str0" x1="3825" y1="7745" x2="3743" y2= "7732" />
    <polyline class="fil2 str0" points="3743,7732 3597,7885 3597,7885 3679,7897 "/>
    <polyline class="fil2 str0" points="3616,7738 3698,7751 3698,7751 3577,7878 3577,7885 "/>
    <polyline class="fil2 str0" points="3616,7738 3495,7865 3495,7865 3577,7878 "/>
    <polyline class="fil2 str0" points="3533,7694 3616,7713 3616,7713 3470,7859 3470,7865 "/>
    <polyline class="fil2 str0" points="3533,7694 3393,7846 3393,7853 "/>
    <line class="fil2 str0" x1="3470" y1="7859" x2="3393" y2= "7846" />
    <polyline class="fil2 str0" points="3368,7846 3368,7846 3489,7713 3489,7719 "/>
    <line class="fil2 str0" x1="3489" y1="7713" x2="3412" y2= "7700" />
    <polyline class="fil2 str0" points="3412,7700 3285,7827 3285,7834 "/>
    <line class="fil2 str0" x1="3368" y1="7846" x2="3285" y2= "7827" />
    <polyline class="fil2 str0" points="3304,7681 3184,7808 3184,7815 "/>
    <polyline class="fil2 str0" points="3184,7808 3266,7827 3266,7827 "/>
    <polyline class="fil2 str0" points="3266,7827 3387,7694 3387,7700 "/>
    <line class="fil2 str0" x1="3387" y1="7694" x2="3304" y2= "7681" />
    <polyline class="fil2 str0" points="3158,7808 3158,7808 3285,7675 3285,7681 "/>
    <line class="fil2 str0" x1="3285" y1="7675" x2="3203" y2= "7662" />
    <polyline class="fil2 str0" points="3203,7662 3082,7796 3082,7796 3158,7808 "/>
    <line class="fil2 str0" x1="2752" y1="7948" x2="2752" y2= "8018" />
    <line class="fil2 str0" x1="4111" y1="7846" x2="4111" y2= "7783" />
    <line class="fil2 str0" x1="2460" y1="8335" x2="2454" y2= "8259" />
   </g>
  </g>
 </g>
</svg>
