<?xml version="1.0" encoding="UTF-8"?>
<!DOCTYPE svg PUBLIC "-//W3C//DTD SVG 1.1//EN" "http://www.w3.org/Graphics/SVG/1.1/DTD/svg11.dtd">
<!-- Creator: CorelDRAW X6 -->
<svg xmlns="http://www.w3.org/2000/svg" xml:space="preserve" width="102mm" height="124mm" version="1.1" style="shape-rendering:geometricPrecision; text-rendering:geometricPrecision; image-rendering:optimizeQuality; fill-rule:evenodd; clip-rule:evenodd"
viewBox="0 0 10200 12400"
 xmlns:xlink="http://www.w3.org/1999/xlink">
 <defs>
  <style type="text/css">
   <![CDATA[
    .str0 {stroke:black;stroke-width:20;stroke-linejoin:bevel}
    .str2 {stroke:black;stroke-width:34.99;stroke-linecap:round;stroke-linejoin:round}
    .str1 {stroke:black;stroke-width:50;stroke-linejoin:bevel}
    .fil0 {fill:none}
    .fil1 {fill:#2B2A29}
    .fil3 {fill:#2B2A29;fill-rule:nonzero}
    .fil2 {fill:black;fill-rule:nonzero}
   ]]>
  </style>
 </defs>
 <g id="OPCB-221B">
  <metadata id="CorelCorpID_0Corel-Layer"/>
  <g id="_689998544">
   <g>
    <path class="fil0 str0" d="M6103 8129c0,-55 -45,-100 -100,-100 -55,0 -100,45 -100,100 0,55 45,100 100,100 55,0 100,-45 100,-100z"/>
    <path class="fil0 str0" d="M5303 8129c0,-55 -45,-100 -100,-100 -55,0 -100,45 -100,100 0,55 45,100 100,100 55,0 100,-45 100,-100z"/>
    <path class="fil0 str0" d="M4503 8129c0,-55 -45,-100 -100,-100 -55,0 -100,45 -100,100 0,55 45,100 100,100 55,0 100,-45 100,-100z"/>
    <path class="fil0 str0" d="M3703 8129c0,-55 -45,-100 -100,-100 -55,0 -100,45 -100,100 0,55 45,100 100,100 55,0 100,-45 100,-100z"/>
    <path class="fil0 str0" d="M2903 8129c0,-55 -45,-100 -100,-100 -55,0 -100,45 -100,100 0,55 45,100 100,100 55,0 100,-45 100,-100z"/>
    <path class="fil0 str0" d="M2103 8129c0,-55 -45,-100 -100,-100 -55,0 -100,45 -100,100 0,55 45,100 100,100 55,0 100,-45 100,-100z"/>
    <path class="fil0 str0" d="M6103 7529c0,-55 -45,-100 -100,-100 -55,0 -100,45 -100,100 0,55 45,100 100,100 55,0 100,-45 100,-100z"/>
    <path class="fil0 str0" d="M5303 7529c0,-55 -45,-100 -100,-100 -55,0 -100,45 -100,100 0,55 45,100 100,100 55,0 100,-45 100,-100z"/>
    <path class="fil0 str0" d="M4503 7529c0,-55 -45,-100 -100,-100 -55,0 -100,45 -100,100 0,55 45,100 100,100 55,0 100,-45 100,-100z"/>
    <path class="fil0 str0" d="M3703 7529c0,-55 -45,-100 -100,-100 -55,0 -100,45 -100,100 0,55 45,100 100,100 55,0 100,-45 100,-100z"/>
    <path class="fil0 str0" d="M2903 7529c0,-55 -45,-100 -100,-100 -55,0 -100,45 -100,100 0,55 45,100 100,100 55,0 100,-45 100,-100z"/>
    <path class="fil0 str0" d="M2103 7529c0,-55 -45,-100 -100,-100 -55,0 -100,45 -100,100 0,55 45,100 100,100 55,0 100,-45 100,-100z"/>
    <path class="fil0 str0" d="M6103 6929c0,-55 -45,-100 -100,-100 -55,0 -100,45 -100,100 0,55 45,100 100,100 55,0 100,-45 100,-100z"/>
    <path class="fil0 str0" d="M5303 6929c0,-55 -45,-100 -100,-100 -55,0 -100,45 -100,100 0,55 45,100 100,100 55,0 100,-45 100,-100z"/>
    <path class="fil0 str0" d="M4503 6929c0,-55 -45,-100 -100,-100 -55,0 -100,45 -100,100 0,55 45,100 100,100 55,0 100,-45 100,-100z"/>
    <path class="fil0 str0" d="M3703 6929c0,-55 -45,-100 -100,-100 -55,0 -100,45 -100,100 0,55 45,100 100,100 55,0 100,-45 100,-100z"/>
    <path class="fil0 str0" d="M2903 6929c0,-55 -45,-100 -100,-100 -55,0 -100,45 -100,100 0,55 45,100 100,100 55,0 100,-45 100,-100z"/>
    <path class="fil0 str0" d="M2103 6929c0,-55 -45,-100 -100,-100 -55,0 -100,45 -100,100 0,55 45,100 100,100 55,0 100,-45 100,-100z"/>
    <path class="fil0 str0" d="M6103 6329c0,-55 -45,-100 -100,-100 -55,0 -100,45 -100,100 0,55 45,100 100,100 55,0 100,-45 100,-100z"/>
    <path class="fil0 str0" d="M5303 6329c0,-55 -45,-100 -100,-100 -55,0 -100,45 -100,100 0,55 45,100 100,100 55,0 100,-45 100,-100z"/>
    <path class="fil0 str0" d="M4503 6329c0,-55 -45,-100 -100,-100 -55,0 -100,45 -100,100 0,55 45,100 100,100 55,0 100,-45 100,-100z"/>
    <path class="fil0 str0" d="M3703 6329c0,-55 -45,-100 -100,-100 -55,0 -100,45 -100,100 0,55 45,100 100,100 55,0 100,-45 100,-100z"/>
    <path class="fil0 str0" d="M2903 6329c0,-55 -45,-100 -100,-100 -55,0 -100,45 -100,100 0,55 45,100 100,100 55,0 100,-45 100,-100z"/>
    <path class="fil0 str0" d="M2103 6329c0,-55 -45,-100 -100,-100 -55,0 -100,45 -100,100 0,55 45,100 100,100 55,0 100,-45 100,-100z"/>
    <path class="fil0 str0" d="M6103 5729c0,-55 -45,-100 -100,-100 -55,0 -100,45 -100,100 0,55 45,100 100,100 55,0 100,-45 100,-100z"/>
    <path class="fil0 str0" d="M5303 5729c0,-55 -45,-100 -100,-100 -55,0 -100,45 -100,100 0,55 45,100 100,100 55,0 100,-45 100,-100z"/>
    <path class="fil0 str0" d="M4503 5729c0,-55 -45,-100 -100,-100 -55,0 -100,45 -100,100 0,55 45,100 100,100 55,0 100,-45 100,-100z"/>
    <path class="fil0 str0" d="M3703 5729c0,-55 -45,-100 -100,-100 -55,0 -100,45 -100,100 0,55 45,100 100,100 55,0 100,-45 100,-100z"/>
    <path class="fil0 str0" d="M2903 5729c0,-55 -45,-100 -100,-100 -55,0 -100,45 -100,100 0,55 45,100 100,100 55,0 100,-45 100,-100z"/>
    <path class="fil0 str0" d="M2103 5729c0,-55 -45,-100 -100,-100 -55,0 -100,45 -100,100 0,55 45,100 100,100 55,0 100,-45 100,-100z"/>
    <path class="fil0 str0" d="M6103 5129c0,-55 -45,-100 -100,-100 -55,0 -100,45 -100,100 0,55 45,100 100,100 55,0 100,-45 100,-100z"/>
    <path class="fil0 str0" d="M5303 5129c0,-55 -45,-100 -100,-100 -55,0 -100,45 -100,100 0,55 45,100 100,100 55,0 100,-45 100,-100z"/>
    <path class="fil0 str0" d="M4503 5129c0,-55 -45,-100 -100,-100 -55,0 -100,45 -100,100 0,55 45,100 100,100 55,0 100,-45 100,-100z"/>
    <path class="fil0 str0" d="M3703 5129c0,-55 -45,-100 -100,-100 -55,0 -100,45 -100,100 0,55 45,100 100,100 55,0 100,-45 100,-100z"/>
    <path class="fil0 str0" d="M2903 5129c0,-55 -45,-100 -100,-100 -55,0 -100,45 -100,100 0,55 45,100 100,100 55,0 100,-45 100,-100z"/>
    <path class="fil0 str0" d="M2103 5129c0,-55 -45,-100 -100,-100 -55,0 -100,45 -100,100 0,55 45,100 100,100 55,0 100,-45 100,-100z"/>
    <path class="fil0 str0" d="M6103 4529c0,-55 -45,-100 -100,-100 -55,0 -100,45 -100,100 0,55 45,100 100,100 55,0 100,-45 100,-100z"/>
    <path class="fil0 str0" d="M5303 4529c0,-55 -45,-100 -100,-100 -55,0 -100,45 -100,100 0,55 45,100 100,100 55,0 100,-45 100,-100z"/>
    <path class="fil0 str0" d="M4503 4529c0,-55 -45,-100 -100,-100 -55,0 -100,45 -100,100 0,55 45,100 100,100 55,0 100,-45 100,-100z"/>
    <path class="fil0 str0" d="M3703 4529c0,-55 -45,-100 -100,-100 -55,0 -100,45 -100,100 0,55 45,100 100,100 55,0 100,-45 100,-100z"/>
    <path class="fil0 str0" d="M2903 4529c0,-55 -45,-100 -100,-100 -55,0 -100,45 -100,100 0,55 45,100 100,100 55,0 100,-45 100,-100z"/>
    <path class="fil0 str0" d="M2103 4529c0,-55 -45,-100 -100,-100 -55,0 -100,45 -100,100 0,55 45,100 100,100 55,0 100,-45 100,-100z"/>
    <path class="fil0 str0" d="M6103 3929c0,-55 -45,-100 -100,-100 -55,0 -100,45 -100,100 0,55 45,100 100,100 55,0 100,-45 100,-100z"/>
    <path class="fil0 str0" d="M5303 3929c0,-55 -45,-100 -100,-100 -55,0 -100,45 -100,100 0,55 45,100 100,100 55,0 100,-45 100,-100z"/>
    <path class="fil0 str0" d="M4503 3929c0,-55 -45,-100 -100,-100 -55,0 -100,45 -100,100 0,55 45,100 100,100 55,0 100,-45 100,-100z"/>
    <path class="fil0 str0" d="M3703 3929c0,-55 -45,-100 -100,-100 -55,0 -100,45 -100,100 0,55 45,100 100,100 55,0 100,-45 100,-100z"/>
    <path class="fil0 str0" d="M2903 3929c0,-55 -45,-100 -100,-100 -55,0 -100,45 -100,100 0,55 45,100 100,100 55,0 100,-45 100,-100z"/>
    <path class="fil0 str0" d="M2103 3929c0,-55 -45,-100 -100,-100 -55,0 -100,45 -100,100 0,55 45,100 100,100 55,0 100,-45 100,-100z"/>
    <path class="fil0 str0" d="M6103 3329c0,-55 -45,-100 -100,-100 -55,0 -100,45 -100,100 0,55 45,100 100,100 55,0 100,-45 100,-100z"/>
    <path class="fil0 str0" d="M5303 3329c0,-55 -45,-100 -100,-100 -55,0 -100,45 -100,100 0,55 45,100 100,100 55,0 100,-45 100,-100z"/>
    <path class="fil0 str0" d="M4503 3329c0,-55 -45,-100 -100,-100 -55,0 -100,45 -100,100 0,55 45,100 100,100 55,0 100,-45 100,-100z"/>
    <path class="fil0 str0" d="M3703 3329c0,-55 -45,-100 -100,-100 -55,0 -100,45 -100,100 0,55 45,100 100,100 55,0 100,-45 100,-100z"/>
    <path class="fil0 str0" d="M2903 3329c0,-55 -45,-100 -100,-100 -55,0 -100,45 -100,100 0,55 45,100 100,100 55,0 100,-45 100,-100z"/>
    <path class="fil0 str0" d="M2103 3329c0,-55 -45,-100 -100,-100 -55,0 -100,45 -100,100 0,55 45,100 100,100 55,0 100,-45 100,-100z"/>
    <path class="fil0 str0" d="M6103 2729c0,-55 -45,-100 -100,-100 -55,0 -100,45 -100,100 0,55 45,100 100,100 55,0 100,-45 100,-100z"/>
    <path class="fil0 str0" d="M5303 2729c0,-55 -45,-100 -100,-100 -55,0 -100,45 -100,100 0,55 45,100 100,100 55,0 100,-45 100,-100z"/>
    <path class="fil0 str0" d="M4503 2729c0,-55 -45,-100 -100,-100 -55,0 -100,45 -100,100 0,55 45,100 100,100 55,0 100,-45 100,-100z"/>
    <path class="fil0 str0" d="M3703 2729c0,-55 -45,-100 -100,-100 -55,0 -100,45 -100,100 0,55 45,100 100,100 55,0 100,-45 100,-100z"/>
    <path class="fil0 str0" d="M2903 2729c0,-55 -45,-100 -100,-100 -55,0 -100,45 -100,100 0,55 45,100 100,100 55,0 100,-45 100,-100z"/>
    <path class="fil0 str0" d="M6703 8429c0,-55 -45,-100 -100,-100 -55,0 -100,45 -100,100 0,55 45,100 100,100 55,0 100,-45 100,-100z"/>
    <path class="fil0 str0" d="M5903 8429c0,-55 -45,-100 -100,-100 -55,0 -100,45 -100,100 0,55 45,100 100,100 55,0 100,-45 100,-100z"/>
    <path class="fil0 str0" d="M5103 8429c0,-55 -45,-100 -100,-100 -55,0 -100,45 -100,100 0,55 45,100 100,100 55,0 100,-45 100,-100z"/>
    <path class="fil0 str0" d="M4303 8429c0,-55 -45,-100 -100,-100 -55,0 -100,45 -100,100 0,55 45,100 100,100 55,0 100,-45 100,-100z"/>
    <path class="fil0 str0" d="M3503 8429c0,-55 -45,-100 -100,-100 -55,0 -100,45 -100,100 0,55 45,100 100,100 55,0 100,-45 100,-100z"/>
    <path class="fil0 str0" d="M2703 8429c0,-55 -45,-100 -100,-100 -55,0 -100,45 -100,100 0,55 45,100 100,100 55,0 100,-45 100,-100z"/>
    <path class="fil0 str0" d="M1903 8429c0,-55 -45,-100 -100,-100 -55,0 -100,45 -100,100 0,55 45,100 100,100 55,0 100,-45 100,-100z"/>
    <path class="fil0 str0" d="M6303 7829c0,-55 -45,-100 -100,-100 -55,0 -100,45 -100,100 0,55 45,100 100,100 55,0 100,-45 100,-100z"/>
    <path class="fil0 str0" d="M5503 7829c0,-55 -45,-100 -100,-100 -55,0 -100,45 -100,100 0,55 45,100 100,100 55,0 100,-45 100,-100z"/>
    <path class="fil0 str0" d="M4703 7829c0,-55 -45,-100 -100,-100 -55,0 -100,45 -100,100 0,55 45,100 100,100 55,0 100,-45 100,-100z"/>
    <path class="fil0 str0" d="M3903 7829c0,-55 -45,-100 -100,-100 -55,0 -100,45 -100,100 0,55 45,100 100,100 55,0 100,-45 100,-100z"/>
    <path class="fil0 str0" d="M3103 7829c0,-55 -45,-100 -100,-100 -55,0 -100,45 -100,100 0,55 45,100 100,100 55,0 100,-45 100,-100z"/>
    <path class="fil0 str0" d="M2303 7829c0,-55 -45,-100 -100,-100 -55,0 -100,45 -100,100 0,55 45,100 100,100 55,0 100,-45 100,-100z"/>
    <path class="fil0 str0" d="M6703 7229c0,-55 -45,-100 -100,-100 -55,0 -100,45 -100,100 0,55 45,100 100,100 55,0 100,-45 100,-100z"/>
    <path class="fil0 str0" d="M5903 7229c0,-55 -45,-100 -100,-100 -55,0 -100,45 -100,100 0,55 45,100 100,100 55,0 100,-45 100,-100z"/>
    <path class="fil0 str0" d="M5103 7229c0,-55 -45,-100 -100,-100 -55,0 -100,45 -100,100 0,55 45,100 100,100 55,0 100,-45 100,-100z"/>
    <path class="fil0 str0" d="M4303 7229c0,-55 -45,-100 -100,-100 -55,0 -100,45 -100,100 0,55 45,100 100,100 55,0 100,-45 100,-100z"/>
    <path class="fil0 str0" d="M3503 7229c0,-55 -45,-100 -100,-100 -55,0 -100,45 -100,100 0,55 45,100 100,100 55,0 100,-45 100,-100z"/>
    <path class="fil0 str0" d="M2703 7229c0,-55 -45,-100 -100,-100 -55,0 -100,45 -100,100 0,55 45,100 100,100 55,0 100,-45 100,-100z"/>
    <path class="fil0 str0" d="M1903 7229c0,-55 -45,-100 -100,-100 -55,0 -100,45 -100,100 0,55 45,100 100,100 55,0 100,-45 100,-100z"/>
    <path class="fil0 str0" d="M6303 6629c0,-55 -45,-100 -100,-100 -55,0 -100,45 -100,100 0,55 45,100 100,100 55,0 100,-45 100,-100z"/>
    <path class="fil0 str0" d="M5503 6629c0,-55 -45,-100 -100,-100 -55,0 -100,45 -100,100 0,55 45,100 100,100 55,0 100,-45 100,-100z"/>
    <path class="fil0 str0" d="M4703 6629c0,-55 -45,-100 -100,-100 -55,0 -100,45 -100,100 0,55 45,100 100,100 55,0 100,-45 100,-100z"/>
    <path class="fil0 str0" d="M3903 6629c0,-55 -45,-100 -100,-100 -55,0 -100,45 -100,100 0,55 45,100 100,100 55,0 100,-45 100,-100z"/>
    <path class="fil0 str0" d="M3103 6629c0,-55 -45,-100 -100,-100 -55,0 -100,45 -100,100 0,55 45,100 100,100 55,0 100,-45 100,-100z"/>
    <path class="fil0 str0" d="M2303 6629c0,-55 -45,-100 -100,-100 -55,0 -100,45 -100,100 0,55 45,100 100,100 55,0 100,-45 100,-100z"/>
    <path class="fil0 str0" d="M6703 6029c0,-55 -45,-100 -100,-100 -55,0 -100,45 -100,100 0,55 45,100 100,100 55,0 100,-45 100,-100z"/>
    <path class="fil0 str0" d="M5903 6029c0,-55 -45,-100 -100,-100 -55,0 -100,45 -100,100 0,55 45,100 100,100 55,0 100,-45 100,-100z"/>
    <path class="fil0 str0" d="M5103 6029c0,-55 -45,-100 -100,-100 -55,0 -100,45 -100,100 0,55 45,100 100,100 55,0 100,-45 100,-100z"/>
    <path class="fil0 str0" d="M4303 6029c0,-55 -45,-100 -100,-100 -55,0 -100,45 -100,100 0,55 45,100 100,100 55,0 100,-45 100,-100z"/>
    <path class="fil0 str0" d="M3503 6029c0,-55 -45,-100 -100,-100 -55,0 -100,45 -100,100 0,55 45,100 100,100 55,0 100,-45 100,-100z"/>
    <path class="fil0 str0" d="M2703 6029c0,-55 -45,-100 -100,-100 -55,0 -100,45 -100,100 0,55 45,100 100,100 55,0 100,-45 100,-100z"/>
    <path class="fil0 str0" d="M1903 6029c0,-55 -45,-100 -100,-100 -55,0 -100,45 -100,100 0,55 45,100 100,100 55,0 100,-45 100,-100z"/>
    <path class="fil0 str0" d="M6303 5429c0,-55 -45,-100 -100,-100 -55,0 -100,45 -100,100 0,55 45,100 100,100 55,0 100,-45 100,-100z"/>
    <path class="fil0 str0" d="M5503 5429c0,-55 -45,-100 -100,-100 -55,0 -100,45 -100,100 0,55 45,100 100,100 55,0 100,-45 100,-100z"/>
    <path class="fil0 str0" d="M4703 5429c0,-55 -45,-100 -100,-100 -55,0 -100,45 -100,100 0,55 45,100 100,100 55,0 100,-45 100,-100z"/>
    <path class="fil0 str0" d="M3903 5429c0,-55 -45,-100 -100,-100 -55,0 -100,45 -100,100 0,55 45,100 100,100 55,0 100,-45 100,-100z"/>
    <path class="fil0 str0" d="M3103 5429c0,-55 -45,-100 -100,-100 -55,0 -100,45 -100,100 0,55 45,100 100,100 55,0 100,-45 100,-100z"/>
    <path class="fil0 str0" d="M2303 5429c0,-55 -45,-100 -100,-100 -55,0 -100,45 -100,100 0,55 45,100 100,100 55,0 100,-45 100,-100z"/>
    <path class="fil0 str0" d="M6703 4829c0,-55 -45,-100 -100,-100 -55,0 -100,45 -100,100 0,55 45,100 100,100 55,0 100,-45 100,-100z"/>
    <path class="fil0 str0" d="M5903 4829c0,-55 -45,-100 -100,-100 -55,0 -100,45 -100,100 0,55 45,100 100,100 55,0 100,-45 100,-100z"/>
    <path class="fil0 str0" d="M5103 4829c0,-55 -45,-100 -100,-100 -55,0 -100,45 -100,100 0,55 45,100 100,100 55,0 100,-45 100,-100z"/>
    <path class="fil0 str0" d="M4303 4829c0,-55 -45,-100 -100,-100 -55,0 -100,45 -100,100 0,55 45,100 100,100 55,0 100,-45 100,-100z"/>
    <path class="fil0 str0" d="M3503 4829c0,-55 -45,-100 -100,-100 -55,0 -100,45 -100,100 0,55 45,100 100,100 55,0 100,-45 100,-100z"/>
    <path class="fil0 str0" d="M2703 4829c0,-55 -45,-100 -100,-100 -55,0 -100,45 -100,100 0,55 45,100 100,100 55,0 100,-45 100,-100z"/>
    <path class="fil0 str0" d="M1903 4829c0,-55 -45,-100 -100,-100 -55,0 -100,45 -100,100 0,55 45,100 100,100 55,0 100,-45 100,-100z"/>
    <path class="fil0 str0" d="M6303 4229c0,-55 -45,-100 -100,-100 -55,0 -100,45 -100,100 0,55 45,100 100,100 55,0 100,-45 100,-100z"/>
    <path class="fil0 str0" d="M5503 4229c0,-55 -45,-100 -100,-100 -55,0 -100,45 -100,100 0,55 45,100 100,100 55,0 100,-45 100,-100z"/>
    <path class="fil0 str0" d="M4703 4229c0,-55 -45,-100 -100,-100 -55,0 -100,45 -100,100 0,55 45,100 100,100 55,0 100,-45 100,-100z"/>
    <path class="fil0 str0" d="M3903 4229c0,-55 -45,-100 -100,-100 -55,0 -100,45 -100,100 0,55 45,100 100,100 55,0 100,-45 100,-100z"/>
    <path class="fil0 str0" d="M3103 4229c0,-55 -45,-100 -100,-100 -55,0 -100,45 -100,100 0,55 45,100 100,100 55,0 100,-45 100,-100z"/>
    <path class="fil0 str0" d="M2303 4229c0,-55 -45,-100 -100,-100 -55,0 -100,45 -100,100 0,55 45,100 100,100 55,0 100,-45 100,-100z"/>
    <path class="fil0 str0" d="M6703 3629c0,-55 -45,-100 -100,-100 -55,0 -100,45 -100,100 0,55 45,100 100,100 55,0 100,-45 100,-100z"/>
    <path class="fil0 str0" d="M5903 3629c0,-55 -45,-100 -100,-100 -55,0 -100,45 -100,100 0,55 45,100 100,100 55,0 100,-45 100,-100z"/>
    <path class="fil0 str0" d="M5103 3629c0,-55 -45,-100 -100,-100 -55,0 -100,45 -100,100 0,55 45,100 100,100 55,0 100,-45 100,-100z"/>
    <path class="fil0 str0" d="M4303 3629c0,-55 -45,-100 -100,-100 -55,0 -100,45 -100,100 0,55 45,100 100,100 55,0 100,-45 100,-100z"/>
    <path class="fil0 str0" d="M3503 3629c0,-55 -45,-100 -100,-100 -55,0 -100,45 -100,100 0,55 45,100 100,100 55,0 100,-45 100,-100z"/>
    <path class="fil0 str0" d="M2703 3629c0,-55 -45,-100 -100,-100 -55,0 -100,45 -100,100 0,55 45,100 100,100 55,0 100,-45 100,-100z"/>
    <path class="fil0 str0" d="M1903 3629c0,-55 -45,-100 -100,-100 -55,0 -100,45 -100,100 0,55 45,100 100,100 55,0 100,-45 100,-100z"/>
    <path class="fil0 str0" d="M6303 3029c0,-55 -45,-100 -100,-100 -55,0 -100,45 -100,100 0,55 45,100 100,100 55,0 100,-45 100,-100z"/>
    <path class="fil0 str0" d="M5503 3029c0,-55 -45,-100 -100,-100 -55,0 -100,45 -100,100 0,55 45,100 100,100 55,0 100,-45 100,-100z"/>
    <path class="fil0 str0" d="M4703 3029c0,-55 -45,-100 -100,-100 -55,0 -100,45 -100,100 0,55 45,100 100,100 55,0 100,-45 100,-100z"/>
    <path class="fil0 str0" d="M3903 3029c0,-55 -45,-100 -100,-100 -55,0 -100,45 -100,100 0,55 45,100 100,100 55,0 100,-45 100,-100z"/>
    <path class="fil0 str0" d="M3103 3029c0,-55 -45,-100 -100,-100 -55,0 -100,45 -100,100 0,55 45,100 100,100 55,0 100,-45 100,-100z"/>
    <path class="fil0 str0" d="M2303 3029c0,-55 -45,-100 -100,-100 -55,0 -100,45 -100,100 0,55 45,100 100,100 55,0 100,-45 100,-100z"/>
    <path class="fil0 str0" d="M6703 2429c0,-55 -45,-100 -100,-100 -55,0 -100,45 -100,100 0,55 45,100 100,100 55,0 100,-45 100,-100z"/>
    <path class="fil0 str0" d="M5903 2429c0,-55 -45,-100 -100,-100 -55,0 -100,45 -100,100 0,55 45,100 100,100 55,0 100,-45 100,-100z"/>
    <path class="fil0 str0" d="M5103 2429c0,-55 -45,-100 -100,-100 -55,0 -100,45 -100,100 0,55 45,100 100,100 55,0 100,-45 100,-100z"/>
    <path class="fil0 str0" d="M4303 2429c0,-55 -45,-100 -100,-100 -55,0 -100,45 -100,100 0,55 45,100 100,100 55,0 100,-45 100,-100z"/>
    <path class="fil0 str0" d="M3503 2429c0,-55 -45,-100 -100,-100 -55,0 -100,45 -100,100 0,55 45,100 100,100 55,0 100,-45 100,-100z"/>
    <path class="fil0 str0" d="M2703 2429c0,-55 -45,-100 -100,-100 -55,0 -100,45 -100,100 0,55 45,100 100,100 55,0 100,-45 100,-100z"/>
    <path class="fil0 str0" d="M2103 2729c0,-55 -45,-100 -100,-100 -55,0 -100,45 -100,100 0,55 45,100 100,100 55,0 100,-45 100,-100z"/>
    <path class="fil0 str0" d="M1903 2429c0,-55 -45,-100 -100,-100 -55,0 -100,45 -100,100 0,55 45,100 100,100 55,0 100,-45 100,-100z"/>
    <path class="fil0 str0" d="M2303 2429c0,-55 -45,-100 -100,-100 -55,0 -100,45 -100,100 0,55 45,100 100,100 55,0 100,-45 100,-100z"/>
    <path class="fil0 str0" d="M3103 2429c0,-55 -45,-100 -100,-100 -55,0 -100,45 -100,100 0,55 45,100 100,100 55,0 100,-45 100,-100z"/>
    <path class="fil0 str0" d="M3903 2429c0,-55 -45,-100 -100,-100 -55,0 -100,45 -100,100 0,55 45,100 100,100 55,0 100,-45 100,-100z"/>
    <path class="fil0 str0" d="M4703 2429c0,-55 -45,-100 -100,-100 -55,0 -100,45 -100,100 0,55 45,100 100,100 55,0 100,-45 100,-100z"/>
    <path class="fil0 str0" d="M5503 2429c0,-55 -45,-100 -100,-100 -55,0 -100,45 -100,100 0,55 45,100 100,100 55,0 100,-45 100,-100z"/>
    <path class="fil0 str0" d="M6303 2429c0,-55 -45,-100 -100,-100 -55,0 -100,45 -100,100 0,55 45,100 100,100 55,0 100,-45 100,-100z"/>
    <path class="fil0 str0" d="M1903 3029c0,-55 -45,-100 -100,-100 -55,0 -100,45 -100,100 0,55 45,100 100,100 55,0 100,-45 100,-100z"/>
    <path class="fil0 str0" d="M2703 3029c0,-55 -45,-100 -100,-100 -55,0 -100,45 -100,100 0,55 45,100 100,100 55,0 100,-45 100,-100z"/>
    <path class="fil0 str0" d="M3503 3029c0,-55 -45,-100 -100,-100 -55,0 -100,45 -100,100 0,55 45,100 100,100 55,0 100,-45 100,-100z"/>
    <path class="fil0 str0" d="M4303 3029c0,-55 -45,-100 -100,-100 -55,0 -100,45 -100,100 0,55 45,100 100,100 55,0 100,-45 100,-100z"/>
    <path class="fil0 str0" d="M5103 3029c0,-55 -45,-100 -100,-100 -55,0 -100,45 -100,100 0,55 45,100 100,100 55,0 100,-45 100,-100z"/>
    <path class="fil0 str0" d="M5903 3029c0,-55 -45,-100 -100,-100 -55,0 -100,45 -100,100 0,55 45,100 100,100 55,0 100,-45 100,-100z"/>
    <path class="fil0 str0" d="M6703 3029c0,-55 -45,-100 -100,-100 -55,0 -100,45 -100,100 0,55 45,100 100,100 55,0 100,-45 100,-100z"/>
    <path class="fil0 str0" d="M2303 3629c0,-55 -45,-100 -100,-100 -55,0 -100,45 -100,100 0,55 45,100 100,100 55,0 100,-45 100,-100z"/>
    <path class="fil0 str0" d="M3103 3629c0,-55 -45,-100 -100,-100 -55,0 -100,45 -100,100 0,55 45,100 100,100 55,0 100,-45 100,-100z"/>
    <path class="fil0 str0" d="M3903 3629c0,-55 -45,-100 -100,-100 -55,0 -100,45 -100,100 0,55 45,100 100,100 55,0 100,-45 100,-100z"/>
    <path class="fil0 str0" d="M4703 3629c0,-55 -45,-100 -100,-100 -55,0 -100,45 -100,100 0,55 45,100 100,100 55,0 100,-45 100,-100z"/>
    <path class="fil0 str0" d="M5503 3629c0,-55 -45,-100 -100,-100 -55,0 -100,45 -100,100 0,55 45,100 100,100 55,0 100,-45 100,-100z"/>
    <path class="fil0 str0" d="M6303 3629c0,-55 -45,-100 -100,-100 -55,0 -100,45 -100,100 0,55 45,100 100,100 55,0 100,-45 100,-100z"/>
    <path class="fil0 str0" d="M1903 4229c0,-55 -45,-100 -100,-100 -55,0 -100,45 -100,100 0,55 45,100 100,100 55,0 100,-45 100,-100z"/>
    <path class="fil0 str0" d="M2703 4229c0,-55 -45,-100 -100,-100 -55,0 -100,45 -100,100 0,55 45,100 100,100 55,0 100,-45 100,-100z"/>
    <path class="fil0 str0" d="M3503 4229c0,-55 -45,-100 -100,-100 -55,0 -100,45 -100,100 0,55 45,100 100,100 55,0 100,-45 100,-100z"/>
    <path class="fil0 str0" d="M4303 4229c0,-55 -45,-100 -100,-100 -55,0 -100,45 -100,100 0,55 45,100 100,100 55,0 100,-45 100,-100z"/>
    <path class="fil0 str0" d="M5103 4229c0,-55 -45,-100 -100,-100 -55,0 -100,45 -100,100 0,55 45,100 100,100 55,0 100,-45 100,-100z"/>
    <path class="fil0 str0" d="M5903 4229c0,-55 -45,-100 -100,-100 -55,0 -100,45 -100,100 0,55 45,100 100,100 55,0 100,-45 100,-100z"/>
    <path class="fil0 str0" d="M6703 4229c0,-55 -45,-100 -100,-100 -55,0 -100,45 -100,100 0,55 45,100 100,100 55,0 100,-45 100,-100z"/>
    <path class="fil0 str0" d="M2303 4829c0,-55 -45,-100 -100,-100 -55,0 -100,45 -100,100 0,55 45,100 100,100 55,0 100,-45 100,-100z"/>
    <path class="fil0 str0" d="M3103 4829c0,-55 -45,-100 -100,-100 -55,0 -100,45 -100,100 0,55 45,100 100,100 55,0 100,-45 100,-100z"/>
    <path class="fil0 str0" d="M3903 4829c0,-55 -45,-100 -100,-100 -55,0 -100,45 -100,100 0,55 45,100 100,100 55,0 100,-45 100,-100z"/>
    <path class="fil0 str0" d="M4703 4829c0,-55 -45,-100 -100,-100 -55,0 -100,45 -100,100 0,55 45,100 100,100 55,0 100,-45 100,-100z"/>
    <path class="fil0 str0" d="M5503 4829c0,-55 -45,-100 -100,-100 -55,0 -100,45 -100,100 0,55 45,100 100,100 55,0 100,-45 100,-100z"/>
    <path class="fil0 str0" d="M6303 4829c0,-55 -45,-100 -100,-100 -55,0 -100,45 -100,100 0,55 45,100 100,100 55,0 100,-45 100,-100z"/>
    <path class="fil0 str0" d="M1903 5429c0,-55 -45,-100 -100,-100 -55,0 -100,45 -100,100 0,55 45,100 100,100 55,0 100,-45 100,-100z"/>
    <path class="fil0 str0" d="M2703 5429c0,-55 -45,-100 -100,-100 -55,0 -100,45 -100,100 0,55 45,100 100,100 55,0 100,-45 100,-100z"/>
    <path class="fil0 str0" d="M3503 5429c0,-55 -45,-100 -100,-100 -55,0 -100,45 -100,100 0,55 45,100 100,100 55,0 100,-45 100,-100z"/>
    <path class="fil0 str0" d="M4303 5429c0,-55 -45,-100 -100,-100 -55,0 -100,45 -100,100 0,55 45,100 100,100 55,0 100,-45 100,-100z"/>
    <path class="fil0 str0" d="M5103 5429c0,-55 -45,-100 -100,-100 -55,0 -100,45 -100,100 0,55 45,100 100,100 55,0 100,-45 100,-100z"/>
    <path class="fil0 str0" d="M5903 5429c0,-55 -45,-100 -100,-100 -55,0 -100,45 -100,100 0,55 45,100 100,100 55,0 100,-45 100,-100z"/>
    <path class="fil0 str0" d="M6703 5429c0,-55 -45,-100 -100,-100 -55,0 -100,45 -100,100 0,55 45,100 100,100 55,0 100,-45 100,-100z"/>
    <path class="fil0 str0" d="M2303 6029c0,-55 -45,-100 -100,-100 -55,0 -100,45 -100,100 0,55 45,100 100,100 55,0 100,-45 100,-100z"/>
    <path class="fil0 str0" d="M3103 6029c0,-55 -45,-100 -100,-100 -55,0 -100,45 -100,100 0,55 45,100 100,100 55,0 100,-45 100,-100z"/>
    <path class="fil0 str0" d="M3903 6029c0,-55 -45,-100 -100,-100 -55,0 -100,45 -100,100 0,55 45,100 100,100 55,0 100,-45 100,-100z"/>
    <path class="fil0 str0" d="M4703 6029c0,-55 -45,-100 -100,-100 -55,0 -100,45 -100,100 0,55 45,100 100,100 55,0 100,-45 100,-100z"/>
    <path class="fil0 str0" d="M5503 6029c0,-55 -45,-100 -100,-100 -55,0 -100,45 -100,100 0,55 45,100 100,100 55,0 100,-45 100,-100z"/>
    <path class="fil0 str0" d="M6303 6029c0,-55 -45,-100 -100,-100 -55,0 -100,45 -100,100 0,55 45,100 100,100 55,0 100,-45 100,-100z"/>
    <path class="fil0 str0" d="M1903 6629c0,-55 -45,-100 -100,-100 -55,0 -100,45 -100,100 0,55 45,100 100,100 55,0 100,-45 100,-100z"/>
    <path class="fil0 str0" d="M2703 6629c0,-55 -45,-100 -100,-100 -55,0 -100,45 -100,100 0,55 45,100 100,100 55,0 100,-45 100,-100z"/>
    <path class="fil0 str0" d="M3503 6629c0,-55 -45,-100 -100,-100 -55,0 -100,45 -100,100 0,55 45,100 100,100 55,0 100,-45 100,-100z"/>
    <path class="fil0 str0" d="M4303 6629c0,-55 -45,-100 -100,-100 -55,0 -100,45 -100,100 0,55 45,100 100,100 55,0 100,-45 100,-100z"/>
    <path class="fil0 str0" d="M5103 6629c0,-55 -45,-100 -100,-100 -55,0 -100,45 -100,100 0,55 45,100 100,100 55,0 100,-45 100,-100z"/>
    <path class="fil0 str0" d="M5903 6629c0,-55 -45,-100 -100,-100 -55,0 -100,45 -100,100 0,55 45,100 100,100 55,0 100,-45 100,-100z"/>
    <path class="fil0 str0" d="M6703 6629c0,-55 -45,-100 -100,-100 -55,0 -100,45 -100,100 0,55 45,100 100,100 55,0 100,-45 100,-100z"/>
    <path class="fil0 str0" d="M2303 7229c0,-55 -45,-100 -100,-100 -55,0 -100,45 -100,100 0,55 45,100 100,100 55,0 100,-45 100,-100z"/>
    <path class="fil0 str0" d="M3103 7229c0,-55 -45,-100 -100,-100 -55,0 -100,45 -100,100 0,55 45,100 100,100 55,0 100,-45 100,-100z"/>
    <path class="fil0 str0" d="M3903 7229c0,-55 -45,-100 -100,-100 -55,0 -100,45 -100,100 0,55 45,100 100,100 55,0 100,-45 100,-100z"/>
    <path class="fil0 str0" d="M4703 7229c0,-55 -45,-100 -100,-100 -55,0 -100,45 -100,100 0,55 45,100 100,100 55,0 100,-45 100,-100z"/>
    <path class="fil0 str0" d="M5503 7229c0,-55 -45,-100 -100,-100 -55,0 -100,45 -100,100 0,55 45,100 100,100 55,0 100,-45 100,-100z"/>
    <path class="fil0 str0" d="M6303 7229c0,-55 -45,-100 -100,-100 -55,0 -100,45 -100,100 0,55 45,100 100,100 55,0 100,-45 100,-100z"/>
    <path class="fil0 str0" d="M1903 7829c0,-55 -45,-100 -100,-100 -55,0 -100,45 -100,100 0,55 45,100 100,100 55,0 100,-45 100,-100z"/>
    <path class="fil0 str0" d="M2703 7829c0,-55 -45,-100 -100,-100 -55,0 -100,45 -100,100 0,55 45,100 100,100 55,0 100,-45 100,-100z"/>
    <path class="fil0 str0" d="M3503 7829c0,-55 -45,-100 -100,-100 -55,0 -100,45 -100,100 0,55 45,100 100,100 55,0 100,-45 100,-100z"/>
    <path class="fil0 str0" d="M4303 7829c0,-55 -45,-100 -100,-100 -55,0 -100,45 -100,100 0,55 45,100 100,100 55,0 100,-45 100,-100z"/>
    <path class="fil0 str0" d="M5103 7829c0,-55 -45,-100 -100,-100 -55,0 -100,45 -100,100 0,55 45,100 100,100 55,0 100,-45 100,-100z"/>
    <path class="fil0 str0" d="M5903 7829c0,-55 -45,-100 -100,-100 -55,0 -100,45 -100,100 0,55 45,100 100,100 55,0 100,-45 100,-100z"/>
    <path class="fil0 str0" d="M6703 7829c0,-55 -45,-100 -100,-100 -55,0 -100,45 -100,100 0,55 45,100 100,100 55,0 100,-45 100,-100z"/>
    <path class="fil0 str0" d="M2303 8429c0,-55 -45,-100 -100,-100 -55,0 -100,45 -100,100 0,55 45,100 100,100 55,0 100,-45 100,-100z"/>
    <path class="fil0 str0" d="M3103 8429c0,-55 -45,-100 -100,-100 -55,0 -100,45 -100,100 0,55 45,100 100,100 55,0 100,-45 100,-100z"/>
    <path class="fil0 str0" d="M3903 8429c0,-55 -45,-100 -100,-100 -55,0 -100,45 -100,100 0,55 45,100 100,100 55,0 100,-45 100,-100z"/>
    <path class="fil0 str0" d="M4703 8429c0,-55 -45,-100 -100,-100 -55,0 -100,45 -100,100 0,55 45,100 100,100 55,0 100,-45 100,-100z"/>
    <path class="fil0 str0" d="M5503 8429c0,-55 -45,-100 -100,-100 -55,0 -100,45 -100,100 0,55 45,100 100,100 55,0 100,-45 100,-100z"/>
    <path class="fil0 str0" d="M6303 8429c0,-55 -45,-100 -100,-100 -55,0 -100,45 -100,100 0,55 45,100 100,100 55,0 100,-45 100,-100z"/>
    <path class="fil0 str0" d="M2503 2729c0,-55 -45,-100 -100,-100 -55,0 -100,45 -100,100 0,55 45,100 100,100 55,0 100,-45 100,-100z"/>
    <path class="fil0 str0" d="M3303 2729c0,-55 -45,-100 -100,-100 -55,0 -100,45 -100,100 0,55 45,100 100,100 55,0 100,-45 100,-100z"/>
    <path class="fil0 str0" d="M4103 2729c0,-55 -45,-100 -100,-100 -55,0 -100,45 -100,100 0,55 45,100 100,100 55,0 100,-45 100,-100z"/>
    <path class="fil0 str0" d="M4903 2729c0,-55 -45,-100 -100,-100 -55,0 -100,45 -100,100 0,55 45,100 100,100 55,0 100,-45 100,-100z"/>
    <path class="fil0 str0" d="M5703 2729c0,-55 -45,-100 -100,-100 -55,0 -100,45 -100,100 0,55 45,100 100,100 55,0 100,-45 100,-100z"/>
    <path class="fil0 str0" d="M6503 2729c0,-55 -45,-100 -100,-100 -55,0 -100,45 -100,100 0,55 45,100 100,100 55,0 100,-45 100,-100z"/>
    <path class="fil0 str0" d="M2503 3329c0,-55 -45,-100 -100,-100 -55,0 -100,45 -100,100 0,55 45,100 100,100 55,0 100,-45 100,-100z"/>
    <path class="fil0 str0" d="M3303 3329c0,-55 -45,-100 -100,-100 -55,0 -100,45 -100,100 0,55 45,100 100,100 55,0 100,-45 100,-100z"/>
    <path class="fil0 str0" d="M4103 3329c0,-55 -45,-100 -100,-100 -55,0 -100,45 -100,100 0,55 45,100 100,100 55,0 100,-45 100,-100z"/>
    <path class="fil0 str0" d="M4903 3329c0,-55 -45,-100 -100,-100 -55,0 -100,45 -100,100 0,55 45,100 100,100 55,0 100,-45 100,-100z"/>
    <path class="fil0 str0" d="M5703 3329c0,-55 -45,-100 -100,-100 -55,0 -100,45 -100,100 0,55 45,100 100,100 55,0 100,-45 100,-100z"/>
    <path class="fil0 str0" d="M6503 3329c0,-55 -45,-100 -100,-100 -55,0 -100,45 -100,100 0,55 45,100 100,100 55,0 100,-45 100,-100z"/>
    <path class="fil0 str0" d="M2503 3929c0,-55 -45,-100 -100,-100 -55,0 -100,45 -100,100 0,55 45,100 100,100 55,0 100,-45 100,-100z"/>
    <path class="fil0 str0" d="M3303 3929c0,-55 -45,-100 -100,-100 -55,0 -100,45 -100,100 0,55 45,100 100,100 55,0 100,-45 100,-100z"/>
    <path class="fil0 str0" d="M4103 3929c0,-55 -45,-100 -100,-100 -55,0 -100,45 -100,100 0,55 45,100 100,100 55,0 100,-45 100,-100z"/>
    <path class="fil0 str0" d="M4903 3929c0,-55 -45,-100 -100,-100 -55,0 -100,45 -100,100 0,55 45,100 100,100 55,0 100,-45 100,-100z"/>
    <path class="fil0 str0" d="M5703 3929c0,-55 -45,-100 -100,-100 -55,0 -100,45 -100,100 0,55 45,100 100,100 55,0 100,-45 100,-100z"/>
    <path class="fil0 str0" d="M6503 3929c0,-55 -45,-100 -100,-100 -55,0 -100,45 -100,100 0,55 45,100 100,100 55,0 100,-45 100,-100z"/>
    <path class="fil0 str0" d="M2503 4529c0,-55 -45,-100 -100,-100 -55,0 -100,45 -100,100 0,55 45,100 100,100 55,0 100,-45 100,-100z"/>
    <path class="fil0 str0" d="M3303 4529c0,-55 -45,-100 -100,-100 -55,0 -100,45 -100,100 0,55 45,100 100,100 55,0 100,-45 100,-100z"/>
    <path class="fil0 str0" d="M4103 4529c0,-55 -45,-100 -100,-100 -55,0 -100,45 -100,100 0,55 45,100 100,100 55,0 100,-45 100,-100z"/>
    <path class="fil0 str0" d="M4903 4529c0,-55 -45,-100 -100,-100 -55,0 -100,45 -100,100 0,55 45,100 100,100 55,0 100,-45 100,-100z"/>
    <path class="fil0 str0" d="M5703 4529c0,-55 -45,-100 -100,-100 -55,0 -100,45 -100,100 0,55 45,100 100,100 55,0 100,-45 100,-100z"/>
    <path class="fil0 str0" d="M6503 4529c0,-55 -45,-100 -100,-100 -55,0 -100,45 -100,100 0,55 45,100 100,100 55,0 100,-45 100,-100z"/>
    <path class="fil0 str0" d="M2503 5129c0,-55 -45,-100 -100,-100 -55,0 -100,45 -100,100 0,55 45,100 100,100 55,0 100,-45 100,-100z"/>
    <path class="fil0 str0" d="M3303 5129c0,-55 -45,-100 -100,-100 -55,0 -100,45 -100,100 0,55 45,100 100,100 55,0 100,-45 100,-100z"/>
    <path class="fil0 str0" d="M4103 5129c0,-55 -45,-100 -100,-100 -55,0 -100,45 -100,100 0,55 45,100 100,100 55,0 100,-45 100,-100z"/>
    <path class="fil0 str0" d="M4903 5129c0,-55 -45,-100 -100,-100 -55,0 -100,45 -100,100 0,55 45,100 100,100 55,0 100,-45 100,-100z"/>
    <path class="fil0 str0" d="M5703 5129c0,-55 -45,-100 -100,-100 -55,0 -100,45 -100,100 0,55 45,100 100,100 55,0 100,-45 100,-100z"/>
    <path class="fil0 str0" d="M6503 5129c0,-55 -45,-100 -100,-100 -55,0 -100,45 -100,100 0,55 45,100 100,100 55,0 100,-45 100,-100z"/>
    <path class="fil0 str0" d="M2503 5729c0,-55 -45,-100 -100,-100 -55,0 -100,45 -100,100 0,55 45,100 100,100 55,0 100,-45 100,-100z"/>
    <path class="fil0 str0" d="M3303 5729c0,-55 -45,-100 -100,-100 -55,0 -100,45 -100,100 0,55 45,100 100,100 55,0 100,-45 100,-100z"/>
    <path class="fil0 str0" d="M4103 5729c0,-55 -45,-100 -100,-100 -55,0 -100,45 -100,100 0,55 45,100 100,100 55,0 100,-45 100,-100z"/>
    <path class="fil0 str0" d="M4903 5729c0,-55 -45,-100 -100,-100 -55,0 -100,45 -100,100 0,55 45,100 100,100 55,0 100,-45 100,-100z"/>
    <path class="fil0 str0" d="M5703 5729c0,-55 -45,-100 -100,-100 -55,0 -100,45 -100,100 0,55 45,100 100,100 55,0 100,-45 100,-100z"/>
    <path class="fil0 str0" d="M6503 5729c0,-55 -45,-100 -100,-100 -55,0 -100,45 -100,100 0,55 45,100 100,100 55,0 100,-45 100,-100z"/>
    <path class="fil0 str0" d="M2503 6329c0,-55 -45,-100 -100,-100 -55,0 -100,45 -100,100 0,55 45,100 100,100 55,0 100,-45 100,-100z"/>
    <path class="fil0 str0" d="M3303 6329c0,-55 -45,-100 -100,-100 -55,0 -100,45 -100,100 0,55 45,100 100,100 55,0 100,-45 100,-100z"/>
    <path class="fil0 str0" d="M4103 6329c0,-55 -45,-100 -100,-100 -55,0 -100,45 -100,100 0,55 45,100 100,100 55,0 100,-45 100,-100z"/>
    <path class="fil0 str0" d="M4903 6329c0,-55 -45,-100 -100,-100 -55,0 -100,45 -100,100 0,55 45,100 100,100 55,0 100,-45 100,-100z"/>
    <path class="fil0 str0" d="M5703 6329c0,-55 -45,-100 -100,-100 -55,0 -100,45 -100,100 0,55 45,100 100,100 55,0 100,-45 100,-100z"/>
    <path class="fil0 str0" d="M6503 6329c0,-55 -45,-100 -100,-100 -55,0 -100,45 -100,100 0,55 45,100 100,100 55,0 100,-45 100,-100z"/>
    <path class="fil0 str0" d="M2503 6929c0,-55 -45,-100 -100,-100 -55,0 -100,45 -100,100 0,55 45,100 100,100 55,0 100,-45 100,-100z"/>
    <path class="fil0 str0" d="M3303 6929c0,-55 -45,-100 -100,-100 -55,0 -100,45 -100,100 0,55 45,100 100,100 55,0 100,-45 100,-100z"/>
    <path class="fil0 str0" d="M4103 6929c0,-55 -45,-100 -100,-100 -55,0 -100,45 -100,100 0,55 45,100 100,100 55,0 100,-45 100,-100z"/>
    <path class="fil0 str0" d="M4903 6929c0,-55 -45,-100 -100,-100 -55,0 -100,45 -100,100 0,55 45,100 100,100 55,0 100,-45 100,-100z"/>
    <path class="fil0 str0" d="M5703 6929c0,-55 -45,-100 -100,-100 -55,0 -100,45 -100,100 0,55 45,100 100,100 55,0 100,-45 100,-100z"/>
    <path class="fil0 str0" d="M6503 6929c0,-55 -45,-100 -100,-100 -55,0 -100,45 -100,100 0,55 45,100 100,100 55,0 100,-45 100,-100z"/>
    <path class="fil0 str0" d="M2503 7529c0,-55 -45,-100 -100,-100 -55,0 -100,45 -100,100 0,55 45,100 100,100 55,0 100,-45 100,-100z"/>
    <path class="fil0 str0" d="M3303 7529c0,-55 -45,-100 -100,-100 -55,0 -100,45 -100,100 0,55 45,100 100,100 55,0 100,-45 100,-100z"/>
    <path class="fil0 str0" d="M4103 7529c0,-55 -45,-100 -100,-100 -55,0 -100,45 -100,100 0,55 45,100 100,100 55,0 100,-45 100,-100z"/>
    <path class="fil0 str0" d="M4903 7529c0,-55 -45,-100 -100,-100 -55,0 -100,45 -100,100 0,55 45,100 100,100 55,0 100,-45 100,-100z"/>
    <path class="fil0 str0" d="M5703 7529c0,-55 -45,-100 -100,-100 -55,0 -100,45 -100,100 0,55 45,100 100,100 55,0 100,-45 100,-100z"/>
    <path class="fil0 str0" d="M6503 7529c0,-55 -45,-100 -100,-100 -55,0 -100,45 -100,100 0,55 45,100 100,100 55,0 100,-45 100,-100z"/>
    <path class="fil0 str0" d="M2503 8129c0,-55 -45,-100 -100,-100 -55,0 -100,45 -100,100 0,55 45,100 100,100 55,0 100,-45 100,-100z"/>
    <path class="fil0 str0" d="M3303 8129c0,-55 -45,-100 -100,-100 -55,0 -100,45 -100,100 0,55 45,100 100,100 55,0 100,-45 100,-100z"/>
    <path class="fil0 str0" d="M4103 8129c0,-55 -45,-100 -100,-100 -55,0 -100,45 -100,100 0,55 45,100 100,100 55,0 100,-45 100,-100z"/>
    <path class="fil0 str0" d="M4903 8129c0,-55 -45,-100 -100,-100 -55,0 -100,45 -100,100 0,55 45,100 100,100 55,0 100,-45 100,-100z"/>
    <path class="fil0 str0" d="M5703 8129c0,-55 -45,-100 -100,-100 -55,0 -100,45 -100,100 0,55 45,100 100,100 55,0 100,-45 100,-100z"/>
    <path class="fil0 str0" d="M6503 8129c0,-55 -45,-100 -100,-100 -55,0 -100,45 -100,100 0,55 45,100 100,100 55,0 100,-45 100,-100z"/>
    <path class="fil0 str0" d="M4236 1795c-16,-15 -41,-13 -56,3"/>
    <path class="fil0 str0" d="M4235 1777c-16,-15 -41,-13 -56,3"/>
    <path class="fil0 str0" d="M4128 1752c15,-16 13,-41 -3,-56"/>
    <path class="fil0 str0" d="M4170 1644c16,15 41,13 56,-3"/>
    <path class="fil0 str0" d="M4279 1687c-15,16 -13,41 3,56"/>
    <path class="fil0 str0" d="M4261 1688c-15,16 -13,41 3,56"/>
    <path class="fil0 str0" d="M4145 1751c15,-16 13,-41 -3,-56"/>
    <path class="fil0 str0" d="M4172 1661c16,15 41,13 56,-3"/>
    <line class="fil0 str0" x1="4292" y1="1845" x2="4236" y2= "1795" />
    <line class="fil0 str0" x1="4292" y1="1845" x2="4291" y2= "1827" />
    <line class="fil0 str0" x1="4235" y1="1777" x2="4291" y2= "1827" />
    <line class="fil0 str0" x1="4180" y1="1798" x2="4130" y2= "1855" />
    <line class="fil0 str0" x1="4130" y1="1855" x2="4078" y2= "1809" />
    <line class="fil0 str0" x1="4078" y1="1809" x2="4128" y2= "1752" />
    <line class="fil0 str0" x1="4124" y1="1696" x2="4067" y2= "1646" />
    <line class="fil0 str0" x1="4067" y1="1646" x2="4114" y2= "1594" />
    <line class="fil0 str0" x1="4114" y1="1594" x2="4170" y2= "1644" />
    <line class="fil0 str0" x1="4226" y1="1640" x2="4276" y2= "1584" />
    <line class="fil0 str0" x1="4276" y1="1584" x2="4329" y2= "1630" />
    <line class="fil0 str0" x1="4329" y1="1630" x2="4279" y2= "1687" />
    <line class="fil0 str0" x1="4282" y1="1742" x2="4339" y2= "1792" />
    <line class="fil0 str0" x1="4339" y1="1792" x2="4292" y2= "1845" />
    <line class="fil0 str0" x1="4329" y1="1630" x2="4311" y2= "1631" />
    <line class="fil0 str0" x1="4261" y1="1688" x2="4311" y2= "1631" />
    <line class="fil0 str0" x1="4078" y1="1809" x2="4095" y2= "1807" />
    <line class="fil0 str0" x1="4145" y1="1751" x2="4095" y2= "1807" />
    <line class="fil0 str0" x1="4277" y1="1601" x2="4227" y2= "1658" />
    <line class="fil0 str0" x1="4276" y1="1584" x2="4277" y2= "1601" />
    <line class="fil0 str0" x1="4129" y1="1837" x2="4179" y2= "1781" />
    <line class="fil0 str0" x1="4130" y1="1855" x2="4129" y2= "1837" />
    <line class="fil0 str0" x1="4095" y1="1807" x2="4129" y2= "1837" />
    <line class="fil0 str0" x1="4311" y1="1631" x2="4277" y2= "1601" />
    <line class="fil0 str0" x1="4085" y1="1645" x2="4142" y2= "1695" />
    <line class="fil0 str0" x1="4067" y1="1646" x2="4085" y2= "1645" />
    <line class="fil0 str0" x1="4114" y1="1594" x2="4115" y2= "1611" />
    <line class="fil0 str0" x1="4172" y1="1661" x2="4115" y2= "1611" />
    <line class="fil0 str0" x1="4115" y1="1611" x2="4085" y2= "1645" />
    <line class="fil0 str0" x1="4291" y1="1827" x2="4321" y2= "1793" />
    <line class="fil0 str0" x1="4339" y1="1792" x2="4321" y2= "1793" />
    <line class="fil0 str0" x1="4321" y1="1793" x2="4265" y2= "1743" />
    <path class="fil0 str0" d="M4403 1719c0,-110 -90,-200 -200,-200 -110,0 -200,90 -200,200 0,110 90,200 200,200 110,0 200,-90 200,-200z"/>
    <path class="fil0 str0" d="M4443 1719c0,-133 -107,-240 -240,-240 -133,0 -240,107 -240,240 0,133 107,240 240,240 133,0 240,-107 240,-240z"/>
    <line class="fil0 str0" x1="7318" y1="10089" x2="7318" y2= "9959" />
    <line class="fil0 str0" x1="1088" y1="9959" x2="1088" y2= "10089" />
    <line class="fil0 str0" x1="1088" y1="9909" x2="1088" y2= "889" />
    <line class="fil0 str0" x1="7318" y1="889" x2="7318" y2= "9909" />
   </g>
   <g>
    <line class="fil0 str1" x1="1088" y1="889" x2="1088" y2= "664" />
    <line class="fil0 str1" x1="7318" y1="664" x2="7318" y2= "889" />
    <line class="fil0 str1" x1="1088" y1="619" x2="1088" y2= "664" />
    <line class="fil0 str1" x1="7318" y1="664" x2="7318" y2= "619" />
    <line class="fil0 str1" x1="1088" y1="889" x2="303" y2= "889" />
    <path class="fil0 str1" d="M303 889c-53,0 -104,21 -141,59 -38,38 -59,88 -59,141"/>
    <path class="fil0 str1" d="M8303 1089c0,-53 -21,-104 -59,-141 -38,-38 -88,-59 -141,-59"/>
    <line class="fil0 str1" x1="8103" y1="889" x2="7318" y2= "889" />
    <line class="fil0 str1" x1="908" y1="9959" x2="1088" y2= "9959" />
    <line class="fil0 str1" x1="7318" y1="9959" x2="7498" y2= "9959" />
    <line class="fil0 str1" x1="7498" y1="10089" x2="7498" y2= "9959" />
    <line class="fil0 str1" x1="7498" y1="10089" x2="7318" y2= "10089" />
    <line class="fil0 str1" x1="1088" y1="10089" x2="908" y2= "10089" />
    <line class="fil0 str1" x1="908" y1="10089" x2="908" y2= "9959" />
    <line class="fil0 str1" x1="1588" y1="149" x2="6818" y2= "149" />
    <path class="fil0 str1" d="M1588 149c-133,0 -260,50 -354,138 -94,88 -146,208 -146,332"/>
    <path class="fil0 str1" d="M7318 619c0,-125 -53,-244 -146,-332 -94,-88 -221,-138 -354,-138"/>
    <path class="fil0 str1" d="M808 1479c0,-124 -101,-225 -225,-225 -124,0 -225,101 -225,225 0,124 101,225 225,225 124,0 225,-101 225,-225z"/>
    <path class="fil0 str1" d="M808 9319c0,-124 -101,-225 -225,-225 -124,0 -225,101 -225,225 0,124 101,225 225,225 124,0 225,-101 225,-225z"/>
    <line class="fil0 str1" x1="103" y1="8399" x2="103" y2= "9709" />
    <path class="fil0 str1" d="M103 9709c0,53 21,104 59,141 38,38 88,59 141,59"/>
    <line class="fil0 str1" x1="303" y1="9909" x2="1088" y2= "9909" />
    <line class="fil0 str1" x1="103" y1="1089" x2="103" y2= "2399" />
    <path class="fil0 str1" d="M103 8399c960,-1885 960,-4115 0,-6000"/>
    <path class="fil0 str1" d="M8048 9319c0,-124 -101,-225 -225,-225 -124,0 -225,101 -225,225 0,124 101,225 225,225 124,0 225,-101 225,-225z"/>
    <path class="fil0 str1" d="M8048 1479c0,-124 -101,-225 -225,-225 -124,0 -225,101 -225,225 0,124 101,225 225,225 124,0 225,-101 225,-225z"/>
    <line class="fil0 str1" x1="7318" y1="9909" x2="8103" y2= "9909" />
    <path class="fil0 str1" d="M8103 9909c110,0 200,-90 200,-200"/>
    <line class="fil0 str1" x1="8303" y1="9709" x2="8303" y2= "8399" />
    <path class="fil0 str1" d="M8303 2399c-960,1885 -960,4115 0,6000"/>
    <line class="fil0 str1" x1="8303" y1="2399" x2="8303" y2= "1089" />
    <line class="fil0 str1" x1="1088" y1="10089" x2="7318" y2= "10089" />
    <line class="fil0 str1" x1="1088" y1="9909" x2="1088" y2= "9959" />
    <line class="fil0 str1" x1="7318" y1="9959" x2="7318" y2= "9909" />
   </g>
  </g>
 </g>
 <g id="Размеры">
  <metadata id="CorelCorpID_1Corel-Layer"/>
  <g id="_929944240">
   <line class="fil0 str2" x1="453" y1="12151" x2="7953" y2= "12151" />
   <g id="Filled-1">
    <line class="fil0 str2" x1="453" y1="12151" x2="103" y2= "12151" />
    <polygon class="fil1 str2" points="453,12101 103,12151 453,12201 "/>
    <polygon class="fil1 str2" points="453,12101 453,12201 453,12101 103,12151 "/>
    <line class="fil0 str2" x1="453" y1="12101" x2="103" y2= "12151" />
    <line class="fil0 str2" x1="103" y1="12151" x2="453" y2= "12201" />
    <line class="fil0 str2" x1="453" y1="12201" x2="453" y2= "12101" />
   </g>
   <g id="Filled-1_0">
    <line class="fil0 str2" x1="7953" y1="12151" x2="8303" y2= "12151" />
    <polygon class="fil1 str2" points="7953,12201 8303,12151 7953,12101 "/>
    <polygon class="fil1 str2" points="7953,12201 7953,12101 7953,12201 8303,12151 "/>
    <line class="fil0 str2" x1="7953" y1="12201" x2="8303" y2= "12151" />
    <line class="fil0 str2" x1="8303" y1="12151" x2="7953" y2= "12101" />
    <line class="fil0 str2" x1="7953" y1="12101" x2="7953" y2= "12201" />
   </g>
   <path class="fil2" d="M4213 11968c8,9 13,20 13,33 0,5 -1,9 -2,14l-7 25c-6,23 -16,39 -28,48 -13,10 -30,14 -53,14 -14,0 -26,-5 -36,-14 -9,-9 -14,-21 -14,-35 0,-5 1,-10 2,-14l7 -25c7,-27 20,-45 38,-53 -8,-9 -13,-20 -13,-33 0,-5 1,-10 2,-14 6,-22 16,-38 28,-48 12,-10 30,-15 53,-15 14,0 26,5 36,14 9,9 14,21 14,35 0,5 -1,10 -2,14 -8,27 -20,45 -38,54zm-44 9c-26,0 -42,12 -49,37l-7 25c-1,5 -2,10 -2,14 0,16 10,23 31,23 26,0 42,-12 49,-37l7 -25c1,-5 2,-10 2,-14 0,-16 -10,-23 -31,-23zm26 -100c-26,0 -42,13 -49,38 -1,5 -2,10 -2,14 0,16 10,24 31,24 26,0 42,-13 49,-38 1,-5 2,-10 2,-14 0,-16 -10,-24 -31,-24z"/>
   <path id="1" class="fil2" d="M4328 11909c-2,3 -5,5 -9,5 -3,0 -6,-1 -9,-4 -2,-3 -4,-5 -4,-9 0,-3 1,-6 3,-8 11,-14 22,-24 32,-31 12,-8 27,-11 43,-11 19,0 33,8 43,24 5,8 7,16 7,25 0,17 -8,34 -23,50l-114 126 75 0c8,0 13,4 13,13 0,8 -4,13 -13,13l-104 0c-8,0 -13,-4 -13,-13 0,-3 1,-6 3,-9l134 -147c10,-11 15,-22 15,-32 0,-17 -10,-25 -31,-25 -10,0 -21,6 -34,17 -6,5 -11,10 -15,16z"/>
   <line class="fil0 str2" x1="9997" y1="9739" x2="9997" y2= "499" />
   <g id="Filled-1_1">
    <line class="fil0 str2" x1="9997" y1="9739" x2="9997" y2= "10089" />
    <polygon class="fil1 str2" points="9947,9739 9997,10089 10047,9739 "/>
    <polygon class="fil1 str2" points="9947,9739 10047,9739 9947,9739 9997,10089 "/>
    <line class="fil0 str2" x1="9947" y1="9739" x2="9997" y2= "10089" />
    <line class="fil0 str2" x1="9997" y1="10089" x2="10047" y2= "9739" />
    <line class="fil0 str2" x1="10047" y1="9739" x2="9947" y2= "9739" />
   </g>
   <g id="Filled-1_2">
    <line class="fil0 str2" x1="9997" y1="499" x2="9997" y2= "149" />
    <polygon class="fil1 str2" points="10047,499 9997,149 9947,499 "/>
    <polygon class="fil1 str2" points="10047,499 9947,499 10047,499 9997,149 "/>
    <line class="fil0 str2" x1="10047" y1="499" x2="9997" y2= "149" />
    <line class="fil0 str2" x1="9997" y1="149" x2="9947" y2= "499" />
    <line class="fil0 str2" x1="9947" y1="499" x2="10047" y2= "499" />
   </g>
   <path class="fil2" d="M9723 5524c0,26 13,42 38,49l25 7c5,1 10,2 14,2 16,0 24,-10 24,-31l0 -39 -63 -17c-4,-1 -7,-2 -9,-2 -8,0 -15,3 -20,9 -5,6 -8,13 -8,22zm-25 -7c0,-13 5,-24 16,-34 11,-10 23,-15 36,-15 3,0 7,0 10,1l76 20c61,16 98,54 112,114 0,1 0,2 0,3 0,3 -1,6 -4,9 -3,2 -5,4 -9,4 -7,0 -11,-3 -12,-8 -2,-15 -7,-29 -16,-43 -16,-25 -36,-41 -60,-48l0 37c0,14 -5,26 -14,36 -9,9 -21,14 -35,14 -5,0 -10,-1 -14,-2l-25 -7c-15,-4 -27,-10 -36,-16 -18,-13 -26,-35 -26,-65z"/>
   <path id="1" class="fil2" d="M9723 5343c0,26 13,42 38,49l25 7c5,1 10,2 14,2 16,0 24,-10 24,-31l0 -39 -63 -17c-4,-1 -7,-2 -9,-2 -8,0 -15,3 -20,9 -5,6 -8,13 -8,22zm-25 -7c0,-13 5,-24 16,-34 11,-10 23,-15 36,-15 3,0 7,0 10,1l76 20c61,16 98,54 112,114 0,1 0,2 0,3 0,3 -1,6 -4,9 -3,2 -5,4 -9,4 -7,0 -11,-3 -12,-8 -2,-15 -7,-29 -16,-43 -16,-25 -36,-41 -60,-48l0 37c0,14 -5,26 -14,36 -9,9 -21,14 -35,14 -5,0 -10,-1 -14,-2l-25 -7c-15,-4 -27,-10 -36,-16 -18,-13 -26,-35 -26,-65z"/>
   <line class="fil0 str2" x1="8893" y1="1829" x2="8893" y2= "8969" />
   <g id="Filled-1_3">
    <line class="fil0 str2" x1="8893" y1="1829" x2="8893" y2= "1479" />
    <polygon class="fil1 str2" points="8943,1829 8893,1479 8843,1829 "/>
    <polygon class="fil1 str2" points="8943,1829 8843,1829 8943,1829 8893,1479 "/>
    <line class="fil0 str2" x1="8943" y1="1829" x2="8893" y2= "1479" />
    <line class="fil0 str2" x1="8893" y1="1479" x2="8843" y2= "1829" />
    <line class="fil0 str2" x1="8843" y1="1829" x2="8943" y2= "1829" />
   </g>
   <g id="Filled-1_4">
    <line class="fil0 str2" x1="8893" y1="8969" x2="8893" y2= "9319" />
    <polygon class="fil1 str2" points="8843,8969 8893,9319 8943,8969 "/>
    <polygon class="fil1 str2" points="8843,8969 8943,8969 8843,8969 8893,9319 "/>
    <line class="fil0 str2" x1="8843" y1="8969" x2="8893" y2= "9319" />
    <line class="fil0 str2" x1="8893" y1="9319" x2="8943" y2= "8969" />
    <line class="fil0 str2" x1="8943" y1="8969" x2="8843" y2= "8969" />
   </g>
   <line class="fil0 str2" x1="933" y1="11203" x2="7473" y2= "11203" />
   <g id="Filled-1_5">
    <line class="fil0 str2" x1="933" y1="11203" x2="583" y2= "11203" />
    <polygon class="fil1 str2" points="933,11153 583,11203 933,11253 "/>
    <polygon class="fil1 str2" points="933,11153 933,11253 933,11153 583,11203 "/>
    <line class="fil0 str2" x1="933" y1="11153" x2="583" y2= "11203" />
    <line class="fil0 str2" x1="583" y1="11203" x2="933" y2= "11253" />
    <line class="fil0 str2" x1="933" y1="11253" x2="933" y2= "11153" />
   </g>
   <g id="Filled-1_6">
    <line class="fil0 str2" x1="7473" y1="11203" x2="7823" y2= "11203" />
    <polygon class="fil1 str2" points="7473,11253 7823,11203 7473,11153 "/>
    <polygon class="fil1 str2" points="7473,11253 7473,11153 7473,11253 7823,11203 "/>
    <line class="fil0 str2" x1="7473" y1="11253" x2="7823" y2= "11203" />
    <line class="fil0 str2" x1="7823" y1="11203" x2="7473" y2= "11153" />
    <line class="fil0 str2" x1="7473" y1="11153" x2="7473" y2= "11253" />
   </g>
   <path class="fil2" d="M4116 10858l-73 0 -3 14c-2,9 -7,12 -15,11 -8,-3 -11,-8 -9,-17l5 -20c2,-8 6,-13 12,-13l104 0c8,0 13,4 13,13 0,2 0,4 -1,6l-112 225c-2,3 -4,5 -7,6 -8,3 -13,0 -16,-8 -1,-3 -1,-6 1,-9l103 -207z"/>
   <path id="1" class="fil2" d="M4213 10891c-2,3 -5,5 -9,5 -3,0 -6,-1 -9,-4 -2,-3 -4,-5 -4,-9 0,-3 1,-6 3,-8 11,-14 22,-24 32,-31 12,-8 27,-11 43,-11 19,0 33,8 43,24 5,8 7,16 7,25 0,17 -8,34 -23,50l-114 126 75 0c8,0 13,4 13,13 0,8 -4,13 -13,13l-104 0c-8,0 -13,-4 -13,-13 0,-3 1,-6 3,-9l134 -147c10,-11 15,-22 15,-32 0,-17 -10,-25 -31,-25 -10,0 -21,6 -34,17 -6,5 -11,10 -15,16z"/>
   <path id="2" class="fil2" d="M4337 11065c2,-5 6,-7 11,-7 3,0 6,1 9,4 3,2 4,5 4,9 0,2 0,4 -2,6l-26 50c-2,4 -6,6 -11,6 -9,0 -13,-4 -13,-12 0,-2 0,-4 2,-6l26 -50z"/>
   <path id="3" class="fil2" d="M4547 11008l22 0c8,0 13,4 13,13 0,8 -4,13 -13,13l-29 0 -11 41c-2,6 -6,9 -12,9 -9,0 -13,-4 -13,-13 0,-1 0,-2 0,-3l9 -34 -75 0c-4,0 -7,-1 -9,-4 -2,-3 -4,-5 -4,-9 0,-2 1,-4 2,-6l99 -175c2,-4 6,-6 11,-6 9,0 13,4 13,12 0,2 -1,4 -2,6l-88 156 60 0 11 -41c2,-6 6,-9 12,-9 9,0 13,4 13,12 0,1 0,3 0,3l-9 35z"/>
   <line class="fil0 str2" x1="103" y1="9709" x2="103" y2= "12251" />
   <line class="fil0 str2" x1="8303" y1="9709" x2="8303" y2= "12251" />
   <line class="fil0 str2" x1="7318" y1="10089" x2="10097" y2= "10089" />
   <line class="fil0 str2" x1="6818" y1="149" x2="10097" y2= "149" />
   <line class="fil0 str2" x1="7823" y1="9319" x2="8993" y2= "9319" />
   <line class="fil0 str2" x1="583" y1="9319" x2="583" y2= "11303" />
   <line class="fil0 str2" x1="7823" y1="9319" x2="7823" y2= "11303" />
   <line class="fil0 str2" x1="7823" y1="1479" x2="8993" y2= "1479" />
   <line class="fil0 str2" x1="7823" y1="1479" x2="8993" y2= "1479" />
   <path class="fil2" d="M8549 5314l0 73 14 3c9,2 12,7 11,15 -3,8 -8,11 -17,9l-20 -5c-8,-2 -13,-6 -13,-12l0 -104c0,-8 4,-13 13,-13 2,0 4,0 6,1l225 112c3,2 5,4 6,7 3,8 0,13 -8,16 -3,1 -6,1 -9,-1l-207 -103z"/>
   <path id="1" class="fil2" d="M8640 5150c9,-8 20,-13 33,-13 5,0 9,1 14,2l25 7c23,6 39,16 48,28 10,13 14,30 14,53 0,14 -5,26 -14,36 -9,9 -21,14 -35,14 -5,0 -10,-1 -14,-2l-25 -7c-27,-7 -45,-20 -53,-38 -9,8 -20,13 -33,13 -5,0 -10,-1 -14,-2 -22,-6 -38,-16 -48,-28 -10,-12 -15,-30 -15,-53 0,-14 5,-26 14,-36 9,-9 21,-14 35,-14 5,0 10,1 14,2 27,8 45,20 54,38zm9 44c0,26 12,42 37,49l25 7c5,1 10,2 14,2 16,0 23,-10 23,-31 0,-26 -12,-42 -37,-49l-25 -7c-5,-1 -10,-2 -14,-2 -16,0 -23,10 -23,31zm-100 -26c0,26 13,42 38,49 5,1 10,2 14,2 16,0 24,-10 24,-31 0,-26 -13,-42 -38,-49 -5,-1 -10,-2 -14,-2 -16,0 -24,10 -24,31z"/>
   <path id="2" class="fil2" d="M8756 5093c-5,-2 -7,-6 -7,-11 0,-3 1,-6 4,-9 2,-3 5,-4 9,-4 2,0 4,0 6,2l50 26c4,2 6,6 6,11 0,9 -4,13 -12,13 -2,0 -4,0 -6,-2l-50 -26z"/>
   <path id="3" class="fil2" d="M8699 4883l0 -22c0,-8 4,-13 13,-13 8,0 13,4 13,13l0 29 41 11c6,2 9,6 9,12 0,9 -4,13 -13,13 -1,0 -2,0 -3,0l-34 -9 0 75c0,4 -1,7 -4,9 -3,2 -5,4 -9,4 -2,0 -4,-1 -6,-2l-175 -99c-4,-2 -6,-6 -6,-11 0,-9 4,-13 12,-13 2,0 4,1 6,2l156 88 0 -60 -41 -11c-6,-2 -9,-6 -9,-12 0,-9 4,-13 12,-13 1,0 3,0 3,0l35 9z"/>
   <g>
    <path class="fil2" d="M1058 1497l0 -35 1 0 1 0 1 0 1 0 1 0 1 0 1 0 1 0 1 0 1 0 1 0 1 0 1 0 1 1 1 1 1 1 1 1 1 1 1 1 0 1 0 1 0 1 0 1 0 1 0 1 0 1 0 1 0 1 0 1 0 1 0 1 0 1 0 1 0 1 0 1 0 1 0 1 0 1 0 1 0 1 0 1 0 1 0 1 0 1 0 1 -1 1 -1 1 -1 1 -1 1 -1 1 -1 1 -1 0 -1 0 -1 0 -1 0 -1 0 -1 0 -1 0 -1 0 -1 0 -1 0 -1 0 -1 0 -1 0zm-950 -35l950 0 0 35 -950 0 0 -35zm0 0l0 35 -1 0 -1 0 -1 0 -1 0 -1 0 -1 0 -1 0 -1 0 -1 0 -1 0 -1 0 -1 0 -1 0 -1 -1 -1 -1 -1 -1 -1 -1 -1 -1 -1 -1 0 -1 0 -1 0 -1 0 -1 0 -1 0 -1 0 -1 0 -1 0 -1 0 -1 0 -1 0 -1 0 -1 0 -1 0 -1 0 -1 0 -1 0 -1 0 -1 0 -1 0 -1 0 -1 0 -1 0 -1 0 -1 0 -1 1 -1 1 -1 1 -1 1 -1 1 -1 1 -1 1 0 1 0 1 0 1 0 1 0 1 0 1 0 1 0 1 0 1 0 1 0 1 0 1 0z"/>
   </g>
   <g>
    <path class="fil2" d="M601 1004l-35 0 0 -1 0 -1 0 -1 0 -1 0 -1 0 -1 0 -1 0 -1 0 -1 0 -1 0 -1 0 -1 0 -1 1 -1 1 -1 1 -1 1 -1 1 -1 1 -1 1 0 1 0 1 0 1 0 1 0 1 0 1 0 1 0 1 0 1 0 1 0 1 0 1 0 1 0 1 0 1 0 1 0 1 0 1 0 1 0 1 0 1 0 1 0 1 0 1 0 1 0 1 1 1 1 1 1 1 1 1 1 1 1 0 1 0 1 0 1 0 1 0 1 0 1 0 1 0 1 0 1 0 1 0 1 0 1 0 1zm-35 950l0 -950 35 0 0 950 -35 0zm0 0l35 0 0 1 0 1 0 1 0 1 0 1 0 1 0 1 0 1 0 1 0 1 0 1 0 1 0 1 -1 1 -1 1 -1 1 -1 1 -1 1 -1 1 -1 0 -1 0 -1 0 -1 0 -1 0 -1 0 -1 0 -1 0 -1 0 -1 0 -1 0 -1 0 -1 0 -1 0 -1 0 -1 0 -1 0 -1 0 -1 0 -1 0 -1 0 -1 0 -1 0 -1 0 -1 0 -1 0 -1 -1 -1 -1 -1 -1 -1 -1 -1 -1 -1 -1 0 -1 0 -1 0 -1 0 -1 0 -1 0 -1 0 -1 0 -1 0 -1 0 -1 0 -1 0 -1 0 -1z"/>
   </g>
   <g>
    <path class="fil2" d="M8298 1497l0 -35 1 0 1 0 1 0 1 0 1 0 1 0 1 0 1 0 1 0 1 0 1 0 1 0 1 0 1 1 1 1 1 1 1 1 1 1 1 1 0 1 0 1 0 1 0 1 0 1 0 1 0 1 0 1 0 1 0 1 0 1 0 1 0 1 0 1 0 1 0 1 0 1 0 1 0 1 0 1 0 1 0 1 0 1 0 1 0 1 0 1 -1 1 -1 1 -1 1 -1 1 -1 1 -1 1 -1 0 -1 0 -1 0 -1 0 -1 0 -1 0 -1 0 -1 0 -1 0 -1 0 -1 0 -1 0 -1 0zm-950 -35l950 0 0 35 -950 0 0 -35zm0 0l0 35 -1 0 -1 0 -1 0 -1 0 -1 0 -1 0 -1 0 -1 0 -1 0 -1 0 -1 0 -1 0 -1 0 -1 -1 -1 -1 -1 -1 -1 -1 -1 -1 -1 -1 0 -1 0 -1 0 -1 0 -1 0 -1 0 -1 0 -1 0 -1 0 -1 0 -1 0 -1 0 -1 0 -1 0 -1 0 -1 0 -1 0 -1 0 -1 0 -1 0 -1 0 -1 0 -1 0 -1 0 -1 0 -1 0 -1 1 -1 1 -1 1 -1 1 -1 1 -1 1 -1 1 0 1 0 1 0 1 0 1 0 1 0 1 0 1 0 1 0 1 0 1 0 1 0 1 0z"/>
   </g>
   <g>
    <path class="fil2" d="M7841 1004l-35 0 0 -1 0 -1 0 -1 0 -1 0 -1 0 -1 0 -1 0 -1 0 -1 0 -1 0 -1 0 -1 0 -1 1 -1 1 -1 1 -1 1 -1 1 -1 1 -1 1 0 1 0 1 0 1 0 1 0 1 0 1 0 1 0 1 0 1 0 1 0 1 0 1 0 1 0 1 0 1 0 1 0 1 0 1 0 1 0 1 0 1 0 1 0 1 0 1 0 1 0 1 1 1 1 1 1 1 1 1 1 1 1 0 1 0 1 0 1 0 1 0 1 0 1 0 1 0 1 0 1 0 1 0 1 0 1 0 1zm-35 950l0 -950 35 0 0 950 -35 0zm0 0l35 0 0 1 0 1 0 1 0 1 0 1 0 1 0 1 0 1 0 1 0 1 0 1 0 1 0 1 -1 1 -1 1 -1 1 -1 1 -1 1 -1 1 -1 0 -1 0 -1 0 -1 0 -1 0 -1 0 -1 0 -1 0 -1 0 -1 0 -1 0 -1 0 -1 0 -1 0 -1 0 -1 0 -1 0 -1 0 -1 0 -1 0 -1 0 -1 0 -1 0 -1 0 -1 0 -1 0 -1 -1 -1 -1 -1 -1 -1 -1 -1 -1 -1 -1 0 -1 0 -1 0 -1 0 -1 0 -1 0 -1 0 -1 0 -1 0 -1 0 -1 0 -1 0 -1 0 -1z"/>
   </g>
   <g>
    <path class="fil2" d="M1058 9337l0 -35 1 0 1 0 1 0 1 0 1 0 1 0 1 0 1 0 1 0 1 0 1 0 1 0 1 0 1 1 1 1 1 1 1 1 1 1 1 1 0 1 0 1 0 1 0 1 0 1 0 1 0 1 0 1 0 1 0 1 0 1 0 1 0 1 0 1 0 1 0 1 0 1 0 1 0 1 0 1 0 1 0 1 0 1 0 1 0 1 0 1 -1 1 -1 1 -1 1 -1 1 -1 1 -1 1 -1 0 -1 0 -1 0 -1 0 -1 0 -1 0 -1 0 -1 0 -1 0 -1 0 -1 0 -1 0 -1 0zm-950 -35l950 0 0 35 -950 0 0 -35zm0 0l0 35 -1 0 -1 0 -1 0 -1 0 -1 0 -1 0 -1 0 -1 0 -1 0 -1 0 -1 0 -1 0 -1 0 -1 -1 -1 -1 -1 -1 -1 -1 -1 -1 -1 -1 0 -1 0 -1 0 -1 0 -1 0 -1 0 -1 0 -1 0 -1 0 -1 0 -1 0 -1 0 -1 0 -1 0 -1 0 -1 0 -1 0 -1 0 -1 0 -1 0 -1 0 -1 0 -1 0 -1 0 -1 0 -1 0 -1 1 -1 1 -1 1 -1 1 -1 1 -1 1 -1 1 0 1 0 1 0 1 0 1 0 1 0 1 0 1 0 1 0 1 0 1 0 1 0 1 0z"/>
   </g>
   <g>
    <path class="fil2" d="M601 8844l-35 0 0 -1 0 -1 0 -1 0 -1 0 -1 0 -1 0 -1 0 -1 0 -1 0 -1 0 -1 0 -1 0 -1 1 -1 1 -1 1 -1 1 -1 1 -1 1 -1 1 0 1 0 1 0 1 0 1 0 1 0 1 0 1 0 1 0 1 0 1 0 1 0 1 0 1 0 1 0 1 0 1 0 1 0 1 0 1 0 1 0 1 0 1 0 1 0 1 0 1 0 1 1 1 1 1 1 1 1 1 1 1 1 0 1 0 1 0 1 0 1 0 1 0 1 0 1 0 1 0 1 0 1 0 1 0 1 0 1zm-35 950l0 -950 35 0 0 950 -35 0zm0 0l35 0 0 1 0 1 0 1 0 1 0 1 0 1 0 1 0 1 0 1 0 1 0 1 0 1 0 1 -1 1 -1 1 -1 1 -1 1 -1 1 -1 1 -1 0 -1 0 -1 0 -1 0 -1 0 -1 0 -1 0 -1 0 -1 0 -1 0 -1 0 -1 0 -1 0 -1 0 -1 0 -1 0 -1 0 -1 0 -1 0 -1 0 -1 0 -1 0 -1 0 -1 0 -1 0 -1 0 -1 -1 -1 -1 -1 -1 -1 -1 -1 -1 -1 -1 0 -1 0 -1 0 -1 0 -1 0 -1 0 -1 0 -1 0 -1 0 -1 0 -1 0 -1 0 -1 0 -1z"/>
   </g>
   <g>
    <path class="fil2" d="M8298 9337l0 -35 1 0 1 0 1 0 1 0 1 0 1 0 1 0 1 0 1 0 1 0 1 0 1 0 1 0 1 1 1 1 1 1 1 1 1 1 1 1 0 1 0 1 0 1 0 1 0 1 0 1 0 1 0 1 0 1 0 1 0 1 0 1 0 1 0 1 0 1 0 1 0 1 0 1 0 1 0 1 0 1 0 1 0 1 0 1 0 1 0 1 -1 1 -1 1 -1 1 -1 1 -1 1 -1 1 -1 0 -1 0 -1 0 -1 0 -1 0 -1 0 -1 0 -1 0 -1 0 -1 0 -1 0 -1 0 -1 0zm-950 -35l950 0 0 35 -950 0 0 -35zm0 0l0 35 -1 0 -1 0 -1 0 -1 0 -1 0 -1 0 -1 0 -1 0 -1 0 -1 0 -1 0 -1 0 -1 0 -1 -1 -1 -1 -1 -1 -1 -1 -1 -1 -1 -1 0 -1 0 -1 0 -1 0 -1 0 -1 0 -1 0 -1 0 -1 0 -1 0 -1 0 -1 0 -1 0 -1 0 -1 0 -1 0 -1 0 -1 0 -1 0 -1 0 -1 0 -1 0 -1 0 -1 0 -1 0 -1 0 -1 1 -1 1 -1 1 -1 1 -1 1 -1 1 -1 1 0 1 0 1 0 1 0 1 0 1 0 1 0 1 0 1 0 1 0 1 0 1 0 1 0z"/>
   </g>
   <g>
    <path class="fil2" d="M7841 8844l-35 0 0 -1 0 -1 0 -1 0 -1 0 -1 0 -1 0 -1 0 -1 0 -1 0 -1 0 -1 0 -1 0 -1 1 -1 1 -1 1 -1 1 -1 1 -1 1 -1 1 0 1 0 1 0 1 0 1 0 1 0 1 0 1 0 1 0 1 0 1 0 1 0 1 0 1 0 1 0 1 0 1 0 1 0 1 0 1 0 1 0 1 0 1 0 1 0 1 0 1 0 1 1 1 1 1 1 1 1 1 1 1 1 0 1 0 1 0 1 0 1 0 1 0 1 0 1 0 1 0 1 0 1 0 1 0 1 0 1zm-35 950l0 -950 35 0 0 950 -35 0zm0 0l35 0 0 1 0 1 0 1 0 1 0 1 0 1 0 1 0 1 0 1 0 1 0 1 0 1 0 1 -1 1 -1 1 -1 1 -1 1 -1 1 -1 1 -1 0 -1 0 -1 0 -1 0 -1 0 -1 0 -1 0 -1 0 -1 0 -1 0 -1 0 -1 0 -1 0 -1 0 -1 0 -1 0 -1 0 -1 0 -1 0 -1 0 -1 0 -1 0 -1 0 -1 0 -1 0 -1 0 -1 -1 -1 -1 -1 -1 -1 -1 -1 -1 -1 -1 0 -1 0 -1 0 -1 0 -1 0 -1 0 -1 0 -1 0 -1 0 -1 0 -1 0 -1 0 -1 0 -1z"/>
   </g>
  </g>
 </g>
 <g id="Маркировка">
  <metadata id="CorelCorpID_2Corel-Layer"/>
  <g>
   <g>
    <g>
     <path class="fil1" d="M2009 1912c0,-69 -56,-125 -124,-125 -69,0 -124,56 -124,125 0,69 56,125 124,125 69,0 124,-56 124,-125zm-93 0c0,-17 -14,-31 -31,-31 -17,0 -31,14 -31,31 0,17 14,31 31,31 17,0 31,-14 31,-31z"/>
     <path class="fil1" d="M2067 2090c0,0 -180,0 -180,0 0,0 -163,0 -163,0 0,0 -16,0 -16,0l0 -360c0,0 179,0 179,0 0,0 0,33 0,33 -81,0 -146,66 -146,147 0,0 0,147 0,147 0,0 147,0 147,0 81,0 147,-66 147,-147 0,0 33,-1 33,-1 0,0 0,181 0,181z"/>
    </g>
    <path class="fil1" d="M2260 1818c13,0 24,2 34,6 10,4 18,10 24,18 7,8 12,19 15,32 3,13 5,29 5,47 0,19 -2,34 -5,47 -3,13 -8,24 -15,32 -7,8 -15,14 -24,18 -10,4 -21,6 -34,6 -13,0 -24,-2 -34,-6 -10,-4 -18,-10 -24,-18 -7,-8 -12,-19 -15,-32 -3,-13 -5,-29 -5,-47 0,-19 2,-34 5,-47 3,-13 8,-24 15,-32 7,-8 15,-14 24,-18 10,-4 21,-6 34,-6zm0 26c-4,0 -9,1 -12,3 -4,2 -7,6 -10,12 -3,6 -5,14 -7,24 -2,10 -2,23 -2,38 0,15 1,28 2,38 2,10 4,18 7,24 3,6 6,10 10,12 4,2 8,3 12,3 4,0 9,-1 12,-3 4,-2 7,-6 10,-12 3,-6 5,-14 7,-24 2,-10 2,-23 2,-38 0,-15 -1,-28 -2,-38 -2,-10 -4,-18 -7,-24 -3,-6 -6,-10 -10,-12 -4,-2 -8,-3 -12,-3zm145 175c0,0 -57,-197 -57,-197 0,0 47,0 47,0 0,0 38,148 38,148 0,0 2,0 2,0 0,0 38,-148 38,-148 0,0 47,0 47,0 0,0 -57,197 -57,197 0,0 -59,0 -59,0zm274 -85c0,0 -102,0 -102,0 0,23 4,38 12,47 8,9 20,14 37,14 0,0 43,0 43,0 0,0 0,20 0,20 -6,2 -14,4 -23,6 -9,2 -18,2 -28,2 -15,0 -28,-2 -39,-6 -11,-4 -20,-10 -27,-18 -7,-8 -13,-19 -16,-32 -4,-13 -5,-29 -5,-47 0,-19 2,-34 5,-47 3,-13 8,-24 14,-32 6,-8 14,-14 23,-18 9,-4 20,-6 32,-6 12,0 22,2 32,6 9,4 17,10 23,18 6,8 11,19 14,32 3,13 5,29 5,47 0,0 0,14 0,14zm-47 -28c0,-13 -1,-23 -2,-32 -1,-8 -3,-15 -6,-19 -2,-5 -5,-8 -9,-10 -3,-2 -7,-3 -11,-3 -4,0 -8,1 -11,3 -3,2 -6,5 -9,10 -2,5 -4,11 -6,19 -1,8 -2,19 -2,32 0,0 55,0 55,0zm192 -85c0,0 0,33 0,33 0,0 -43,0 -43,0 -5,0 -9,1 -13,2 -4,2 -7,3 -9,6 0,0 0,156 0,156 0,0 -47,0 -47,0 0,0 0,-197 0,-197 0,0 33,0 33,0 0,0 6,16 6,16 0,0 2,0 2,0 4,-4 10,-8 17,-11 7,-3 16,-5 28,-5 0,0 25,0 25,0zm75 197c0,0 -57,-197 -57,-197 0,0 47,0 47,0 0,0 38,148 38,148 0,0 2,0 2,0 0,0 38,-148 38,-148 0,0 47,0 47,0 0,0 -57,197 -57,197 0,0 -59,0 -59,0zm188 0c0,0 -47,0 -47,0 0,0 0,-197 0,-197 0,0 47,0 47,0 0,0 0,197 0,197zm0 -268c0,0 0,47 0,47 0,0 -47,0 -47,0 0,0 0,-47 0,-47 0,0 47,0 47,0zm79 118c0,7 2,12 7,17 5,4 10,8 17,11 7,3 14,7 22,10 8,3 15,7 22,12 7,5 12,11 17,18 5,7 7,16 7,27 0,12 -2,22 -5,29 -3,8 -9,14 -16,18 -7,4 -16,8 -26,9 -11,2 -23,3 -37,3 -10,0 -19,-1 -28,-2 -9,-2 -17,-3 -23,-6 0,0 0,-20 0,-20 0,0 43,0 43,0 15,0 26,-2 34,-6 8,-4 11,-11 11,-21 0,-7 -2,-12 -7,-17 -5,-4 -10,-8 -17,-11 -7,-3 -14,-6 -22,-10 -8,-3 -15,-7 -22,-12 -7,-5 -12,-10 -17,-18 -5,-7 -7,-16 -7,-28 0,-11 2,-20 5,-27 3,-7 8,-13 15,-17 6,-4 14,-7 24,-9 10,-2 20,-3 33,-3 10,0 19,1 28,2 9,2 17,3 23,6 0,0 0,20 0,20 0,0 -43,0 -43,0 -11,0 -20,2 -27,6 -7,4 -10,10 -10,18z"/>
   </g>
   <path class="fil3" d="M1766 9071c0,-18 0,-33 1,-46 1,-13 3,-23 5,-31 3,-8 6,-14 11,-18 5,-4 11,-5 19,-5 8,0 15,2 19,5 5,4 9,10 11,18 3,8 4,18 5,31 1,13 1,28 1,46 0,18 0,34 -1,46 -1,13 -3,23 -5,31 -3,8 -6,14 -11,17 -5,4 -11,5 -19,5 -8,0 -15,-2 -19,-5 -5,-4 -9,-9 -11,-17 -3,-8 -4,-18 -5,-31 -1,-13 -1,-28 -1,-46zm-54 0c0,21 1,40 3,57 2,17 6,32 12,44 6,12 16,22 28,28 12,7 28,10 49,10 20,0 37,-3 49,-10 12,-7 21,-16 28,-28 6,-12 11,-27 12,-44 2,-17 3,-36 3,-57 0,-20 -1,-39 -3,-56 -2,-17 -6,-32 -12,-44 -6,-12 -16,-22 -28,-29 -12,-7 -28,-10 -49,-10 -20,0 -37,3 -49,10 -12,7 -21,17 -28,29 -6,12 -11,27 -12,44 -2,17 -3,36 -3,56z"/>
   <path id="1" class="fil3" d="M1981 9058l0 -82 23 0c14,0 23,4 29,11 6,7 9,17 9,31 0,14 -3,24 -10,31 -7,7 -15,10 -26,10l-24 0zm-54 -122l0 270 54 0 0 -108 29 0c13,0 25,-2 35,-5 11,-3 20,-8 27,-15 7,-7 13,-15 17,-25 4,-10 6,-22 6,-36 0,-10 -1,-20 -4,-30 -3,-10 -7,-18 -12,-26 -6,-8 -13,-14 -23,-18 -9,-5 -21,-7 -35,-7l-95 0z"/>
   <path id="2" class="fil3" d="M2238 9027l54 0c0,-10 -1,-20 -2,-32 -1,-11 -5,-22 -10,-31 -6,-10 -14,-18 -25,-24 -11,-6 -26,-9 -46,-9 -20,0 -37,3 -49,10 -12,7 -21,17 -28,29 -6,12 -11,27 -12,44 -2,17 -3,36 -3,56 0,21 1,40 3,57 2,17 6,32 12,44 6,12 16,22 28,28 12,7 28,10 49,10 18,0 32,-3 44,-8 11,-6 20,-13 26,-23 6,-10 10,-21 13,-34 2,-13 3,-27 3,-42l-54 0c0,15 -1,26 -3,35 -2,9 -4,16 -7,21 -3,5 -7,8 -11,10 -4,2 -9,2 -13,2 -6,0 -11,-1 -15,-4 -4,-2 -8,-7 -11,-14 -3,-7 -5,-17 -6,-29 -1,-13 -2,-29 -2,-49 0,-19 1,-35 2,-49 1,-13 3,-24 5,-32 3,-8 6,-14 10,-18 4,-4 10,-5 17,-5 12,0 21,4 25,13 5,9 7,23 7,43z"/>
   <path id="3" class="fil3" d="M2380 9165l0 -81 23 0c6,0 12,1 17,2 5,1 9,3 13,7 4,3 7,7 9,12 2,5 3,12 3,19 0,16 -4,26 -12,32 -8,6 -19,9 -32,9l-21 0zm0 -119l0 -71 20 0c14,0 24,3 30,8 6,5 9,14 9,27 0,13 -3,22 -10,27 -7,5 -18,8 -33,8l-15 0zm-54 -111l0 270 92 0c16,0 29,-2 40,-6 11,-4 19,-10 26,-17 7,-7 11,-16 14,-25 3,-10 4,-20 4,-30 0,-18 -4,-33 -13,-43 -9,-11 -21,-17 -36,-19l0 -1c14,-4 24,-11 31,-21 7,-10 10,-23 10,-38 0,-13 -2,-24 -6,-32 -4,-9 -9,-16 -16,-21 -7,-5 -15,-9 -24,-11 -9,-2 -20,-3 -31,-3l-91 0z"/>
   <polygon id="4" class="fil3" points="2639,9074 2533,9074 2533,9119 2639,9119 "/>
   <path id="5" class="fil3" d="M2827 9205l0 -42 -101 0c1,-5 4,-11 9,-18 5,-7 11,-14 19,-21l30 -28c8,-7 14,-13 19,-20 5,-6 10,-13 13,-20 3,-7 6,-14 7,-21 2,-7 2,-15 2,-24 0,-23 -7,-41 -20,-54 -13,-13 -33,-19 -60,-19 -29,0 -50,7 -63,20 -13,13 -20,32 -20,57l0 10 52 0c0,-7 0,-14 1,-20 1,-6 2,-12 4,-17 2,-5 5,-9 9,-11 4,-3 9,-4 16,-4 18,0 26,11 26,33 0,7 0,13 -1,18 -1,5 -2,10 -4,15 -2,5 -5,9 -8,14 -4,5 -9,9 -15,15l-22 20c-10,9 -18,18 -26,27 -7,9 -14,18 -18,27 -5,9 -9,19 -11,29 -2,10 -4,21 -4,33l165 0z"/>
   <path id="6" class="fil3" d="M3009 9205l0 -42 -101 0c1,-5 4,-11 9,-18 5,-7 11,-14 19,-21l30 -28c8,-7 14,-13 19,-20 5,-6 10,-13 13,-20 3,-7 6,-14 7,-21 2,-7 2,-15 2,-24 0,-23 -7,-41 -20,-54 -13,-13 -33,-19 -60,-19 -29,0 -50,7 -63,20 -13,13 -20,32 -20,57l0 10 52 0c0,-7 0,-14 1,-20 1,-6 2,-12 4,-17 2,-5 5,-9 9,-11 4,-3 9,-4 16,-4 18,0 26,11 26,33 0,7 0,13 -1,18 -1,5 -2,10 -4,15 -2,5 -5,9 -8,14 -4,5 -9,9 -15,15l-22 20c-10,9 -18,18 -26,27 -7,9 -14,18 -18,27 -5,9 -9,19 -11,29 -2,10 -4,21 -4,33l165 0z"/>
   <path id="7" class="fil3" d="M3087 9205l54 0 0 -267 -40 0c-3,15 -9,26 -20,33 -10,7 -25,10 -43,10l-5 0 0 35 53 0 0 189z"/>
   <path id="8" class="fil3" d="M3273 9165l0 -81 23 0c6,0 12,1 17,2 5,1 9,3 13,7 4,3 7,7 9,12 2,5 3,12 3,19 0,16 -4,26 -12,32 -8,6 -19,9 -32,9l-21 0zm0 -119l0 -71 20 0c14,0 24,3 30,8 6,5 9,14 9,27 0,13 -3,22 -10,27 -7,5 -18,8 -33,8l-15 0zm-54 -111l0 270 92 0c16,0 29,-2 40,-6 11,-4 19,-10 26,-17 7,-7 11,-16 14,-25 3,-10 4,-20 4,-30 0,-18 -4,-33 -13,-43 -9,-11 -21,-17 -36,-19l0 -1c14,-4 24,-11 31,-21 7,-10 10,-23 10,-38 0,-13 -2,-24 -6,-32 -4,-9 -9,-16 -16,-21 -7,-5 -15,-9 -24,-11 -9,-2 -20,-3 -31,-3l-91 0z"/>
  </g>
 </g>
</svg>
