<?xml version="1.0" encoding="UTF-8"?>
<!DOCTYPE svg PUBLIC "-//W3C//DTD SVG 1.1//EN" "http://www.w3.org/Graphics/SVG/1.1/DTD/svg11.dtd">
<!-- Creator: CorelDRAW X6 -->
<svg xmlns="http://www.w3.org/2000/svg" xml:space="preserve" width="110mm" height="68mm" version="1.1" style="shape-rendering:geometricPrecision; text-rendering:geometricPrecision; image-rendering:optimizeQuality; fill-rule:evenodd; clip-rule:evenodd"
viewBox="0 0 11000 6800"
 xmlns:xlink="http://www.w3.org/1999/xlink">
 <defs>
  <style type="text/css">
   <![CDATA[
    .str0 {stroke:black;stroke-width:20;stroke-linejoin:bevel}
    .str2 {stroke:black;stroke-width:34.99;stroke-linejoin:bevel}
    .str3 {stroke:black;stroke-width:34.99;stroke-linecap:round;stroke-linejoin:round}
    .str1 {stroke:black;stroke-width:50;stroke-linejoin:bevel}
    .fil0 {fill:none}
    .fil2 {fill:#2B2A29}
    .fil3 {fill:#2B2A29;fill-rule:nonzero}
    .fil1 {fill:black;fill-rule:nonzero}
   ]]>
  </style>
 </defs>
 <g id="OPCB-221B">
  <metadata id="CorelCorpID_0Corel-Layer"/>
  <g id="_699515952">
   <g>
    <path class="fil0 str0" d="M2633 3615c-8,0 -16,3 -21,9 -6,6 -9,13 -9,21"/>
    <line class="fil0 str0" x1="2603" y1="4315" x2="2603" y2= "3645" />
    <path class="fil0 str0" d="M2603 4315c0,8 3,16 9,21 6,6 13,9 21,9"/>
    <line class="fil0 str0" x1="3493" y1="4345" x2="2633" y2= "4345" />
    <path class="fil0 str0" d="M3493 4345c17,0 30,-13 30,-30"/>
    <line class="fil0 str0" x1="3523" y1="3645" x2="3523" y2= "4315" />
    <path class="fil0 str0" d="M3523 3645c0,-8 -3,-16 -9,-21 -6,-6 -13,-9 -21,-9"/>
    <line class="fil0 str0" x1="2633" y1="3615" x2="3493" y2= "3615" />
    <path class="fil0 str0" d="M6863 4030c0,-41 -34,-75 -75,-75 -41,0 -75,34 -75,75 0,41 34,75 75,75 41,0 75,-34 75,-75z"/>
    <path class="fil0 str0" d="M8653 4045c0,-166 -134,-300 -300,-300 -166,0 -300,134 -300,300 0,166 134,300 300,300 166,0 300,-134 300,-300z"/>
    <path class="fil0 str0" d="M4883 3645c-13,0 -26,5 -35,15 -9,9 -15,22 -15,35"/>
    <line class="fil0 str0" x1="4833" y1="4025" x2="4833" y2= "3695" />
    <path class="fil0 str0" d="M4833 4025c0,13 5,26 15,35"/>
    <line class="fil0 str0" x1="5078" y1="4291" x2="4848" y2= "4060" />
    <path class="fil0 str0" d="M5078 4291c9,9 22,15 35,15"/>
    <line class="fil0 str0" x1="6172" y1="4305" x2="5114" y2= "4305" />
    <path class="fil0 str0" d="M6172 4305c13,0 26,-5 35,-15"/>
    <line class="fil0 str0" x1="6438" y1="4060" x2="6208" y2= "4291" />
    <path class="fil0 str0" d="M6438 4060c9,-9 15,-22 15,-35"/>
    <line class="fil0 str0" x1="6453" y1="3695" x2="6453" y2= "4025" />
    <path class="fil0 str0" d="M6453 3695c0,-13 -5,-26 -15,-35 -9,-9 -22,-15 -35,-15"/>
    <line class="fil0 str0" x1="4883" y1="3645" x2="6403" y2= "3645" />
    <line class="fil0 str0" x1="10703" y1="5015" x2="10703" y2= "2895" />
    <line class="fil0 str0" x1="10703" y1="2895" x2="10703" y2= "2215" />
    <line class="fil0 str0" x1="10833" y1="2895" x2="10703" y2= "2895" />
    <line class="fil0 str0" x1="1763" y1="2195" x2="10683" y2= "2195" />
    <path class="fil0 str0" d="M10703 2215c0,-5 -2,-10 -6,-14 -4,-4 -9,-6 -14,-6"/>
    <line class="fil0 str0" x1="10833" y1="2215" x2="10703" y2= "2215" />
    <line class="fil0 str0" x1="9143" y1="5265" x2="10453" y2= "5265" />
    <line class="fil0 str0" x1="9143" y1="5265" x2="9143" y2= "5395" />
    <line class="fil0 str0" x1="1833" y1="5265" x2="3143" y2= "5265" />
    <line class="fil0 str0" x1="3143" y1="5265" x2="3143" y2= "5395" />
    <line class="fil0 str0" x1="3143" y1="5265" x2="9143" y2= "5265" />
    <path class="fil0 str0" d="M8533 4045c0,-99 -81,-180 -180,-180 -99,0 -180,81 -180,180 0,99 81,180 180,180 99,0 180,-81 180,-180z"/>
    <line class="fil0 str0" x1="5143" y1="3935" x2="5143" y2= "4035" />
    <line class="fil0 str0" x1="6143" y1="3935" x2="5143" y2= "3935" />
    <line class="fil0 str0" x1="6143" y1="4035" x2="6143" y2= "3935" />
    <line class="fil0 str0" x1="5143" y1="4035" x2="6143" y2= "4035" />
    <path class="fil0 str0" d="M6343 3795c0,-11 -4,-21 -12,-28 -8,-8 -18,-12 -28,-12"/>
    <line class="fil0 str0" x1="6343" y1="3795" x2="6343" y2= "4030" />
    <path class="fil0 str0" d="M6321 4066c14,-7 22,-21 22,-36"/>
    <path class="fil0 str0" d="M6321 4066c-65,32 -121,78 -166,135"/>
    <path class="fil0 str0" d="M6123 4215c12,0 24,-6 31,-15"/>
    <line class="fil0 str0" x1="6123" y1="4215" x2="5163" y2= "4215" />
    <path class="fil0 str0" d="M5132 4200c8,9 19,15 31,15"/>
    <path class="fil0 str0" d="M5132 4200c-45,-56 -102,-102 -166,-135"/>
    <path class="fil0 str0" d="M4943 4030c0,15 9,29 22,36"/>
    <line class="fil0 str0" x1="4943" y1="4030" x2="4943" y2= "3795" />
    <path class="fil0 str0" d="M4983 3755c-11,0 -21,4 -28,12 -8,8 -12,18 -12,28"/>
    <line class="fil0 str0" x1="4983" y1="3755" x2="6303" y2= "3755" />
    <path class="fil0 str0" d="M6413 3795c0,-29 -12,-57 -32,-78 -21,-21 -49,-32 -78,-32"/>
    <line class="fil0 str0" x1="6413" y1="4030" x2="6413" y2= "3795" />
    <path class="fil0 str0" d="M6352 4128c37,-19 61,-57 61,-98"/>
    <path class="fil0 str0" d="M6352 4128c-55,28 -104,67 -143,116"/>
    <path class="fil0 str0" d="M6123 4285c33,0 65,-15 86,-41"/>
    <line class="fil0 str0" x1="5163" y1="4285" x2="6123" y2= "4285" />
    <path class="fil0 str0" d="M5077 4244c21,26 52,41 86,41"/>
    <path class="fil0 str0" d="M5077 4244c-39,-48 -88,-88 -143,-116"/>
    <path class="fil0 str0" d="M4873 4030c0,42 24,80 61,98"/>
    <line class="fil0 str0" x1="4873" y1="3795" x2="4873" y2= "4030" />
    <path class="fil0 str0" d="M4983 3685c-29,0 -57,12 -78,32 -21,21 -32,49 -32,78"/>
    <line class="fil0 str0" x1="6303" y1="3685" x2="4983" y2= "3685" />
    <path class="fil0 str0" d="M3383 3980c0,-124 -101,-225 -225,-225 -124,0 -225,101 -225,225 0,124 101,225 225,225 124,0 225,-101 225,-225z"/>
    <path class="fil0 str0" d="M2653 3655c-3,0 -5,1 -7,3 -2,2 -3,4 -3,7"/>
    <path class="fil0 str0" d="M3483 3665c0,-3 -1,-5 -3,-7 -2,-2 -4,-3 -7,-3"/>
    <line class="fil0 str0" x1="3473" y1="3655" x2="2653" y2= "3655" />
    <path class="fil0 str0" d="M2643 4295c0,3 1,5 3,7 2,2 4,3 7,3"/>
    <path class="fil0 str0" d="M3473 4305c6,0 10,-4 10,-10"/>
    <line class="fil0 str0" x1="3483" y1="4295" x2="3483" y2= "3665" />
    <line class="fil0 str0" x1="2653" y1="4305" x2="3473" y2= "4305" />
    <line class="fil0 str0" x1="2643" y1="3665" x2="2643" y2= "4295" />
    <path class="fil0 str0" d="M3228 3980c0,-39 -31,-70 -70,-70 -39,0 -70,31 -70,70 0,39 31,70 70,70 39,0 70,-31 70,-70z"/>
    <path class="fil0 str0" d="M1633 2175c47,17 80,20 130,20"/>
    <line class="fil0 str0" x1="10703" y1="5015" x2="10703" y2= "5265" />
    <line class="fil0 str0" x1="10653" y1="5265" x2="10453" y2= "5265" />
   </g>
   <g>
    <line class="fil0 str1" x1="1661" y1="2047" x2="1407" y2= "1956" />
    <line class="fil0 str1" x1="1363" y1="2078" x2="1633" y2= "2175" />
    <path class="fil0 str1" d="M1661 2047c33,12 67,18 102,18"/>
    <line class="fil0 str1" x1="1363" y1="2078" x2="893" y2= "1908" />
    <line class="fil0 str1" x1="937" y1="1785" x2="1407" y2= "1956" />
    <line class="fil0 str1" x1="937" y1="1785" x2="893" y2= "1908" />
    <line class="fil0 str1" x1="10683" y1="2065" x2="1763" y2= "2065" />
    <line class="fil0 str1" x1="1633" y1="5115" x2="1633" y2= "2175" />
    <path class="fil0 str1" d="M1633 5115c0,40 16,78 44,106 28,28 66,44 106,44"/>
    <line class="fil0 str1" x1="10453" y1="5395" x2="9143" y2= "5395" />
    <line class="fil0 str1" x1="1633" y1="5265" x2="1633" y2= "5395" />
    <line class="fil0 str1" x1="1833" y1="5265" x2="1633" y2= "5265" />
    <line class="fil0 str1" x1="1633" y1="5395" x2="1833" y2= "5395" />
    <line class="fil0 str1" x1="9143" y1="5395" x2="3143" y2= "5395" />
    <line class="fil0 str1" x1="10833" y1="2215" x2="10833" y2= "2895" />
    <line class="fil0 str1" x1="10833" y1="2895" x2="10833" y2= "5015" />
    <path class="fil0 str1" d="M10833 2215c0,-40 -16,-78 -44,-106 -28,-28 -66,-44 -106,-44"/>
    <line class="fil0 str1" x1="10833" y1="5265" x2="10833" y2= "5015" />
    <line class="fil0 str1" x1="10833" y1="5265" x2="10703" y2= "5265" />
    <line class="fil0 str1" x1="10453" y1="5395" x2="10653" y2= "5395" />
    <line class="fil0 str1" x1="10653" y1="5265" x2="10653" y2= "5395" />
    <line class="fil0 str1" x1="3143" y1="5395" x2="1833" y2= "5395" />
    <line class="fil0 str1" x1="10653" y1="5265" x2="10703" y2= "5265" />
   </g>
  </g>
 </g>
 <g id="Выноски_x0020_линии">
  <metadata id="CorelCorpID_1Corel-Layer"/>
  <line class="fil0 str2" x1="5643" y1="3685" x2="6641" y2= "756" />
  <line class="fil0 str2" x1="8378" y1="3746" x2="9365" y2= "755" />
  <line class="fil0 str2" x1="6641" y1="756" x2="7345" y2= "756" />
  <line class="fil0 str2" x1="9365" y1="755" x2="10033" y2= "755" />
 </g>
 <g id="Выноски_x0020_текст">
  <metadata id="CorelCorpID_2Corel-Layer"/>
  <path class="fil1" d="M7042 430l31 0c12,0 17,6 17,17 0,12 -6,17 -17,17l-40 0 -15 57c-2,9 -8,13 -17,13 -12,0 -18,-6 -18,-18 0,-2 0,-3 1,-4l13 -48 -103 0c-5,0 -9,-2 -12,-5 -3,-4 -5,-8 -5,-12 0,-3 1,-6 2,-9l137 -243c3,-6 8,-9 15,-9 12,0 18,6 18,17 0,3 -1,6 -2,9l-123 217 83 0 15 -57c2,-8 8,-13 16,-13 12,0 18,6 18,17 0,2 0,3 0,5l-13 48z"/>
  <path class="fil1" d="M9666 533l-67 0c-12,0 -17,-6 -17,-17 0,-12 6,-17 17,-17l76 0c36,0 59,-17 68,-52l9 -35c2,-7 3,-13 3,-19 0,-22 -14,-33 -43,-33l-67 0c-5,0 -9,-2 -12,-5 -3,-4 -5,-8 -5,-12 0,-2 0,-3 1,-5l37 -139c2,-9 8,-13 17,-13l126 0c12,0 17,6 17,17 0,12 -6,17 -17,17l-112 0 -28 104 54 0c20,0 37,6 50,19 13,13 19,29 19,49 0,7 -1,13 -2,19l-9 35c-11,41 -31,67 -59,78 -14,6 -33,9 -54,9z"/>
 </g>
 <g id="Размеры">
  <metadata id="CorelCorpID_3Corel-Layer"/>
  <g id="_853073104">
   <g id="Filled-1">
    <line class="fil0 str3" x1="1983" y1="6515" x2="1633" y2= "6515" />
    <polygon class="fil2 str3" points="1983,6465 1633,6515 1983,6565 "/>
    <polygon class="fil2 str3" points="1983,6465 1983,6565 1983,6465 1633,6515 "/>
    <line class="fil0 str3" x1="1983" y1="6465" x2="1633" y2= "6515" />
    <line class="fil0 str3" x1="1633" y1="6515" x2="1983" y2= "6565" />
    <line class="fil0 str3" x1="1983" y1="6565" x2="1983" y2= "6465" />
   </g>
   <line class="fil0 str3" x1="1983" y1="6515" x2="10483" y2= "6515" />
   <g id="Filled-1_0">
    <line class="fil0 str3" x1="10483" y1="6515" x2="10833" y2= "6515" />
    <polygon class="fil2 str3" points="10483,6565 10833,6515 10483,6465 "/>
    <polygon class="fil2 str3" points="10483,6565 10483,6465 10483,6565 10833,6515 "/>
    <line class="fil0 str3" x1="10483" y1="6565" x2="10833" y2= "6515" />
    <line class="fil0 str3" x1="10833" y1="6515" x2="10483" y2= "6465" />
    <line class="fil0 str3" x1="10483" y1="6465" x2="10483" y2= "6565" />
   </g>
   <path class="fil1" d="M6027 6240c-26,0 -42,12 -49,38l-7 25c-1,5 -2,10 -2,14 0,16 10,24 31,24l39 0 17 -63c1,-4 2,-7 2,-9 0,-8 -3,-15 -9,-20 -6,-5 -13,-8 -22,-8zm7 -25c13,0 24,5 34,16 10,11 15,23 15,36 0,3 0,7 -1,10l-20 76c-16,61 -54,98 -114,112 -1,0 -2,0 -3,0 -3,0 -6,-1 -9,-4 -2,-3 -4,-5 -4,-9 0,-7 3,-11 8,-12 15,-2 29,-7 43,-16 25,-16 41,-36 48,-60l-37 0c-14,0 -26,-5 -36,-14 -9,-9 -14,-21 -14,-35 0,-5 1,-10 2,-14l7 -25c4,-15 10,-27 16,-36 13,-18 35,-26 65,-26z"/>
   <path id="1" class="fil1" d="M6158 6273c-2,3 -5,5 -9,5 -3,0 -6,-1 -9,-4 -2,-3 -4,-5 -4,-9 0,-3 1,-6 3,-8 11,-14 22,-24 32,-31 12,-8 27,-11 43,-11 19,0 33,8 43,24 5,8 7,16 7,25 0,17 -8,34 -23,50l-114 126 75 0c8,0 13,4 13,13 0,8 -4,13 -13,13l-104 0c-8,0 -13,-4 -13,-13 0,-3 1,-6 3,-9l134 -147c10,-11 15,-22 15,-32 0,-17 -10,-25 -31,-25 -10,0 -21,6 -34,17 -6,5 -11,10 -15,16z"/>
   <line class="fil0 str3" x1="1633" y1="5115" x2="1633" y2= "6615" />
   <line class="fil0 str3" x1="10833" y1="5015" x2="10833" y2= "6615" />
   <line class="fil0 str3" x1="937" y1="1785" x2="367" y2= "1785" />
   <line class="fil0 str3" x1="1833" y1="5395" x2="367" y2= "5395" />
   <line class="fil0 str3" x1="467" y1="2135" x2="467" y2= "5045" />
   <g id="Filled-1_1">
    <line class="fil0 str3" x1="467" y1="2135" x2="467" y2= "1785" />
    <polygon class="fil2 str3" points="517,2135 467,1785 417,2135 "/>
    <polygon class="fil2 str3" points="517,2135 417,2135 517,2135 467,1785 "/>
    <line class="fil0 str3" x1="517" y1="2135" x2="467" y2= "1785" />
    <line class="fil0 str3" x1="467" y1="1785" x2="417" y2= "2135" />
    <line class="fil0 str3" x1="417" y1="2135" x2="517" y2= "2135" />
   </g>
   <g id="Filled-1_2">
    <line class="fil0 str3" x1="467" y1="5045" x2="467" y2= "5395" />
    <polygon class="fil2 str3" points="417,5045 467,5395 517,5045 "/>
    <polygon class="fil2 str3" points="417,5045 517,5045 417,5045 467,5395 "/>
    <line class="fil0 str3" x1="417" y1="5045" x2="467" y2= "5395" />
    <line class="fil0 str3" x1="467" y1="5395" x2="517" y2= "5045" />
    <line class="fil0 str3" x1="517" y1="5045" x2="417" y2= "5045" />
   </g>
   <path class="fil1" d="M283 3666c5,-10 15,-16 33,-16 5,0 10,1 14,2l25 7c28,7 46,22 56,44 5,11 7,24 7,38l0 48c0,8 -4,12 -13,12 -8,0 -13,-4 -13,-12l0 -55c0,-11 -4,-21 -11,-31 -7,-10 -16,-16 -27,-19l-25 -7c-5,-1 -10,-2 -14,-2 -15,0 -23,10 -23,31l0 23c0,8 -4,12 -13,12 -8,0 -13,-4 -13,-12l0 -29c0,-15 -6,-28 -19,-39 -6,-5 -12,-8 -19,-10 -4,-1 -8,-2 -11,-2 -18,0 -26,10 -26,30l0 49c0,8 -4,12 -13,12 -8,0 -13,-4 -13,-12l0 -55c0,-19 9,-34 26,-43 8,-4 16,-6 25,-6 4,0 8,0 12,2 27,7 45,21 53,40z"/>
   <path id="1" class="fil1" d="M392 3552c0,-26 -12,-42 -37,-49l-25 -7c-5,-1 -10,-2 -14,-2 -16,0 -23,10 -23,31l0 39 62 17c4,1 7,2 9,2 8,0 15,-3 20,-9 5,-6 8,-13 8,-22zm25 7c0,18 -9,32 -27,42 -8,5 -16,7 -25,7 -3,0 -7,0 -10,-1l-75 -20c-28,-7 -51,-20 -70,-37 -21,-20 -35,-45 -42,-77 0,-1 0,-2 0,-3 0,-8 4,-13 12,-13 7,0 11,3 12,8 2,14 7,28 16,42 15,25 35,42 60,49l0 -37c0,-14 5,-26 14,-36 9,-9 21,-14 35,-14 5,0 10,1 14,2l25 7c29,8 48,22 56,43 4,10 6,23 6,39z"/>
  </g>
 </g>
 <g id="Маркировка">
  <metadata id="CorelCorpID_4Corel-Layer"/>
  <path class="fil3" d="M2790 4833l0 -82 23 0c14,0 23,4 29,11 6,7 9,17 9,31 0,14 -3,24 -10,31 -7,7 -15,10 -26,10l-24 0zm-54 -122l0 270 54 0 0 -108 29 0c13,0 25,-2 35,-5 11,-3 20,-8 27,-15 7,-7 13,-15 17,-25 4,-10 6,-22 6,-36 0,-10 -1,-20 -4,-30 -3,-10 -7,-18 -12,-26 -6,-8 -13,-14 -23,-18 -9,-5 -21,-7 -35,-7l-95 0z"/>
  <polygon id="1" class="fil3" points="2916,4711 2965,4980 3026,4980 3056,4785 3057,4785 3087,4980 3148,4980 3197,4711 3144,4711 3115,4910 3114,4910 3082,4711 3030,4711 2998,4910 2998,4910 2968,4711 "/>
  <path id="2" class="fil3" d="M3218 4711l0 270 54 0 0 -114 29 0c11,0 19,3 24,9 5,6 7,14 8,25l2 52c0,5 1,10 2,15 1,5 3,9 5,13l59 0 0 -2c-5,-3 -8,-8 -10,-15 -1,-8 -2,-19 -2,-33 0,-7 -1,-14 -1,-20 0,-6 -1,-11 -1,-16 -2,-15 -5,-26 -12,-33 -6,-7 -16,-11 -30,-13l0 -1c15,-3 27,-11 34,-22 7,-11 11,-26 11,-44 0,-23 -6,-41 -19,-52 -13,-11 -30,-17 -53,-17l-100 0zm54 118l0 -78 26 0c25,0 38,12 38,37 0,15 -4,25 -11,31 -7,6 -17,9 -30,9l-23 0z"/>
  <polygon class="fil3" points="5260,4711 5260,4980 5315,4980 5315,4860 5378,4860 5378,4980 5432,4980 5432,4711 5378,4711 5378,4814 5315,4814 5315,4711 "/>
  <path id="1" class="fil3" d="M5527 4940l0 -189 23 0c10,0 19,2 25,6 6,4 11,10 14,17 3,8 5,17 6,29 1,12 2,25 2,40 0,18 -1,34 -2,46 -1,12 -3,22 -7,30 -3,8 -8,13 -14,16 -6,3 -13,5 -23,5l-24 0zm-54 -230l0 270 86 0c18,0 33,-3 45,-8 12,-6 21,-14 28,-25 7,-11 12,-26 15,-43 3,-17 4,-38 4,-62 0,-20 -1,-38 -3,-54 -2,-16 -7,-30 -13,-41 -6,-11 -15,-20 -27,-26 -12,-6 -27,-9 -46,-9l-89 0z"/>
  <polygon id="2" class="fil3" points="5688,4711 5688,4980 5738,4980 5738,4765 5739,4765 5787,4980 5829,4980 5877,4765 5878,4765 5878,4980 5927,4980 5927,4711 5847,4711 5808,4901 5807,4901 5769,4711 "/>
  <polygon id="3" class="fil3" points="5969,4980 6023,4980 6023,4711 5969,4711 "/>
  <path class="fil3" d="M8178 4877l-26 -121 -1 0 -26 121 53 0zm7 -168l71 270 -57 0 -12 -57 -72 0 -12 57 -57 0 71 -270 67 0z"/>
  <path id="1" class="fil3" d="M8326 4709l-54 0 0 188c0,18 2,33 7,44 5,11 11,20 19,26 8,6 17,10 28,12 10,2 21,3 32,3 11,0 22,-1 32,-3 10,-2 20,-7 28,-13 8,-7 14,-15 19,-27 5,-11 7,-25 7,-42l0 -188 -54 0 0 188c0,7 0,13 -1,19 -1,6 -3,11 -5,15 -2,4 -6,7 -10,10 -4,2 -9,4 -16,4 -6,0 -12,-1 -16,-4 -4,-2 -7,-6 -10,-10 -2,-4 -4,-9 -5,-15 -1,-6 -1,-12 -1,-19l0 -188z"/>
  <polygon id="2" class="fil3" points="8467,4709 8529,4842 8461,4978 8521,4978 8560,4887 8598,4978 8660,4978 8592,4842 8655,4709 8596,4709 8561,4796 8527,4709 "/>
 </g>
</svg>
