<?xml version="1.0" encoding="UTF-8"?>
<!DOCTYPE svg PUBLIC "-//W3C//DTD SVG 1.1//EN" "http://www.w3.org/Graphics/SVG/1.1/DTD/svg11.dtd">
<!-- Creator: CorelDRAW X6 -->
<svg xmlns="http://www.w3.org/2000/svg" xml:space="preserve" width="116mm" height="38mm" version="1.1" style="shape-rendering:geometricPrecision; text-rendering:geometricPrecision; image-rendering:optimizeQuality; fill-rule:evenodd; clip-rule:evenodd"
viewBox="0 0 11600 3800"
 xmlns:xlink="http://www.w3.org/1999/xlink">
 <defs>
  <style type="text/css">
   <![CDATA[
    .str0 {stroke:black;stroke-width:12.7;stroke-linecap:round;stroke-linejoin:round}
    .str1 {stroke:black;stroke-width:12.7;stroke-linecap:round;stroke-linejoin:round}
    .fil0 {fill:none;fill-rule:nonzero}
   ]]>
  </style>
 </defs>
 <g id="Видимые_x0020_тонкие_x0020__x0028_ГОСТ_x0029_">
  <metadata id="CorelCorpID_0Corel-Layer"/>
  <g id="_1064568848">
   <line class="fil0 str0" x1="72" y1="1389" x2="1165" y2= "1535" />
   <line class="fil0 str0" x1="85" y1="1675" x2="72" y2= "1389" />
   <line class="fil0 str0" x1="85" y1="1675" x2="1177" y2= "1821" />
   <line class="fil0 str0" x1="85" y1="1319" x2="1158" y2= "1465" />
   <polyline class="fil0 str0" points="72,1389 79,1351 85,1319 "/>
   <polyline class="fil0 str0" points="91,1694 91,1687 85,1675 "/>
   <line class="fil0 str0" x1="377" y1="690" x2="390" y2= "684" />
   <line class="fil0 str0" x1="1387" y1="824" x2="377" y2= "690" />
   <line class="fil0 str0" x1="85" y1="1319" x2="377" y2= "690" />
   <line class="fil0 str0" x1="1177" y1="1840" x2="91" y2= "1694" />
   <line class="fil0 str0" x1="1387" y1="817" x2="390" y2= "684" />
   <line class="fil0 str0" x1="1012" y1="874" x2="828" y2= "849" />
   <polyline class="fil0 str0" points="771,970 828,849 828,830 1018,855 955,995 "/>
   <polyline class="fil0 str0" points="955,995 758,970 828,830 "/>
   <polyline class="fil0 str0" points="860,1198 796,1338 599,1313 "/>
   <line class="fil0 str0" x1="847" y1="1217" x2="669" y2= "1192" />
   <polyline class="fil0 str0" points="612,1313 669,1192 669,1173 860,1198 "/>
   <line class="fil0 str0" x1="599" y1="1313" x2="669" y2= "1173" />
   <polyline class="fil0 str0" points="5991,1478 5971,1490 5940,1490 "/>
   <polyline class="fil0 str0" points="5940,1490 5914,1484 5927,1452 "/>
   <line class="fil0 str0" x1="5927" y1="1452" x2="5952" y2= "1459" />
   <polyline class="fil0 str0" points="5952,1459 5984,1465 5991,1478 "/>
   <polyline class="fil0 str0" points="5978,1529 5952,1548 5933,1548 5908,1541 "/>
   <polyline class="fil0 str0" points="5908,1541 5889,1541 5908,1497 5933,1503 "/>
   <polyline class="fil0 str0" points="5933,1503 5965,1509 5978,1522 5978,1529 "/>
   <polyline class="fil0 str0" points="5908,1560 5946,1560 5971,1554 "/>
   <polyline class="fil0 str0" points="5959,1446 5908,1440 5857,1554 5908,1560 "/>
   <polyline class="fil0 str0" points="5978,1497 6003,1490 6016,1478 6022,1465 6010,1452 5991,1446 5959,1446 "/>
   <polyline class="fil0 str0" points="5978,1497 5978,1503 5978,1497 "/>
   <polyline class="fil0 str0" points="5971,1554 5991,1548 6003,1535 6003,1516 5978,1503 "/>
   <polyline class="fil0 str0" points="6232,1141 6289,1027 6264,1021 6219,1109 6187,1014 6149,1008 6092,1122 6118,1122 6162,1027 6162,1027 6206,1135 6232,1141 "/>
   <polyline class="fil0 str0" points="1698,894 1679,887 1666,881 1666,868 1673,855 "/>
   <polyline class="fil0 str0" points="1755,862 1768,836 1685,830 1685,830 1673,855 "/>
   <polyline class="fil0 str0" points="1755,862 1749,881 1736,894 1717,894 1698,894 "/>
   <polyline class="fil0 str0" points="1565,887 1539,881 1526,868 1526,849 1533,830 "/>
   <polyline class="fil0 str0" points="1533,830 1546,811 1653,824 1641,849 "/>
   <polyline class="fil0 str0" points="1641,849 1628,868 1615,881 1596,887 1565,887 "/>
   <polyline class="fil0 str0" points="1501,830 1488,862 1501,881 "/>
   <polyline class="fil0 str0" points="1787,868 1812,817 1520,779 1501,830 "/>
   <polyline class="fil0 str0" points="1647,887 1660,906 1698,919 1730,919 1755,906 1774,894 1787,868 "/>
   <line class="fil0 str0" x1="1641" y1="887" x2="1647" y2= "887" />
   <polyline class="fil0 str0" points="1501,881 1520,900 1558,913 1609,906 1641,887 "/>
   <polyline class="fil0 str0" points="1768,506 1711,506 1666,513 "/>
   <polyline class="fil0 str0" points="1755,532 1933,557 1946,532 1768,506 "/>
   <polyline class="fil0 str0" points="1717,608 1685,601 1660,595 1653,582 1653,557 1666,544 1692,532 1717,532 1755,532 "/>
   <polyline class="fil0 str0" points="1704,633 1888,659 1895,633 1717,608 "/>
   <polyline class="fil0 str0" points="1666,513 1641,532 1622,557 1615,582 1628,601 1660,620 1704,633 "/>
   <polyline class="fil0 str0" points="1653,652 1653,652 1603,646 "/>
   <polyline class="fil0 str0" points="1812,786 1838,767 1850,741 1857,716 1850,697 1825,678 1800,671 1768,671 1742,678 1704,703 1673,728 1647,741 1622,747 1590,728 1584,716 1590,703 1609,678 1653,652 "/>
   <polyline class="fil0 str0" points="1768,779 1768,786 1812,786 "/>
   <polyline class="fil0 str0" points="1603,646 1577,665 1558,697 1552,722 1558,747 1584,760 1615,773 1666,767 1704,747 1736,709 1761,697 1793,697 1819,709 1819,735 1800,760 1768,779 "/>
   <polyline class="fil0 str0" points="6111,1008 6086,1001 6054,989 6016,989 5978,1001 5952,1014 5933,1040 5927,1065 5940,1084 "/>
   <polyline class="fil0 str0" points="6098,1027 6105,1027 6111,1008 "/>
   <polyline class="fil0 str0" points="6041,1097 6003,1097 5978,1090 5965,1078 5959,1065 5959,1040 5971,1021 5991,1008 6016,1001 6041,1001 6079,1014 6098,1027 "/>
   <polyline class="fil0 str0" points="6067,1109 6092,1059 6022,1052 6016,1065 6060,1071 6041,1097 "/>
   <polyline class="fil0 str0" points="5940,1084 5959,1103 5997,1109 6035,1109 6067,1109 "/>
   <polyline class="fil0 str0" points="6422,1103 6403,1122 6378,1135 6352,1141 6321,1135 "/>
   <polyline class="fil0 str0" points="6321,1135 6302,1135 6346,1046 6365,1046 "/>
   <polyline class="fil0 str0" points="6365,1046 6410,1065 6429,1078 6422,1103 "/>
   <polyline class="fil0 str0" points="6314,1148 6352,1154 6391,1148 "/>
   <polyline class="fil0 str0" points="6372,1033 6327,1027 6270,1141 6314,1148 "/>
   <polyline class="fil0 str0" points="6391,1148 6429,1135 6448,1109 6454,1078 6435,1052 6410,1046 6372,1033 "/>
   <line class="fil0 str0" x1="6016" y1="1294" x2="5959" y2= "1287" />
   <polyline class="fil0 str0" points="6010,1243 6010,1236 5959,1287 "/>
   <line class="fil0 str0" x1="6010" y1="1236" x2="6016" y2= "1294" />
   <polyline class="fil0 str0" points="6016,1313 6016,1306 6022,1344 6048,1344 6035,1224 6003,1217 "/>
   <polyline class="fil0 str0" points="6003,1217 5889,1325 5914,1325 5946,1300 6016,1306 "/>
   <polyline class="fil0 str0" points="6200,1268 6200,1262 6175,1262 6156,1300 6092,1294 6086,1306 6156,1313 6137,1351 6156,1357 6175,1313 "/>
   <polyline class="fil0 str0" points="6175,1313 6238,1325 6245,1313 6181,1306 6200,1262 "/>
   <polyline class="fil0 str0" points="6098,1535 6105,1522 6029,1516 6022,1529 6098,1535 "/>
   <line class="fil0 str0" x1="6022" y1="1471" x2="6022" y2= "1471" />
   <line class="fil0 str0" x1="6003" y1="1529" x2="6003" y2= "1522" />
   <line class="fil0 str0" x1="1488" y1="868" x2="1488" y2= "862" />
   <line class="fil0 str0" x1="1615" y1="582" x2="1615" y2= "582" />
   <line class="fil0 str0" x1="1857" y1="722" x2="1857" y2= "716" />
   <line class="fil0 str0" x1="1552" y1="728" x2="1552" y2= "722" />
   <line class="fil0 str0" x1="5927" y1="1065" x2="5927" y2= "1065" />
   <line class="fil0 str0" x1="6454" y1="1090" x2="6454" y2= "1084" />
   <polyline class="fil0 str0" points="2847,519 2790,506 2758,468 2765,436 2796,398 2854,379 2917,379 2974,398 3006,430 3000,468 2968,500 2911,519 2847,519 "/>
   <polyline class="fil0 str0" points="2466,468 2409,449 2377,417 2377,386 2409,347 2466,328 2530,328 2587,347 2619,379 2619,417 2587,449 2530,468 2466,468 "/>
   <polyline class="fil0 str0" points="3235,570 3177,557 3146,525 3146,487 3177,449 3235,430 3298,430 3355,449 3387,481 3387,519 3355,551 3298,570 3235,570 "/>
   <polyline class="fil0 str0" points="1323,1319 1279,1306 1253,1281 1253,1249 "/>
   <line class="fil0 str0" x1="5851" y1="1916" x2="1323" y2= "1319" />
   <polyline class="fil0 str0" points="6219,1783 6181,1840 6118,1878 6035,1910 5946,1922 5851,1916 "/>
   <line class="fil0 str0" x1="6632" y1="900" x2="6219" y2= "1783" />
   <polyline class="fil0 str0" points="6422,690 6511,709 6581,747 6626,792 6645,843 6632,900 "/>
   <line class="fil0 str0" x1="1901" y1="93" x2="6422" y2= "690" />
   <polyline class="fil0 str0" points="1774,138 1800,106 1844,93 1901,93 "/>
   <line class="fil0 str0" x1="1253" y1="1249" x2="1342" y2= "1065" />
   <line class="fil0 str0" x1="1692" y1="316" x2="1774" y2= "138" />
   <line class="fil0 str0" x1="6733" y1="995" x2="6746" y2= "925" />
   <polyline class="fil0 str0" points="6422,690 6435,678 6441,671 "/>
   <polyline class="fil0 str0" points="1914,74 1907,81 1901,93 "/>
   <polyline class="fil0 str0" points="6321,1878 6270,1948 6187,2005 6073,2043 5952,2062 5832,2056 5832,2011 5838,1960 5851,1916 "/>
   <polyline class="fil0 str0" points="6359,2932 6365,2900 6314,2970 6232,3027 6124,3065 5997,3084 5876,3078 5876,3110 5889,3122 "/>
   <polyline class="fil0 str0" points="1158,1351 1177,1402 1228,1440 1304,1459 1304,1408 1311,1357 1323,1319 "/>
   <line class="fil0 str0" x1="1304" y1="1459" x2="5832" y2= "2056" />
   <polyline class="fil0 str0" points="1203,2373 1222,2424 1272,2462 1349,2481 1355,2513 1361,2519 "/>
   <polyline class="fil0 str0" points="5876,3078 1349,2481 1304,1459 "/>
   <line class="fil0 str0" x1="6499" y1="2627" x2="6365" y2= "2900" />
   <line class="fil0 str0" x1="5832" y1="2056" x2="5876" y2= "3078" />
   <line class="fil0 str0" x1="6321" y1="1878" x2="6733" y2= "995" />
   <polyline class="fil0 str0" points="6746,925 6740,874 6714,824 6683,779 6645,747 6549,697 6441,671 "/>
   <line class="fil0 str0" x1="6765" y1="1275" x2="6746" y2= "925" />
   <polyline class="fil0 str0" points="1692,176 1736,119 1793,87 1850,74 1914,74 "/>
   <line class="fil0 str0" x1="6441" y1="671" x2="1914" y2= "74" />
   <polyline class="fil0 str0" points="6359,2932 6327,2983 6276,3027 6225,3065 6162,3091 6098,3110 6029,3122 5959,3129 5889,3122 "/>
   <line class="fil0 str0" x1="1171" y1="1287" x2="1158" y2= "1351" />
   <line class="fil0 str0" x1="1171" y1="1287" x2="1692" y2= "176" />
   <polyline class="fil0 str0" points="1203,2373 1222,2443 1266,2487 1311,2513 1361,2519 "/>
   <line class="fil0 str0" x1="1361" y1="2519" x2="5889" y2= "3122" />
   <line class="fil0 str0" x1="1203" y1="2373" x2="1158" y2= "1351" />
   <line class="fil0 str0" x1="6359" y1="2932" x2="6505" y2= "2627" />
   <polyline class="fil0 str0" points="2847,519 2790,506 2758,468 2765,436 2796,398 2854,379 2917,379 2974,398 3006,430 3000,468 2968,500 2911,519 2847,519 "/>
   <polyline class="fil0 str0" points="2466,468 2409,449 2377,417 2377,386 2409,347 2466,328 2530,328 2587,347 2619,379 2619,417 2587,449 2530,468 2466,468 "/>
   <polyline class="fil0 str0" points="3235,570 3177,557 3146,525 3146,487 3177,449 3235,430 3298,430 3355,449 3387,481 3387,519 3355,551 3298,570 3235,570 "/>
   <polyline class="fil0 str0" points="6289,1649 6283,1643 5705,1567 "/>
   <polyline class="fil0 str0" points="5641,1497 5635,1529 5660,1554 5705,1567 "/>
   <line class="fil0 str0" x1="5667" y1="1440" x2="5641" y2= "1497" />
   <polyline class="fil0 str0" points="5787,1395 5737,1395 5692,1414 5667,1440 "/>
   <polyline class="fil0 str0" points="6289,1649 6365,1478 6365,1471 5787,1395 "/>
   <line class="fil0 str0" x1="6283" y1="1643" x2="6365" y2= "1471" />
   <polyline class="fil0 str0" points="6492,1211 6486,1205 5908,1128 "/>
   <polyline class="fil0 str0" points="5844,1059 5838,1090 5864,1116 5908,1128 "/>
   <line class="fil0 str0" x1="5870" y1="1001" x2="5844" y2= "1059" />
   <polyline class="fil0 str0" points="5991,957 5940,963 5895,976 5870,1001 "/>
   <polyline class="fil0 str0" points="6492,1211 6568,1040 6568,1033 5991,957 "/>
   <line class="fil0 str0" x1="6486" y1="1205" x2="6568" y2= "1033" />
   <polyline class="fil0 str0" points="6391,1427 6384,1427 5806,1351 "/>
   <polyline class="fil0 str0" points="5743,1281 5737,1306 5762,1332 5806,1351 "/>
   <line class="fil0 str0" x1="5768" y1="1224" x2="5743" y2= "1281" />
   <polyline class="fil0 str0" points="5889,1179 5838,1179 5794,1192 5768,1224 "/>
   <polyline class="fil0 str0" points="6391,1427 6467,1255 6467,1255 5889,1179 "/>
   <line class="fil0 str0" x1="6384" y1="1427" x2="6467" y2= "1255" />
   <line class="fil0 str0" x1="1977" y1="354" x2="1692" y2= "316" />
   <polyline class="fil0 str0" points="2047,424 2047,398 2022,373 1977,354 "/>
   <line class="fil0 str0" x1="1755" y1="1052" x2="2047" y2= "424" />
   <polyline class="fil0 str0" points="1628,1097 1685,1097 1730,1078 1755,1052 "/>
   <polyline class="fil0 str0" points="1342,1065 1342,1059 1628,1097 "/>
   <line class="fil0 str0" x1="1692" y1="316" x2="1342" y2= "1059" />
   <line class="fil0 str0" x1="5635" y1="1516" x2="5635" y2= "1516" />
   <line class="fil0 str0" x1="5838" y1="1084" x2="5838" y2= "1078" />
   <line class="fil0 str0" x1="5737" y1="1300" x2="5737" y2= "1294" />
   <line class="fil0 str0" x1="2054" y1="411" x2="2054" y2= "411" />
   <line class="fil0 str0" x1="7108" y1="1344" x2="7108" y2= "1344" />
   <polyline class="fil0 str0" points="7108,1344 7057,1319 6994,1319 6937,1325 6886,1351 "/>
   <line class="fil0 str0" x1="7007" y1="1560" x2="7007" y2= "1560" />
   <polyline class="fil0 str0" points="7007,1560 6956,1541 6892,1535 6835,1548 6784,1567 "/>
   <line class="fil0 str0" x1="6905" y1="1776" x2="6905" y2= "1776" />
   <polyline class="fil0 str0" points="6905,1776 6854,1757 6791,1751 6733,1763 6683,1789 "/>
   <line class="fil0 str0" x1="6448" y1="2621" x2="6505" y2= "2627" />
   <line class="fil0 str0" x1="7470" y1="2278" x2="7457" y2= "2049" />
   <line class="fil0 str0" x1="7489" y1="2278" x2="7476" y2= "2017" />
   <polyline class="fil0 str0" points="6479,1979 6473,1827 6492,1776 6645,1802 "/>
   <line class="fil0 str0" x1="6987" y1="1808" x2="7038" y2= "1706" />
   <polyline class="fil0 str0" points="7000,1808 7038,1719 7038,1706 "/>
   <line class="fil0 str0" x1="6854" y1="1421" x2="6880" y2= "1363" />
   <polyline class="fil0 str0" points="6880,1363 6854,1370 6835,1395 "/>
   <line class="fil0 str0" x1="6829" y1="1414" x2="6854" y2= "1421" />
   <line class="fil0 str0" x1="7114" y1="1713" x2="7070" y2= "1821" />
   <line class="fil0 str0" x1="6645" y1="1802" x2="6657" y2= "1776" />
   <line class="fil0 str0" x1="6619" y1="1795" x2="6657" y2= "1776" />
   <polyline class="fil0 str0" points="6689,1560 6695,1592 6727,1624 "/>
   <line class="fil0 str0" x1="6587" y1="1776" x2="6587" y2= "1789" />
   <line class="fil0 str0" x1="6664" y1="1656" x2="6651" y2= "1636" />
   <line class="fil0 str0" x1="6689" y1="1624" x2="6689" y2= "1649" />
   <line class="fil0 str0" x1="7292" y1="2697" x2="7280" y2= "2329" />
   <line class="fil0 str0" x1="7292" y1="2697" x2="7292" y2= "2697" />
   <polyline class="fil0 str0" points="6854,1421 6797,1440 6753,1471 6733,1509 6746,1548 6778,1579 "/>
   <polyline class="fil0 str0" points="6778,1579 6753,1592 6733,1611 "/>
   <line class="fil0 str0" x1="7261" y1="2322" x2="7280" y2= "2271" />
   <polyline class="fil0 str0" points="7229,2227 7267,2246 7280,2271 "/>
   <line class="fil0 str0" x1="7210" y1="2271" x2="7229" y2= "2227" />
   <polyline class="fil0 str0" points="7210,2271 7241,2291 7261,2322 "/>
   <polyline class="fil0 str0" points="7311,2316 7330,2316 7337,2297 "/>
   <line class="fil0 str0" x1="7337" y1="2284" x2="7337" y2= "2297" />
   <polyline class="fil0 str0" points="7337,2284 7324,2252 7286,2233 "/>
   <line class="fil0 str0" x1="7229" y1="2227" x2="7286" y2= "2233" />
   <polyline class="fil0 str0" points="7280,2271 7286,2316 7311,2316 "/>
   <line class="fil0 str0" x1="7292" y1="2697" x2="7349" y2= "2583" />
   <line class="fil0 str0" x1="7432" y1="2271" x2="7426" y2= "2119" />
   <polyline class="fil0 str0" points="6422,2589 6429,2608 6448,2621 "/>
   <line class="fil0 str0" x1="6765" y1="1440" x2="6753" y2= "1421" />
   <line class="fil0 str0" x1="6791" y1="1408" x2="6791" y2= "1427" />
   <line class="fil0 str0" x1="6746" y1="1275" x2="6511" y2= "1783" />
   <line class="fil0 str0" x1="6473" y1="1859" x2="6422" y2= "1973" />
   <line class="fil0 str0" x1="6479" y1="1979" x2="6422" y2= "1973" />
   <line class="fil0 str0" x1="6784" y1="1325" x2="6791" y2= "1325" />
   <line class="fil0 str0" x1="6746" y1="1275" x2="6778" y2= "1275" />
   <polyline class="fil0 str0" points="6422,1973 6403,1973 6391,1992 "/>
   <polyline class="fil0 str0" points="6746,1275 6733,1275 6721,1287 "/>
   <line class="fil0 str0" x1="7070" y1="1821" x2="6987" y2= "1808" />
   <polyline class="fil0 str0" points="6651,1706 6651,1751 6689,1789 6753,1808 6829,1808 6892,1783 6930,1744 6930,1700 6899,1662 6829,1643 6759,1649 6689,1668 6651,1706 "/>
   <line class="fil0 str0" x1="7261" y1="2322" x2="7280" y2= "2779" />
   <polyline class="fil0 str0" points="7095,1973 7197,2271 7210,2271 "/>
   <line class="fil0 str0" x1="7095" y1="1973" x2="7076" y2= "1960" />
   <polyline class="fil0 str0" points="7076,1960 7051,1954 7051,1948 7108,1954 7108,1910 6473,1827 "/>
   <line class="fil0 str0" x1="6422" y1="2589" x2="6391" y2= "1992" />
   <polyline class="fil0 str0" points="6505,2627 6511,2722 7280,2824 7280,2779 "/>
   <polyline class="fil0 str0" points="6987,2652 7019,2640 7032,2614 "/>
   <line class="fil0 str0" x1="6518" y1="2589" x2="6987" y2= "2652" />
   <polyline class="fil0 str0" points="6467,2538 6479,2570 6518,2589 "/>
   <line class="fil0 str0" x1="6448" y1="2087" x2="6467" y2= "2538" />
   <polyline class="fil0 str0" points="6492,2056 6460,2062 6448,2087 "/>
   <polyline class="fil0 str0" points="6524,1910 6530,2056 6492,2056 "/>
   <polyline class="fil0 str0" points="6568,1878 6537,1884 6524,1910 "/>
   <line class="fil0 str0" x1="6956" y1="1929" x2="6568" y2= "1878" />
   <polyline class="fil0 str0" points="7007,1973 6987,1948 6956,1929 "/>
   <line class="fil0 str0" x1="7032" y1="2614" x2="7007" y2= "1973" />
   <polyline class="fil0 str0" points="7210,1516 7140,1503 7140,1490 7216,1497 "/>
   <line class="fil0 str0" x1="7089" y1="1592" x2="7140" y2= "1490" />
   <line class="fil0 str0" x1="7102" y1="1592" x2="7140" y2= "1503" />
   <polyline class="fil0 str0" points="6753,1636 6689,1662 6645,1694 6632,1738 6657,1776 "/>
   <line class="fil0 str0" x1="6727" y1="1630" x2="6753" y2= "1636" />
   <line class="fil0 str0" x1="7038" y1="1719" x2="7108" y2= "1732" />
   <polyline class="fil0 str0" points="6753,1490 6753,1535 6791,1573 6854,1592 6930,1592 6994,1567 7032,1529 7032,1484 7000,1446 6930,1427 6860,1427 6791,1452 6753,1490 "/>
   <line class="fil0 str0" x1="7495" y1="2265" x2="7483" y2= "1992" />
   <line class="fil0 str0" x1="7495" y1="2259" x2="7495" y2= "2265" />
   <line class="fil0 str0" x1="7495" y1="2265" x2="7540" y2= "2170" />
   <line class="fil0 str0" x1="7584" y1="2081" x2="7591" y2= "2068" />
   <line class="fil0 str0" x1="7591" y1="2068" x2="7572" y2= "2075" />
   <line class="fil0 str0" x1="7565" y1="2075" x2="7572" y2= "2075" />
   <line class="fil0 str0" x1="7400" y1="2475" x2="7445" y2= "2373" />
   <line class="fil0 str0" x1="7362" y1="2481" x2="7356" y2= "2271" />
   <line class="fil0 str0" x1="7381" y1="2475" x2="7375" y2= "2233" />
   <polyline class="fil0 str0" points="6918,1211 6867,1243 6835,1281 6841,1325 6880,1363 "/>
   <line class="fil0 str0" x1="6892" y1="1211" x2="6918" y2= "1211" />
   <polyline class="fil0 str0" points="6791,1344 6797,1376 6829,1408 "/>
   <line class="fil0 str0" x1="6753" y1="1636" x2="6778" y2= "1579" />
   <line class="fil0 str0" x1="7038" y1="1706" x2="7114" y2= "1713" />
   <line class="fil0 str0" x1="7330" y1="2481" x2="7324" y2= "2316" />
   <polyline class="fil0 str0" points="7216,1497 7172,1598 7089,1592 "/>
   <line class="fil0 str0" x1="7394" y1="2475" x2="7381" y2= "2208" />
   <polyline class="fil0 str0" points="7108,1910 7432,1211 6797,1128 6778,1173 6930,1192 "/>
   <line class="fil0 str0" x1="6918" y1="1211" x2="6930" y2= "1192" />
   <polyline class="fil0 str0" points="7318,1281 7273,1382 7191,1370 7241,1268 7318,1281 "/>
   <polyline class="fil0 str0" points="6854,1275 6854,1319 6892,1357 6956,1376 7032,1376 7095,1351 7134,1313 7134,1268 7102,1230 7032,1211 6962,1211 6892,1236 6854,1275 "/>
   <line class="fil0 str0" x1="7578" y1="2189" x2="7534" y2= "2284" />
   <line class="fil0 str0" x1="7489" y1="2379" x2="7445" y2= "2468" />
   <line class="fil0 str0" x1="7394" y1="2576" x2="7280" y2= "2824" />
   <line class="fil0 str0" x1="7603" y1="2081" x2="7603" y2= "2094" />
   <line class="fil0 str0" x1="7280" y1="2779" x2="7375" y2= "2576" />
   <line class="fil0 str0" x1="7426" y1="2468" x2="7470" y2= "2379" />
   <line class="fil0 str0" x1="7515" y1="2284" x2="7559" y2= "2183" />
   <line class="fil0 str0" x1="7603" y1="2087" x2="7603" y2= "2081" />
   <line class="fil0 str0" x1="7280" y1="2329" x2="7286" y2= "2316" />
   <line class="fil0 str0" x1="7603" y1="2081" x2="7591" y2= "1763" />
   <line class="fil0 str0" x1="7584" y1="1636" x2="7584" y2= "1624" />
   <line class="fil0 str0" x1="7584" y1="1624" x2="7578" y2= "1630" />
   <line class="fil0 str0" x1="7591" y1="2068" x2="7578" y2= "1795" />
   <polyline class="fil0 str0" points="7432,1211 7438,1262 7108,1954 "/>
   <line class="fil0 str0" x1="7057" y1="1948" x2="7051" y2= "1954" />
   <line class="fil0 str0" x1="7083" y1="1954" x2="7076" y2= "1960" />
   <polyline class="fil0 str0" points="7426,1281 7527,1573 7197,2271 "/>
   <line class="fil0 str0" x1="7108" y1="1954" x2="7095" y2= "1973" />
   <line class="fil0 str0" x1="7572" y1="1630" x2="7286" y2= "2233" />
   <line class="fil0 str0" x1="7572" y1="1630" x2="7515" y2= "1624" />
   <line class="fil0 str0" x1="7515" y1="1624" x2="7534" y2= "1573" />
   <line class="fil0 str0" x1="7534" y1="1573" x2="7527" y2= "1573" />
   <line class="fil0 str0" x1="7622" y1="1694" x2="7337" y2= "2297" />
   <line class="fil0 str0" x1="7622" y1="1700" x2="7622" y2= "1694" />
   <line class="fil0 str0" x1="7622" y1="1681" x2="7337" y2= "2284" />
   <line class="fil0 str0" x1="7622" y1="1694" x2="7622" y2= "1681" />
   <polyline class="fil0 str0" points="7622,1681 7603,1649 7572,1630 "/>
   <polyline class="fil0 str0" points="7241,1268 7241,1287 7203,1376 "/>
   <line class="fil0 str0" x1="7311" y1="1294" x2="7241" y2= "1287" />
   <line class="fil0 str0" x1="6784" y1="1325" x2="6778" y2= "1173" />
   <polyline class="fil0 str0" points="6886,1211 6905,1198 6930,1192 "/>
   <polyline class="fil0 str0" points="7534,1573 7572,1592 7584,1624 "/>
   <line class="fil0 str0" x1="7572" y1="2075" x2="7559" y2= "1833" />
   <line class="fil0 str0" x1="7534" y1="2062" x2="7527" y2= "1903" />
   <line class="fil0 str0" x1="6822" y1="1421" x2="6835" y2= "1395" />
   <line class="fil0 str0" x1="6689" y1="1643" x2="6689" y2= "1560" />
   <line class="fil0 str0" x1="6587" y1="1789" x2="6587" y2= "1776" />
   <path class="fil0 str1" d="M6688 1593c-22,5 -38,26 -37,49"/>
   <line class="fil0 str0" x1="7292" y1="2697" x2="7280" y2= "2322" />
   <polyline class="fil0 str0" points="6829,1414 6778,1433 6733,1465 6695,1503 6689,1560 "/>
   <path class="fil0 str1" d="M6789 1371c-22,5 -38,26 -37,49"/>
   <line class="fil0 str0" x1="6721" y1="1287" x2="6397" y2= "1979" />
   <polyline class="fil0 str0" points="6727,1630 6676,1649 6632,1681 6594,1725 6587,1776 "/>
   <line class="fil0 str0" x1="7495" y1="2259" x2="7483" y2= "1992" />
   <polyline class="fil0 str0" points="6892,1211 6854,1230 6816,1262 6797,1300 6791,1344 "/>
   <line class="fil0 str0" x1="6721" y1="1636" x2="6733" y2= "1611" />
   <line class="fil0 str0" x1="7394" y1="2475" x2="7381" y2= "2208" />
   <line class="fil0 str0" x1="6791" y1="1427" x2="6791" y2= "1344" />
   <line class="fil0 str0" x1="7622" y1="1700" x2="7337" y2= "2310" />
   <line class="fil0 str0" x1="6886" y1="1211" x2="6886" y2= "1211" />
   <line class="fil0 str0" x1="6403" y1="2456" x2="6416" y2= "2437" />
   <line class="fil0 str0" x1="6721" y1="1160" x2="6727" y2= "1275" />
   <line class="fil0 str0" x1="6606" y1="1408" x2="6721" y2= "1160" />
   <polyline class="fil0 str0" points="6594,1433 6594,1421 6606,1402 6606,1408 "/>
   <line class="fil0 str0" x1="6594" y1="1433" x2="6505" y2= "1624" />
   <polyline class="fil0 str0" points="6492,1649 6492,1643 6505,1617 6505,1624 "/>
   <line class="fil0 str0" x1="6378" y1="1897" x2="6492" y2= "1649" />
   <line class="fil0 str0" x1="6378" y1="1897" x2="6403" y2= "2456" />
   <polyline class="fil0 str0" points="6467,1814 6486,1776 6492,1706 6410,1878 "/>
   <line class="fil0 str0" x1="6467" y1="1814" x2="6467" y2= "1833" />
   <line class="fil0 str0" x1="6435" y1="1878" x2="6441" y2= "1878" />
   <polyline class="fil0 str0" points="6410,1878 6422,1916 6435,1878 "/>
   <polyline class="fil0 str0" points="6613,1440 6695,1268 6689,1338 6670,1376 "/>
   <line class="fil0 str0" x1="6670" y1="1376" x2="6670" y2= "1395" />
   <line class="fil0 str0" x1="6638" y1="1446" x2="6645" y2= "1446" />
   <polyline class="fil0 str0" points="6638,1446 6626,1484 6613,1440 "/>
   <line class="fil0 str0" x1="6537" y1="1662" x2="6543" y2= "1662" />
   <polyline class="fil0 str0" points="6537,1662 6524,1700 6511,1656 6594,1490 6587,1554 6568,1592 "/>
   <line class="fil0 str0" x1="6568" y1="1592" x2="6568" y2= "1611" />
   <line class="fil0 str0" x1="6549" y1="1649" x2="6549" y2= "1649" />
   <line class="fil0 str0" x1="6651" y1="1433" x2="6651" y2= "1433" />
   <line class="fil0 str0" x1="6384" y1="2449" x2="6403" y2= "2456" />
   <line class="fil0 str0" x1="6448" y1="1871" x2="6448" y2= "1871" />
   <polyline class="fil0 str0" points="8042,2208 8016,2227 7997,2278 7978,2354 7965,2437 7965,2513 7972,2564 7991,2589 "/>
   <line class="fil0 str0" x1="9394" y1="2392" x2="9394" y2= "2392" />
   <line class="fil0 str0" x1="9356" y1="2767" x2="9356" y2= "2767" />
   <polyline class="fil0 str0" points="10467,3395 10429,3434 10397,3434 10378,3408 10366,3345 10372,3268 10397,3192 10429,3122 10461,3078 10493,3072 10518,3097 10531,3148 "/>
   <polyline class="fil0 str0" points="9204,2748 9178,2754 9159,2779 9127,2837 9102,2906 9089,2983 9096,3046 9108,3097 9134,3122 "/>
   <polyline class="fil0 str0" points="10455,3389 10423,3414 10397,3408 10378,3370 10378,3307 10391,3230 10416,3167 10448,3116 10480,3091 10505,3103 10518,3148 "/>
   <line class="fil0 str0" x1="8042" y1="2208" x2="9394" y2= "2392" />
   <line class="fil0 str0" x1="7991" y1="2589" x2="9356" y2= "2767" />
   <line class="fil0 str0" x1="9216" y1="2748" x2="10493" y2= "3072" />
   <line class="fil0 str0" x1="9134" y1="3122" x2="10404" y2= "3440" />
   <polyline class="fil0 str0" points="9134,3122 9007,3084 8880,3040 8759,2989 8651,2932 8550,2862 8454,2792 8372,2716 8296,2627 "/>
   <polyline class="fil0 str0" points="8130,2221 8130,2075 8156,1929 8207,1783 8289,1649 8384,1522 8505,1402 8645,1287 8804,1192 8975,1103 9159,1027 9350,963 9547,919 9750,887 9953,868 10150,862 10347,874 "/>
   <polyline class="fil0 str0" points="10296,1255 10124,1243 9947,1249 9762,1268 9585,1300 9407,1344 9242,1402 9083,1471 8937,1554 8816,1636 8708,1732 8626,1827 8562,1922 8524,2017 8505,2106 8511,2189 8531,2278 "/>
   <polyline class="fil0 str0" points="10347,874 10493,894 10632,925 10759,963 10886,1008 11001,1059 11102,1122 11198,1186 11280,1268 11350,1351 11407,1440 11445,1541 11464,1643 11471,1751 11458,1852 11426,1960 11382,2056 11325,2151 11248,2240 11159,2322 11064,2398 10956,2475 10836,2538 10709,2595 10575,2646 10436,2691 10289,2729 10137,2754 9978,2773 9826,2786 9667,2792 9515,2786 9356,2767 "/>
   <polyline class="fil0 str0" points="9394,2392 9521,2405 9648,2411 9781,2411 9915,2398 10042,2386 10169,2367 10296,2335 10410,2303 10524,2259 10626,2214 10721,2170 10810,2113 10886,2062 10950,2005 11001,1948 11039,1890 11071,1833 11083,1789 11090,1700 11064,1611 11039,1567 11001,1522 10950,1478 10886,1433 10810,1389 10721,1351 10626,1319 10524,1287 10410,1268 10296,1255 "/>
   <polyline class="fil0 str0" points="11083,3446 11071,3459 11058,3446 11064,3408 11077,3376 11090,3364 11102,3383 "/>
   <polyline class="fil0 str0" points="11090,3376 11071,3389 11064,3427 11071,3446 "/>
   <line class="fil0 str0" x1="7388" y1="2265" x2="7978" y2= "2341" />
   <line class="fil0 str0" x1="7394" y1="2367" x2="7794" y2= "2418" />
   <line class="fil0 str0" x1="10404" y1="3192" x2="11090" y2= "3364" />
   <line class="fil0 str0" x1="10550" y1="3332" x2="11071" y2= "3459" />
   <polyline class="fil0 str0" points="11369,3459 11363,3497 11344,3516 11337,3497 11344,3465 11356,3446 11369,3459 "/>
   <line class="fil0 str0" x1="11090" y1="3376" x2="11356" y2= "3446" />
   <line class="fil0 str0" x1="11071" y1="3446" x2="11344" y2= "3516" />
   <polyline class="fil0 str0" points="11204,3668 11198,3707 11178,3726 11172,3707 11178,3675 11191,3656 11204,3668 "/>
   <polyline class="fil0 str0" points="10912,3656 10899,3637 10912,3599 10924,3586 "/>
   <line class="fil0 str0" x1="10924" y1="3586" x2="11198" y2= "3656" />
   <line class="fil0 str0" x1="10912" y1="3656" x2="11178" y2= "3726" />
   <polyline class="fil0 str0" points="10924,3656 10905,3668 10899,3649 10899,3618 10912,3586 10931,3573 10937,3592 "/>
   <polyline class="fil0 str0" points="10785,3618 10842,3649 10905,3668 "/>
   <polyline class="fil0 str0" points="10842,3535 10880,3554 10931,3573 "/>
   <line class="fil0 str0" x1="10537" y1="3319" x2="10842" y2= "3535" />
   <line class="fil0 str0" x1="10480" y1="3402" x2="10785" y2= "3618" />
   <polyline class="fil0 str0" points="10391,3364 10436,3376 10480,3402 "/>
   <polyline class="fil0 str0" points="10416,3268 10480,3287 10537,3319 "/>
   <line class="fil0 str0" x1="10385" y1="3256" x2="10416" y2= "3268" />
   <line class="fil0 str0" x1="10378" y1="3357" x2="10391" y2= "3364" />
   <polyline class="fil0 str0" points="7864,2513 7915,2506 7965,2513 "/>
   <polyline class="fil0 str0" points="7845,2411 7908,2411 7972,2411 "/>
   <line class="fil0 str0" x1="7368" y1="2481" x2="7845" y2= "2411" />
   <line class="fil0 str0" x1="7381" y1="2576" x2="7864" y2= "2513" />
   <line class="fil0 str0" x1="7292" y1="2583" x2="7381" y2= "2576" />
   <line class="fil0 str0" x1="7286" y1="2481" x2="7368" y2= "2481" />
   <polyline class="fil0 str0" points="11496,3287 11509,3307 11521,3287 11528,3249 11521,3237 11502,3256 11496,3287 "/>
   <polyline class="fil0 str0" points="11255,3167 11236,3180 11229,3218 11236,3237 "/>
   <polyline class="fil0 str0" points="11267,3173 11255,3154 11242,3167 11223,3199 11223,3237 11229,3249 11248,3237 "/>
   <line class="fil0 str0" x1="11502" y1="3307" x2="11236" y2= "3237" />
   <line class="fil0 str0" x1="11521" y1="3237" x2="11255" y2= "3167" />
   <polyline class="fil0 str0" points="11255,3154 11185,3141 11115,3141 "/>
   <polyline class="fil0 str0" points="11229,3249 11172,3243 11115,3237 "/>
   <line class="fil0 str0" x1="11115" y1="3237" x2="10658" y2= "3256" />
   <line class="fil0 str0" x1="11115" y1="3141" x2="10626" y2= "3154" />
   <polyline class="fil0 str0" points="10626,3154 10563,3154 10505,3141 "/>
   <line class="fil0 str0" x1="10505" y1="3141" x2="10436" y2= "3129" />
   <line class="fil0 str0" x1="7997" y1="2278" x2="7953" y2= "2259" />
   <line class="fil0 str0" x1="7870" y1="2329" x2="7540" y2= "2170" />
   <line class="fil0 str0" x1="7953" y1="2259" x2="7584" y2= "2081" />
   <line class="fil0 str0" x1="7584" y1="2081" x2="7489" y2= "2049" />
   <line class="fil0 str0" x1="7540" y1="2170" x2="7495" y2= "2151" />
  </g>
 </g>
</svg>
