<?xml version="1.0" encoding="UTF-8"?>
<!DOCTYPE svg PUBLIC "-//W3C//DTD SVG 1.1//EN" "http://www.w3.org/Graphics/SVG/1.1/DTD/svg11.dtd">
<!-- Creator: CorelDRAW X6 -->
<svg xmlns="http://www.w3.org/2000/svg" xml:space="preserve" width="84mm" height="68mm" version="1.1" style="shape-rendering:geometricPrecision; text-rendering:geometricPrecision; image-rendering:optimizeQuality; fill-rule:evenodd; clip-rule:evenodd"
viewBox="0 0 8400 6800"
 xmlns:xlink="http://www.w3.org/1999/xlink">
 <defs>
  <style type="text/css">
   <![CDATA[
    .str0 {stroke:black;stroke-width:20;stroke-linejoin:bevel}
    .str2 {stroke:black;stroke-width:34.99;stroke-linejoin:bevel}
    .str1 {stroke:black;stroke-width:50;stroke-linejoin:bevel}
    .fil0 {fill:none}
    .fil1 {fill:#2B2A29;fill-rule:nonzero}
    .fil2 {fill:black;fill-rule:nonzero}
   ]]>
  </style>
 </defs>
 <g id="OPCB-221B">
  <metadata id="CorelCorpID_0Corel-Layer"/>
  <g id="_836864400">
   <g>
    <line class="fil0 str0" x1="1090" y1="5089" x2="1090" y2= "2149" />
    <path class="fil0 str0" d="M1090 5089c0,40 16,78 44,106 28,28 66,44 106,44"/>
    <line class="fil0 str0" x1="7310" y1="5089" x2="7310" y2= "2149" />
    <path class="fil0 str0" d="M6210 4089c0,-83 -67,-150 -150,-150 -83,0 -150,67 -150,150 0,83 67,150 150,150 83,0 150,-67 150,-150z"/>
    <path class="fil0 str0" d="M7315 2052c0,-45 -53,-88 -146,-120 -94,-32 -221,-50 -354,-50"/>
    <path class="fil0 str0" d="M1585 1881c-133,0 -260,18 -354,50 -94,32 -146,75 -146,120"/>
    <line class="fil0 str0" x1="6815" y1="1881" x2="1585" y2= "1881" />
    <line class="fil0 str0" x1="7310" y1="2149" x2="1090" y2= "2149" />
    <path class="fil0 str0" d="M7160 5239c83,0 150,-67 150,-150"/>
    <line class="fil0 str0" x1="2110" y1="5239" x2="1155" y2= "5239" />
    <line class="fil0 str0" x1="7245" y1="5239" x2="6290" y2= "5239" />
   </g>
   <g>
    <path class="fil0 str1" d="M7315 1930c0,-45 -53,-88 -146,-120 -94,-32 -221,-50 -354,-50"/>
    <path class="fil0 str1" d="M1585 1759c-133,0 -260,18 -354,50 -94,32 -146,75 -146,120"/>
    <line class="fil0 str1" x1="6815" y1="1759" x2="1585" y2= "1759" />
    <line class="fil0 str1" x1="7315" y1="2052" x2="7315" y2= "1930" />
    <line class="fil0 str1" x1="7315" y1="2169" x2="7310" y2= "2169" />
    <line class="fil0 str1" x1="7315" y1="2169" x2="7315" y2= "2189" />
    <line class="fil0 str1" x1="7315" y1="2052" x2="7315" y2= "2144" />
    <line class="fil0 str1" x1="7315" y1="2169" x2="7315" y2= "2144" />
    <line class="fil0 str1" x1="7495" y1="4989" x2="7495" y2= "2869" />
    <line class="fil0 str1" x1="7495" y1="2869" x2="7315" y2= "2189" />
    <line class="fil0 str1" x1="1085" y1="2189" x2="905" y2= "2869" />
    <line class="fil0 str1" x1="905" y1="2869" x2="905" y2= "4989" />
    <line class="fil0 str1" x1="1085" y1="1930" x2="1085" y2= "2052" />
    <line class="fil0 str1" x1="1085" y1="2189" x2="1085" y2= "2169" />
    <line class="fil0 str1" x1="1085" y1="2144" x2="1085" y2= "2169" />
    <line class="fil0 str1" x1="1085" y1="2144" x2="1085" y2= "2052" />
    <line class="fil0 str1" x1="1090" y1="2169" x2="1085" y2= "2169" />
    <path class="fil0 str1" d="M905 4989c0,66 26,130 73,177 47,47 110,73 177,73"/>
    <line class="fil0 str1" x1="100" y1="5239" x2="100" y2= "5369" />
    <line class="fil0 str1" x1="300" y1="5239" x2="100" y2= "5239" />
    <line class="fil0 str1" x1="100" y1="5369" x2="300" y2= "5369" />
    <line class="fil0 str1" x1="1910" y1="5369" x2="2110" y2= "5369" />
    <line class="fil0 str1" x1="2110" y1="5239" x2="2110" y2= "5369" />
    <line class="fil0 str1" x1="300" y1="5239" x2="1155" y2= "5239" />
    <line class="fil0 str1" x1="1910" y1="5369" x2="300" y2= "5369" />
    <line class="fil0 str1" x1="6290" y1="5239" x2="6290" y2= "5369" />
    <line class="fil0 str1" x1="6290" y1="5369" x2="6490" y2= "5369" />
    <line class="fil0 str1" x1="7245" y1="5239" x2="8100" y2= "5239" />
    <line class="fil0 str1" x1="8100" y1="5369" x2="6490" y2= "5369" />
    <line class="fil0 str1" x1="8300" y1="5239" x2="8100" y2= "5239" />
    <line class="fil0 str1" x1="8100" y1="5369" x2="8300" y2= "5369" />
    <line class="fil0 str1" x1="8300" y1="5239" x2="8300" y2= "5369" />
    <path class="fil0 str1" d="M7245 5239c138,0 250,-112 250,-250"/>
    <line class="fil0 str1" x1="2110" y1="5239" x2="6290" y2= "5239" />
   </g>
  </g>
 </g>
 <g id="Разьемы_x0020_под_x0020_наклейкой">
  <metadata id="CorelCorpID_1Corel-Layer"/>
  <g id="_831669968">
   <path class="fil0 str0" d="M2740 4152c0,81 49,154 124,185"/>
   <path class="fil0 str0" d="M2864 4337c4,2 8,2 11,2"/>
   <line class="fil0 str0" x1="3425" y1="4339" x2="2875" y2= "4339" />
   <path class="fil0 str0" d="M3425 4339c4,0 8,-1 11,-2"/>
   <path class="fil0 str0" d="M3436 4337c75,-31 124,-104 124,-185"/>
   <line class="fil0 str0" x1="3560" y1="3989" x2="3560" y2= "4152" />
   <path class="fil0 str0" d="M3560 3989c0,-8 -3,-16 -9,-21 -6,-6 -13,-9 -21,-9"/>
   <line class="fil0 str0" x1="2770" y1="3959" x2="3530" y2= "3959" />
   <path class="fil0 str0" d="M2770 3959c-8,0 -16,3 -21,9 -6,6 -9,13 -9,21"/>
   <line class="fil0 str0" x1="2740" y1="4152" x2="2740" y2= "3989" />
   <path class="fil0 str0" d="M4160 4679c0,8 3,16 9,21 6,6 13,9 21,9"/>
   <line class="fil0 str0" x1="5380" y1="4709" x2="4190" y2= "4709" />
   <path class="fil0 str0" d="M5380 4709c17,0 30,-13 30,-30"/>
   <line class="fil0 str0" x1="5410" y1="4519" x2="5410" y2= "4679" />
   <path class="fil0 str0" d="M5410 4519c0,-8 -3,-16 -9,-21 -6,-6 -13,-9 -21,-9"/>
   <line class="fil0 str0" x1="4190" y1="4489" x2="5380" y2= "4489" />
   <path class="fil0 str0" d="M4190 4489c-8,0 -16,3 -21,9 -6,6 -9,13 -9,21"/>
   <line class="fil0 str0" x1="4160" y1="4679" x2="4160" y2= "4519" />
   <path class="fil0 str0" d="M5510 4339c17,0 30,-13 30,-30"/>
   <line class="fil0 str0" x1="5540" y1="3949" x2="5540" y2= "4309" />
   <path class="fil0 str0" d="M5540 3949c0,-8 -3,-16 -9,-21 -6,-6 -13,-9 -21,-9"/>
   <line class="fil0 str0" x1="3910" y1="3919" x2="5510" y2= "3919" />
   <path class="fil0 str0" d="M3910 3919c-8,0 -16,3 -21,9 -6,6 -9,13 -9,21"/>
   <line class="fil0 str0" x1="3880" y1="4309" x2="3880" y2= "3949" />
   <path class="fil0 str0" d="M3880 4309c0,8 3,16 9,21 6,6 13,9 21,9"/>
   <line class="fil0 str0" x1="5510" y1="4339" x2="3910" y2= "4339" />
  </g>
 </g>
 <g id="Маркировка">
  <metadata id="CorelCorpID_2Corel-Layer"/>
  <polygon class="fil1" points="4523,4818 4523,5020 4560,5020 4560,4859 4561,4859 4597,5020 4628,5020 4664,4859 4665,4859 4665,5020 4702,5020 4702,4818 4642,4818 4613,4961 4612,4961 4583,4818 "/>
  <polygon id="1" class="fil1" points="4844,4818 4731,4818 4731,5020 4846,5020 4846,4987 4772,4987 4772,4932 4839,4932 4839,4899 4772,4899 4772,4852 4844,4852 "/>
  <polygon id="2" class="fil1" points="4868,4818 4868,5020 4905,5020 4905,4859 4905,4859 4941,5020 4973,5020 5009,4859 5009,4859 5009,5020 5047,5020 5047,4818 4986,4818 4957,4961 4957,4961 4928,4818 "/>
 </g>
 <g id="Выноски_x0020_текст">
  <metadata id="CorelCorpID_3Corel-Layer"/>
  <path class="fil2" d="M7035 6389c36,0 59,-17 68,-52l9 -35c2,-7 3,-13 3,-19 0,-22 -14,-33 -43,-33l-54 0 -23 86c-1,5 -2,9 -2,13 0,12 4,21 12,28 8,7 18,11 30,11zm-9 35c-25,0 -44,-13 -59,-38 -6,-11 -9,-23 -9,-34 0,-5 1,-9 2,-14l28 -105c10,-39 28,-71 52,-97 27,-29 63,-49 106,-59 1,0 3,0 4,0 12,0 17,6 17,17 0,10 -4,15 -12,16 -19,3 -39,10 -58,22 -35,21 -58,49 -68,83l52 0c20,0 36,6 50,19 13,13 20,29 20,49 0,7 -1,13 -2,19l-9 35c-11,41 -31,66 -59,78 -14,6 -32,9 -54,9z"/>
 </g>
 <g id="Выноски_x0020_линии">
  <metadata id="CorelCorpID_4Corel-Layer"/>
  <g id="_831660208">
   <line class="fil0 str2" x1="5214" y1="4709" x2="6726" y2= "6646" />
   <line class="fil0 str2" x1="6726" y1="6646" x2="7514" y2= "6646" />
  </g>
 </g>
</svg>
