<?xml version="1.0" encoding="UTF-8"?>
<!DOCTYPE svg PUBLIC "-//W3C//DTD SVG 1.1//EN" "http://www.w3.org/Graphics/SVG/1.1/DTD/svg11.dtd">
<!-- Creator: CorelDRAW X6 -->
<svg xmlns="http://www.w3.org/2000/svg" xml:space="preserve" width="84mm" height="68mm" version="1.1" style="shape-rendering:geometricPrecision; text-rendering:geometricPrecision; image-rendering:optimizeQuality; fill-rule:evenodd; clip-rule:evenodd"
viewBox="0 0 8400 6800"
 xmlns:xlink="http://www.w3.org/1999/xlink">
 <defs>
  <style type="text/css">
   <![CDATA[
    .str0 {stroke:black;stroke-width:20;stroke-linejoin:bevel}
    .str2 {stroke:black;stroke-width:34.99;stroke-linejoin:bevel}
    .str3 {stroke:black;stroke-width:34.99;stroke-linecap:round;stroke-linejoin:round}
    .str1 {stroke:black;stroke-width:50;stroke-linejoin:bevel}
    .fil0 {fill:none}
    .fil3 {fill:#2B2A29}
    .fil1 {fill:black}
    .fil4 {fill:#2B2A29;fill-rule:nonzero}
    .fil2 {fill:black;fill-rule:nonzero}
   ]]>
  </style>
 </defs>
 <g id="OPCB-221B">
  <metadata id="CorelCorpID_0Corel-Layer"/>
  <g id="_851331664">
   <g>
    <line class="fil0 str0" x1="7345" y1="3600" x2="7345" y2= "4060" />
    <path class="fil0 str0" d="M7345 3600c0,-5 -2,-10 -6,-14 -4,-4 -9,-6 -14,-6"/>
    <line class="fil0 str0" x1="7165" y1="3580" x2="7325" y2= "3580" />
    <path class="fil0 str0" d="M7165 3580c-5,0 -10,2 -14,6 -4,4 -6,9 -6,14"/>
    <line class="fil0 str0" x1="7145" y1="4060" x2="7145" y2= "3600" />
    <path class="fil0 str0" d="M7145 4060c0,5 2,10 6,14 4,4 9,6 14,6"/>
    <line class="fil0 str0" x1="7325" y1="4080" x2="7165" y2= "4080" />
    <path class="fil0 str0" d="M7325 4080c11,0 20,-9 20,-20"/>
    <path class="fil0 str0" d="M1235 4080c11,0 20,-9 20,-20"/>
    <line class="fil0 str0" x1="1235" y1="4080" x2="1075" y2= "4080" />
    <path class="fil0 str0" d="M1055 4060c0,5 2,10 6,14 4,4 9,6 14,6"/>
    <line class="fil0 str0" x1="1055" y1="4060" x2="1055" y2= "3600" />
    <path class="fil0 str0" d="M1075 3580c-5,0 -10,2 -14,6 -4,4 -6,9 -6,14"/>
    <line class="fil0 str0" x1="1075" y1="3580" x2="1235" y2= "3580" />
    <path class="fil0 str0" d="M1255 3600c0,-5 -2,-10 -6,-14 -4,-4 -9,-6 -14,-6"/>
    <line class="fil0 str0" x1="1255" y1="3600" x2="1255" y2= "4060" />
    <line class="fil0 str0" x1="7310" y1="4070" x2="7310" y2= "3590" />
    <line class="fil0 str0" x1="7180" y1="4070" x2="7310" y2= "4070" />
    <line class="fil0 str0" x1="7180" y1="3590" x2="7180" y2= "4070" />
    <line class="fil0 str0" x1="7310" y1="3590" x2="7180" y2= "3590" />
    <line class="fil0 str0" x1="1220" y1="3590" x2="1090" y2= "3590" />
    <line class="fil0 str0" x1="1220" y1="4070" x2="1220" y2= "3590" />
    <line class="fil0 str0" x1="1090" y1="4070" x2="1220" y2= "4070" />
    <line class="fil0 str0" x1="1090" y1="3590" x2="1090" y2= "4070" />
    <path class="fil0 str0" d="M5425 3030c0,-13 -5,-26 -15,-35 -9,-9 -22,-15 -35,-15"/>
    <line class="fil0 str0" x1="3755" y1="2980" x2="5375" y2= "2980" />
    <path class="fil0 str0" d="M3755 2980c-13,0 -26,5 -35,15 -9,9 -15,22 -15,35"/>
    <line class="fil0 str0" x1="3705" y1="4390" x2="3705" y2= "3030" />
    <path class="fil0 str0" d="M3705 4390c0,13 5,26 15,35 9,9 22,15 35,15"/>
    <line class="fil0 str0" x1="5375" y1="4440" x2="3755" y2= "4440" />
    <path class="fil0 str0" d="M5375 4440c28,0 50,-22 50,-50"/>
    <line class="fil0 str0" x1="5425" y1="3030" x2="5425" y2= "4390" />
    <path class="fil0 str0" d="M5605 2890c-13,0 -26,5 -35,15 -9,9 -15,22 -15,35"/>
    <line class="fil0 str0" x1="5555" y1="4390" x2="5555" y2= "2940" />
    <path class="fil0 str0" d="M5555 4390c0,13 5,26 15,35 9,9 22,15 35,15"/>
    <line class="fil0 str0" x1="6315" y1="4440" x2="5605" y2= "4440" />
    <path class="fil0 str0" d="M6315 4440c28,0 50,-22 50,-50"/>
    <line class="fil0 str0" x1="6365" y1="2940" x2="6365" y2= "4390" />
    <path class="fil0 str0" d="M6365 2940c0,-13 -5,-26 -15,-35 -9,-9 -22,-15 -35,-15"/>
    <line class="fil0 str0" x1="5605" y1="2890" x2="6315" y2= "2890" />
    <path class="fil0 str0" d="M3425 4390c28,0 50,-22 50,-50"/>
    <line class="fil0 str0" x1="3475" y1="2780" x2="3475" y2= "4340" />
    <path class="fil0 str0" d="M3475 2780c0,-13 -5,-26 -15,-35 -9,-9 -22,-15 -35,-15"/>
    <line class="fil0 str0" x1="1935" y1="2730" x2="3425" y2= "2730" />
    <path class="fil0 str0" d="M1935 2730c-13,0 -26,5 -35,15 -9,9 -15,22 -15,35"/>
    <line class="fil0 str0" x1="1885" y1="4340" x2="1885" y2= "2780" />
    <path class="fil0 str0" d="M1885 4340c0,13 5,26 15,35 9,9 22,15 35,15"/>
    <line class="fil0 str0" x1="3425" y1="4390" x2="1935" y2= "4390" />
    <line class="fil0 str0" x1="7315" y1="2140" x2="1085" y2= "2140" />
    <line class="fil0 str0" x1="7245" y1="5340" x2="6290" y2= "5340" />
    <line class="fil0 str0" x1="3305" y1="4200" x2="3305" y2= "4140" />
    <line class="fil0 str0" x1="3305" y1="4140" x2="3305" y2= "3680" />
    <line class="fil0 str0" x1="3305" y1="3430" x2="3305" y2= "2970" />
    <line class="fil0 str0" x1="2045" y1="3430" x2="2045" y2= "2970" />
    <line class="fil0 str0" x1="2045" y1="4140" x2="2045" y2= "3680" />
    <line class="fil0 str0" x1="2045" y1="4140" x2="2045" y2= "4200" />
    <line class="fil0 str0" x1="3435" y1="4140" x2="3435" y2= "2970" />
    <line class="fil0 str0" x1="1915" y1="4140" x2="1915" y2= "2970" />
    <line class="fil0 str0" x1="3330" y1="4140" x2="3305" y2= "4140" />
    <line class="fil0 str0" x1="3330" y1="4140" x2="3435" y2= "4140" />
    <line class="fil0 str0" x1="2020" y1="4140" x2="1915" y2= "4140" />
    <line class="fil0 str0" x1="2045" y1="4140" x2="2020" y2= "4140" />
    <line class="fil0 str0" x1="3305" y1="3455" x2="3305" y2= "3655" />
    <line class="fil0 str0" x1="2045" y1="3655" x2="2045" y2= "3455" />
    <line class="fil0 str0" x1="2045" y1="4200" x2="2105" y2= "4200" />
    <line class="fil0 str0" x1="3245" y1="4200" x2="3305" y2= "4200" />
    <line class="fil0 str0" x1="3245" y1="4200" x2="3245" y2= "4225" />
    <line class="fil0 str0" x1="3245" y1="4225" x2="3245" y2= "4330" />
    <line class="fil0 str0" x1="2105" y1="4330" x2="2105" y2= "4225" />
    <line class="fil0 str0" x1="2105" y1="4225" x2="2105" y2= "4200" />
    <path class="fil0 str0" d="M3204 3879c0,11 2,21 5,24"/>
    <path class="fil0 str0" d="M2141 3903c3,-3 5,-13 5,-24"/>
    <line class="fil0 str0" x1="2146" y1="3879" x2="2146" y2= "3780" />
    <line class="fil0 str0" x1="3204" y1="3879" x2="3204" y2= "3780" />
    <line class="fil0 str0" x1="2141" y1="3756" x2="2125" y2= "3740" />
    <line class="fil0 str0" x1="2125" y1="3740" x2="2125" y2= "3920" />
    <line class="fil0 str0" x1="2141" y1="3903" x2="2125" y2= "3920" />
    <line class="fil0 str0" x1="2125" y1="3920" x2="3225" y2= "3920" />
    <line class="fil0 str0" x1="3225" y1="3920" x2="3209" y2= "3903" />
    <line class="fil0 str0" x1="3225" y1="3920" x2="3225" y2= "3740" />
    <line class="fil0 str0" x1="3225" y1="3740" x2="3209" y2= "3756" />
    <line class="fil0 str0" x1="3225" y1="3740" x2="2125" y2= "3740" />
    <line class="fil0 str0" x1="3245" y1="4330" x2="2105" y2= "4330" />
    <line class="fil0 str0" x1="3245" y1="4200" x2="2105" y2= "4200" />
    <line class="fil0 str0" x1="3305" y1="2970" x2="3305" y2= "2910" />
    <line class="fil0 str0" x1="2045" y1="2910" x2="2045" y2= "2970" />
    <line class="fil0 str0" x1="2105" y1="2885" x2="2105" y2= "2780" />
    <line class="fil0 str0" x1="1915" y1="2970" x2="2020" y2= "2970" />
    <line class="fil0 str0" x1="2020" y1="2970" x2="2045" y2= "2970" />
    <line class="fil0 str0" x1="3245" y1="2780" x2="3245" y2= "2885" />
    <line class="fil0 str0" x1="2105" y1="2780" x2="3245" y2= "2780" />
    <line class="fil0 str0" x1="2045" y1="2910" x2="2105" y2= "2910" />
    <line class="fil0 str0" x1="3245" y1="2910" x2="3305" y2= "2910" />
    <line class="fil0 str0" x1="3305" y1="2970" x2="3330" y2= "2970" />
    <line class="fil0 str0" x1="3435" y1="2970" x2="3330" y2= "2970" />
    <path class="fil0 str0" d="M3204 3109c0,11 2,21 5,24"/>
    <path class="fil0 str0" d="M2141 3133c3,-3 5,-13 5,-24"/>
    <line class="fil0 str0" x1="2146" y1="3109" x2="2146" y2= "3010" />
    <line class="fil0 str0" x1="3204" y1="3109" x2="3204" y2= "3010" />
    <line class="fil0 str0" x1="2141" y1="2986" x2="2125" y2= "2970" />
    <line class="fil0 str0" x1="2125" y1="2970" x2="2125" y2= "3150" />
    <line class="fil0 str0" x1="2141" y1="3133" x2="2125" y2= "3150" />
    <line class="fil0 str0" x1="2125" y1="3150" x2="3225" y2= "3150" />
    <line class="fil0 str0" x1="3225" y1="3150" x2="3209" y2= "3133" />
    <line class="fil0 str0" x1="3225" y1="3150" x2="3225" y2= "2970" />
    <line class="fil0 str0" x1="3225" y1="2970" x2="3209" y2= "2986" />
    <line class="fil0 str0" x1="3225" y1="2970" x2="2125" y2= "2970" />
    <line class="fil0 str0" x1="3305" y1="3430" x2="3305" y2= "3455" />
    <line class="fil0 str0" x1="3305" y1="3430" x2="2045" y2= "3430" />
    <line class="fil0 str0" x1="2045" y1="3455" x2="2045" y2= "3430" />
    <line class="fil0 str0" x1="2105" y1="2880" x2="2015" y2= "2880" />
    <line class="fil0 str0" x1="3335" y1="2880" x2="3245" y2= "2880" />
    <line class="fil0 str0" x1="2015" y1="2880" x2="2015" y2= "2970" />
    <line class="fil0 str0" x1="3335" y1="2970" x2="3335" y2= "2880" />
    <line class="fil0 str0" x1="2015" y1="4140" x2="2015" y2= "4230" />
    <line class="fil0 str0" x1="3335" y1="4230" x2="3335" y2= "4140" />
    <line class="fil0 str0" x1="3245" y1="4230" x2="3335" y2= "4230" />
    <line class="fil0 str0" x1="2015" y1="4230" x2="2105" y2= "4230" />
    <line class="fil0 str0" x1="2105" y1="2910" x2="2105" y2= "2885" />
    <line class="fil0 str0" x1="3245" y1="2885" x2="3245" y2= "2910" />
    <line class="fil0 str0" x1="2105" y1="2910" x2="3245" y2= "2910" />
    <path class="fil0 str0" d="M2146 3010c0,-11 -2,-21 -5,-24"/>
    <path class="fil0 str0" d="M3209 2986c-3,3 -5,13 -5,24"/>
    <line class="fil0 str0" x1="3305" y1="3655" x2="3305" y2= "3680" />
    <line class="fil0 str0" x1="2045" y1="3680" x2="2045" y2= "3655" />
    <line class="fil0 str0" x1="2045" y1="3680" x2="3305" y2= "3680" />
    <path class="fil0 str0" d="M2146 3780c0,-11 -2,-21 -5,-24"/>
    <path class="fil0 str0" d="M3209 3756c-3,3 -5,13 -5,24"/>
    <line class="fil0 str0" x1="5685" y1="4235" x2="5685" y2= "4325" />
    <line class="fil0 str0" x1="5685" y1="3005" x2="5685" y2= "3095" />
    <line class="fil0 str0" x1="6175" y1="4325" x2="6265" y2= "4325" />
    <line class="fil0 str0" x1="5685" y1="4325" x2="5775" y2= "4325" />
    <line class="fil0 str0" x1="5775" y1="3005" x2="5685" y2= "3005" />
    <line class="fil0 str0" x1="6265" y1="3005" x2="6175" y2= "3005" />
    <line class="fil0 str0" x1="6265" y1="3095" x2="6265" y2= "3005" />
    <line class="fil0 str0" x1="6265" y1="4325" x2="6265" y2= "4235" />
    <line class="fil0 str0" x1="6235" y1="4295" x2="6235" y2= "4235" />
    <line class="fil0 str0" x1="6175" y1="4295" x2="6235" y2= "4295" />
    <line class="fil0 str0" x1="6235" y1="3035" x2="6175" y2= "3035" />
    <line class="fil0 str0" x1="6235" y1="3095" x2="6235" y2= "3035" />
    <line class="fil0 str0" x1="6235" y1="3095" x2="6260" y2= "3095" />
    <line class="fil0 str0" x1="6260" y1="3095" x2="6365" y2= "3095" />
    <line class="fil0 str0" x1="5690" y1="4235" x2="5585" y2= "4235" />
    <line class="fil0 str0" x1="6175" y1="3010" x2="6175" y2= "2905" />
    <line class="fil0 str0" x1="6175" y1="3010" x2="6175" y2= "3035" />
    <line class="fil0 str0" x1="6175" y1="2905" x2="5775" y2= "2905" />
    <line class="fil0 str0" x1="5775" y1="4425" x2="5775" y2= "4320" />
    <line class="fil0 str0" x1="5775" y1="4320" x2="5775" y2= "4295" />
    <line class="fil0 str0" x1="6175" y1="4425" x2="5775" y2= "4425" />
    <line class="fil0 str0" x1="5585" y1="3095" x2="5690" y2= "3095" />
    <line class="fil0 str0" x1="5585" y1="4235" x2="5585" y2= "3095" />
    <line class="fil0 str0" x1="6175" y1="4295" x2="6175" y2= "4320" />
    <line class="fil0 str0" x1="6175" y1="4320" x2="6175" y2= "4425" />
    <line class="fil0 str0" x1="6365" y1="4235" x2="6260" y2= "4235" />
    <line class="fil0 str0" x1="6260" y1="4235" x2="6235" y2= "4235" />
    <line class="fil0 str0" x1="5715" y1="4295" x2="5715" y2= "4235" />
    <line class="fil0 str0" x1="5715" y1="3095" x2="5715" y2= "3035" />
    <line class="fil0 str0" x1="5775" y1="3035" x2="5775" y2= "3010" />
    <line class="fil0 str0" x1="5775" y1="3035" x2="6175" y2= "3035" />
    <line class="fil0 str0" x1="5775" y1="2905" x2="5775" y2= "3010" />
    <path class="fil0 str0" d="M5914 3136c11,0 21,-2 24,-5"/>
    <path class="fil0 str0" d="M5939 4198c-3,-3 -13,-5 -24,-5"/>
    <line class="fil0 str0" x1="5914" y1="4193" x2="5816" y2= "4193" />
    <line class="fil0 str0" x1="5914" y1="3136" x2="5816" y2= "3136" />
    <line class="fil0 str0" x1="5791" y1="4198" x2="5775" y2= "4215" />
    <line class="fil0 str0" x1="5775" y1="4215" x2="5955" y2= "4215" />
    <line class="fil0 str0" x1="5939" y1="4198" x2="5955" y2= "4215" />
    <line class="fil0 str0" x1="5955" y1="4215" x2="5955" y2= "3115" />
    <line class="fil0 str0" x1="5955" y1="3115" x2="5939" y2= "3131" />
    <line class="fil0 str0" x1="5955" y1="3115" x2="5775" y2= "3115" />
    <line class="fil0 str0" x1="5775" y1="3115" x2="5791" y2= "3131" />
    <line class="fil0 str0" x1="5775" y1="3115" x2="5775" y2= "4215" />
    <line class="fil0 str0" x1="6175" y1="4295" x2="5775" y2= "4295" />
    <line class="fil0 str0" x1="6365" y1="3095" x2="6365" y2= "4235" />
    <line class="fil0 str0" x1="6235" y1="3095" x2="6235" y2= "4235" />
    <line class="fil0 str0" x1="5715" y1="4295" x2="5775" y2= "4295" />
    <line class="fil0 str0" x1="5775" y1="3035" x2="5715" y2= "3035" />
    <line class="fil0 str0" x1="5715" y1="4235" x2="5690" y2= "4235" />
    <line class="fil0 str0" x1="5690" y1="3095" x2="5715" y2= "3095" />
    <line class="fil0 str0" x1="5715" y1="4235" x2="5715" y2= "3095" />
    <path class="fil0 str0" d="M5816 4193c-11,0 -21,2 -24,5"/>
    <path class="fil0 str0" d="M5791 3131c3,3 13,5 24,5"/>
    <line class="fil0 str0" x1="3891" y1="3781" x2="3891" y2= "4152" />
    <line class="fil0 str0" x1="3866" y1="4202" x2="3866" y2= "3781" />
    <line class="fil0 str0" x1="3886" y1="4202" x2="3866" y2= "4202" />
    <line class="fil0 str0" x1="5267" y1="3781" x2="5267" y2= "4202" />
    <line class="fil0 str0" x1="5242" y1="4152" x2="5242" y2= "3781" />
    <line class="fil0 str0" x1="5267" y1="4202" x2="5247" y2= "4202" />
    <line class="fil0 str0" x1="5267" y1="4202" x2="5316" y2= "4202" />
    <line class="fil0 str0" x1="5365" y1="3060" x2="3767" y2= "3060" />
    <line class="fil0 str0" x1="3767" y1="3060" x2="3767" y2= "4438" />
    <line class="fil0 str0" x1="5365" y1="4438" x2="3767" y2= "4438" />
    <line class="fil0 str0" x1="5365" y1="3060" x2="5365" y2= "4438" />
    <line class="fil0 str0" x1="5316" y1="4402" x2="5316" y2= "4202" />
    <line class="fil0 str0" x1="4917" y1="4402" x2="4216" y2= "4402" />
    <line class="fil0 str0" x1="3816" y1="4402" x2="3816" y2= "4202" />
    <line class="fil0 str0" x1="3866" y1="4202" x2="3816" y2= "4202" />
    <line class="fil0 str0" x1="3984" y1="3781" x2="3866" y2= "3781" />
    <line class="fil0 str0" x1="3984" y1="3606" x2="3984" y2= "3781" />
    <line class="fil0 str0" x1="3866" y1="3606" x2="3984" y2= "3606" />
    <line class="fil0 str0" x1="3866" y1="3606" x2="3866" y2= "3231" />
    <line class="fil0 str0" x1="3866" y1="3231" x2="5267" y2= "3231" />
    <line class="fil0 str0" x1="5267" y1="3231" x2="5267" y2= "3606" />
    <line class="fil0 str0" x1="5267" y1="3606" x2="5149" y2= "3606" />
    <line class="fil0 str0" x1="5149" y1="3606" x2="5149" y2= "3781" />
    <line class="fil0 str0" x1="5149" y1="3781" x2="5267" y2= "3781" />
    <path class="fil0 str0" d="M4173 3649c0,21 17,38 38,38 21,0 38,-17 38,-38"/>
    <path class="fil0 str0" d="M4275 3649c0,21 17,38 38,38 21,0 38,-17 38,-38"/>
    <path class="fil0 str0" d="M4377 3649c0,21 17,38 38,38 21,0 38,-17 38,-38"/>
    <path class="fil0 str0" d="M4478 3649c0,21 17,38 38,38 21,0 38,-17 38,-38"/>
    <path class="fil0 str0" d="M4580 3649c0,21 17,38 38,38 21,0 38,-17 38,-38"/>
    <path class="fil0 str0" d="M4681 3649c0,21 17,38 38,38 21,0 38,-17 38,-38"/>
    <path class="fil0 str0" d="M4783 3649c0,21 17,38 38,38 21,0 38,-17 38,-38"/>
    <path class="fil0 str0" d="M4885 3649c0,21 17,38 38,38 21,0 38,-17 38,-38"/>
    <line class="fil0 str0" x1="3945" y1="4440" x2="3945" y2= "4438" />
    <line class="fil0 str0" x1="4077" y1="4440" x2="4077" y2= "4438" />
    <line class="fil0 str0" x1="4045" y1="4440" x2="4045" y2= "4438" />
    <line class="fil0 str0" x1="5055" y1="4440" x2="5055" y2= "4438" />
    <line class="fil0 str0" x1="5365" y1="4440" x2="5365" y2= "4438" />
    <line class="fil0 str0" x1="5242" y1="3256" x2="3891" y2= "3256" />
    <line class="fil0 str0" x1="3891" y1="3256" x2="3891" y2= "3606" />
    <line class="fil0 str0" x1="4241" y1="4377" x2="4892" y2= "4377" />
    <line class="fil0 str0" x1="5242" y1="3606" x2="5242" y2= "3256" />
    <line class="fil0 str0" x1="5242" y1="3256" x2="5267" y2= "3231" />
    <line class="fil0 str0" x1="3891" y1="3256" x2="3866" y2= "3231" />
    <line class="fil0 str0" x1="3767" y1="4440" x2="3767" y2= "4438" />
    <line class="fil0 str0" x1="5202" y1="4440" x2="5202" y2= "4438" />
    <line class="fil0 str0" x1="5252" y1="4440" x2="5252" y2= "4438" />
    <line class="fil0 str0" x1="4134" y1="4440" x2="4134" y2= "4438" />
    <line class="fil0 str0" x1="4184" y1="4440" x2="4184" y2= "4438" />
    <line class="fil0 str0" x1="4948" y1="4440" x2="4948" y2= "4438" />
    <line class="fil0 str0" x1="4998" y1="4440" x2="4998" y2= "4438" />
    <line class="fil0 str0" x1="3880" y1="4440" x2="3880" y2= "4438" />
    <line class="fil0 str0" x1="3930" y1="4440" x2="3930" y2= "4438" />
    <line class="fil0 str0" x1="5340" y1="4440" x2="5340" y2= "4438" />
    <line class="fil0 str0" x1="5188" y1="4440" x2="5188" y2= "4438" />
    <line class="fil0 str0" x1="5088" y1="4440" x2="5088" y2= "4438" />
    <line class="fil0 str0" x1="3792" y1="4440" x2="3792" y2= "4438" />
    <line class="fil0 str0" x1="4248" y1="3317" x2="4248" y2= "3262" />
    <line class="fil0 str0" x1="4173" y1="3262" x2="4173" y2= "3317" />
    <line class="fil0 str0" x1="4248" y1="3649" x2="4248" y2= "3626" />
    <line class="fil0 str0" x1="4173" y1="3626" x2="4173" y2= "3649" />
    <line class="fil0 str0" x1="4350" y1="3317" x2="4350" y2= "3262" />
    <line class="fil0 str0" x1="4275" y1="3262" x2="4275" y2= "3317" />
    <line class="fil0 str0" x1="4350" y1="3649" x2="4350" y2= "3626" />
    <line class="fil0 str0" x1="4275" y1="3626" x2="4275" y2= "3649" />
    <line class="fil0 str0" x1="4452" y1="3317" x2="4452" y2= "3262" />
    <line class="fil0 str0" x1="4377" y1="3262" x2="4377" y2= "3317" />
    <line class="fil0 str0" x1="4452" y1="3649" x2="4452" y2= "3626" />
    <line class="fil0 str0" x1="4377" y1="3626" x2="4377" y2= "3649" />
    <line class="fil0 str0" x1="4553" y1="3317" x2="4553" y2= "3262" />
    <line class="fil0 str0" x1="4478" y1="3262" x2="4478" y2= "3317" />
    <line class="fil0 str0" x1="4553" y1="3649" x2="4553" y2= "3626" />
    <line class="fil0 str0" x1="4478" y1="3626" x2="4478" y2= "3649" />
    <line class="fil0 str0" x1="4655" y1="3317" x2="4655" y2= "3262" />
    <line class="fil0 str0" x1="4580" y1="3262" x2="4580" y2= "3317" />
    <line class="fil0 str0" x1="4655" y1="3649" x2="4655" y2= "3626" />
    <line class="fil0 str0" x1="4580" y1="3626" x2="4580" y2= "3649" />
    <line class="fil0 str0" x1="4756" y1="3317" x2="4756" y2= "3262" />
    <line class="fil0 str0" x1="4681" y1="3262" x2="4681" y2= "3317" />
    <line class="fil0 str0" x1="4756" y1="3649" x2="4756" y2= "3626" />
    <line class="fil0 str0" x1="4681" y1="3626" x2="4681" y2= "3649" />
    <line class="fil0 str0" x1="4858" y1="3317" x2="4858" y2= "3262" />
    <line class="fil0 str0" x1="4783" y1="3262" x2="4783" y2= "3317" />
    <line class="fil0 str0" x1="4858" y1="3649" x2="4858" y2= "3626" />
    <line class="fil0 str0" x1="4783" y1="3626" x2="4783" y2= "3649" />
    <line class="fil0 str0" x1="4960" y1="3317" x2="4960" y2= "3262" />
    <line class="fil0 str0" x1="4885" y1="3262" x2="4885" y2= "3317" />
    <line class="fil0 str0" x1="4960" y1="3649" x2="4960" y2= "3626" />
    <line class="fil0 str0" x1="4885" y1="3626" x2="4885" y2= "3649" />
    <line class="fil0 str0" x1="4173" y1="3262" x2="4173" y2= "3256" />
    <line class="fil0 str0" x1="4248" y1="3262" x2="4248" y2= "3256" />
    <line class="fil0 str0" x1="4248" y1="3317" x2="4248" y2= "3626" />
    <line class="fil0 str0" x1="4173" y1="3317" x2="4173" y2= "3626" />
    <line class="fil0 str0" x1="4275" y1="3262" x2="4275" y2= "3256" />
    <line class="fil0 str0" x1="4350" y1="3262" x2="4350" y2= "3256" />
    <line class="fil0 str0" x1="4350" y1="3317" x2="4350" y2= "3626" />
    <line class="fil0 str0" x1="4275" y1="3317" x2="4275" y2= "3626" />
    <line class="fil0 str0" x1="4377" y1="3262" x2="4377" y2= "3256" />
    <line class="fil0 str0" x1="4452" y1="3262" x2="4452" y2= "3256" />
    <line class="fil0 str0" x1="4452" y1="3317" x2="4452" y2= "3626" />
    <line class="fil0 str0" x1="4377" y1="3317" x2="4377" y2= "3626" />
    <line class="fil0 str0" x1="4478" y1="3262" x2="4478" y2= "3256" />
    <line class="fil0 str0" x1="4553" y1="3262" x2="4553" y2= "3256" />
    <line class="fil0 str0" x1="4553" y1="3317" x2="4553" y2= "3626" />
    <line class="fil0 str0" x1="4478" y1="3317" x2="4478" y2= "3626" />
    <line class="fil0 str0" x1="4580" y1="3262" x2="4580" y2= "3256" />
    <line class="fil0 str0" x1="4655" y1="3262" x2="4655" y2= "3256" />
    <line class="fil0 str0" x1="4655" y1="3317" x2="4655" y2= "3626" />
    <line class="fil0 str0" x1="4580" y1="3317" x2="4580" y2= "3626" />
    <line class="fil0 str0" x1="4681" y1="3262" x2="4681" y2= "3256" />
    <line class="fil0 str0" x1="4756" y1="3262" x2="4756" y2= "3256" />
    <line class="fil0 str0" x1="4756" y1="3317" x2="4756" y2= "3626" />
    <line class="fil0 str0" x1="4681" y1="3317" x2="4681" y2= "3626" />
    <line class="fil0 str0" x1="4783" y1="3262" x2="4783" y2= "3256" />
    <line class="fil0 str0" x1="4858" y1="3262" x2="4858" y2= "3256" />
    <line class="fil0 str0" x1="4858" y1="3317" x2="4858" y2= "3626" />
    <line class="fil0 str0" x1="4783" y1="3317" x2="4783" y2= "3626" />
    <line class="fil0 str0" x1="4885" y1="3262" x2="4885" y2= "3256" />
    <line class="fil0 str0" x1="4960" y1="3262" x2="4960" y2= "3256" />
    <line class="fil0 str0" x1="4960" y1="3317" x2="4960" y2= "3626" />
    <line class="fil0 str0" x1="4885" y1="3317" x2="4885" y2= "3626" />
    <line class="fil0 str0" x1="4110" y1="4440" x2="4110" y2= "4438" />
    <line class="fil0 str0" x1="3880" y1="4440" x2="3880" y2= "4438" />
    <line class="fil0 str0" x1="5253" y1="4440" x2="5253" y2= "4438" />
    <line class="fil0 str0" x1="5023" y1="4440" x2="5023" y2= "4438" />
    <line class="fil0 str0" x1="3891" y1="4152" x2="3891" y2= "4202" />
    <line class="fil0 str0" x1="4241" y1="4302" x2="4241" y2= "4377" />
    <line class="fil0 str0" x1="4184" y1="4302" x2="4241" y2= "4302" />
    <line class="fil0 str0" x1="4184" y1="4152" x2="4184" y2= "4302" />
    <line class="fil0 str0" x1="3891" y1="4152" x2="4184" y2= "4152" />
    <line class="fil0 str0" x1="5242" y1="4202" x2="5242" y2= "4152" />
    <line class="fil0 str0" x1="4949" y1="4152" x2="5242" y2= "4152" />
    <line class="fil0 str0" x1="4949" y1="4302" x2="4949" y2= "4152" />
    <line class="fil0 str0" x1="4892" y1="4302" x2="4949" y2= "4302" />
    <line class="fil0 str0" x1="4892" y1="4377" x2="4892" y2= "4302" />
    <line class="fil0 str0" x1="4917" y1="4402" x2="4892" y2= "4377" />
    <line class="fil0 str0" x1="4996" y1="4382" x2="5316" y2= "4382" />
    <line class="fil0 str0" x1="5316" y1="4402" x2="4917" y2= "4402" />
    <line class="fil0 str0" x1="4136" y1="4382" x2="3816" y2= "4382" />
    <line class="fil0 str0" x1="4216" y1="4402" x2="3816" y2= "4402" />
    <line class="fil0 str0" x1="4216" y1="4402" x2="4241" y2= "4377" />
    <line class="fil0 str0" x1="4136" y1="4202" x2="3886" y2= "4202" />
    <line class="fil0 str0" x1="4996" y1="4202" x2="5247" y2= "4202" />
    <line class="fil0 str0" x1="4136" y1="4202" x2="4136" y2= "4382" />
    <line class="fil0 str0" x1="4996" y1="4202" x2="4996" y2= "4382" />
    <path class="fil1 str0" d="M906 5090c0,-1 0,-1 -1,-1 -1,0 -1,0 -1,1 0,1 0,1 1,1 1,0 1,0 1,-1z"/>
    <line class="fil0 str0" x1="2110" y1="5340" x2="1155" y2= "5340" />
   </g>
   <g>
    <line class="fil0 str1" x1="1585" y1="1860" x2="6815" y2= "1860" />
    <path class="fil0 str1" d="M905 5090c0,66 26,130 73,177 47,47 110,73 177,73"/>
    <path class="fil0 str1" d="M7245 5340c138,0 250,-112 250,-250"/>
    <line class="fil0 str1" x1="7495" y1="2970" x2="7315" y2= "2290" />
    <line class="fil0 str1" x1="1085" y1="2290" x2="905" y2= "2970" />
    <line class="fil0 str1" x1="905" y1="2970" x2="905" y2= "5090" />
    <line class="fil0 str1" x1="100" y1="5340" x2="100" y2= "5470" />
    <line class="fil0 str1" x1="300" y1="5340" x2="100" y2= "5340" />
    <line class="fil0 str1" x1="100" y1="5470" x2="300" y2= "5470" />
    <line class="fil0 str1" x1="7245" y1="5340" x2="8100" y2= "5340" />
    <line class="fil0 str1" x1="8300" y1="5340" x2="8100" y2= "5340" />
    <line class="fil0 str1" x1="8100" y1="5470" x2="8300" y2= "5470" />
    <line class="fil0 str1" x1="8300" y1="5340" x2="8300" y2= "5470" />
    <path class="fil0 str1" d="M1585 1860c-133,0 -260,18 -354,50 -94,32 -146,75 -146,120"/>
    <path class="fil0 str1" d="M7315 2030c0,-45 -53,-88 -146,-120 -94,-32 -221,-50 -354,-50"/>
    <line class="fil0 str1" x1="1085" y1="2122" x2="1085" y2= "2030" />
    <line class="fil0 str1" x1="7315" y1="2030" x2="7315" y2= "2122" />
    <line class="fil0 str1" x1="7315" y1="2122" x2="7315" y2= "2140" />
    <line class="fil0 str1" x1="7315" y1="2290" x2="7315" y2= "2140" />
    <line class="fil0 str1" x1="1085" y1="2140" x2="1085" y2= "2290" />
    <line class="fil0 str1" x1="1085" y1="2140" x2="1085" y2= "2122" />
    <line class="fil0 str1" x1="7495" y1="5090" x2="7495" y2= "2970" />
    <line class="fil0 str1" x1="1910" y1="5470" x2="300" y2= "5470" />
    <line class="fil0 str1" x1="1910" y1="5470" x2="2110" y2= "5470" />
    <line class="fil0 str1" x1="2110" y1="5340" x2="2110" y2= "5470" />
    <line class="fil0 str1" x1="6290" y1="5340" x2="6290" y2= "5470" />
    <line class="fil0 str1" x1="8100" y1="5470" x2="6490" y2= "5470" />
    <line class="fil0 str1" x1="6290" y1="5470" x2="6490" y2= "5470" />
    <line class="fil0 str1" x1="300" y1="5340" x2="1155" y2= "5340" />
    <line class="fil0 str1" x1="6290" y1="5340" x2="2110" y2= "5340" />
   </g>
  </g>
 </g>
 <g id="Выноски_x0020_линии">
  <metadata id="CorelCorpID_1Corel-Layer"/>
  <line class="fil0 str2" x1="4566" y1="3060" x2="5294" y2= "836" />
  <line class="fil0 str2" x1="2675" y1="2780" x2="3379" y2= "830" />
  <line class="fil0 str2" x1="5975" y1="2905" x2="6605" y2= "843" />
  <line class="fil0 str2" x1="5294" y1="836" x2="5962" y2= "836" />
  <line class="fil0 str2" x1="3379" y1="830" x2="3974" y2= "830" />
  <line class="fil0 str2" x1="6605" y1="843" x2="7153" y2= "843" />
 </g>
 <g id="Выноски_x0020_текст">
  <metadata id="CorelCorpID_2Corel-Layer"/>
  <path class="fil2" d="M5610 347c-3,4 -8,6 -13,6 -5,0 -9,-2 -12,-5 -3,-3 -5,-8 -5,-12 0,-4 1,-8 4,-11 16,-20 30,-34 45,-43 17,-10 37,-16 59,-16 26,0 46,11 59,34 6,11 10,22 10,35 0,24 -10,47 -31,70l-159 174 104 0c12,0 17,6 17,17 0,12 -6,17 -17,17l-144 0c-12,0 -17,-6 -17,-17 0,-5 2,-8 4,-12l186 -204c14,-16 21,-30 21,-45 0,-23 -14,-35 -43,-35 -13,0 -29,8 -48,24 -8,7 -15,14 -21,22z"/>
  <path class="fil2" d="M3738 323l-50 38c-4,3 -8,4 -13,3 -5,-1 -9,-3 -12,-6 -3,-4 -4,-8 -3,-13 1,-5 3,-8 7,-12l90 -69c3,-2 7,-3 10,-3 12,0 17,6 17,17 0,2 0,4 -1,5l-84 312c-2,9 -8,13 -17,13 -5,0 -9,-2 -12,-5 -4,-3 -5,-7 -5,-12 0,-2 0,-3 1,-5l70 -263z"/>
  <path class="fil2" d="M7009 435c14,6 21,21 21,45 0,7 -1,13 -3,20l-9 35c-10,39 -31,64 -61,77 -15,6 -33,10 -52,10l-67 0c-12,0 -17,-6 -17,-17 0,-12 6,-17 17,-17l76 0c15,0 29,-5 42,-15 13,-10 22,-22 26,-37l9 -35c2,-7 3,-14 3,-20 0,-21 -14,-32 -43,-32l-31 0c-12,0 -17,-6 -17,-17 0,-12 6,-17 17,-17l41 0c21,0 39,-9 54,-26 7,-8 12,-17 14,-26 1,-6 2,-11 2,-16 0,-24 -14,-37 -42,-37l-67 0c-12,0 -17,-6 -17,-17 0,-12 6,-17 17,-17l77 0c27,0 47,12 60,36 6,11 9,22 9,34 0,6 -1,11 -2,17 -10,38 -28,62 -56,74z"/>
 </g>
 <g id="Размеры">
  <metadata id="CorelCorpID_3Corel-Layer"/>
  <g id="_978271968">
   <line class="fil0 str3" x1="1255" y1="6439" x2="7145" y2= "6439" />
   <g id="Filled-1">
    <line class="fil0 str3" x1="1255" y1="6439" x2="905" y2= "6439" />
    <polygon class="fil3 str3" points="1255,6389 905,6439 1255,6489 "/>
    <polygon class="fil3 str3" points="1255,6389 1255,6489 1255,6389 905,6439 "/>
    <line class="fil0 str3" x1="1255" y1="6389" x2="905" y2= "6439" />
    <line class="fil0 str3" x1="905" y1="6439" x2="1255" y2= "6489" />
    <line class="fil0 str3" x1="1255" y1="6489" x2="1255" y2= "6389" />
   </g>
   <g id="Filled-1_0">
    <line class="fil0 str3" x1="7145" y1="6439" x2="7495" y2= "6439" />
    <polygon class="fil3 str3" points="7145,6489 7495,6439 7145,6389 "/>
    <polygon class="fil3 str3" points="7145,6489 7145,6389 7145,6489 7495,6439 "/>
    <line class="fil0 str3" x1="7145" y1="6489" x2="7495" y2= "6439" />
    <line class="fil0 str3" x1="7495" y1="6439" x2="7145" y2= "6389" />
    <line class="fil0 str3" x1="7145" y1="6389" x2="7145" y2= "6489" />
   </g>
   <path class="fil2" d="M4064 6365c26,0 42,-12 49,-37l7 -25c1,-5 2,-10 2,-14 0,-16 -10,-23 -31,-23l-39 0 -17 62c-1,4 -2,7 -2,9 0,8 3,15 9,20 6,5 13,8 22,8zm-7 25c-18,0 -32,-9 -42,-27 -5,-8 -7,-16 -7,-25 0,-3 0,-7 1,-10l20 -75c7,-28 20,-51 37,-70 20,-21 45,-35 77,-42 1,0 2,0 3,0 8,0 13,4 13,12 0,7 -3,11 -8,12 -14,2 -28,7 -42,16 -25,15 -42,35 -49,60l37 0c14,0 26,5 36,14 9,9 14,21 14,35 0,5 -1,10 -2,14l-7 25c-8,29 -22,48 -43,56 -10,4 -23,6 -39,6z"/>
   <path id="1" class="fil2" d="M4246 6365c26,0 42,-12 49,-37l7 -25c1,-5 2,-10 2,-14 0,-16 -10,-23 -31,-23l-39 0 -17 62c-1,4 -2,7 -2,9 0,8 3,15 9,20 6,5 13,8 22,8zm-7 25c-18,0 -32,-9 -42,-27 -5,-8 -7,-16 -7,-25 0,-3 0,-7 1,-10l20 -75c7,-28 20,-51 37,-70 20,-21 45,-35 77,-42 1,0 2,0 3,0 8,0 13,4 13,12 0,7 -3,11 -8,12 -14,2 -28,7 -42,16 -25,15 -42,35 -49,60l37 0c14,0 26,5 36,14 9,9 14,21 14,35 0,5 -1,10 -2,14l-7 25c-8,29 -22,48 -43,56 -10,4 -23,6 -39,6z"/>
   <line class="fil0 str3" x1="905" y1="5090" x2="905" y2= "6539" />
   <line class="fil0 str3" x1="7495" y1="5090" x2="7495" y2= "6539" />
  </g>
 </g>
 <g id="Маркировка">
  <metadata id="CorelCorpID_4Corel-Layer"/>
  <polygon class="fil4" points="4448,4785 4297,4785 4297,5055 4452,5055 4452,5010 4352,5010 4352,4938 4442,4938 4442,4893 4352,4893 4352,4830 4448,4830 "/>
  <polygon id="1" class="fil4" points="4637,4785 4465,4785 4465,4830 4524,4830 4524,5055 4578,5055 4578,4830 4637,4830 "/>
  <polygon id="2" class="fil4" points="4660,4785 4660,5055 4715,5055 4715,4935 4778,4935 4778,5055 4832,5055 4832,4785 4778,4785 4778,4888 4715,4888 4715,4785 "/>
  <polygon class="fil4" points="2496,4785 2346,4785 2346,5055 2500,5055 2500,5010 2400,5010 2400,4938 2491,4938 2491,4893 2400,4893 2400,4830 2496,4830 "/>
  <polygon id="1" class="fil4" points="2516,4785 2578,4918 2511,5055 2570,5055 2609,4963 2648,5055 2709,5055 2642,4918 2704,4785 2645,4785 2611,4872 2576,4785 "/>
  <polygon id="2" class="fil4" points="2888,4785 2716,4785 2716,4830 2775,4830 2775,5055 2829,5055 2829,4830 2888,4830 "/>
  <path id="3" class="fil4" d="M2961 5055l54 0 0 -267 -40 0c-3,15 -9,26 -20,33 -10,7 -25,10 -43,10l-5 0 0 35 53 0 0 189z"/>
  <polygon class="fil4" points="5750,4785 5600,4785 5600,5055 5754,5055 5754,5010 5654,5010 5654,4938 5745,4938 5745,4893 5654,4893 5654,4830 5750,4830 "/>
  <polygon id="1" class="fil4" points="5770,4785 5832,4918 5765,5055 5824,5055 5863,4963 5902,5055 5963,5055 5896,4918 5958,4785 5899,4785 5865,4872 5830,4785 "/>
  <polygon id="2" class="fil4" points="6142,4785 5970,4785 5970,4830 6028,4830 6028,5055 6083,5055 6083,4830 6142,4830 "/>
  <path id="3" class="fil4" d="M6318 5055l0 -42 -101 0c1,-5 4,-11 9,-18 5,-7 11,-14 19,-21l30 -28c8,-7 14,-13 19,-20 5,-6 10,-13 13,-20 3,-7 6,-14 7,-21 2,-7 2,-15 2,-24 0,-23 -7,-41 -20,-54 -13,-13 -33,-19 -60,-19 -29,0 -50,7 -63,20 -13,13 -20,32 -20,57l0 10 52 0c0,-7 0,-14 1,-20 1,-6 2,-12 4,-17 2,-5 5,-9 9,-11 4,-3 9,-4 16,-4 18,0 26,11 26,33 0,7 0,13 -1,18 -1,5 -2,10 -4,15 -2,5 -5,9 -8,14 -4,5 -9,9 -15,15l-22 20c-10,9 -18,18 -26,27 -7,9 -14,18 -18,27 -5,9 -9,19 -11,29 -2,10 -4,21 -4,33l165 0z"/>
 </g>
</svg>
