<svg use-vis-data="yes" width="100%" height="100%" viewBox="0 0 800 600" version="1.1" xmlns="http://www.w3.org/2000/svg" xmlns:xlink="http://www.w3.org/1999/xlink" xml:space="preserve" xmlns:serif="http://www.serif.com/" style="fill-rule:evenodd;clip-rule:evenodd;stroke-linecap:round;stroke-linejoin:round;stroke-miterlimit:1.5;">
    <rect id="background" x="0" y="0" width="800" height="600" style="fill:rgb(220,220,220);"/>
    <path id="room-schematics" serif:id="room schematics" d="M475.223,303.822l65.029,0l0,-16.792l-517.838,0l0,-262.623l676.332,0l0,189.542l75.812,0l0,289.83l-76.507,0l0,72.323l-222.828,0l0,-132.372l-15.317,0l0,132.372l-438.186,0l0,-272.28l438.186,0l0,60.756l15.317,0l0,-60.756Z" style="fill:white;stroke:black;stroke-width:2px;"/>
    <g id="cold-line" serif:id="cold line">
        <path d="M489.804,491.069l-456.122,0l0,-452.437l430.456,0l0,11.479" style="fill:none;stroke:rgb(131,255,254);stroke-width:1px;"/>
        <path d="M295.058,38.632l0,11.479" style="fill:none;stroke:rgb(131,255,254);stroke-width:1px;"/>
        <path d="M115.985,38.632l0,11.479" style="fill:none;stroke:rgb(131,255,254);stroke-width:1px;"/>
        <path d="M33.811,373.237l11.797,0" style="fill:none;stroke:rgb(131,255,254);stroke-width:1px;"/>
    </g>
    <g id="fridge-4" serif:id="fridge 4">
        <g>
            <path d="M190.192,336.197c0,-4.461 -3.623,-8.084 -8.085,-8.084l-128.737,0c-4.462,0 -8.085,3.623 -8.085,8.084l0,94.086c0,4.462 3.623,8.085 8.085,8.085l128.737,0c4.462,0 8.085,-3.623 8.085,-8.085l0,-94.086Z" style="fill:rgb(230,255,248);stroke:rgb(40,167,255);stroke-width:2px;"/>
            <g>
                <path d="M183.089,346.563c0,-3.736 -3.033,-6.768 -6.769,-6.768l-116.423,0c-3.735,0 -6.768,3.032 -6.768,6.768l0,48.557c0,3.736 3.033,6.769 6.768,6.769l116.423,0c3.736,0 6.769,-3.033 6.769,-6.769l0,-48.557Z" style="fill:white;stroke:rgb(0,117,157);stroke-width:1px;"/>
                <g id="temp-value" serif:id="temp value">
                    <text x="75.403px" y="382.037px" style="font-family:'DroidSans', 'Droid Sans', sans-serif;font-size:30px;fill:rgb(0,197,255);" param-value="11-22-33-44-55-66>4>101:r">-</text>
                    <text x="145.887px" y="382.1px" style="font-family:'LucidaGrande', 'Lucida Grande', sans-serif;font-weight:500;font-size:20px;fill:rgb(89,172,196);">℃</text>
                </g>
            </g>
            <g>
                <text x="163.887px" y="425.1px" style="font-family:'LucidaGrande', 'Lucida Grande', sans-serif;font-weight:500;font-size:16px;fill:rgb(89,172,196);">℃</text>
                <g id="setpoint-value" serif:id="setpoint value" transform="matrix(1,0,0,1,-11.8536,281.94)">
                    <text x="135.373px" y="142.406px" style="font-family:'DroidSans', 'Droid Sans', sans-serif;font-size:16px;fill:rgb(37,182,255);cursor:pointer;" param-value="11-22-33-44-55-66>4>201:r" on-click="edit-param:11-22-33-44-55-66>4>201">-</text>
                    <rect x="135.373" y="143.609" width="35.875" height="0.797" style="fill:rgb(37,182,255);"/>
                </g>
                <text x="53.814px" y="423.729px" style="font-family:'DroidSans', 'Droid Sans', sans-serif;font-size:16px;fill:rgb(94,111,116);">Setpoint:</text>
            </g>
        </g>
        <g id="alarm" on-param-value="11-22-33-44-55-66>4>1d:=1:display:block:none:r" style="display:none;">
            <g>
                <path d="M61.063,447.991c0.622,-1.108 1.793,-1.793 3.063,-1.793c1.271,0 2.442,0.685 3.064,1.793c2.353,4.192 5.582,9.945 7.904,14.08c0.61,1.087 0.598,2.417 -0.032,3.494c-0.63,1.077 -1.784,1.738 -3.032,1.738l-15.808,0c-1.247,0 -2.401,-0.661 -3.031,-1.738c-0.63,-1.077 -0.642,-2.407 -0.032,-3.494c2.321,-4.135 5.551,-9.888 7.904,-14.08Z" style="fill:rgb(255,191,7);"/>
                <path d="M65.53,459.025l0.508,-7.97l-3.17,0l0.525,7.97l2.137,0Zm-2.68,3.468c0,0.858 0.701,1.558 1.577,1.558c0.928,0 1.629,-0.7 1.629,-1.558c0,-0.946 -0.701,-1.647 -1.629,-1.647c-0.876,0 -1.577,0.701 -1.577,1.647Z" style="fill:white;fill-rule:nonzero;"/>
            </g>
            <text x="81.599px" y="466.034px" style="font-family:'DroidSans', 'Droid Sans', sans-serif;font-size:14px;fill:rgb(246,160,0);">Tmin alert</text>
        </g>
        <g id="alarm-1" on-param-value="11-22-33-44-55-66>4>2d:=1:display:block:none:r" style="display:none;">
            <g>
                <path d="M61.063,447.991c0.622,-1.108 1.793,-1.793 3.063,-1.793c1.271,0 2.442,0.685 3.064,1.793c2.353,4.192 5.582,9.945 7.904,14.08c0.61,1.087 0.598,2.417 -0.032,3.494c-0.63,1.077 -1.784,1.738 -3.032,1.738l-15.808,0c-1.247,0 -2.401,-0.661 -3.031,-1.738c-0.63,-1.077 -0.642,-2.407 -0.032,-3.494c2.321,-4.135 5.551,-9.888 7.904,-14.08Z" style="fill:rgb(255,191,7);"/>
                <path d="M65.53,459.025l0.508,-7.97l-3.17,0l0.525,7.97l2.137,0Zm-2.68,3.468c0,0.858 0.701,1.558 1.577,1.558c0.928,0 1.629,-0.7 1.629,-1.558c0,-0.946 -0.701,-1.647 -1.629,-1.647c-0.876,0 -1.577,0.701 -1.577,1.647Z" style="fill:white;fill-rule:nonzero;"/>
            </g>
            <text x="81.599px" y="466.034px" style="font-family:'DroidSans', 'Droid Sans', sans-serif;font-size:14px;fill:rgb(246,160,0);">Tmax alert</text>
        </g>
    </g>
    <g id="fridge-3" serif:id="fridge 3">
        <g>
            <path d="M530.192,56.197c0,-4.461 -3.623,-8.084 -8.085,-8.084l-128.737,0c-4.462,0 -8.085,3.623 -8.085,8.084l0,94.086c0,4.462 3.623,8.085 8.085,8.085l128.737,0c4.462,0 8.085,-3.623 8.085,-8.085l0,-94.086Z" style="fill:rgb(230,255,248);stroke:rgb(40,167,255);stroke-width:2px;"/>
            <g>
                <path d="M523.089,66.563c0,-3.736 -3.033,-6.768 -6.769,-6.768l-116.423,0c-3.735,0 -6.768,3.032 -6.768,6.768l0,48.557c0,3.736 3.033,6.769 6.768,6.769l116.423,0c3.736,0 6.769,-3.033 6.769,-6.769l0,-48.557Z" style="fill:white;stroke:rgb(0,117,157);stroke-width:1px;"/>
                <g id="temp-value1" serif:id="temp value">
                    <text x="415.403px" y="102.037px" style="font-family:'DroidSans', 'Droid Sans', sans-serif;font-size:30px;fill:rgb(0,197,255);" param-value="11-22-33-44-55-66>3>101:r">-</text>
                    <text x="485.887px" y="102.1px" style="font-family:'LucidaGrande', 'Lucida Grande', sans-serif;font-weight:500;font-size:20px;fill:rgb(89,172,196);">℃</text>
                </g>
            </g>
            <g>
                <text x="503.887px" y="145.1px" style="font-family:'LucidaGrande', 'Lucida Grande', sans-serif;font-weight:500;font-size:16px;fill:rgb(89,172,196);">℃</text>
                <g id="setpoint-value1" serif:id="setpoint value" transform="matrix(1,0,0,1,328.146,1.9399)">
                    <text x="135.373px" y="142.406px" style="font-family:'DroidSans', 'Droid Sans', sans-serif;font-size:16px;fill:rgb(37,182,255);cursor:pointer;" param-value="11-22-33-44-55-66>3>201:r" on-click="edit-param:11-22-33-44-55-66>3>201">-</text>
                    <rect x="135.373" y="143.609" width="35.875" height="0.797" style="fill:rgb(37,182,255);"/>
                </g>
                <text x="393.814px" y="143.729px" style="font-family:'DroidSans', 'Droid Sans', sans-serif;font-size:16px;fill:rgb(94,111,116);">Setpoint:</text>
            </g>
        </g>
        <g id="alarm1" serif:id="alarm tmin" on-param-value="11-22-33-44-55-66>3>1d:=1:display:block:none:r" style="display:none;">
            <g>
                <path d="M401.063,167.991c0.622,-1.108 1.793,-1.793 3.063,-1.793c1.271,0 2.442,0.685 3.064,1.793c2.353,4.192 5.582,9.945 7.904,14.08c0.61,1.087 0.598,2.417 -0.032,3.494c-0.63,1.077 -1.784,1.738 -3.032,1.738l-15.808,0c-1.247,0 -2.401,-0.661 -3.031,-1.738c-0.63,-1.077 -0.642,-2.407 -0.032,-3.494c2.321,-4.135 5.551,-9.888 7.904,-14.08Z" style="fill:rgb(255,191,7);"/>
                <path d="M405.53,179.025l0.508,-7.97l-3.17,0l0.525,7.97l2.137,0Zm-2.68,3.468c0,0.858 0.701,1.558 1.577,1.558c0.928,0 1.629,-0.7 1.629,-1.558c0,-0.946 -0.701,-1.647 -1.629,-1.647c-0.876,0 -1.577,0.701 -1.577,1.647Z" style="fill:white;fill-rule:nonzero;"/>
            </g>
            <text x="421.599px" y="186.034px" style="font-family:'DroidSans', 'Droid Sans', sans-serif;font-size:14px;fill:rgb(246,160,0);">Tmin alert</text>
        </g>
        <g id="alarm1-1" serif:id="alarm tmax" on-param-value="11-22-33-44-55-66>3>2d:=1:display:block:none:r" style="display:none;">
            <g>
                <path d="M401.063,167.991c0.622,-1.108 1.793,-1.793 3.063,-1.793c1.271,0 2.442,0.685 3.064,1.793c2.353,4.192 5.582,9.945 7.904,14.08c0.61,1.087 0.598,2.417 -0.032,3.494c-0.63,1.077 -1.784,1.738 -3.032,1.738l-15.808,0c-1.247,0 -2.401,-0.661 -3.031,-1.738c-0.63,-1.077 -0.642,-2.407 -0.032,-3.494c2.321,-4.135 5.551,-9.888 7.904,-14.08Z" style="fill:rgb(255,191,7);"/>
                <path d="M405.53,179.025l0.508,-7.97l-3.17,0l0.525,7.97l2.137,0Zm-2.68,3.468c0,0.858 0.701,1.558 1.577,1.558c0.928,0 1.629,-0.7 1.629,-1.558c0,-0.946 -0.701,-1.647 -1.629,-1.647c-0.876,0 -1.577,0.701 -1.577,1.647Z" style="fill:white;fill-rule:nonzero;"/>
            </g>
            <text x="421.599px" y="186.034px" style="font-family:'DroidSans', 'Droid Sans', sans-serif;font-size:14px;fill:rgb(246,160,0);">Tmax alert</text>
        </g>
    </g>
    <g id="fridge-2" serif:id="fridge 2">
        <g>
            <path d="M360.192,56.197c0,-4.461 -3.623,-8.084 -8.085,-8.084l-128.737,0c-4.462,0 -8.085,3.623 -8.085,8.084l0,94.086c0,4.462 3.623,8.085 8.085,8.085l128.737,0c4.462,0 8.085,-3.623 8.085,-8.085l0,-94.086Z" style="fill:rgb(230,255,248);stroke:rgb(40,167,255);stroke-width:2px;"/>
            <g>
                <path d="M353.089,66.563c0,-3.736 -3.033,-6.768 -6.769,-6.768l-116.423,0c-3.735,0 -6.768,3.032 -6.768,6.768l0,48.557c0,3.736 3.033,6.769 6.768,6.769l116.423,0c3.736,0 6.769,-3.033 6.769,-6.769l0,-48.557Z" style="fill:white;stroke:rgb(0,117,157);stroke-width:1px;"/>
                <g id="temp-value2" serif:id="temp value">
                    <text x="245.403px" y="102.037px" style="font-family:'DroidSans', 'Droid Sans', sans-serif;font-size:30px;fill:rgb(0,197,255);" param-value="11-22-33-44-55-66>2>101:r">-</text>
                    <text x="315.887px" y="102.1px" style="font-family:'LucidaGrande', 'Lucida Grande', sans-serif;font-weight:500;font-size:20px;fill:rgb(89,172,196);">℃</text>
                </g>
            </g>
            <g>
                <text x="333.887px" y="145.1px" style="font-family:'LucidaGrande', 'Lucida Grande', sans-serif;font-weight:500;font-size:16px;fill:rgb(89,172,196);">℃</text>
                <g id="setpoint-value2" serif:id="setpoint value" transform="matrix(1,0,0,1,158.146,1.9399)">
                    <text x="135.373px" y="142.406px" style="font-family:'DroidSans', 'Droid Sans', sans-serif;font-size:16px;fill:rgb(37,182,255);cursor:pointer;" param-value="11-22-33-44-55-66>2>201:r" on-click="edit-param:11-22-33-44-55-66>2>201">-</text>
                    <rect x="135.373" y="143.609" width="35.875" height="0.797" style="fill:rgb(37,182,255);"/>
                </g>
                <text x="223.814px" y="143.729px" style="font-family:'DroidSans', 'Droid Sans', sans-serif;font-size:16px;fill:rgb(94,111,116);">Setpoint:</text>
            </g>
        </g>
        <g id="alarm2" serif:id="alarm tmin" on-param-value="11-22-33-44-55-66>2>1d:=1:display:block:none:r" style="display:none;">
            <g>
                <path d="M231.063,167.991c0.622,-1.108 1.793,-1.793 3.063,-1.793c1.271,0 2.442,0.685 3.064,1.793c2.353,4.192 5.582,9.945 7.904,14.08c0.61,1.087 0.598,2.417 -0.032,3.494c-0.63,1.077 -1.784,1.738 -3.032,1.738l-15.808,0c-1.247,0 -2.401,-0.661 -3.031,-1.738c-0.63,-1.077 -0.642,-2.407 -0.032,-3.494c2.321,-4.135 5.551,-9.888 7.904,-14.08Z" style="fill:rgb(255,191,7);"/>
                <path d="M235.53,179.025l0.508,-7.97l-3.17,0l0.525,7.97l2.137,0Zm-2.68,3.468c0,0.858 0.701,1.558 1.577,1.558c0.928,0 1.629,-0.7 1.629,-1.558c0,-0.946 -0.701,-1.647 -1.629,-1.647c-0.876,0 -1.577,0.701 -1.577,1.647Z" style="fill:white;fill-rule:nonzero;"/>
            </g>
            <text x="251.599px" y="186.034px" style="font-family:'DroidSans', 'Droid Sans', sans-serif;font-size:14px;fill:rgb(246,160,0);">Tmin alert</text>
        </g>
        <g id="alarm2-1" serif:id="alarm tmax" on-param-value="11-22-33-44-55-66>2>2d:=1:display:block:none:r" style="display:none;">
            <g>
                <path d="M231.063,167.991c0.622,-1.108 1.793,-1.793 3.063,-1.793c1.271,0 2.442,0.685 3.064,1.793c2.353,4.192 5.582,9.945 7.904,14.08c0.61,1.087 0.598,2.417 -0.032,3.494c-0.63,1.077 -1.784,1.738 -3.032,1.738l-15.808,0c-1.247,0 -2.401,-0.661 -3.031,-1.738c-0.63,-1.077 -0.642,-2.407 -0.032,-3.494c2.321,-4.135 5.551,-9.888 7.904,-14.08Z" style="fill:rgb(255,191,7);"/>
                <path d="M235.53,179.025l0.508,-7.97l-3.17,0l0.525,7.97l2.137,0Zm-2.68,3.468c0,0.858 0.701,1.558 1.577,1.558c0.928,0 1.629,-0.7 1.629,-1.558c0,-0.946 -0.701,-1.647 -1.629,-1.647c-0.876,0 -1.577,0.701 -1.577,1.647Z" style="fill:white;fill-rule:nonzero;"/>
            </g>
            <text x="251.599px" y="186.034px" style="font-family:'DroidSans', 'Droid Sans', sans-serif;font-size:14px;fill:rgb(246,160,0);">Tmax alert</text>
        </g>
    </g>
    <g id="fridge-1" serif:id="fridge 1">
        <g>
            <path d="M190.192,56.197c0,-4.461 -3.623,-8.084 -8.085,-8.084l-128.737,0c-4.462,0 -8.085,3.623 -8.085,8.084l0,94.086c0,4.462 3.623,8.085 8.085,8.085l128.737,0c4.462,0 8.085,-3.623 8.085,-8.085l0,-94.086Z" style="fill:rgb(230,255,248);stroke:rgb(40,167,255);stroke-width:2px;"/>
            <g>
                <path d="M183.089,66.563c0,-3.736 -3.033,-6.768 -6.769,-6.768l-116.423,0c-3.735,0 -6.768,3.032 -6.768,6.768l0,48.557c0,3.736 3.033,6.769 6.768,6.769l116.423,0c3.736,0 6.769,-3.033 6.769,-6.769l0,-48.557Z" style="fill:white;stroke:rgb(0,117,157);stroke-width:1px;"/>
                <g id="temp-value3" serif:id="temp value">
                    <text x="75.403px" y="102.037px" style="font-family:'DroidSans', 'Droid Sans', sans-serif;font-size:30px;fill:rgb(0,197,255);" param-value="11-22-33-44-55-66>1>101:r">-</text>
                    <text x="145.887px" y="102.1px" style="font-family:'LucidaGrande', 'Lucida Grande', sans-serif;font-weight:500;font-size:20px;fill:rgb(89,172,196);">℃</text>
                </g>
            </g>
            <g>
                <text x="163.887px" y="145.1px" style="font-family:'LucidaGrande', 'Lucida Grande', sans-serif;font-weight:500;font-size:16px;fill:rgb(89,172,196);">℃</text>
                <g id="setpoint-value3" serif:id="setpoint value" transform="matrix(1,0,0,1,-11.8536,1.9399)">
                    <text x="135.373px" y="142.406px" style="font-family:'DroidSans', 'Droid Sans', sans-serif;font-size:16px;fill:rgb(37,182,255);cursor:pointer;" param-value="11-22-33-44-55-66>1>201:r" on-click="edit-param:11-22-33-44-55-66>1>201">-</text>
                    <rect x="135.373" y="143.609" width="35.875" height="0.797" style="fill:rgb(37,182,255);"/>
                </g>
                <text x="53.814px" y="143.729px" style="font-family:'DroidSans', 'Droid Sans', sans-serif;font-size:16px;fill:rgb(94,111,116);">Setpoint:</text>
            </g>
        </g>
        <g id="alarm3" serif:id="alarm tmin" on-param-value="11-22-33-44-55-66>1>1d:=1:display:block:none:r" style="display:none;">
            <g>
                <path d="M61.063,167.991c0.622,-1.108 1.793,-1.793 3.063,-1.793c1.271,0 2.442,0.685 3.064,1.793c2.353,4.192 5.582,9.945 7.904,14.08c0.61,1.087 0.598,2.417 -0.032,3.494c-0.63,1.077 -1.784,1.738 -3.032,1.738l-15.808,0c-1.247,0 -2.401,-0.661 -3.031,-1.738c-0.63,-1.077 -0.642,-2.407 -0.032,-3.494c2.321,-4.135 5.551,-9.888 7.904,-14.08Z" style="fill:rgb(255,191,7);"/>
                <path d="M65.53,179.025l0.508,-7.97l-3.17,0l0.525,7.97l2.137,0Zm-2.68,3.468c0,0.858 0.701,1.558 1.577,1.558c0.928,0 1.629,-0.7 1.629,-1.558c0,-0.946 -0.701,-1.647 -1.629,-1.647c-0.876,0 -1.577,0.701 -1.577,1.647Z" style="fill:white;fill-rule:nonzero;"/>
            </g>
            <text x="81.599px" y="186.034px" style="font-family:'DroidSans', 'Droid Sans', sans-serif;font-size:14px;fill:rgb(246,160,0);">Tmin alert</text>
        </g>
        <g id="alarm3-1" serif:id="alarm tmax" on-param-value="11-22-33-44-55-66>1>2d:=1:display:block:none:r" style="display:none;">
            <g>
                <path d="M61.063,167.991c0.622,-1.108 1.793,-1.793 3.063,-1.793c1.271,0 2.442,0.685 3.064,1.793c2.353,4.192 5.582,9.945 7.904,14.08c0.61,1.087 0.598,2.417 -0.032,3.494c-0.63,1.077 -1.784,1.738 -3.032,1.738l-15.808,0c-1.247,0 -2.401,-0.661 -3.031,-1.738c-0.63,-1.077 -0.642,-2.407 -0.032,-3.494c2.321,-4.135 5.551,-9.888 7.904,-14.08Z" style="fill:rgb(255,191,7);"/>
                <path d="M65.53,179.025l0.508,-7.97l-3.17,0l0.525,7.97l2.137,0Zm-2.68,3.468c0,0.858 0.701,1.558 1.577,1.558c0.928,0 1.629,-0.7 1.629,-1.558c0,-0.946 -0.701,-1.647 -1.629,-1.647c-0.876,0 -1.577,0.701 -1.577,1.647Z" style="fill:white;fill-rule:nonzero;"/>
            </g>
            <text x="81.599px" y="186.034px" style="font-family:'DroidSans', 'Droid Sans', sans-serif;font-size:14px;fill:rgb(246,160,0);">Tmax alert</text>
        </g>
    </g>
    <rect id="door" x="464.852" y="365.301" width="5.254" height="78.242" style="fill:none;stroke:grey;stroke-width:2px;" on-param-value="11-22-33-44-55-66>11>500.2:=0:stroke:red:green:r" />
    <text id="small-room-name" serif:id="small room name" x="45.195px" y="550.539px" style="font-family:'DroidSans', 'Droid Sans', sans-serif;font-size:36px;fill:rgb(211,211,211);" text-replacement="small-room-name" on-click="edit-visdata:small-room-name">Rental Storage Room</text>
    <text id="main-room-name" serif:id="main room name" x="45.195px" y="266.539px" style="font-family:'DroidSans', 'Droid Sans', sans-serif;font-size:36px;fill:rgb(211,211,211);" text-replacement="main-room-name" on-click="edit-visdata:main-room-name">Main Storage</text>
    <g id="main-defrosting" serif:id="main defrosting">
        <g style="cursor:pointer;">
            <g id="button-on" serif:id="button on" on-param-value="11-22-33-44-55-66>20>105:=1:display:block:none:r" style="display:none;" on-click="toggle-param:11-22-33-44-55-66>20>105:0:1:g">
                <path d="M680.921,544.957c0,-8.316 -6.751,-15.067 -15.066,-15.067l-24.005,0c-8.315,0 -15.066,6.751 -15.066,15.067c0,8.315 6.751,15.066 15.066,15.066l24.005,0c8.315,0 15.066,-6.751 15.066,-15.066Z" style="fill:rgb(29,214,255);"/>
                <circle cx="666.032" cy="544.957" r="11.536" style="fill:white;"/>
                <text x="633.575px" y="549.415px" style="font-family:'DroidSans', 'Droid Sans', sans-serif;font-size:11.449px;fill:white;">ON</text>
            </g>
            <g id="button-off" serif:id="button off" on-param-value="11-22-33-44-55-66>20>105:=0:display:block:none:r" style="display:none;" on-click="toggle-param:11-22-33-44-55-66>20>105:0:1:g">
                <path d="M680.921,544.957c0,-8.316 -6.751,-15.067 -15.066,-15.067l-24.005,0c-8.315,0 -15.066,6.751 -15.066,15.067c0,8.315 6.751,15.066 15.066,15.066l24.005,0c8.315,0 15.066,-6.751 15.066,-15.066Z" style="fill:rgb(134,134,134);"/>
                <circle cx="641.703" cy="544.957" r="11.536" style="fill:white;"/>
                <text x="655.519px" y="549.415px" style="font-family:'DroidSans', 'Droid Sans', sans-serif;font-size:11.449px;fill:white;">OFF</text>
            </g>
        </g>
        <g transform="matrix(1,0,0,1,17,-6)">
            <text x="476.05px" y="545.442px" style="font-family:'DroidSans', 'Droid Sans', sans-serif;font-size:16px;">Main unit</text>
            <text x="476.05px" y="561.442px" style="font-family:'DroidSans', 'Droid Sans', sans-serif;font-size:16px;">defrosing mode:</text>
        </g>
    </g>
    <g id="energy-meter" serif:id="energy meter">
        <rect x="490.098" y="465.234" width="191.05" height="52.217" style="fill:none;stroke:rgb(168,168,168);stroke-width:1px;"/>
        <g>
            <text id="value" x="508.542px" y="502.132px" style="font-family:'DroidSans', 'Droid Sans', sans-serif;font-size:30px;fill:rgb(23,23,23);" param-value="11-22-33-44-55-66>10>1000">-</text>
            <text x="627.729px" y="501.598px" style="font-family:'DroidSans', 'Droid Sans', sans-serif;font-size:20px;fill:rgb(156,156,156);">kWh</text>
        </g>
    </g>
</svg>
