<?xml version="1.0" encoding="UTF-8" standalone="no"?>
<!DOCTYPE svg PUBLIC "-//W3C//DTD SVG 1.1//EN" "http://www.w3.org/Graphics/SVG/1.1/DTD/svg11.dtd">
<svg width="100%" height="100%" viewBox="0 0 626 110" version="1.1" xmlns="http://www.w3.org/2000/svg" xmlns:xlink="http://www.w3.org/1999/xlink" xml:space="preserve" xmlns:serif="http://www.serif.com/" style="fill-rule:evenodd;clip-rule:evenodd;stroke-linecap:round;stroke-linejoin:round;stroke-miterlimit:1.5;">
    <g transform="matrix(1,0,0,1,0,-303)">
        <g id="Artboard2" transform="matrix(1,0,0,0.385515,0,185.837)">
            <rect x="0" y="303.913" width="625.977" height="283.408" style="fill:none;"/>
            <clipPath id="_clip1">
                <rect x="0" y="303.913" width="625.977" height="283.408"/>
            </clipPath>
            <g clip-path="url(#_clip1)">
                <g transform="matrix(1.09077,0,0,1.50834,-30.0032,-260.062)">
                    <rect x="27.506" y="373.903" width="573.883" height="36.66" style="fill:rgb(112,255,17);"/>
                </g>
                <g transform="matrix(1,0,0,2.59393,-7.30501,-491.475)">
                    <g transform="matrix(16,0,0,16,6.80501,356.766)">
                        <path d="M0.271,-0.699C0.361,-0.699 0.426,-0.662 0.467,-0.587C0.498,-0.53 0.514,-0.451 0.514,-0.351C0.514,-0.256 0.5,-0.177 0.471,-0.115C0.43,-0.026 0.363,0.019 0.27,0.019C0.186,0.019 0.124,-0.017 0.083,-0.09C0.048,-0.151 0.031,-0.233 0.031,-0.335C0.031,-0.415 0.042,-0.483 0.062,-0.54C0.1,-0.646 0.17,-0.699 0.271,-0.699ZM0.27,-0.061C0.315,-0.061 0.351,-0.081 0.378,-0.122C0.405,-0.162 0.419,-0.237 0.419,-0.347C0.419,-0.427 0.409,-0.492 0.39,-0.543C0.37,-0.594 0.332,-0.62 0.276,-0.62C0.224,-0.62 0.186,-0.596 0.162,-0.547C0.138,-0.498 0.126,-0.427 0.126,-0.332C0.126,-0.261 0.134,-0.203 0.149,-0.16C0.173,-0.094 0.213,-0.061 0.27,-0.061Z" style="fill-rule:nonzero;"/>
                    </g>
                    <g transform="matrix(16,0,0,16,15.7034,356.766)">
                        <path d="M0.271,-0.699C0.361,-0.699 0.426,-0.662 0.467,-0.587C0.498,-0.53 0.514,-0.451 0.514,-0.351C0.514,-0.256 0.5,-0.177 0.471,-0.115C0.43,-0.026 0.363,0.019 0.27,0.019C0.186,0.019 0.124,-0.017 0.083,-0.09C0.048,-0.151 0.031,-0.233 0.031,-0.335C0.031,-0.415 0.042,-0.483 0.062,-0.54C0.1,-0.646 0.17,-0.699 0.271,-0.699ZM0.27,-0.061C0.315,-0.061 0.351,-0.081 0.378,-0.122C0.405,-0.162 0.419,-0.237 0.419,-0.347C0.419,-0.427 0.409,-0.492 0.39,-0.543C0.37,-0.594 0.332,-0.62 0.276,-0.62C0.224,-0.62 0.186,-0.596 0.162,-0.547C0.138,-0.498 0.126,-0.427 0.126,-0.332C0.126,-0.261 0.134,-0.203 0.149,-0.16C0.173,-0.094 0.213,-0.061 0.27,-0.061Z" style="fill-rule:nonzero;"/>
                    </g>
                    <g transform="matrix(16,0,0,16,24.6019,356.766)">
                        <path d="M0.111,-0.516L0.213,-0.516L0.213,-0.41L0.111,-0.41L0.111,-0.516ZM0.111,-0.106L0.213,-0.106L0.213,0L0.111,0L0.111,-0.106Z" style="fill-rule:nonzero;"/>
                    </g>
                    <g transform="matrix(16,0,0,16,29.0472,356.766)">
                        <path d="M0.271,-0.699C0.361,-0.699 0.426,-0.662 0.467,-0.587C0.498,-0.53 0.514,-0.451 0.514,-0.351C0.514,-0.256 0.5,-0.177 0.471,-0.115C0.43,-0.026 0.363,0.019 0.27,0.019C0.186,0.019 0.124,-0.017 0.083,-0.09C0.048,-0.151 0.031,-0.233 0.031,-0.335C0.031,-0.415 0.042,-0.483 0.062,-0.54C0.1,-0.646 0.17,-0.699 0.271,-0.699ZM0.27,-0.061C0.315,-0.061 0.351,-0.081 0.378,-0.122C0.405,-0.162 0.419,-0.237 0.419,-0.347C0.419,-0.427 0.409,-0.492 0.39,-0.543C0.37,-0.594 0.332,-0.62 0.276,-0.62C0.224,-0.62 0.186,-0.596 0.162,-0.547C0.138,-0.498 0.126,-0.427 0.126,-0.332C0.126,-0.261 0.134,-0.203 0.149,-0.16C0.173,-0.094 0.213,-0.061 0.27,-0.061Z" style="fill-rule:nonzero;"/>
                    </g>
                    <g transform="matrix(16,0,0,16,37.9456,356.766)">
                        <path d="M0.271,-0.699C0.361,-0.699 0.426,-0.662 0.467,-0.587C0.498,-0.53 0.514,-0.451 0.514,-0.351C0.514,-0.256 0.5,-0.177 0.471,-0.115C0.43,-0.026 0.363,0.019 0.27,0.019C0.186,0.019 0.124,-0.017 0.083,-0.09C0.048,-0.151 0.031,-0.233 0.031,-0.335C0.031,-0.415 0.042,-0.483 0.062,-0.54C0.1,-0.646 0.17,-0.699 0.271,-0.699ZM0.27,-0.061C0.315,-0.061 0.351,-0.081 0.378,-0.122C0.405,-0.162 0.419,-0.237 0.419,-0.347C0.419,-0.427 0.409,-0.492 0.39,-0.543C0.37,-0.594 0.332,-0.62 0.276,-0.62C0.224,-0.62 0.186,-0.596 0.162,-0.547C0.138,-0.498 0.126,-0.427 0.126,-0.332C0.126,-0.261 0.134,-0.203 0.149,-0.16C0.173,-0.094 0.213,-0.061 0.27,-0.061Z" style="fill-rule:nonzero;"/>
                    </g>
                </g>
                <g transform="matrix(1,0,0,2.59393,79.695,-491.475)">
                    <g transform="matrix(16,0,0,16,6.80501,356.766)">
                        <path d="M0.271,-0.699C0.361,-0.699 0.426,-0.662 0.467,-0.587C0.498,-0.53 0.514,-0.451 0.514,-0.351C0.514,-0.256 0.5,-0.177 0.471,-0.115C0.43,-0.026 0.363,0.019 0.27,0.019C0.186,0.019 0.124,-0.017 0.083,-0.09C0.048,-0.151 0.031,-0.233 0.031,-0.335C0.031,-0.415 0.042,-0.483 0.062,-0.54C0.1,-0.646 0.17,-0.699 0.271,-0.699ZM0.27,-0.061C0.315,-0.061 0.351,-0.081 0.378,-0.122C0.405,-0.162 0.419,-0.237 0.419,-0.347C0.419,-0.427 0.409,-0.492 0.39,-0.543C0.37,-0.594 0.332,-0.62 0.276,-0.62C0.224,-0.62 0.186,-0.596 0.162,-0.547C0.138,-0.498 0.126,-0.427 0.126,-0.332C0.126,-0.261 0.134,-0.203 0.149,-0.16C0.173,-0.094 0.213,-0.061 0.27,-0.061Z" style="fill-rule:nonzero;"/>
                    </g>
                    <g transform="matrix(16,0,0,16,15.7034,356.766)">
                        <path d="M0.331,-0.248L0.331,-0.564L0.106,-0.248L0.331,-0.248ZM0.332,0L0.332,-0.171L0.025,-0.171L0.025,-0.257L0.346,-0.701L0.42,-0.701L0.42,-0.248L0.523,-0.248L0.523,-0.171L0.42,-0.171L0.42,0L0.332,0Z" style="fill-rule:nonzero;"/>
                    </g>
                    <g transform="matrix(16,0,0,16,24.6019,356.766)">
                        <path d="M0.111,-0.516L0.213,-0.516L0.213,-0.41L0.111,-0.41L0.111,-0.516ZM0.111,-0.106L0.213,-0.106L0.213,0L0.111,0L0.111,-0.106Z" style="fill-rule:nonzero;"/>
                    </g>
                    <g transform="matrix(16,0,0,16,29.0472,356.766)">
                        <path d="M0.271,-0.699C0.361,-0.699 0.426,-0.662 0.467,-0.587C0.498,-0.53 0.514,-0.451 0.514,-0.351C0.514,-0.256 0.5,-0.177 0.471,-0.115C0.43,-0.026 0.363,0.019 0.27,0.019C0.186,0.019 0.124,-0.017 0.083,-0.09C0.048,-0.151 0.031,-0.233 0.031,-0.335C0.031,-0.415 0.042,-0.483 0.062,-0.54C0.1,-0.646 0.17,-0.699 0.271,-0.699ZM0.27,-0.061C0.315,-0.061 0.351,-0.081 0.378,-0.122C0.405,-0.162 0.419,-0.237 0.419,-0.347C0.419,-0.427 0.409,-0.492 0.39,-0.543C0.37,-0.594 0.332,-0.62 0.276,-0.62C0.224,-0.62 0.186,-0.596 0.162,-0.547C0.138,-0.498 0.126,-0.427 0.126,-0.332C0.126,-0.261 0.134,-0.203 0.149,-0.16C0.173,-0.094 0.213,-0.061 0.27,-0.061Z" style="fill-rule:nonzero;"/>
                    </g>
                    <g transform="matrix(16,0,0,16,37.9456,356.766)">
                        <path d="M0.271,-0.699C0.361,-0.699 0.426,-0.662 0.467,-0.587C0.498,-0.53 0.514,-0.451 0.514,-0.351C0.514,-0.256 0.5,-0.177 0.471,-0.115C0.43,-0.026 0.363,0.019 0.27,0.019C0.186,0.019 0.124,-0.017 0.083,-0.09C0.048,-0.151 0.031,-0.233 0.031,-0.335C0.031,-0.415 0.042,-0.483 0.062,-0.54C0.1,-0.646 0.17,-0.699 0.271,-0.699ZM0.27,-0.061C0.315,-0.061 0.351,-0.081 0.378,-0.122C0.405,-0.162 0.419,-0.237 0.419,-0.347C0.419,-0.427 0.409,-0.492 0.39,-0.543C0.37,-0.594 0.332,-0.62 0.276,-0.62C0.224,-0.62 0.186,-0.596 0.162,-0.547C0.138,-0.498 0.126,-0.427 0.126,-0.332C0.126,-0.261 0.134,-0.203 0.149,-0.16C0.173,-0.094 0.213,-0.061 0.27,-0.061Z" style="fill-rule:nonzero;"/>
                    </g>
                </g>
                <g transform="matrix(1,0,0,2.59393,182.695,-491.475)">
                    <g transform="matrix(16,0,0,16,6.80501,356.766)">
                        <path d="M0.271,-0.699C0.361,-0.699 0.426,-0.662 0.467,-0.587C0.498,-0.53 0.514,-0.451 0.514,-0.351C0.514,-0.256 0.5,-0.177 0.471,-0.115C0.43,-0.026 0.363,0.019 0.27,0.019C0.186,0.019 0.124,-0.017 0.083,-0.09C0.048,-0.151 0.031,-0.233 0.031,-0.335C0.031,-0.415 0.042,-0.483 0.062,-0.54C0.1,-0.646 0.17,-0.699 0.271,-0.699ZM0.27,-0.061C0.315,-0.061 0.351,-0.081 0.378,-0.122C0.405,-0.162 0.419,-0.237 0.419,-0.347C0.419,-0.427 0.409,-0.492 0.39,-0.543C0.37,-0.594 0.332,-0.62 0.276,-0.62C0.224,-0.62 0.186,-0.596 0.162,-0.547C0.138,-0.498 0.126,-0.427 0.126,-0.332C0.126,-0.261 0.134,-0.203 0.149,-0.16C0.173,-0.094 0.213,-0.061 0.27,-0.061Z" style="fill-rule:nonzero;"/>
                    </g>
                    <g transform="matrix(16,0,0,16,15.7034,356.766)">
                        <path d="M0.272,-0.406C0.311,-0.406 0.341,-0.417 0.363,-0.439C0.385,-0.46 0.396,-0.486 0.396,-0.516C0.396,-0.542 0.385,-0.566 0.364,-0.588C0.343,-0.61 0.312,-0.621 0.269,-0.621C0.227,-0.621 0.196,-0.61 0.177,-0.588C0.158,-0.566 0.149,-0.541 0.149,-0.511C0.149,-0.478 0.161,-0.453 0.186,-0.434C0.21,-0.416 0.239,-0.406 0.272,-0.406ZM0.277,-0.06C0.318,-0.06 0.352,-0.071 0.379,-0.093C0.406,-0.115 0.419,-0.148 0.419,-0.191C0.419,-0.237 0.405,-0.271 0.377,-0.294C0.35,-0.318 0.314,-0.33 0.271,-0.33C0.229,-0.33 0.195,-0.318 0.168,-0.294C0.142,-0.27 0.128,-0.237 0.128,-0.194C0.128,-0.158 0.141,-0.126 0.165,-0.1C0.189,-0.073 0.227,-0.06 0.277,-0.06ZM0.152,-0.373C0.128,-0.383 0.109,-0.395 0.095,-0.409C0.069,-0.435 0.057,-0.469 0.057,-0.511C0.057,-0.563 0.076,-0.608 0.113,-0.645C0.151,-0.682 0.205,-0.701 0.274,-0.701C0.341,-0.701 0.394,-0.684 0.432,-0.648C0.47,-0.613 0.489,-0.572 0.489,-0.524C0.489,-0.481 0.478,-0.445 0.456,-0.418C0.443,-0.403 0.424,-0.388 0.398,-0.374C0.427,-0.36 0.45,-0.345 0.466,-0.328C0.497,-0.295 0.513,-0.253 0.513,-0.201C0.513,-0.139 0.492,-0.087 0.451,-0.044C0.409,-0.001 0.351,0.02 0.275,0.02C0.207,0.02 0.15,0.002 0.103,-0.035C0.056,-0.072 0.032,-0.126 0.032,-0.196C0.032,-0.238 0.042,-0.273 0.063,-0.303C0.083,-0.334 0.113,-0.357 0.152,-0.373Z" style="fill-rule:nonzero;"/>
                    </g>
                    <g transform="matrix(16,0,0,16,24.6019,356.766)">
                        <path d="M0.111,-0.516L0.213,-0.516L0.213,-0.41L0.111,-0.41L0.111,-0.516ZM0.111,-0.106L0.213,-0.106L0.213,0L0.111,0L0.111,-0.106Z" style="fill-rule:nonzero;"/>
                    </g>
                    <g transform="matrix(16,0,0,16,29.0472,356.766)">
                        <path d="M0.271,-0.699C0.361,-0.699 0.426,-0.662 0.467,-0.587C0.498,-0.53 0.514,-0.451 0.514,-0.351C0.514,-0.256 0.5,-0.177 0.471,-0.115C0.43,-0.026 0.363,0.019 0.27,0.019C0.186,0.019 0.124,-0.017 0.083,-0.09C0.048,-0.151 0.031,-0.233 0.031,-0.335C0.031,-0.415 0.042,-0.483 0.062,-0.54C0.1,-0.646 0.17,-0.699 0.271,-0.699ZM0.27,-0.061C0.315,-0.061 0.351,-0.081 0.378,-0.122C0.405,-0.162 0.419,-0.237 0.419,-0.347C0.419,-0.427 0.409,-0.492 0.39,-0.543C0.37,-0.594 0.332,-0.62 0.276,-0.62C0.224,-0.62 0.186,-0.596 0.162,-0.547C0.138,-0.498 0.126,-0.427 0.126,-0.332C0.126,-0.261 0.134,-0.203 0.149,-0.16C0.173,-0.094 0.213,-0.061 0.27,-0.061Z" style="fill-rule:nonzero;"/>
                    </g>
                    <g transform="matrix(16,0,0,16,37.9456,356.766)">
                        <path d="M0.271,-0.699C0.361,-0.699 0.426,-0.662 0.467,-0.587C0.498,-0.53 0.514,-0.451 0.514,-0.351C0.514,-0.256 0.5,-0.177 0.471,-0.115C0.43,-0.026 0.363,0.019 0.27,0.019C0.186,0.019 0.124,-0.017 0.083,-0.09C0.048,-0.151 0.031,-0.233 0.031,-0.335C0.031,-0.415 0.042,-0.483 0.062,-0.54C0.1,-0.646 0.17,-0.699 0.271,-0.699ZM0.27,-0.061C0.315,-0.061 0.351,-0.081 0.378,-0.122C0.405,-0.162 0.419,-0.237 0.419,-0.347C0.419,-0.427 0.409,-0.492 0.39,-0.543C0.37,-0.594 0.332,-0.62 0.276,-0.62C0.224,-0.62 0.186,-0.596 0.162,-0.547C0.138,-0.498 0.126,-0.427 0.126,-0.332C0.126,-0.261 0.134,-0.203 0.149,-0.16C0.173,-0.094 0.213,-0.061 0.27,-0.061Z" style="fill-rule:nonzero;"/>
                    </g>
                </g>
                <g transform="matrix(1,0,0,2.59393,285.695,-491.475)">
                    <g transform="matrix(16,0,0,16,6.80501,356.766)">
                        <path d="M0.096,-0.495L0.096,-0.563C0.159,-0.569 0.203,-0.579 0.229,-0.594C0.254,-0.608 0.272,-0.642 0.285,-0.696L0.354,-0.696L0.354,0L0.26,0L0.26,-0.495L0.096,-0.495Z" style="fill-rule:nonzero;"/>
                    </g>
                    <g transform="matrix(16,0,0,16,15.7034,356.766)">
                        <path d="M0.031,0C0.035,-0.06 0.047,-0.113 0.069,-0.157C0.09,-0.202 0.132,-0.242 0.195,-0.279L0.289,-0.333C0.331,-0.357 0.361,-0.378 0.377,-0.396C0.404,-0.423 0.417,-0.453 0.417,-0.488C0.417,-0.529 0.405,-0.561 0.381,-0.585C0.356,-0.609 0.324,-0.621 0.283,-0.621C0.223,-0.621 0.181,-0.598 0.158,-0.553C0.146,-0.528 0.139,-0.494 0.138,-0.451L0.048,-0.451C0.049,-0.512 0.061,-0.562 0.082,-0.6C0.12,-0.668 0.187,-0.702 0.284,-0.702C0.364,-0.702 0.422,-0.68 0.459,-0.637C0.496,-0.593 0.515,-0.545 0.515,-0.492C0.515,-0.436 0.495,-0.388 0.456,-0.349C0.433,-0.326 0.392,-0.298 0.333,-0.265L0.266,-0.228C0.234,-0.21 0.209,-0.193 0.191,-0.177C0.158,-0.149 0.138,-0.118 0.129,-0.083L0.511,-0.083L0.511,0L0.031,0Z" style="fill-rule:nonzero;"/>
                    </g>
                    <g transform="matrix(16,0,0,16,24.6019,356.766)">
                        <path d="M0.111,-0.516L0.213,-0.516L0.213,-0.41L0.111,-0.41L0.111,-0.516ZM0.111,-0.106L0.213,-0.106L0.213,0L0.111,0L0.111,-0.106Z" style="fill-rule:nonzero;"/>
                    </g>
                    <g transform="matrix(16,0,0,16,29.0472,356.766)">
                        <path d="M0.271,-0.699C0.361,-0.699 0.426,-0.662 0.467,-0.587C0.498,-0.53 0.514,-0.451 0.514,-0.351C0.514,-0.256 0.5,-0.177 0.471,-0.115C0.43,-0.026 0.363,0.019 0.27,0.019C0.186,0.019 0.124,-0.017 0.083,-0.09C0.048,-0.151 0.031,-0.233 0.031,-0.335C0.031,-0.415 0.042,-0.483 0.062,-0.54C0.1,-0.646 0.17,-0.699 0.271,-0.699ZM0.27,-0.061C0.315,-0.061 0.351,-0.081 0.378,-0.122C0.405,-0.162 0.419,-0.237 0.419,-0.347C0.419,-0.427 0.409,-0.492 0.39,-0.543C0.37,-0.594 0.332,-0.62 0.276,-0.62C0.224,-0.62 0.186,-0.596 0.162,-0.547C0.138,-0.498 0.126,-0.427 0.126,-0.332C0.126,-0.261 0.134,-0.203 0.149,-0.16C0.173,-0.094 0.213,-0.061 0.27,-0.061Z" style="fill-rule:nonzero;"/>
                    </g>
                    <g transform="matrix(16,0,0,16,37.9456,356.766)">
                        <path d="M0.271,-0.699C0.361,-0.699 0.426,-0.662 0.467,-0.587C0.498,-0.53 0.514,-0.451 0.514,-0.351C0.514,-0.256 0.5,-0.177 0.471,-0.115C0.43,-0.026 0.363,0.019 0.27,0.019C0.186,0.019 0.124,-0.017 0.083,-0.09C0.048,-0.151 0.031,-0.233 0.031,-0.335C0.031,-0.415 0.042,-0.483 0.062,-0.54C0.1,-0.646 0.17,-0.699 0.271,-0.699ZM0.27,-0.061C0.315,-0.061 0.351,-0.081 0.378,-0.122C0.405,-0.162 0.419,-0.237 0.419,-0.347C0.419,-0.427 0.409,-0.492 0.39,-0.543C0.37,-0.594 0.332,-0.62 0.276,-0.62C0.224,-0.62 0.186,-0.596 0.162,-0.547C0.138,-0.498 0.126,-0.427 0.126,-0.332C0.126,-0.261 0.134,-0.203 0.149,-0.16C0.173,-0.094 0.213,-0.061 0.27,-0.061Z" style="fill-rule:nonzero;"/>
                    </g>
                </g>
                <g transform="matrix(1,0,0,2.59393,389.695,-491.475)">
                    <g transform="matrix(16,0,0,16,6.80501,356.766)">
                        <path d="M0.096,-0.495L0.096,-0.563C0.159,-0.569 0.203,-0.579 0.229,-0.594C0.254,-0.608 0.272,-0.642 0.285,-0.696L0.354,-0.696L0.354,0L0.26,0L0.26,-0.495L0.096,-0.495Z" style="fill-rule:nonzero;"/>
                    </g>
                    <g transform="matrix(16,0,0,16,15.7034,356.766)">
                        <path d="M0.292,-0.702C0.371,-0.702 0.425,-0.682 0.456,-0.641C0.487,-0.601 0.502,-0.559 0.502,-0.516L0.415,-0.516C0.41,-0.544 0.402,-0.565 0.39,-0.581C0.369,-0.61 0.337,-0.625 0.294,-0.625C0.245,-0.625 0.206,-0.602 0.177,-0.557C0.148,-0.511 0.132,-0.446 0.128,-0.362C0.149,-0.391 0.174,-0.414 0.205,-0.428C0.233,-0.441 0.264,-0.448 0.298,-0.448C0.357,-0.448 0.408,-0.429 0.452,-0.392C0.495,-0.354 0.517,-0.298 0.517,-0.224C0.517,-0.161 0.496,-0.104 0.455,-0.055C0.414,-0.006 0.355,0.018 0.278,0.018C0.213,0.018 0.156,-0.007 0.109,-0.056C0.061,-0.106 0.038,-0.19 0.038,-0.307C0.038,-0.394 0.048,-0.468 0.069,-0.528C0.11,-0.644 0.184,-0.702 0.292,-0.702ZM0.286,-0.06C0.332,-0.06 0.367,-0.076 0.39,-0.107C0.413,-0.138 0.424,-0.174 0.424,-0.217C0.424,-0.253 0.414,-0.287 0.394,-0.319C0.373,-0.351 0.336,-0.368 0.282,-0.368C0.244,-0.368 0.211,-0.355 0.182,-0.33C0.154,-0.305 0.14,-0.267 0.14,-0.217C0.14,-0.173 0.153,-0.135 0.178,-0.105C0.204,-0.075 0.24,-0.06 0.286,-0.06Z" style="fill-rule:nonzero;"/>
                    </g>
                    <g transform="matrix(16,0,0,16,24.6019,356.766)">
                        <path d="M0.111,-0.516L0.213,-0.516L0.213,-0.41L0.111,-0.41L0.111,-0.516ZM0.111,-0.106L0.213,-0.106L0.213,0L0.111,0L0.111,-0.106Z" style="fill-rule:nonzero;"/>
                    </g>
                    <g transform="matrix(16,0,0,16,29.0472,356.766)">
                        <path d="M0.271,-0.699C0.361,-0.699 0.426,-0.662 0.467,-0.587C0.498,-0.53 0.514,-0.451 0.514,-0.351C0.514,-0.256 0.5,-0.177 0.471,-0.115C0.43,-0.026 0.363,0.019 0.27,0.019C0.186,0.019 0.124,-0.017 0.083,-0.09C0.048,-0.151 0.031,-0.233 0.031,-0.335C0.031,-0.415 0.042,-0.483 0.062,-0.54C0.1,-0.646 0.17,-0.699 0.271,-0.699ZM0.27,-0.061C0.315,-0.061 0.351,-0.081 0.378,-0.122C0.405,-0.162 0.419,-0.237 0.419,-0.347C0.419,-0.427 0.409,-0.492 0.39,-0.543C0.37,-0.594 0.332,-0.62 0.276,-0.62C0.224,-0.62 0.186,-0.596 0.162,-0.547C0.138,-0.498 0.126,-0.427 0.126,-0.332C0.126,-0.261 0.134,-0.203 0.149,-0.16C0.173,-0.094 0.213,-0.061 0.27,-0.061Z" style="fill-rule:nonzero;"/>
                    </g>
                    <g transform="matrix(16,0,0,16,37.9456,356.766)">
                        <path d="M0.271,-0.699C0.361,-0.699 0.426,-0.662 0.467,-0.587C0.498,-0.53 0.514,-0.451 0.514,-0.351C0.514,-0.256 0.5,-0.177 0.471,-0.115C0.43,-0.026 0.363,0.019 0.27,0.019C0.186,0.019 0.124,-0.017 0.083,-0.09C0.048,-0.151 0.031,-0.233 0.031,-0.335C0.031,-0.415 0.042,-0.483 0.062,-0.54C0.1,-0.646 0.17,-0.699 0.271,-0.699ZM0.27,-0.061C0.315,-0.061 0.351,-0.081 0.378,-0.122C0.405,-0.162 0.419,-0.237 0.419,-0.347C0.419,-0.427 0.409,-0.492 0.39,-0.543C0.37,-0.594 0.332,-0.62 0.276,-0.62C0.224,-0.62 0.186,-0.596 0.162,-0.547C0.138,-0.498 0.126,-0.427 0.126,-0.332C0.126,-0.261 0.134,-0.203 0.149,-0.16C0.173,-0.094 0.213,-0.061 0.27,-0.061Z" style="fill-rule:nonzero;"/>
                    </g>
                </g>
                <g transform="matrix(1,0,0,2.59393,493.695,-491.475)">
                    <g transform="matrix(16,0,0,16,6.80501,356.766)">
                        <path d="M0.031,0C0.035,-0.06 0.047,-0.113 0.069,-0.157C0.09,-0.202 0.132,-0.242 0.195,-0.279L0.289,-0.333C0.331,-0.357 0.361,-0.378 0.377,-0.396C0.404,-0.423 0.417,-0.453 0.417,-0.488C0.417,-0.529 0.405,-0.561 0.381,-0.585C0.356,-0.609 0.324,-0.621 0.283,-0.621C0.223,-0.621 0.181,-0.598 0.158,-0.553C0.146,-0.528 0.139,-0.494 0.138,-0.451L0.048,-0.451C0.049,-0.512 0.061,-0.562 0.082,-0.6C0.12,-0.668 0.187,-0.702 0.284,-0.702C0.364,-0.702 0.422,-0.68 0.459,-0.637C0.496,-0.593 0.515,-0.545 0.515,-0.492C0.515,-0.436 0.495,-0.388 0.456,-0.349C0.433,-0.326 0.392,-0.298 0.333,-0.265L0.266,-0.228C0.234,-0.21 0.209,-0.193 0.191,-0.177C0.158,-0.149 0.138,-0.118 0.129,-0.083L0.511,-0.083L0.511,0L0.031,0Z" style="fill-rule:nonzero;"/>
                    </g>
                    <g transform="matrix(16,0,0,16,15.7034,356.766)">
                        <path d="M0.271,-0.699C0.361,-0.699 0.426,-0.662 0.467,-0.587C0.498,-0.53 0.514,-0.451 0.514,-0.351C0.514,-0.256 0.5,-0.177 0.471,-0.115C0.43,-0.026 0.363,0.019 0.27,0.019C0.186,0.019 0.124,-0.017 0.083,-0.09C0.048,-0.151 0.031,-0.233 0.031,-0.335C0.031,-0.415 0.042,-0.483 0.062,-0.54C0.1,-0.646 0.17,-0.699 0.271,-0.699ZM0.27,-0.061C0.315,-0.061 0.351,-0.081 0.378,-0.122C0.405,-0.162 0.419,-0.237 0.419,-0.347C0.419,-0.427 0.409,-0.492 0.39,-0.543C0.37,-0.594 0.332,-0.62 0.276,-0.62C0.224,-0.62 0.186,-0.596 0.162,-0.547C0.138,-0.498 0.126,-0.427 0.126,-0.332C0.126,-0.261 0.134,-0.203 0.149,-0.16C0.173,-0.094 0.213,-0.061 0.27,-0.061Z" style="fill-rule:nonzero;"/>
                    </g>
                    <g transform="matrix(16,0,0,16,24.6019,356.766)">
                        <path d="M0.111,-0.516L0.213,-0.516L0.213,-0.41L0.111,-0.41L0.111,-0.516ZM0.111,-0.106L0.213,-0.106L0.213,0L0.111,0L0.111,-0.106Z" style="fill-rule:nonzero;"/>
                    </g>
                    <g transform="matrix(16,0,0,16,29.0472,356.766)">
                        <path d="M0.271,-0.699C0.361,-0.699 0.426,-0.662 0.467,-0.587C0.498,-0.53 0.514,-0.451 0.514,-0.351C0.514,-0.256 0.5,-0.177 0.471,-0.115C0.43,-0.026 0.363,0.019 0.27,0.019C0.186,0.019 0.124,-0.017 0.083,-0.09C0.048,-0.151 0.031,-0.233 0.031,-0.335C0.031,-0.415 0.042,-0.483 0.062,-0.54C0.1,-0.646 0.17,-0.699 0.271,-0.699ZM0.27,-0.061C0.315,-0.061 0.351,-0.081 0.378,-0.122C0.405,-0.162 0.419,-0.237 0.419,-0.347C0.419,-0.427 0.409,-0.492 0.39,-0.543C0.37,-0.594 0.332,-0.62 0.276,-0.62C0.224,-0.62 0.186,-0.596 0.162,-0.547C0.138,-0.498 0.126,-0.427 0.126,-0.332C0.126,-0.261 0.134,-0.203 0.149,-0.16C0.173,-0.094 0.213,-0.061 0.27,-0.061Z" style="fill-rule:nonzero;"/>
                    </g>
                    <g transform="matrix(16,0,0,16,37.9456,356.766)">
                        <path d="M0.271,-0.699C0.361,-0.699 0.426,-0.662 0.467,-0.587C0.498,-0.53 0.514,-0.451 0.514,-0.351C0.514,-0.256 0.5,-0.177 0.471,-0.115C0.43,-0.026 0.363,0.019 0.27,0.019C0.186,0.019 0.124,-0.017 0.083,-0.09C0.048,-0.151 0.031,-0.233 0.031,-0.335C0.031,-0.415 0.042,-0.483 0.062,-0.54C0.1,-0.646 0.17,-0.699 0.271,-0.699ZM0.27,-0.061C0.315,-0.061 0.351,-0.081 0.378,-0.122C0.405,-0.162 0.419,-0.237 0.419,-0.347C0.419,-0.427 0.409,-0.492 0.39,-0.543C0.37,-0.594 0.332,-0.62 0.276,-0.62C0.224,-0.62 0.186,-0.596 0.162,-0.547C0.138,-0.498 0.126,-0.427 0.126,-0.332C0.126,-0.261 0.134,-0.203 0.149,-0.16C0.173,-0.094 0.213,-0.061 0.27,-0.061Z" style="fill-rule:nonzero;"/>
                    </g>
                </g>
                <g transform="matrix(1,0,0,2.59393,577.695,-491.475)">
                    <g transform="matrix(16,0,0,16,6.80501,356.766)">
                        <path d="M0.031,0C0.035,-0.06 0.047,-0.113 0.069,-0.157C0.09,-0.202 0.132,-0.242 0.195,-0.279L0.289,-0.333C0.331,-0.357 0.361,-0.378 0.377,-0.396C0.404,-0.423 0.417,-0.453 0.417,-0.488C0.417,-0.529 0.405,-0.561 0.381,-0.585C0.356,-0.609 0.324,-0.621 0.283,-0.621C0.223,-0.621 0.181,-0.598 0.158,-0.553C0.146,-0.528 0.139,-0.494 0.138,-0.451L0.048,-0.451C0.049,-0.512 0.061,-0.562 0.082,-0.6C0.12,-0.668 0.187,-0.702 0.284,-0.702C0.364,-0.702 0.422,-0.68 0.459,-0.637C0.496,-0.593 0.515,-0.545 0.515,-0.492C0.515,-0.436 0.495,-0.388 0.456,-0.349C0.433,-0.326 0.392,-0.298 0.333,-0.265L0.266,-0.228C0.234,-0.21 0.209,-0.193 0.191,-0.177C0.158,-0.149 0.138,-0.118 0.129,-0.083L0.511,-0.083L0.511,0L0.031,0Z" style="fill-rule:nonzero;"/>
                    </g>
                    <g transform="matrix(16,0,0,16,15.7034,356.766)">
                        <path d="M0.26,0.019C0.177,0.019 0.117,-0.004 0.08,-0.049C0.043,-0.094 0.024,-0.15 0.024,-0.215L0.116,-0.215C0.12,-0.17 0.128,-0.137 0.141,-0.116C0.164,-0.079 0.205,-0.061 0.265,-0.061C0.311,-0.061 0.348,-0.073 0.376,-0.098C0.404,-0.123 0.418,-0.155 0.418,-0.194C0.418,-0.242 0.403,-0.276 0.374,-0.295C0.344,-0.314 0.303,-0.324 0.251,-0.324C0.245,-0.324 0.239,-0.324 0.233,-0.323C0.227,-0.323 0.221,-0.323 0.215,-0.323L0.215,-0.4C0.224,-0.399 0.232,-0.399 0.238,-0.398C0.244,-0.398 0.251,-0.398 0.258,-0.398C0.291,-0.398 0.318,-0.403 0.339,-0.414C0.376,-0.432 0.395,-0.464 0.395,-0.511C0.395,-0.546 0.382,-0.573 0.357,-0.592C0.333,-0.611 0.304,-0.62 0.271,-0.62C0.212,-0.62 0.172,-0.601 0.149,-0.562C0.137,-0.54 0.13,-0.509 0.128,-0.47L0.042,-0.47C0.042,-0.522 0.052,-0.566 0.073,-0.603C0.109,-0.668 0.172,-0.7 0.262,-0.7C0.333,-0.7 0.388,-0.684 0.427,-0.653C0.466,-0.621 0.486,-0.575 0.486,-0.515C0.486,-0.472 0.474,-0.437 0.451,-0.41C0.437,-0.394 0.418,-0.381 0.396,-0.371C0.432,-0.361 0.461,-0.342 0.482,-0.313C0.502,-0.284 0.513,-0.249 0.513,-0.207C0.513,-0.14 0.491,-0.086 0.447,-0.044C0.403,-0.002 0.34,0.019 0.26,0.019Z" style="fill-rule:nonzero;"/>
                    </g>
                    <g transform="matrix(16,0,0,16,24.6019,356.766)">
                        <path d="M0.111,-0.516L0.213,-0.516L0.213,-0.41L0.111,-0.41L0.111,-0.516ZM0.111,-0.106L0.213,-0.106L0.213,0L0.111,0L0.111,-0.106Z" style="fill-rule:nonzero;"/>
                    </g>
                    <g transform="matrix(16,0,0,16,29.0472,356.766)">
                        <path d="M0.124,-0.178C0.129,-0.128 0.153,-0.093 0.193,-0.074C0.214,-0.064 0.238,-0.06 0.266,-0.06C0.318,-0.06 0.356,-0.076 0.381,-0.109C0.406,-0.143 0.419,-0.179 0.419,-0.22C0.419,-0.269 0.404,-0.306 0.374,-0.333C0.344,-0.36 0.309,-0.373 0.267,-0.373C0.237,-0.373 0.211,-0.367 0.189,-0.355C0.168,-0.344 0.149,-0.327 0.134,-0.307L0.058,-0.311L0.111,-0.688L0.474,-0.688L0.474,-0.603L0.177,-0.603L0.147,-0.408C0.163,-0.421 0.179,-0.43 0.193,-0.436C0.219,-0.447 0.25,-0.452 0.284,-0.452C0.348,-0.452 0.402,-0.431 0.447,-0.39C0.491,-0.349 0.514,-0.296 0.514,-0.233C0.514,-0.167 0.493,-0.109 0.452,-0.058C0.412,-0.008 0.346,0.018 0.257,0.018C0.2,0.018 0.149,0.002 0.106,-0.031C0.062,-0.063 0.037,-0.112 0.032,-0.178L0.124,-0.178Z" style="fill-rule:nonzero;"/>
                    </g>
                    <g transform="matrix(16,0,0,16,37.9456,356.766)">
                        <path d="M0.133,-0.169C0.135,-0.12 0.154,-0.087 0.189,-0.068C0.207,-0.059 0.227,-0.054 0.25,-0.054C0.292,-0.054 0.327,-0.071 0.357,-0.106C0.387,-0.141 0.408,-0.212 0.42,-0.319C0.4,-0.288 0.376,-0.267 0.347,-0.254C0.319,-0.242 0.288,-0.235 0.254,-0.235C0.187,-0.235 0.134,-0.256 0.094,-0.298C0.055,-0.34 0.036,-0.394 0.036,-0.46C0.036,-0.524 0.055,-0.58 0.094,-0.628C0.132,-0.676 0.19,-0.7 0.265,-0.7C0.367,-0.7 0.437,-0.654 0.476,-0.563C0.498,-0.512 0.508,-0.449 0.508,-0.373C0.508,-0.287 0.495,-0.212 0.47,-0.146C0.427,-0.035 0.355,0.02 0.253,0.02C0.185,0.02 0.133,0.002 0.097,-0.034C0.062,-0.07 0.044,-0.115 0.044,-0.169L0.133,-0.169ZM0.266,-0.313C0.301,-0.313 0.333,-0.324 0.362,-0.347C0.39,-0.37 0.405,-0.41 0.405,-0.467C0.405,-0.519 0.392,-0.557 0.366,-0.582C0.34,-0.608 0.307,-0.62 0.267,-0.62C0.224,-0.62 0.19,-0.606 0.165,-0.577C0.14,-0.548 0.127,-0.51 0.127,-0.461C0.127,-0.416 0.138,-0.38 0.16,-0.353C0.182,-0.326 0.218,-0.313 0.266,-0.313Z" style="fill-rule:nonzero;"/>
                    </g>
                </g>
                <g transform="matrix(1,0,0,0.469321,1,226.019)">
                    <path d="M0,303L0,333.269" style="fill:none;stroke:black;stroke-width:1.39px;"/>
                </g>
                <g transform="matrix(1,0,0,0.469321,625,226.019)">
                    <path d="M0,303L0,333.269" style="fill:none;stroke:black;stroke-width:1.39px;"/>
                </g>
                <g transform="matrix(1,0,0,0.469321,105,226.019)">
                    <path d="M0,303L0,333.269" style="fill:none;stroke:black;stroke-width:1.39px;"/>
                </g>
                <g transform="matrix(1,0,0,0.469321,209,226.019)">
                    <path d="M0,303L0,333.269" style="fill:none;stroke:black;stroke-width:1.39px;"/>
                </g>
                <g transform="matrix(1,0,0,0.469321,313,226.019)">
                    <path d="M0,303L0,333.269" style="fill:none;stroke:black;stroke-width:1.39px;"/>
                </g>
                <g transform="matrix(1,0,0,0.469321,417,226.019)">
                    <path d="M0,303L0,333.269" style="fill:none;stroke:black;stroke-width:1.39px;"/>
                </g>
                <g transform="matrix(1,0,0,0.469321,521,226.019)">
                    <path d="M0,303L0,333.269" style="fill:none;stroke:black;stroke-width:1.39px;"/>
                </g>
                <g transform="matrix(1,0,0,2.59393,0,-482.048)">
                    <rect x="162.312" y="303" width="315.773" height="21.318" style="fill:rgb(115,115,115);"/>
                </g>
                <g transform="matrix(0.221384,0,0,2.59393,-23.9307,-482.048)">
                    <rect x="162.312" y="303" width="315.773" height="21.318" style="fill:rgb(115,115,115);"/>
                </g>
                <g transform="matrix(1,0,0,2.59393,7,-469.959)">
                    <g transform="matrix(16,0,0,16,12.0026,375.971)">
                        <path d="M0.386,-0.737C0.512,-0.737 0.606,-0.696 0.667,-0.615C0.715,-0.551 0.738,-0.47 0.738,-0.371C0.738,-0.264 0.711,-0.175 0.657,-0.104C0.593,-0.021 0.502,0.021 0.384,0.021C0.273,0.021 0.187,-0.015 0.124,-0.088C0.067,-0.159 0.039,-0.248 0.039,-0.355C0.039,-0.452 0.063,-0.535 0.111,-0.604C0.173,-0.693 0.265,-0.737 0.386,-0.737ZM0.396,-0.066C0.481,-0.066 0.543,-0.097 0.581,-0.158C0.62,-0.219 0.639,-0.29 0.639,-0.37C0.639,-0.454 0.617,-0.522 0.573,-0.573C0.528,-0.625 0.468,-0.65 0.392,-0.65C0.317,-0.65 0.257,-0.625 0.21,-0.574C0.163,-0.523 0.14,-0.448 0.14,-0.349C0.14,-0.269 0.16,-0.202 0.2,-0.148C0.24,-0.093 0.305,-0.066 0.396,-0.066Z" style="fill:rgb(64,64,64);fill-rule:nonzero;"/>
                    </g>
                    <g transform="matrix(16,0,0,16,24.4479,375.971)">
                        <path d="M0.086,-0.603C0.088,-0.639 0.094,-0.666 0.105,-0.683C0.126,-0.713 0.166,-0.728 0.224,-0.728C0.23,-0.728 0.235,-0.727 0.241,-0.727C0.247,-0.727 0.254,-0.726 0.261,-0.726L0.261,-0.646C0.252,-0.646 0.246,-0.647 0.241,-0.647C0.237,-0.647 0.234,-0.647 0.23,-0.647C0.203,-0.647 0.187,-0.64 0.182,-0.626C0.177,-0.612 0.174,-0.577 0.174,-0.521L0.261,-0.521L0.261,-0.451L0.173,-0.451L0.173,0L0.086,0L0.086,-0.451L0.014,-0.451L0.014,-0.521L0.086,-0.521L0.086,-0.603Z" style="fill:rgb(64,64,64);fill-rule:nonzero;"/>
                    </g>
                    <g transform="matrix(16,0,0,16,28.8932,375.971)">
                        <path d="M0.086,-0.603C0.088,-0.639 0.094,-0.666 0.105,-0.683C0.126,-0.713 0.166,-0.728 0.224,-0.728C0.23,-0.728 0.235,-0.727 0.241,-0.727C0.247,-0.727 0.254,-0.726 0.261,-0.726L0.261,-0.646C0.252,-0.646 0.246,-0.647 0.241,-0.647C0.237,-0.647 0.234,-0.647 0.23,-0.647C0.203,-0.647 0.187,-0.64 0.182,-0.626C0.177,-0.612 0.174,-0.577 0.174,-0.521L0.261,-0.521L0.261,-0.451L0.173,-0.451L0.173,0L0.086,0L0.086,-0.451L0.014,-0.451L0.014,-0.521L0.086,-0.521L0.086,-0.603Z" style="fill:rgb(64,64,64);fill-rule:nonzero;"/>
                    </g>
                    <g transform="matrix(16,0,0,16,37.7838,375.971)">
                        <path d="M0.12,-0.255C0.12,-0.199 0.132,-0.153 0.156,-0.115C0.18,-0.077 0.218,-0.058 0.27,-0.058C0.311,-0.058 0.344,-0.076 0.37,-0.111C0.397,-0.146 0.41,-0.196 0.41,-0.261C0.41,-0.327 0.396,-0.376 0.369,-0.408C0.342,-0.44 0.309,-0.456 0.269,-0.456C0.225,-0.456 0.189,-0.439 0.161,-0.405C0.134,-0.371 0.12,-0.321 0.12,-0.255ZM0.252,-0.532C0.292,-0.532 0.326,-0.524 0.353,-0.507C0.369,-0.497 0.386,-0.48 0.406,-0.456L0.406,-0.72L0.491,-0.72L0.491,0L0.412,0L0.412,-0.073C0.391,-0.041 0.367,-0.017 0.339,-0.003C0.311,0.011 0.279,0.019 0.243,0.019C0.184,0.019 0.134,-0.006 0.091,-0.055C0.049,-0.104 0.027,-0.169 0.027,-0.25C0.027,-0.327 0.047,-0.393 0.086,-0.448C0.125,-0.504 0.18,-0.532 0.252,-0.532Z" style="fill:rgb(64,64,64);fill-rule:nonzero;"/>
                    </g>
                    <g transform="matrix(16,0,0,16,46.6822,375.971)">
                        <path d="M0.152,-0.523L0.152,-0.176C0.152,-0.149 0.157,-0.127 0.165,-0.11C0.181,-0.079 0.21,-0.063 0.252,-0.063C0.314,-0.063 0.355,-0.091 0.377,-0.146C0.389,-0.175 0.396,-0.215 0.396,-0.266L0.396,-0.523L0.483,-0.523L0.483,0L0.4,0L0.401,-0.077C0.39,-0.057 0.376,-0.041 0.359,-0.027C0.325,0 0.285,0.014 0.237,0.014C0.162,0.014 0.111,-0.011 0.084,-0.061C0.07,-0.087 0.063,-0.123 0.063,-0.167L0.063,-0.523L0.152,-0.523Z" style="fill:rgb(64,64,64);fill-rule:nonzero;"/>
                    </g>
                    <g transform="matrix(16,0,0,16,55.5807,375.971)">
                        <path d="M0.067,-0.523L0.15,-0.523L0.15,-0.433C0.157,-0.45 0.174,-0.472 0.201,-0.497C0.227,-0.522 0.258,-0.535 0.293,-0.535C0.295,-0.535 0.297,-0.535 0.301,-0.534C0.305,-0.534 0.312,-0.533 0.321,-0.532L0.321,-0.439C0.316,-0.44 0.311,-0.441 0.307,-0.441C0.302,-0.442 0.298,-0.442 0.292,-0.442C0.248,-0.442 0.214,-0.428 0.19,-0.399C0.167,-0.371 0.155,-0.338 0.155,-0.301L0.155,0L0.067,0L0.067,-0.523Z" style="fill:rgb(64,64,64);fill-rule:nonzero;"/>
                    </g>
                    <g transform="matrix(16,0,0,16,60.9088,375.971)">
                        <path d="M0.064,-0.521L0.154,-0.521L0.154,0L0.064,0L0.064,-0.521ZM0.064,-0.717L0.154,-0.717L0.154,-0.618L0.064,-0.618L0.064,-0.717Z" style="fill:rgb(64,64,64);fill-rule:nonzero;"/>
                    </g>
                    <g transform="matrix(16,0,0,16,64.4635,375.971)">
                        <path d="M0.064,-0.523L0.148,-0.523L0.148,-0.449C0.173,-0.479 0.199,-0.501 0.227,-0.515C0.254,-0.528 0.285,-0.535 0.319,-0.535C0.393,-0.535 0.443,-0.509 0.469,-0.457C0.484,-0.429 0.491,-0.388 0.491,-0.335L0.491,0L0.401,0L0.401,-0.33C0.401,-0.361 0.397,-0.387 0.387,-0.407C0.372,-0.439 0.343,-0.456 0.302,-0.456C0.281,-0.456 0.264,-0.453 0.251,-0.449C0.227,-0.442 0.206,-0.428 0.188,-0.406C0.173,-0.389 0.163,-0.371 0.159,-0.353C0.155,-0.334 0.152,-0.308 0.152,-0.274L0.152,0L0.064,0L0.064,-0.523Z" style="fill:rgb(64,64,64);fill-rule:nonzero;"/>
                    </g>
                    <g transform="matrix(16,0,0,16,73.3619,375.971)">
                        <path d="M0.249,-0.532C0.29,-0.532 0.326,-0.522 0.356,-0.502C0.373,-0.491 0.39,-0.474 0.407,-0.452L0.407,-0.518L0.488,-0.518L0.488,-0.042C0.488,0.024 0.479,0.076 0.459,0.115C0.423,0.186 0.354,0.221 0.252,0.221C0.196,0.221 0.149,0.209 0.11,0.183C0.072,0.158 0.05,0.119 0.046,0.065L0.135,0.065C0.139,0.088 0.148,0.106 0.161,0.119C0.181,0.139 0.212,0.148 0.254,0.148C0.322,0.148 0.366,0.125 0.387,0.077C0.399,0.049 0.405,-0.001 0.404,-0.073C0.386,-0.046 0.365,-0.026 0.34,-0.013C0.316,0 0.283,0.006 0.242,0.006C0.186,0.006 0.136,-0.014 0.094,-0.054C0.051,-0.094 0.03,-0.161 0.03,-0.253C0.03,-0.341 0.051,-0.409 0.094,-0.458C0.137,-0.508 0.188,-0.532 0.249,-0.532ZM0.407,-0.264C0.407,-0.328 0.394,-0.376 0.367,-0.408C0.34,-0.439 0.306,-0.455 0.265,-0.455C0.203,-0.455 0.161,-0.426 0.138,-0.368C0.126,-0.337 0.12,-0.296 0.12,-0.246C0.12,-0.187 0.132,-0.142 0.156,-0.112C0.18,-0.081 0.212,-0.065 0.252,-0.065C0.316,-0.065 0.36,-0.094 0.386,-0.151C0.4,-0.183 0.407,-0.221 0.407,-0.264Z" style="fill:rgb(64,64,64);fill-rule:nonzero;"/>
                    </g>
                    <g transform="matrix(16,0,0,16,86.7057,375.971)">
                        <path d="M0.282,-0.535C0.319,-0.535 0.355,-0.526 0.39,-0.509C0.425,-0.491 0.451,-0.469 0.47,-0.441C0.487,-0.415 0.499,-0.384 0.505,-0.349C0.51,-0.325 0.513,-0.286 0.513,-0.233L0.129,-0.233C0.131,-0.18 0.144,-0.138 0.167,-0.106C0.19,-0.074 0.227,-0.058 0.276,-0.058C0.322,-0.058 0.358,-0.073 0.386,-0.103C0.401,-0.121 0.412,-0.141 0.419,-0.164L0.505,-0.164C0.503,-0.145 0.496,-0.123 0.483,-0.1C0.47,-0.076 0.455,-0.057 0.439,-0.042C0.413,-0.016 0.38,0.002 0.34,0.011C0.319,0.016 0.295,0.019 0.269,0.019C0.203,0.019 0.148,-0.005 0.103,-0.052C0.058,-0.1 0.035,-0.166 0.035,-0.251C0.035,-0.335 0.058,-0.404 0.104,-0.456C0.149,-0.508 0.209,-0.535 0.282,-0.535ZM0.422,-0.303C0.419,-0.341 0.41,-0.372 0.397,-0.395C0.373,-0.437 0.333,-0.458 0.277,-0.458C0.236,-0.458 0.203,-0.443 0.175,-0.414C0.148,-0.385 0.133,-0.348 0.132,-0.303L0.422,-0.303Z" style="fill:rgb(64,64,64);fill-rule:nonzero;"/>
                    </g>
                    <g transform="matrix(16,0,0,16,95.6041,375.971)">
                        <path d="M0.064,-0.523L0.148,-0.523L0.148,-0.449C0.173,-0.479 0.199,-0.501 0.227,-0.515C0.254,-0.528 0.285,-0.535 0.319,-0.535C0.393,-0.535 0.443,-0.509 0.469,-0.457C0.484,-0.429 0.491,-0.388 0.491,-0.335L0.491,0L0.401,0L0.401,-0.33C0.401,-0.361 0.397,-0.387 0.387,-0.407C0.372,-0.439 0.343,-0.456 0.302,-0.456C0.281,-0.456 0.264,-0.453 0.251,-0.449C0.227,-0.442 0.206,-0.428 0.188,-0.406C0.173,-0.389 0.163,-0.371 0.159,-0.353C0.155,-0.334 0.152,-0.308 0.152,-0.274L0.152,0L0.064,0L0.064,-0.523Z" style="fill:rgb(64,64,64);fill-rule:nonzero;"/>
                    </g>
                    <g transform="matrix(16,0,0,16,104.503,375.971)">
                        <path d="M0.282,-0.535C0.319,-0.535 0.355,-0.526 0.39,-0.509C0.425,-0.491 0.451,-0.469 0.47,-0.441C0.487,-0.415 0.499,-0.384 0.505,-0.349C0.51,-0.325 0.513,-0.286 0.513,-0.233L0.129,-0.233C0.131,-0.18 0.144,-0.138 0.167,-0.106C0.19,-0.074 0.227,-0.058 0.276,-0.058C0.322,-0.058 0.358,-0.073 0.386,-0.103C0.401,-0.121 0.412,-0.141 0.419,-0.164L0.505,-0.164C0.503,-0.145 0.496,-0.123 0.483,-0.1C0.47,-0.076 0.455,-0.057 0.439,-0.042C0.413,-0.016 0.38,0.002 0.34,0.011C0.319,0.016 0.295,0.019 0.269,0.019C0.203,0.019 0.148,-0.005 0.103,-0.052C0.058,-0.1 0.035,-0.166 0.035,-0.251C0.035,-0.335 0.058,-0.404 0.104,-0.456C0.149,-0.508 0.209,-0.535 0.282,-0.535ZM0.422,-0.303C0.419,-0.341 0.41,-0.372 0.397,-0.395C0.373,-0.437 0.333,-0.458 0.277,-0.458C0.236,-0.458 0.203,-0.443 0.175,-0.414C0.148,-0.385 0.133,-0.348 0.132,-0.303L0.422,-0.303Z" style="fill:rgb(64,64,64);fill-rule:nonzero;"/>
                    </g>
                    <g transform="matrix(16,0,0,16,113.401,375.971)">
                        <path d="M0.067,-0.523L0.15,-0.523L0.15,-0.433C0.157,-0.45 0.174,-0.472 0.201,-0.497C0.227,-0.522 0.258,-0.535 0.293,-0.535C0.295,-0.535 0.297,-0.535 0.301,-0.534C0.305,-0.534 0.312,-0.533 0.321,-0.532L0.321,-0.439C0.316,-0.44 0.311,-0.441 0.307,-0.441C0.302,-0.442 0.298,-0.442 0.292,-0.442C0.248,-0.442 0.214,-0.428 0.19,-0.399C0.167,-0.371 0.155,-0.338 0.155,-0.301L0.155,0L0.067,0L0.067,-0.523Z" style="fill:rgb(64,64,64);fill-rule:nonzero;"/>
                    </g>
                    <g transform="matrix(16,0,0,16,118.729,375.971)">
                        <path d="M0.249,-0.532C0.29,-0.532 0.326,-0.522 0.356,-0.502C0.373,-0.491 0.39,-0.474 0.407,-0.452L0.407,-0.518L0.488,-0.518L0.488,-0.042C0.488,0.024 0.479,0.076 0.459,0.115C0.423,0.186 0.354,0.221 0.252,0.221C0.196,0.221 0.149,0.209 0.11,0.183C0.072,0.158 0.05,0.119 0.046,0.065L0.135,0.065C0.139,0.088 0.148,0.106 0.161,0.119C0.181,0.139 0.212,0.148 0.254,0.148C0.322,0.148 0.366,0.125 0.387,0.077C0.399,0.049 0.405,-0.001 0.404,-0.073C0.386,-0.046 0.365,-0.026 0.34,-0.013C0.316,0 0.283,0.006 0.242,0.006C0.186,0.006 0.136,-0.014 0.094,-0.054C0.051,-0.094 0.03,-0.161 0.03,-0.253C0.03,-0.341 0.051,-0.409 0.094,-0.458C0.137,-0.508 0.188,-0.532 0.249,-0.532ZM0.407,-0.264C0.407,-0.328 0.394,-0.376 0.367,-0.408C0.34,-0.439 0.306,-0.455 0.265,-0.455C0.203,-0.455 0.161,-0.426 0.138,-0.368C0.126,-0.337 0.12,-0.296 0.12,-0.246C0.12,-0.187 0.132,-0.142 0.156,-0.112C0.18,-0.081 0.212,-0.065 0.252,-0.065C0.316,-0.065 0.36,-0.094 0.386,-0.151C0.4,-0.183 0.407,-0.221 0.407,-0.264Z" style="fill:rgb(64,64,64);fill-rule:nonzero;"/>
                    </g>
                    <g transform="matrix(16,0,0,16,127.628,375.971)">
                        <path d="M0.391,-0.523L0.488,-0.523C0.476,-0.489 0.448,-0.413 0.406,-0.293C0.374,-0.204 0.347,-0.13 0.326,-0.074C0.275,0.06 0.239,0.141 0.218,0.17C0.197,0.2 0.162,0.214 0.111,0.214C0.098,0.214 0.089,0.214 0.082,0.213C0.076,0.212 0.067,0.21 0.058,0.208L0.058,0.127C0.073,0.132 0.084,0.134 0.091,0.135C0.098,0.136 0.104,0.137 0.109,0.137C0.125,0.137 0.137,0.134 0.145,0.129C0.152,0.123 0.159,0.117 0.164,0.109C0.166,0.106 0.172,0.093 0.182,0.069C0.192,0.045 0.199,0.027 0.204,0.015L0.01,-0.523L0.11,-0.523L0.25,-0.097L0.391,-0.523Z" style="fill:rgb(64,64,64);fill-rule:nonzero;"/>
                    </g>
                    <g transform="matrix(16,0,0,16,12.0026,391.971)">
                        <path d="M0.117,-0.164C0.119,-0.135 0.127,-0.112 0.139,-0.097C0.161,-0.068 0.199,-0.054 0.254,-0.054C0.286,-0.054 0.315,-0.061 0.34,-0.075C0.365,-0.09 0.377,-0.111 0.377,-0.141C0.377,-0.164 0.367,-0.181 0.347,-0.192C0.334,-0.2 0.309,-0.208 0.272,-0.217L0.202,-0.235C0.158,-0.246 0.125,-0.258 0.104,-0.272C0.066,-0.296 0.047,-0.329 0.047,-0.371C0.047,-0.42 0.065,-0.46 0.1,-0.491C0.136,-0.521 0.184,-0.537 0.244,-0.537C0.323,-0.537 0.38,-0.514 0.415,-0.467C0.436,-0.438 0.447,-0.406 0.446,-0.373L0.363,-0.373C0.362,-0.392 0.355,-0.41 0.342,-0.427C0.322,-0.45 0.287,-0.461 0.237,-0.461C0.204,-0.461 0.179,-0.455 0.162,-0.442C0.145,-0.43 0.136,-0.413 0.136,-0.392C0.136,-0.369 0.147,-0.351 0.17,-0.337C0.183,-0.329 0.202,-0.322 0.228,-0.316L0.286,-0.302C0.349,-0.286 0.391,-0.272 0.413,-0.257C0.447,-0.235 0.464,-0.2 0.464,-0.151C0.464,-0.105 0.446,-0.065 0.411,-0.031C0.376,0.003 0.322,0.02 0.25,0.02C0.172,0.02 0.117,0.002 0.084,-0.033C0.052,-0.068 0.035,-0.112 0.032,-0.164L0.117,-0.164Z" style="fill:rgb(64,64,64);fill-rule:nonzero;"/>
                    </g>
                    <g transform="matrix(16,0,0,16,20.0026,391.971)">
                        <path d="M0.132,-0.139C0.132,-0.114 0.141,-0.094 0.16,-0.079C0.178,-0.064 0.2,-0.057 0.226,-0.057C0.257,-0.057 0.286,-0.064 0.315,-0.079C0.364,-0.102 0.389,-0.141 0.389,-0.195L0.389,-0.266C0.378,-0.259 0.364,-0.254 0.347,-0.249C0.33,-0.244 0.314,-0.241 0.297,-0.239L0.244,-0.232C0.212,-0.228 0.188,-0.222 0.172,-0.212C0.145,-0.197 0.132,-0.173 0.132,-0.139ZM0.345,-0.317C0.365,-0.319 0.378,-0.328 0.385,-0.342C0.389,-0.35 0.391,-0.361 0.391,-0.376C0.391,-0.406 0.38,-0.428 0.359,-0.441C0.338,-0.455 0.307,-0.461 0.268,-0.461C0.222,-0.461 0.189,-0.449 0.17,-0.424C0.159,-0.411 0.152,-0.39 0.149,-0.363L0.067,-0.363C0.069,-0.428 0.089,-0.473 0.13,-0.498C0.17,-0.523 0.216,-0.536 0.27,-0.536C0.331,-0.536 0.381,-0.524 0.419,-0.5C0.458,-0.477 0.477,-0.441 0.477,-0.391L0.477,-0.09C0.477,-0.081 0.478,-0.073 0.482,-0.068C0.486,-0.062 0.494,-0.06 0.506,-0.06C0.51,-0.06 0.514,-0.06 0.519,-0.06C0.524,-0.061 0.529,-0.062 0.535,-0.063L0.535,0.002C0.521,0.006 0.511,0.009 0.503,0.01C0.496,0.011 0.486,0.011 0.474,0.011C0.444,0.011 0.422,0 0.408,-0.021C0.401,-0.032 0.396,-0.049 0.393,-0.069C0.375,-0.046 0.349,-0.026 0.316,-0.008C0.282,0.009 0.245,0.018 0.205,0.018C0.157,0.018 0.117,0.003 0.086,-0.027C0.055,-0.056 0.04,-0.093 0.04,-0.137C0.04,-0.186 0.055,-0.223 0.085,-0.25C0.116,-0.277 0.155,-0.293 0.205,-0.299L0.345,-0.317Z" style="fill:rgb(64,64,64);fill-rule:nonzero;"/>
                    </g>
                    <g transform="matrix(16,0,0,16,28.901,391.971)">
                        <path d="M0.107,-0.523L0.247,-0.097L0.393,-0.523L0.489,-0.523L0.292,0L0.198,0L0.005,-0.523L0.107,-0.523Z" style="fill:rgb(64,64,64);fill-rule:nonzero;"/>
                    </g>
                    <g transform="matrix(16,0,0,16,36.901,391.971)">
                        <path d="M0.064,-0.521L0.154,-0.521L0.154,0L0.064,0L0.064,-0.521ZM0.064,-0.717L0.154,-0.717L0.154,-0.618L0.064,-0.618L0.064,-0.717Z" style="fill:rgb(64,64,64);fill-rule:nonzero;"/>
                    </g>
                    <g transform="matrix(16,0,0,16,40.4557,391.971)">
                        <path d="M0.064,-0.523L0.148,-0.523L0.148,-0.449C0.173,-0.479 0.199,-0.501 0.227,-0.515C0.254,-0.528 0.285,-0.535 0.319,-0.535C0.393,-0.535 0.443,-0.509 0.469,-0.457C0.484,-0.429 0.491,-0.388 0.491,-0.335L0.491,0L0.401,0L0.401,-0.33C0.401,-0.361 0.397,-0.387 0.387,-0.407C0.372,-0.439 0.343,-0.456 0.302,-0.456C0.281,-0.456 0.264,-0.453 0.251,-0.449C0.227,-0.442 0.206,-0.428 0.188,-0.406C0.173,-0.389 0.163,-0.371 0.159,-0.353C0.155,-0.334 0.152,-0.308 0.152,-0.274L0.152,0L0.064,0L0.064,-0.523Z" style="fill:rgb(64,64,64);fill-rule:nonzero;"/>
                    </g>
                    <g transform="matrix(16,0,0,16,49.3541,391.971)">
                        <path d="M0.249,-0.532C0.29,-0.532 0.326,-0.522 0.356,-0.502C0.373,-0.491 0.39,-0.474 0.407,-0.452L0.407,-0.518L0.488,-0.518L0.488,-0.042C0.488,0.024 0.479,0.076 0.459,0.115C0.423,0.186 0.354,0.221 0.252,0.221C0.196,0.221 0.149,0.209 0.11,0.183C0.072,0.158 0.05,0.119 0.046,0.065L0.135,0.065C0.139,0.088 0.148,0.106 0.161,0.119C0.181,0.139 0.212,0.148 0.254,0.148C0.322,0.148 0.366,0.125 0.387,0.077C0.399,0.049 0.405,-0.001 0.404,-0.073C0.386,-0.046 0.365,-0.026 0.34,-0.013C0.316,0 0.283,0.006 0.242,0.006C0.186,0.006 0.136,-0.014 0.094,-0.054C0.051,-0.094 0.03,-0.161 0.03,-0.253C0.03,-0.341 0.051,-0.409 0.094,-0.458C0.137,-0.508 0.188,-0.532 0.249,-0.532ZM0.407,-0.264C0.407,-0.328 0.394,-0.376 0.367,-0.408C0.34,-0.439 0.306,-0.455 0.265,-0.455C0.203,-0.455 0.161,-0.426 0.138,-0.368C0.126,-0.337 0.12,-0.296 0.12,-0.246C0.12,-0.187 0.132,-0.142 0.156,-0.112C0.18,-0.081 0.212,-0.065 0.252,-0.065C0.316,-0.065 0.36,-0.094 0.386,-0.151C0.4,-0.183 0.407,-0.221 0.407,-0.264Z" style="fill:rgb(64,64,64);fill-rule:nonzero;"/>
                    </g>
                    <g transform="matrix(16,0,0,16,62.6979,391.971)">
                        <path d="M0.285,-0.059C0.326,-0.059 0.36,-0.076 0.387,-0.111C0.415,-0.145 0.428,-0.196 0.428,-0.265C0.428,-0.306 0.422,-0.342 0.41,-0.372C0.387,-0.43 0.346,-0.458 0.285,-0.458C0.224,-0.458 0.183,-0.428 0.16,-0.367C0.148,-0.335 0.142,-0.293 0.142,-0.243C0.142,-0.203 0.148,-0.168 0.16,-0.14C0.183,-0.086 0.225,-0.059 0.285,-0.059ZM0.058,-0.521L0.143,-0.521L0.143,-0.451C0.161,-0.475 0.18,-0.493 0.201,-0.506C0.23,-0.526 0.265,-0.536 0.305,-0.536C0.364,-0.536 0.415,-0.513 0.456,-0.468C0.497,-0.422 0.518,-0.357 0.518,-0.273C0.518,-0.159 0.488,-0.078 0.429,-0.029C0.391,0.002 0.347,0.018 0.297,0.018C0.257,0.018 0.224,0.009 0.198,-0.008C0.182,-0.018 0.165,-0.035 0.146,-0.059L0.146,0.208L0.058,0.208L0.058,-0.521Z" style="fill:rgb(64,64,64);fill-rule:nonzero;"/>
                    </g>
                    <g transform="matrix(16,0,0,16,71.5963,391.971)">
                        <path d="M0.282,-0.535C0.319,-0.535 0.355,-0.526 0.39,-0.509C0.425,-0.491 0.451,-0.469 0.47,-0.441C0.487,-0.415 0.499,-0.384 0.505,-0.349C0.51,-0.325 0.513,-0.286 0.513,-0.233L0.129,-0.233C0.131,-0.18 0.144,-0.138 0.167,-0.106C0.19,-0.074 0.227,-0.058 0.276,-0.058C0.322,-0.058 0.358,-0.073 0.386,-0.103C0.401,-0.121 0.412,-0.141 0.419,-0.164L0.505,-0.164C0.503,-0.145 0.496,-0.123 0.483,-0.1C0.47,-0.076 0.455,-0.057 0.439,-0.042C0.413,-0.016 0.38,0.002 0.34,0.011C0.319,0.016 0.295,0.019 0.269,0.019C0.203,0.019 0.148,-0.005 0.103,-0.052C0.058,-0.1 0.035,-0.166 0.035,-0.251C0.035,-0.335 0.058,-0.404 0.104,-0.456C0.149,-0.508 0.209,-0.535 0.282,-0.535ZM0.422,-0.303C0.419,-0.341 0.41,-0.372 0.397,-0.395C0.373,-0.437 0.333,-0.458 0.277,-0.458C0.236,-0.458 0.203,-0.443 0.175,-0.414C0.148,-0.385 0.133,-0.348 0.132,-0.303L0.422,-0.303Z" style="fill:rgb(64,64,64);fill-rule:nonzero;"/>
                    </g>
                    <g transform="matrix(16,0,0,16,80.4947,391.971)">
                        <path d="M0.067,-0.523L0.15,-0.523L0.15,-0.433C0.157,-0.45 0.174,-0.472 0.201,-0.497C0.227,-0.522 0.258,-0.535 0.293,-0.535C0.295,-0.535 0.297,-0.535 0.301,-0.534C0.305,-0.534 0.312,-0.533 0.321,-0.532L0.321,-0.439C0.316,-0.44 0.311,-0.441 0.307,-0.441C0.302,-0.442 0.298,-0.442 0.292,-0.442C0.248,-0.442 0.214,-0.428 0.19,-0.399C0.167,-0.371 0.155,-0.338 0.155,-0.301L0.155,0L0.067,0L0.067,-0.523Z" style="fill:rgb(64,64,64);fill-rule:nonzero;"/>
                    </g>
                    <g transform="matrix(16,0,0,16,85.8229,391.971)">
                        <path d="M0.064,-0.521L0.154,-0.521L0.154,0L0.064,0L0.064,-0.521ZM0.064,-0.717L0.154,-0.717L0.154,-0.618L0.064,-0.618L0.064,-0.717Z" style="fill:rgb(64,64,64);fill-rule:nonzero;"/>
                    </g>
                    <g transform="matrix(16,0,0,16,89.3776,391.971)">
                        <path d="M0.272,-0.057C0.33,-0.057 0.37,-0.079 0.392,-0.123C0.413,-0.167 0.424,-0.216 0.424,-0.27C0.424,-0.319 0.417,-0.359 0.401,-0.389C0.376,-0.437 0.333,-0.461 0.273,-0.461C0.219,-0.461 0.18,-0.441 0.156,-0.4C0.131,-0.359 0.119,-0.309 0.119,-0.251C0.119,-0.196 0.131,-0.149 0.156,-0.112C0.18,-0.075 0.219,-0.057 0.272,-0.057ZM0.275,-0.538C0.343,-0.538 0.4,-0.516 0.446,-0.471C0.493,-0.426 0.516,-0.36 0.516,-0.272C0.516,-0.188 0.496,-0.118 0.455,-0.063C0.414,-0.008 0.35,0.019 0.264,0.019C0.192,0.019 0.135,-0.005 0.092,-0.054C0.05,-0.103 0.029,-0.168 0.029,-0.25C0.029,-0.338 0.051,-0.408 0.096,-0.46C0.14,-0.512 0.2,-0.538 0.275,-0.538Z" style="fill:rgb(64,64,64);fill-rule:nonzero;"/>
                    </g>
                    <g transform="matrix(16,0,0,16,98.276,391.971)">
                        <path d="M0.12,-0.255C0.12,-0.199 0.132,-0.153 0.156,-0.115C0.18,-0.077 0.218,-0.058 0.27,-0.058C0.311,-0.058 0.344,-0.076 0.37,-0.111C0.397,-0.146 0.41,-0.196 0.41,-0.261C0.41,-0.327 0.396,-0.376 0.369,-0.408C0.342,-0.44 0.309,-0.456 0.269,-0.456C0.225,-0.456 0.189,-0.439 0.161,-0.405C0.134,-0.371 0.12,-0.321 0.12,-0.255ZM0.252,-0.532C0.292,-0.532 0.326,-0.524 0.353,-0.507C0.369,-0.497 0.386,-0.48 0.406,-0.456L0.406,-0.72L0.491,-0.72L0.491,0L0.412,0L0.412,-0.073C0.391,-0.041 0.367,-0.017 0.339,-0.003C0.311,0.011 0.279,0.019 0.243,0.019C0.184,0.019 0.134,-0.006 0.091,-0.055C0.049,-0.104 0.027,-0.169 0.027,-0.25C0.027,-0.327 0.047,-0.393 0.086,-0.448C0.125,-0.504 0.18,-0.532 0.252,-0.532Z" style="fill:rgb(64,64,64);fill-rule:nonzero;"/>
                    </g>
                </g>
                <g transform="matrix(1,0,0,2.59393,0,-482.048)">
                    <path d="M12.003,359.748L12.003,399.531" style="fill:none;stroke:rgb(64,64,64);stroke-width:1px;"/>
                </g>
                <g transform="matrix(1,0,0,2.59393,158,-428.756)">
                    <g transform="matrix(16,0,0,16,12.0026,375.971)">
                        <path d="M0.386,-0.737C0.512,-0.737 0.606,-0.696 0.667,-0.615C0.715,-0.551 0.738,-0.47 0.738,-0.371C0.738,-0.264 0.711,-0.175 0.657,-0.104C0.593,-0.021 0.502,0.021 0.384,0.021C0.273,0.021 0.187,-0.015 0.124,-0.088C0.067,-0.159 0.039,-0.248 0.039,-0.355C0.039,-0.452 0.063,-0.535 0.111,-0.604C0.173,-0.693 0.265,-0.737 0.386,-0.737ZM0.396,-0.066C0.481,-0.066 0.543,-0.097 0.581,-0.158C0.62,-0.219 0.639,-0.29 0.639,-0.37C0.639,-0.454 0.617,-0.522 0.573,-0.573C0.528,-0.625 0.468,-0.65 0.392,-0.65C0.317,-0.65 0.257,-0.625 0.21,-0.574C0.163,-0.523 0.14,-0.448 0.14,-0.349C0.14,-0.269 0.16,-0.202 0.2,-0.148C0.24,-0.093 0.305,-0.066 0.396,-0.066Z" style="fill:rgb(64,64,64);fill-rule:nonzero;"/>
                    </g>
                    <g transform="matrix(16,0,0,16,24.4479,375.971)">
                        <path d="M0.086,-0.603C0.088,-0.639 0.094,-0.666 0.105,-0.683C0.126,-0.713 0.166,-0.728 0.224,-0.728C0.23,-0.728 0.235,-0.727 0.241,-0.727C0.247,-0.727 0.254,-0.726 0.261,-0.726L0.261,-0.646C0.252,-0.646 0.246,-0.647 0.241,-0.647C0.237,-0.647 0.234,-0.647 0.23,-0.647C0.203,-0.647 0.187,-0.64 0.182,-0.626C0.177,-0.612 0.174,-0.577 0.174,-0.521L0.261,-0.521L0.261,-0.451L0.173,-0.451L0.173,0L0.086,0L0.086,-0.451L0.014,-0.451L0.014,-0.521L0.086,-0.521L0.086,-0.603Z" style="fill:rgb(64,64,64);fill-rule:nonzero;"/>
                    </g>
                    <g transform="matrix(16,0,0,16,28.8932,375.971)">
                        <path d="M0.086,-0.603C0.088,-0.639 0.094,-0.666 0.105,-0.683C0.126,-0.713 0.166,-0.728 0.224,-0.728C0.23,-0.728 0.235,-0.727 0.241,-0.727C0.247,-0.727 0.254,-0.726 0.261,-0.726L0.261,-0.646C0.252,-0.646 0.246,-0.647 0.241,-0.647C0.237,-0.647 0.234,-0.647 0.23,-0.647C0.203,-0.647 0.187,-0.64 0.182,-0.626C0.177,-0.612 0.174,-0.577 0.174,-0.521L0.261,-0.521L0.261,-0.451L0.173,-0.451L0.173,0L0.086,0L0.086,-0.451L0.014,-0.451L0.014,-0.521L0.086,-0.521L0.086,-0.603Z" style="fill:rgb(64,64,64);fill-rule:nonzero;"/>
                    </g>
                    <g transform="matrix(16,0,0,16,37.7838,375.971)">
                        <path d="M0.12,-0.255C0.12,-0.199 0.132,-0.153 0.156,-0.115C0.18,-0.077 0.218,-0.058 0.27,-0.058C0.311,-0.058 0.344,-0.076 0.37,-0.111C0.397,-0.146 0.41,-0.196 0.41,-0.261C0.41,-0.327 0.396,-0.376 0.369,-0.408C0.342,-0.44 0.309,-0.456 0.269,-0.456C0.225,-0.456 0.189,-0.439 0.161,-0.405C0.134,-0.371 0.12,-0.321 0.12,-0.255ZM0.252,-0.532C0.292,-0.532 0.326,-0.524 0.353,-0.507C0.369,-0.497 0.386,-0.48 0.406,-0.456L0.406,-0.72L0.491,-0.72L0.491,0L0.412,0L0.412,-0.073C0.391,-0.041 0.367,-0.017 0.339,-0.003C0.311,0.011 0.279,0.019 0.243,0.019C0.184,0.019 0.134,-0.006 0.091,-0.055C0.049,-0.104 0.027,-0.169 0.027,-0.25C0.027,-0.327 0.047,-0.393 0.086,-0.448C0.125,-0.504 0.18,-0.532 0.252,-0.532Z" style="fill:rgb(64,64,64);fill-rule:nonzero;"/>
                    </g>
                    <g transform="matrix(16,0,0,16,46.6822,375.971)">
                        <path d="M0.152,-0.523L0.152,-0.176C0.152,-0.149 0.157,-0.127 0.165,-0.11C0.181,-0.079 0.21,-0.063 0.252,-0.063C0.314,-0.063 0.355,-0.091 0.377,-0.146C0.389,-0.175 0.396,-0.215 0.396,-0.266L0.396,-0.523L0.483,-0.523L0.483,0L0.4,0L0.401,-0.077C0.39,-0.057 0.376,-0.041 0.359,-0.027C0.325,0 0.285,0.014 0.237,0.014C0.162,0.014 0.111,-0.011 0.084,-0.061C0.07,-0.087 0.063,-0.123 0.063,-0.167L0.063,-0.523L0.152,-0.523Z" style="fill:rgb(64,64,64);fill-rule:nonzero;"/>
                    </g>
                    <g transform="matrix(16,0,0,16,55.5807,375.971)">
                        <path d="M0.067,-0.523L0.15,-0.523L0.15,-0.433C0.157,-0.45 0.174,-0.472 0.201,-0.497C0.227,-0.522 0.258,-0.535 0.293,-0.535C0.295,-0.535 0.297,-0.535 0.301,-0.534C0.305,-0.534 0.312,-0.533 0.321,-0.532L0.321,-0.439C0.316,-0.44 0.311,-0.441 0.307,-0.441C0.302,-0.442 0.298,-0.442 0.292,-0.442C0.248,-0.442 0.214,-0.428 0.19,-0.399C0.167,-0.371 0.155,-0.338 0.155,-0.301L0.155,0L0.067,0L0.067,-0.523Z" style="fill:rgb(64,64,64);fill-rule:nonzero;"/>
                    </g>
                    <g transform="matrix(16,0,0,16,60.9088,375.971)">
                        <path d="M0.064,-0.521L0.154,-0.521L0.154,0L0.064,0L0.064,-0.521ZM0.064,-0.717L0.154,-0.717L0.154,-0.618L0.064,-0.618L0.064,-0.717Z" style="fill:rgb(64,64,64);fill-rule:nonzero;"/>
                    </g>
                    <g transform="matrix(16,0,0,16,64.4635,375.971)">
                        <path d="M0.064,-0.523L0.148,-0.523L0.148,-0.449C0.173,-0.479 0.199,-0.501 0.227,-0.515C0.254,-0.528 0.285,-0.535 0.319,-0.535C0.393,-0.535 0.443,-0.509 0.469,-0.457C0.484,-0.429 0.491,-0.388 0.491,-0.335L0.491,0L0.401,0L0.401,-0.33C0.401,-0.361 0.397,-0.387 0.387,-0.407C0.372,-0.439 0.343,-0.456 0.302,-0.456C0.281,-0.456 0.264,-0.453 0.251,-0.449C0.227,-0.442 0.206,-0.428 0.188,-0.406C0.173,-0.389 0.163,-0.371 0.159,-0.353C0.155,-0.334 0.152,-0.308 0.152,-0.274L0.152,0L0.064,0L0.064,-0.523Z" style="fill:rgb(64,64,64);fill-rule:nonzero;"/>
                    </g>
                    <g transform="matrix(16,0,0,16,73.3619,375.971)">
                        <path d="M0.249,-0.532C0.29,-0.532 0.326,-0.522 0.356,-0.502C0.373,-0.491 0.39,-0.474 0.407,-0.452L0.407,-0.518L0.488,-0.518L0.488,-0.042C0.488,0.024 0.479,0.076 0.459,0.115C0.423,0.186 0.354,0.221 0.252,0.221C0.196,0.221 0.149,0.209 0.11,0.183C0.072,0.158 0.05,0.119 0.046,0.065L0.135,0.065C0.139,0.088 0.148,0.106 0.161,0.119C0.181,0.139 0.212,0.148 0.254,0.148C0.322,0.148 0.366,0.125 0.387,0.077C0.399,0.049 0.405,-0.001 0.404,-0.073C0.386,-0.046 0.365,-0.026 0.34,-0.013C0.316,0 0.283,0.006 0.242,0.006C0.186,0.006 0.136,-0.014 0.094,-0.054C0.051,-0.094 0.03,-0.161 0.03,-0.253C0.03,-0.341 0.051,-0.409 0.094,-0.458C0.137,-0.508 0.188,-0.532 0.249,-0.532ZM0.407,-0.264C0.407,-0.328 0.394,-0.376 0.367,-0.408C0.34,-0.439 0.306,-0.455 0.265,-0.455C0.203,-0.455 0.161,-0.426 0.138,-0.368C0.126,-0.337 0.12,-0.296 0.12,-0.246C0.12,-0.187 0.132,-0.142 0.156,-0.112C0.18,-0.081 0.212,-0.065 0.252,-0.065C0.316,-0.065 0.36,-0.094 0.386,-0.151C0.4,-0.183 0.407,-0.221 0.407,-0.264Z" style="fill:rgb(64,64,64);fill-rule:nonzero;"/>
                    </g>
                    <g transform="matrix(16,0,0,16,86.7057,375.971)">
                        <path d="M0.12,-0.255C0.12,-0.199 0.132,-0.153 0.156,-0.115C0.18,-0.077 0.218,-0.058 0.27,-0.058C0.311,-0.058 0.344,-0.076 0.37,-0.111C0.397,-0.146 0.41,-0.196 0.41,-0.261C0.41,-0.327 0.396,-0.376 0.369,-0.408C0.342,-0.44 0.309,-0.456 0.269,-0.456C0.225,-0.456 0.189,-0.439 0.161,-0.405C0.134,-0.371 0.12,-0.321 0.12,-0.255ZM0.252,-0.532C0.292,-0.532 0.326,-0.524 0.353,-0.507C0.369,-0.497 0.386,-0.48 0.406,-0.456L0.406,-0.72L0.491,-0.72L0.491,0L0.412,0L0.412,-0.073C0.391,-0.041 0.367,-0.017 0.339,-0.003C0.311,0.011 0.279,0.019 0.243,0.019C0.184,0.019 0.134,-0.006 0.091,-0.055C0.049,-0.104 0.027,-0.169 0.027,-0.25C0.027,-0.327 0.047,-0.393 0.086,-0.448C0.125,-0.504 0.18,-0.532 0.252,-0.532Z" style="fill:rgb(64,64,64);fill-rule:nonzero;"/>
                    </g>
                    <g transform="matrix(16,0,0,16,95.6041,375.971)">
                        <path d="M0.132,-0.139C0.132,-0.114 0.141,-0.094 0.16,-0.079C0.178,-0.064 0.2,-0.057 0.226,-0.057C0.257,-0.057 0.286,-0.064 0.315,-0.079C0.364,-0.102 0.389,-0.141 0.389,-0.195L0.389,-0.266C0.378,-0.259 0.364,-0.254 0.347,-0.249C0.33,-0.244 0.314,-0.241 0.297,-0.239L0.244,-0.232C0.212,-0.228 0.188,-0.222 0.172,-0.212C0.145,-0.197 0.132,-0.173 0.132,-0.139ZM0.345,-0.317C0.365,-0.319 0.378,-0.328 0.385,-0.342C0.389,-0.35 0.391,-0.361 0.391,-0.376C0.391,-0.406 0.38,-0.428 0.359,-0.441C0.338,-0.455 0.307,-0.461 0.268,-0.461C0.222,-0.461 0.189,-0.449 0.17,-0.424C0.159,-0.411 0.152,-0.39 0.149,-0.363L0.067,-0.363C0.069,-0.428 0.089,-0.473 0.13,-0.498C0.17,-0.523 0.216,-0.536 0.27,-0.536C0.331,-0.536 0.381,-0.524 0.419,-0.5C0.458,-0.477 0.477,-0.441 0.477,-0.391L0.477,-0.09C0.477,-0.081 0.478,-0.073 0.482,-0.068C0.486,-0.062 0.494,-0.06 0.506,-0.06C0.51,-0.06 0.514,-0.06 0.519,-0.06C0.524,-0.061 0.529,-0.062 0.535,-0.063L0.535,0.002C0.521,0.006 0.511,0.009 0.503,0.01C0.496,0.011 0.486,0.011 0.474,0.011C0.444,0.011 0.422,0 0.408,-0.021C0.401,-0.032 0.396,-0.049 0.393,-0.069C0.375,-0.046 0.349,-0.026 0.316,-0.008C0.282,0.009 0.245,0.018 0.205,0.018C0.157,0.018 0.117,0.003 0.086,-0.027C0.055,-0.056 0.04,-0.093 0.04,-0.137C0.04,-0.186 0.055,-0.223 0.085,-0.25C0.116,-0.277 0.155,-0.293 0.205,-0.299L0.345,-0.317Z" style="fill:rgb(64,64,64);fill-rule:nonzero;"/>
                    </g>
                    <g transform="matrix(16,0,0,16,104.503,375.971)">
                        <path d="M0.391,-0.523L0.488,-0.523C0.476,-0.489 0.448,-0.413 0.406,-0.293C0.374,-0.204 0.347,-0.13 0.326,-0.074C0.275,0.06 0.239,0.141 0.218,0.17C0.197,0.2 0.162,0.214 0.111,0.214C0.098,0.214 0.089,0.214 0.082,0.213C0.076,0.212 0.067,0.21 0.058,0.208L0.058,0.127C0.073,0.132 0.084,0.134 0.091,0.135C0.098,0.136 0.104,0.137 0.109,0.137C0.125,0.137 0.137,0.134 0.145,0.129C0.152,0.123 0.159,0.117 0.164,0.109C0.166,0.106 0.172,0.093 0.182,0.069C0.192,0.045 0.199,0.027 0.204,0.015L0.01,-0.523L0.11,-0.523L0.25,-0.097L0.391,-0.523Z" style="fill:rgb(64,64,64);fill-rule:nonzero;"/>
                    </g>
                    <g transform="matrix(16,0,0,16,112.503,375.971)">
                        <rect x="0.067" y="-0.717" width="0.088" height="0.717" style="fill:rgb(64,64,64);fill-rule:nonzero;"/>
                    </g>
                    <g transform="matrix(16,0,0,16,116.057,375.971)">
                        <path d="M0.064,-0.521L0.154,-0.521L0.154,0L0.064,0L0.064,-0.521ZM0.064,-0.717L0.154,-0.717L0.154,-0.618L0.064,-0.618L0.064,-0.717Z" style="fill:rgb(64,64,64);fill-rule:nonzero;"/>
                    </g>
                    <g transform="matrix(16,0,0,16,119.612,375.971)">
                        <path d="M0.249,-0.532C0.29,-0.532 0.326,-0.522 0.356,-0.502C0.373,-0.491 0.39,-0.474 0.407,-0.452L0.407,-0.518L0.488,-0.518L0.488,-0.042C0.488,0.024 0.479,0.076 0.459,0.115C0.423,0.186 0.354,0.221 0.252,0.221C0.196,0.221 0.149,0.209 0.11,0.183C0.072,0.158 0.05,0.119 0.046,0.065L0.135,0.065C0.139,0.088 0.148,0.106 0.161,0.119C0.181,0.139 0.212,0.148 0.254,0.148C0.322,0.148 0.366,0.125 0.387,0.077C0.399,0.049 0.405,-0.001 0.404,-0.073C0.386,-0.046 0.365,-0.026 0.34,-0.013C0.316,0 0.283,0.006 0.242,0.006C0.186,0.006 0.136,-0.014 0.094,-0.054C0.051,-0.094 0.03,-0.161 0.03,-0.253C0.03,-0.341 0.051,-0.409 0.094,-0.458C0.137,-0.508 0.188,-0.532 0.249,-0.532ZM0.407,-0.264C0.407,-0.328 0.394,-0.376 0.367,-0.408C0.34,-0.439 0.306,-0.455 0.265,-0.455C0.203,-0.455 0.161,-0.426 0.138,-0.368C0.126,-0.337 0.12,-0.296 0.12,-0.246C0.12,-0.187 0.132,-0.142 0.156,-0.112C0.18,-0.081 0.212,-0.065 0.252,-0.065C0.316,-0.065 0.36,-0.094 0.386,-0.151C0.4,-0.183 0.407,-0.221 0.407,-0.264Z" style="fill:rgb(64,64,64);fill-rule:nonzero;"/>
                    </g>
                    <g transform="matrix(16,0,0,16,128.51,375.971)">
                        <path d="M0.064,-0.72L0.152,-0.72L0.152,-0.452C0.173,-0.479 0.192,-0.497 0.208,-0.508C0.237,-0.526 0.272,-0.536 0.314,-0.536C0.39,-0.536 0.442,-0.509 0.469,-0.456C0.483,-0.427 0.491,-0.387 0.491,-0.335L0.491,0L0.4,0L0.4,-0.33C0.4,-0.368 0.396,-0.396 0.386,-0.414C0.37,-0.443 0.34,-0.457 0.296,-0.457C0.259,-0.457 0.226,-0.444 0.197,-0.419C0.167,-0.394 0.152,-0.347 0.152,-0.277L0.152,0L0.064,0L0.064,-0.72Z" style="fill:rgb(64,64,64);fill-rule:nonzero;"/>
                    </g>
                    <g transform="matrix(16,0,0,16,137.409,375.971)">
                        <path d="M0.082,-0.669L0.171,-0.669L0.171,-0.523L0.254,-0.523L0.254,-0.451L0.171,-0.451L0.171,-0.11C0.171,-0.092 0.177,-0.079 0.189,-0.073C0.196,-0.07 0.208,-0.068 0.224,-0.068C0.228,-0.068 0.232,-0.068 0.237,-0.068C0.242,-0.068 0.248,-0.069 0.254,-0.069L0.254,0C0.244,0.003 0.234,0.005 0.223,0.006C0.212,0.008 0.2,0.008 0.188,0.008C0.146,0.008 0.119,-0.002 0.104,-0.023C0.089,-0.044 0.082,-0.071 0.082,-0.105L0.082,-0.451L0.011,-0.451L0.011,-0.523L0.082,-0.523L0.082,-0.669Z" style="fill:rgb(64,64,64);fill-rule:nonzero;"/>
                    </g>
                </g>
                <g transform="matrix(1,0,0,2.59393,151,-482.048)">
                    <path d="M12.003,359.748L12.003,399.531" style="fill:none;stroke:rgb(64,64,64);stroke-width:1px;"/>
                </g>
            </g>
        </g>
    </g>
</svg>
